G75*
G70*
%OFA0B0*%
%FSLAX24Y24*%
%IPPOS*%
%LPD*%
%AMOC8*
5,1,8,0,0,1.08239X$1,22.5*
%
%ADD10C,0.0060*%
%ADD11C,0.0080*%
%ADD12C,0.0010*%
%ADD13C,0.0100*%
%ADD14C,0.0050*%
%ADD15C,0.0020*%
%ADD16C,0.0120*%
D10*
X010011Y006826D02*
X010118Y006719D01*
X010545Y006719D01*
X010651Y006826D01*
X010651Y007040D01*
X010545Y007146D01*
X010118Y007146D01*
X010011Y007040D01*
X010011Y006826D01*
X010224Y007364D02*
X010224Y007684D01*
X010331Y007791D01*
X010545Y007791D01*
X010651Y007684D01*
X010651Y007364D01*
X010865Y007364D02*
X010224Y007364D01*
X010331Y008008D02*
X010224Y008115D01*
X010224Y008329D01*
X010331Y008435D01*
X010438Y008435D01*
X010438Y008008D01*
X010545Y008008D02*
X010331Y008008D01*
X010545Y008008D02*
X010651Y008115D01*
X010651Y008329D01*
X010651Y008653D02*
X010224Y008653D01*
X010224Y008973D01*
X010331Y009080D01*
X010651Y009080D01*
X010651Y009942D02*
X010224Y009942D01*
X010011Y010155D01*
X010224Y010369D01*
X010651Y010369D01*
X010545Y010586D02*
X010651Y010693D01*
X010651Y011013D01*
X010545Y011231D02*
X010651Y011338D01*
X010651Y011658D01*
X010545Y011876D02*
X010331Y011876D01*
X010224Y011982D01*
X010224Y012196D01*
X010331Y012303D01*
X010438Y012303D01*
X010438Y011876D01*
X010545Y011876D02*
X010651Y011982D01*
X010651Y012196D01*
X010651Y012520D02*
X010651Y012840D01*
X010545Y012947D01*
X010438Y012840D01*
X010438Y012627D01*
X010331Y012520D01*
X010224Y012627D01*
X010224Y012947D01*
X010331Y013165D02*
X010224Y013271D01*
X010224Y013592D01*
X010438Y013485D02*
X010438Y013271D01*
X010331Y013165D01*
X010651Y013165D02*
X010651Y013485D01*
X010545Y013592D01*
X010438Y013485D01*
X010651Y014454D02*
X010651Y014667D01*
X010651Y014560D02*
X010011Y014560D01*
X010011Y014454D02*
X010011Y014667D01*
X010224Y014883D02*
X010224Y015204D01*
X010331Y015310D01*
X010651Y015310D01*
X010545Y015635D02*
X010118Y015635D01*
X010224Y015741D02*
X010224Y015528D01*
X010545Y015635D02*
X010651Y015741D01*
X010545Y015958D02*
X010331Y015958D01*
X010224Y016064D01*
X010224Y016278D01*
X010331Y016385D01*
X010438Y016385D01*
X010438Y015958D01*
X010545Y015958D02*
X010651Y016064D01*
X010651Y016278D01*
X010651Y016602D02*
X010224Y016602D01*
X010224Y016816D02*
X010224Y016922D01*
X010224Y016816D02*
X010438Y016602D01*
X010651Y017139D02*
X010651Y017353D01*
X010651Y017246D02*
X010011Y017246D01*
X010011Y017139D01*
X010331Y017569D02*
X010545Y017569D01*
X010651Y017676D01*
X010651Y017889D01*
X010545Y017996D01*
X010331Y017996D01*
X010224Y017889D01*
X010224Y017676D01*
X010331Y017569D01*
X010331Y018213D02*
X010545Y018213D01*
X010651Y018320D01*
X010651Y018640D01*
X010651Y018858D02*
X010011Y018858D01*
X010224Y018640D02*
X010224Y018320D01*
X010331Y018213D01*
X010438Y018858D02*
X010224Y019178D01*
X010438Y018858D02*
X010651Y019178D01*
X010224Y020039D02*
X010651Y020253D01*
X010224Y020466D01*
X010224Y020684D02*
X010011Y020898D01*
X010651Y020898D01*
X010651Y021111D02*
X010651Y020684D01*
X011511Y021111D02*
X012151Y020684D01*
X012151Y020466D02*
X011831Y020466D01*
X011724Y020360D01*
X011831Y020253D01*
X012151Y020253D01*
X012151Y020039D02*
X011724Y020039D01*
X011724Y020146D01*
X011831Y020253D01*
X011831Y019822D02*
X011724Y019715D01*
X011724Y019502D01*
X011831Y019395D01*
X012045Y019395D01*
X012151Y019502D01*
X012151Y019715D01*
X012045Y019822D01*
X011831Y019822D01*
X011724Y019177D02*
X011724Y018857D01*
X011831Y018750D01*
X012045Y018750D01*
X012151Y018857D01*
X012151Y019177D01*
X012151Y018535D02*
X012151Y018428D01*
X012045Y018428D01*
X012045Y018535D01*
X012151Y018535D01*
X012151Y018211D02*
X011831Y018211D01*
X011724Y018104D01*
X011724Y017784D01*
X012151Y017784D01*
X012045Y017566D02*
X011831Y017566D01*
X011724Y017459D01*
X011724Y017246D01*
X011831Y017139D01*
X012045Y017139D01*
X012151Y017246D01*
X012151Y017459D01*
X012045Y017566D01*
X012151Y016922D02*
X011831Y016922D01*
X011724Y016815D01*
X011724Y016601D01*
X011831Y016495D01*
X011831Y016277D02*
X012045Y016277D01*
X012151Y016170D01*
X012151Y015850D01*
X012365Y015850D02*
X011724Y015850D01*
X011724Y016170D01*
X011831Y016277D01*
X011511Y016495D02*
X012151Y016495D01*
X012151Y015633D02*
X012151Y015312D01*
X012045Y015206D01*
X011724Y015206D01*
X011724Y014988D02*
X012151Y014561D01*
X012151Y014988D01*
X011724Y014988D02*
X011724Y014561D01*
X012365Y015419D02*
X012365Y015526D01*
X012258Y015633D01*
X011724Y015633D01*
X010651Y014883D02*
X010224Y014883D01*
X011724Y013269D02*
X012258Y013269D01*
X012365Y013163D01*
X012365Y013056D01*
X012151Y012949D02*
X012151Y013269D01*
X012365Y013487D02*
X012151Y013700D01*
X012151Y013594D01*
X012045Y013594D01*
X012045Y013700D01*
X012151Y013700D01*
X012151Y012949D02*
X012045Y012842D01*
X011724Y012842D01*
X011831Y012625D02*
X011938Y012625D01*
X011938Y012198D01*
X012045Y012198D02*
X011831Y012198D01*
X011724Y012304D01*
X011724Y012518D01*
X011831Y012625D01*
X012151Y012518D02*
X012151Y012304D01*
X012045Y012198D01*
X012151Y011982D02*
X012151Y011768D01*
X012151Y011875D02*
X011511Y011875D01*
X011511Y011768D01*
X011511Y011551D02*
X012151Y011551D01*
X012151Y011230D01*
X012045Y011124D01*
X011831Y011124D01*
X011724Y011230D01*
X011724Y011551D01*
X011831Y010906D02*
X012151Y010906D01*
X012151Y010586D01*
X012045Y010479D01*
X011938Y010586D01*
X011938Y010906D01*
X011831Y010906D02*
X011724Y010799D01*
X011724Y010586D01*
X011724Y010262D02*
X011724Y010155D01*
X011938Y009942D01*
X012151Y009942D02*
X011724Y009942D01*
X011724Y009724D02*
X011831Y009618D01*
X011831Y009297D01*
X011511Y009297D02*
X011511Y009618D01*
X011618Y009724D01*
X011724Y009724D01*
X011831Y009618D02*
X011938Y009724D01*
X012045Y009724D01*
X012151Y009618D01*
X012151Y009297D01*
X011511Y009297D01*
X011511Y008330D02*
X012151Y008330D01*
X012151Y008223D02*
X012151Y008437D01*
X012151Y008007D02*
X012151Y007794D01*
X012151Y007900D02*
X011511Y007900D01*
X011511Y007794D01*
X011511Y007471D02*
X011404Y007471D01*
X011724Y007471D02*
X011724Y007364D01*
X011724Y007471D02*
X012151Y007471D01*
X012151Y007577D02*
X012151Y007364D01*
X012151Y007146D02*
X011511Y007146D01*
X011511Y006719D02*
X012151Y006719D01*
X011938Y006933D01*
X012151Y007146D01*
X011511Y008223D02*
X011511Y008330D01*
X010331Y009942D02*
X010331Y010369D01*
X010331Y010586D02*
X010545Y010586D01*
X010331Y010586D02*
X010224Y010693D01*
X010224Y011013D01*
X010331Y011231D02*
X010545Y011231D01*
X010331Y011231D02*
X010224Y011338D01*
X010224Y011658D01*
X015518Y004883D02*
X015745Y004656D01*
X015801Y004713D01*
X015801Y004826D01*
X015745Y004883D01*
X015518Y004883D01*
X015461Y004826D01*
X015461Y004713D01*
X015518Y004656D01*
X015745Y004656D01*
X015801Y004514D02*
X015801Y004288D01*
X015575Y004514D01*
X015518Y004514D01*
X015461Y004458D01*
X015461Y004344D01*
X015518Y004288D01*
X015518Y004146D02*
X015461Y004089D01*
X015461Y003976D01*
X015518Y003919D01*
X015518Y004146D02*
X015575Y004146D01*
X015801Y003919D01*
X015801Y004146D01*
X022411Y007069D02*
X022638Y007296D01*
X022638Y007353D01*
X022582Y007410D01*
X022468Y007410D01*
X022411Y007353D01*
X022411Y007069D02*
X022638Y007069D01*
X022780Y007069D02*
X023007Y007296D01*
X023007Y007353D01*
X022950Y007410D01*
X022836Y007410D01*
X022780Y007353D01*
X022780Y007069D02*
X023007Y007069D01*
X023148Y007126D02*
X023205Y007069D01*
X023318Y007069D01*
X023375Y007126D01*
X023375Y007353D01*
X023148Y007126D01*
X023148Y007353D01*
X023205Y007410D01*
X023318Y007410D01*
X023375Y007353D01*
X026681Y003189D02*
X026683Y003252D01*
X026689Y003314D01*
X026699Y003376D01*
X026712Y003438D01*
X026730Y003498D01*
X026751Y003557D01*
X026776Y003615D01*
X026805Y003671D01*
X026837Y003725D01*
X026872Y003777D01*
X026910Y003826D01*
X026952Y003874D01*
X026996Y003918D01*
X027044Y003960D01*
X027093Y003998D01*
X027145Y004033D01*
X027199Y004065D01*
X027255Y004094D01*
X027313Y004119D01*
X027372Y004140D01*
X027432Y004158D01*
X027494Y004171D01*
X027556Y004181D01*
X027618Y004187D01*
X027681Y004189D01*
X027744Y004187D01*
X027806Y004181D01*
X027868Y004171D01*
X027930Y004158D01*
X027990Y004140D01*
X028049Y004119D01*
X028107Y004094D01*
X028163Y004065D01*
X028217Y004033D01*
X028269Y003998D01*
X028318Y003960D01*
X028366Y003918D01*
X028410Y003874D01*
X028452Y003826D01*
X028490Y003777D01*
X028525Y003725D01*
X028557Y003671D01*
X028586Y003615D01*
X028611Y003557D01*
X028632Y003498D01*
X028650Y003438D01*
X028663Y003376D01*
X028673Y003314D01*
X028679Y003252D01*
X028681Y003189D01*
X028679Y003126D01*
X028673Y003064D01*
X028663Y003002D01*
X028650Y002940D01*
X028632Y002880D01*
X028611Y002821D01*
X028586Y002763D01*
X028557Y002707D01*
X028525Y002653D01*
X028490Y002601D01*
X028452Y002552D01*
X028410Y002504D01*
X028366Y002460D01*
X028318Y002418D01*
X028269Y002380D01*
X028217Y002345D01*
X028163Y002313D01*
X028107Y002284D01*
X028049Y002259D01*
X027990Y002238D01*
X027930Y002220D01*
X027868Y002207D01*
X027806Y002197D01*
X027744Y002191D01*
X027681Y002189D01*
X027618Y002191D01*
X027556Y002197D01*
X027494Y002207D01*
X027432Y002220D01*
X027372Y002238D01*
X027313Y002259D01*
X027255Y002284D01*
X027199Y002313D01*
X027145Y002345D01*
X027093Y002380D01*
X027044Y002418D01*
X026996Y002460D01*
X026952Y002504D01*
X026910Y002552D01*
X026872Y002601D01*
X026837Y002653D01*
X026805Y002707D01*
X026776Y002763D01*
X026751Y002821D01*
X026730Y002880D01*
X026712Y002940D01*
X026699Y003002D01*
X026689Y003064D01*
X026683Y003126D01*
X026681Y003189D01*
X012045Y021329D02*
X011831Y021329D01*
X011724Y021435D01*
X011724Y021649D01*
X011831Y021756D01*
X012045Y021756D01*
X012151Y021649D01*
X012151Y021435D01*
X012045Y021329D01*
X012045Y021973D02*
X011938Y022080D01*
X011938Y022400D01*
X011831Y022400D02*
X012151Y022400D01*
X012151Y022080D01*
X012045Y021973D01*
X011724Y022080D02*
X011724Y022293D01*
X011831Y022400D01*
X011831Y022618D02*
X012045Y022618D01*
X012151Y022724D01*
X012151Y023045D01*
X012151Y023262D02*
X012151Y023476D01*
X012151Y023369D02*
X011724Y023369D01*
X011724Y023262D01*
X011724Y023045D02*
X011724Y022724D01*
X011831Y022618D01*
X011511Y023369D02*
X011404Y023369D01*
X013681Y023539D02*
X013681Y024289D01*
X013720Y024291D01*
X013759Y024297D01*
X013797Y024306D01*
X013834Y024319D01*
X013870Y024336D01*
X013903Y024356D01*
X013935Y024380D01*
X013964Y024406D01*
X013990Y024435D01*
X014014Y024467D01*
X014034Y024500D01*
X014051Y024536D01*
X014064Y024573D01*
X014073Y024611D01*
X014079Y024650D01*
X014081Y024689D01*
X014079Y024728D01*
X014073Y024767D01*
X014064Y024805D01*
X014051Y024842D01*
X014034Y024878D01*
X014014Y024911D01*
X013990Y024943D01*
X013964Y024972D01*
X013935Y024998D01*
X013903Y025022D01*
X013870Y025042D01*
X013834Y025059D01*
X013797Y025072D01*
X013759Y025081D01*
X013720Y025087D01*
X013681Y025089D01*
X013681Y025839D01*
X021681Y025839D01*
X021681Y023539D01*
X013681Y023539D01*
X014431Y031689D02*
X014931Y031689D01*
X015181Y031939D01*
X015431Y031689D01*
X015931Y031689D01*
X016181Y031939D01*
X016431Y031689D01*
X016931Y031689D01*
X017181Y031939D01*
X017431Y031689D01*
X017931Y031689D01*
X018181Y031939D01*
X018431Y031689D01*
X018931Y031689D01*
X019181Y031939D01*
X019431Y031689D01*
X019931Y031689D01*
X020181Y031939D01*
X020431Y031689D01*
X020931Y031689D01*
X021181Y031939D01*
X021181Y033439D01*
X020931Y033689D01*
X020431Y033689D01*
X020181Y033439D01*
X019931Y033689D01*
X019431Y033689D01*
X019181Y033439D01*
X018931Y033689D01*
X018431Y033689D01*
X018181Y033439D01*
X017931Y033689D01*
X017431Y033689D01*
X017181Y033439D01*
X016931Y033689D01*
X016431Y033689D01*
X016181Y033439D01*
X015931Y033689D01*
X015431Y033689D01*
X015181Y033439D01*
X014931Y033689D01*
X014431Y033689D01*
X014181Y033439D01*
X014181Y031939D01*
X014431Y031689D01*
X006531Y031439D02*
X006531Y031189D01*
X006531Y030439D01*
X006381Y030589D02*
X006381Y031189D01*
X006531Y031189D01*
X006531Y031439D02*
X006431Y031539D01*
X005781Y031539D01*
X005281Y031539D02*
X003931Y031539D01*
X003831Y031439D01*
X003831Y028939D01*
X003931Y028839D01*
X005281Y028839D01*
X005781Y028839D02*
X006431Y028839D01*
X006531Y028939D01*
X006531Y029189D01*
X006531Y029939D01*
X006381Y029789D02*
X006381Y029189D01*
X006531Y029189D01*
X005781Y030039D02*
X005481Y030039D01*
X005481Y030339D01*
X005331Y030339D01*
X005181Y030489D01*
X005181Y030789D01*
X004881Y030789D01*
X004881Y030489D01*
X004731Y030339D01*
X004581Y030339D01*
X004281Y030339D01*
X004281Y030039D01*
X004581Y030039D01*
X004731Y030039D01*
X004881Y029889D01*
X004881Y029589D01*
X005181Y029589D01*
X005181Y029889D01*
X005331Y030039D01*
X005481Y030039D01*
X005481Y030339D02*
X005781Y030339D01*
X005781Y030039D01*
X004581Y030039D02*
X004581Y030339D01*
X023411Y028853D02*
X023468Y028910D01*
X023582Y028910D01*
X023638Y028853D01*
X023638Y028796D01*
X023411Y028569D01*
X023638Y028569D01*
X023780Y028569D02*
X024007Y028796D01*
X024007Y028853D01*
X023950Y028910D01*
X023836Y028910D01*
X023780Y028853D01*
X023780Y028569D02*
X024007Y028569D01*
X024148Y028626D02*
X024375Y028853D01*
X024375Y028626D01*
X024318Y028569D01*
X024205Y028569D01*
X024148Y028626D01*
X024148Y028853D01*
X024205Y028910D01*
X024318Y028910D01*
X024375Y028853D01*
X026681Y031189D02*
X026683Y031252D01*
X026689Y031314D01*
X026699Y031376D01*
X026712Y031438D01*
X026730Y031498D01*
X026751Y031557D01*
X026776Y031615D01*
X026805Y031671D01*
X026837Y031725D01*
X026872Y031777D01*
X026910Y031826D01*
X026952Y031874D01*
X026996Y031918D01*
X027044Y031960D01*
X027093Y031998D01*
X027145Y032033D01*
X027199Y032065D01*
X027255Y032094D01*
X027313Y032119D01*
X027372Y032140D01*
X027432Y032158D01*
X027494Y032171D01*
X027556Y032181D01*
X027618Y032187D01*
X027681Y032189D01*
X027744Y032187D01*
X027806Y032181D01*
X027868Y032171D01*
X027930Y032158D01*
X027990Y032140D01*
X028049Y032119D01*
X028107Y032094D01*
X028163Y032065D01*
X028217Y032033D01*
X028269Y031998D01*
X028318Y031960D01*
X028366Y031918D01*
X028410Y031874D01*
X028452Y031826D01*
X028490Y031777D01*
X028525Y031725D01*
X028557Y031671D01*
X028586Y031615D01*
X028611Y031557D01*
X028632Y031498D01*
X028650Y031438D01*
X028663Y031376D01*
X028673Y031314D01*
X028679Y031252D01*
X028681Y031189D01*
X028679Y031126D01*
X028673Y031064D01*
X028663Y031002D01*
X028650Y030940D01*
X028632Y030880D01*
X028611Y030821D01*
X028586Y030763D01*
X028557Y030707D01*
X028525Y030653D01*
X028490Y030601D01*
X028452Y030552D01*
X028410Y030504D01*
X028366Y030460D01*
X028318Y030418D01*
X028269Y030380D01*
X028217Y030345D01*
X028163Y030313D01*
X028107Y030284D01*
X028049Y030259D01*
X027990Y030238D01*
X027930Y030220D01*
X027868Y030207D01*
X027806Y030197D01*
X027744Y030191D01*
X027681Y030189D01*
X027618Y030191D01*
X027556Y030197D01*
X027494Y030207D01*
X027432Y030220D01*
X027372Y030238D01*
X027313Y030259D01*
X027255Y030284D01*
X027199Y030313D01*
X027145Y030345D01*
X027093Y030380D01*
X027044Y030418D01*
X026996Y030460D01*
X026952Y030504D01*
X026910Y030552D01*
X026872Y030601D01*
X026837Y030653D01*
X026805Y030707D01*
X026776Y030763D01*
X026751Y030821D01*
X026730Y030880D01*
X026712Y030940D01*
X026699Y031002D01*
X026689Y031064D01*
X026683Y031126D01*
X026681Y031189D01*
D11*
X000764Y006878D02*
X000764Y004122D01*
X001079Y004122D01*
X001079Y006878D01*
X003520Y006878D01*
X003520Y004122D01*
X001079Y004122D01*
X001079Y006878D02*
X000764Y006878D01*
X000764Y020122D02*
X000764Y022878D01*
X001079Y022878D01*
X001079Y020122D01*
X000764Y020122D01*
X001079Y020122D02*
X003520Y020122D01*
X003520Y022878D01*
X001079Y022878D01*
X001079Y025122D02*
X000764Y025122D01*
X000764Y027878D01*
X001079Y027878D01*
X001079Y025122D01*
X003520Y025122D01*
X003520Y027878D01*
X001079Y027878D01*
X015381Y005689D02*
X015681Y005689D01*
X015681Y005789D01*
X015681Y005689D02*
X015981Y005689D01*
X015981Y003689D01*
X015681Y003689D01*
X015381Y003689D01*
X015381Y005689D01*
X015681Y003689D02*
X015681Y003589D01*
X015825Y001689D02*
X015325Y001689D01*
X015075Y001439D01*
X015075Y000939D01*
X015325Y000689D01*
X015825Y000689D01*
X016075Y000939D01*
X016325Y000689D01*
X016825Y000689D01*
X017075Y000939D01*
X017325Y000689D01*
X017825Y000689D01*
X018075Y000939D01*
X018325Y000689D01*
X018825Y000689D01*
X019075Y000939D01*
X019325Y000689D01*
X019825Y000689D01*
X020075Y000939D01*
X020075Y001439D01*
X019825Y001689D01*
X019325Y001689D01*
X019075Y001439D01*
X018825Y001689D01*
X018325Y001689D01*
X018075Y001439D01*
X017825Y001689D01*
X017325Y001689D01*
X017075Y001439D01*
X016825Y001689D01*
X016325Y001689D01*
X016075Y001439D01*
X015825Y001689D01*
X022181Y006889D02*
X022181Y007189D01*
X022081Y007189D01*
X022181Y007189D02*
X022181Y007489D01*
X024181Y007489D01*
X024181Y007189D01*
X024281Y007189D01*
X024181Y007189D02*
X024181Y006889D01*
X022181Y006889D01*
X026481Y007339D02*
X026481Y009039D01*
X027289Y009389D02*
X028081Y009389D01*
X028881Y009039D02*
X028881Y007339D01*
X028081Y006989D02*
X027277Y006989D01*
X026981Y008189D02*
X026983Y008241D01*
X026989Y008293D01*
X026999Y008345D01*
X027012Y008395D01*
X027029Y008445D01*
X027050Y008493D01*
X027075Y008539D01*
X027103Y008583D01*
X027134Y008625D01*
X027168Y008665D01*
X027205Y008702D01*
X027245Y008736D01*
X027287Y008767D01*
X027331Y008795D01*
X027377Y008820D01*
X027425Y008841D01*
X027475Y008858D01*
X027525Y008871D01*
X027577Y008881D01*
X027629Y008887D01*
X027681Y008889D01*
X027733Y008887D01*
X027785Y008881D01*
X027837Y008871D01*
X027887Y008858D01*
X027937Y008841D01*
X027985Y008820D01*
X028031Y008795D01*
X028075Y008767D01*
X028117Y008736D01*
X028157Y008702D01*
X028194Y008665D01*
X028228Y008625D01*
X028259Y008583D01*
X028287Y008539D01*
X028312Y008493D01*
X028333Y008445D01*
X028350Y008395D01*
X028363Y008345D01*
X028373Y008293D01*
X028379Y008241D01*
X028381Y008189D01*
X028379Y008137D01*
X028373Y008085D01*
X028363Y008033D01*
X028350Y007983D01*
X028333Y007933D01*
X028312Y007885D01*
X028287Y007839D01*
X028259Y007795D01*
X028228Y007753D01*
X028194Y007713D01*
X028157Y007676D01*
X028117Y007642D01*
X028075Y007611D01*
X028031Y007583D01*
X027985Y007558D01*
X027937Y007537D01*
X027887Y007520D01*
X027837Y007507D01*
X027785Y007497D01*
X027733Y007491D01*
X027681Y007489D01*
X027629Y007491D01*
X027577Y007497D01*
X027525Y007507D01*
X027475Y007520D01*
X027425Y007537D01*
X027377Y007558D01*
X027331Y007583D01*
X027287Y007611D01*
X027245Y007642D01*
X027205Y007676D01*
X027168Y007713D01*
X027134Y007753D01*
X027103Y007795D01*
X027075Y007839D01*
X027050Y007885D01*
X027029Y007933D01*
X027012Y007983D01*
X026999Y008033D01*
X026989Y008085D01*
X026983Y008137D01*
X026981Y008189D01*
X026931Y004189D02*
X028431Y004189D01*
X028081Y024989D02*
X027277Y024989D01*
X026481Y025339D02*
X026481Y027039D01*
X027289Y027389D02*
X028081Y027389D01*
X028881Y027039D02*
X028881Y025339D01*
X026981Y026189D02*
X026983Y026241D01*
X026989Y026293D01*
X026999Y026345D01*
X027012Y026395D01*
X027029Y026445D01*
X027050Y026493D01*
X027075Y026539D01*
X027103Y026583D01*
X027134Y026625D01*
X027168Y026665D01*
X027205Y026702D01*
X027245Y026736D01*
X027287Y026767D01*
X027331Y026795D01*
X027377Y026820D01*
X027425Y026841D01*
X027475Y026858D01*
X027525Y026871D01*
X027577Y026881D01*
X027629Y026887D01*
X027681Y026889D01*
X027733Y026887D01*
X027785Y026881D01*
X027837Y026871D01*
X027887Y026858D01*
X027937Y026841D01*
X027985Y026820D01*
X028031Y026795D01*
X028075Y026767D01*
X028117Y026736D01*
X028157Y026702D01*
X028194Y026665D01*
X028228Y026625D01*
X028259Y026583D01*
X028287Y026539D01*
X028312Y026493D01*
X028333Y026445D01*
X028350Y026395D01*
X028363Y026345D01*
X028373Y026293D01*
X028379Y026241D01*
X028381Y026189D01*
X028379Y026137D01*
X028373Y026085D01*
X028363Y026033D01*
X028350Y025983D01*
X028333Y025933D01*
X028312Y025885D01*
X028287Y025839D01*
X028259Y025795D01*
X028228Y025753D01*
X028194Y025713D01*
X028157Y025676D01*
X028117Y025642D01*
X028075Y025611D01*
X028031Y025583D01*
X027985Y025558D01*
X027937Y025537D01*
X027887Y025520D01*
X027837Y025507D01*
X027785Y025497D01*
X027733Y025491D01*
X027681Y025489D01*
X027629Y025491D01*
X027577Y025497D01*
X027525Y025507D01*
X027475Y025520D01*
X027425Y025537D01*
X027377Y025558D01*
X027331Y025583D01*
X027287Y025611D01*
X027245Y025642D01*
X027205Y025676D01*
X027168Y025713D01*
X027134Y025753D01*
X027103Y025795D01*
X027075Y025839D01*
X027050Y025885D01*
X027029Y025933D01*
X027012Y025983D01*
X026999Y026033D01*
X026989Y026085D01*
X026983Y026137D01*
X026981Y026189D01*
X025181Y028389D02*
X023181Y028389D01*
X023181Y028689D01*
X023081Y028689D01*
X023181Y028689D02*
X023181Y028989D01*
X025181Y028989D01*
X025181Y028689D01*
X025281Y028689D01*
X025181Y028689D02*
X025181Y028389D01*
X026931Y030189D02*
X028431Y030189D01*
D12*
X023434Y029319D02*
X023434Y029294D01*
X023409Y029269D01*
X023434Y029244D01*
X023434Y029219D01*
X023409Y029194D01*
X023359Y029194D01*
X023334Y029219D01*
X023286Y029194D02*
X023236Y029244D01*
X023261Y029244D02*
X023186Y029244D01*
X023186Y029194D02*
X023186Y029344D01*
X023261Y029344D01*
X023286Y029319D01*
X023286Y029269D01*
X023261Y029244D01*
X023334Y029319D02*
X023359Y029344D01*
X023409Y029344D01*
X023434Y029319D01*
X023409Y029269D02*
X023384Y029269D01*
X022409Y007844D02*
X022359Y007844D01*
X022334Y007819D01*
X022286Y007819D02*
X022286Y007769D01*
X022261Y007744D01*
X022186Y007744D01*
X022186Y007694D02*
X022186Y007844D01*
X022261Y007844D01*
X022286Y007819D01*
X022236Y007744D02*
X022286Y007694D01*
X022334Y007694D02*
X022434Y007794D01*
X022434Y007819D01*
X022409Y007844D01*
X022434Y007694D02*
X022334Y007694D01*
X015176Y003942D02*
X015176Y003842D01*
X015176Y003794D02*
X015126Y003744D01*
X015126Y003769D02*
X015126Y003694D01*
X015176Y003694D02*
X015026Y003694D01*
X015026Y003769D01*
X015051Y003794D01*
X015101Y003794D01*
X015126Y003769D01*
X015076Y003842D02*
X015026Y003892D01*
X015176Y003892D01*
X003336Y005958D02*
X003186Y005958D01*
X003186Y006033D01*
X003211Y006058D01*
X003261Y006058D01*
X003286Y006033D01*
X003286Y005958D01*
X003286Y006008D02*
X003336Y006058D01*
X003336Y006105D02*
X003336Y006205D01*
X003336Y006252D02*
X003336Y006352D01*
X003336Y006400D02*
X003236Y006400D01*
X003186Y006450D01*
X003236Y006500D01*
X003336Y006500D01*
X003261Y006500D02*
X003261Y006400D01*
X003211Y006547D02*
X003261Y006597D01*
X003336Y006597D01*
X003261Y006597D02*
X003211Y006647D01*
X003186Y006647D01*
X003186Y006547D02*
X003211Y006547D01*
X003186Y006252D02*
X003336Y006252D01*
X003261Y006155D02*
X003261Y006105D01*
X003186Y006105D02*
X003336Y006105D01*
X003186Y006105D02*
X003186Y006205D01*
X002836Y006180D02*
X002811Y006205D01*
X002836Y006180D02*
X002836Y006130D01*
X002811Y006105D01*
X002711Y006105D01*
X002686Y006130D01*
X002686Y006180D01*
X002711Y006205D01*
X002686Y006252D02*
X002686Y006327D01*
X002711Y006352D01*
X002761Y006352D01*
X002786Y006327D01*
X002786Y006252D01*
X002786Y006302D02*
X002836Y006352D01*
X002836Y006400D02*
X002686Y006400D01*
X002686Y006500D01*
X002686Y006547D02*
X002836Y006547D01*
X002786Y006597D01*
X002836Y006647D01*
X002686Y006647D01*
X002836Y006500D02*
X002836Y006400D01*
X002761Y006400D02*
X002761Y006450D01*
X002836Y006252D02*
X002686Y006252D01*
X002711Y006058D02*
X002686Y006033D01*
X002686Y005983D01*
X002711Y005958D01*
X002736Y005958D01*
X002761Y005983D01*
X002761Y006033D01*
X002786Y006058D01*
X002811Y006058D01*
X002836Y006033D01*
X002836Y005983D01*
X002811Y005958D01*
X003186Y021516D02*
X003186Y021591D01*
X003211Y021616D01*
X003261Y021616D01*
X003286Y021591D01*
X003286Y021516D01*
X003286Y021566D02*
X003336Y021616D01*
X003336Y021663D02*
X003336Y021738D01*
X003311Y021763D01*
X003211Y021763D01*
X003186Y021738D01*
X003186Y021663D01*
X003336Y021663D01*
X003336Y021516D02*
X003186Y021516D01*
X003186Y021810D02*
X003186Y021885D01*
X003211Y021910D01*
X003261Y021910D01*
X003286Y021885D01*
X003286Y021810D01*
X003286Y021860D02*
X003336Y021910D01*
X003361Y021958D02*
X003361Y022058D01*
X003336Y022105D02*
X003336Y022180D01*
X003311Y022205D01*
X003211Y022205D01*
X003186Y022180D01*
X003186Y022105D01*
X003336Y022105D01*
X003336Y022252D02*
X003236Y022252D01*
X003186Y022302D01*
X003236Y022352D01*
X003336Y022352D01*
X003261Y022352D02*
X003261Y022252D01*
X003186Y022400D02*
X003186Y022500D01*
X003186Y022450D02*
X003336Y022450D01*
X003336Y022547D02*
X003236Y022547D01*
X003186Y022597D01*
X003236Y022647D01*
X003336Y022647D01*
X003261Y022647D02*
X003261Y022547D01*
X002836Y022547D02*
X002786Y022597D01*
X002836Y022647D01*
X002686Y022647D01*
X002686Y022547D02*
X002836Y022547D01*
X002836Y022500D02*
X002836Y022400D01*
X002686Y022400D01*
X002686Y022500D01*
X002761Y022450D02*
X002761Y022400D01*
X002761Y022352D02*
X002786Y022327D01*
X002786Y022252D01*
X002786Y022302D02*
X002836Y022352D01*
X002761Y022352D02*
X002711Y022352D01*
X002686Y022327D01*
X002686Y022252D01*
X002836Y022252D01*
X002811Y022205D02*
X002836Y022180D01*
X002836Y022130D01*
X002811Y022105D01*
X002711Y022105D01*
X002686Y022130D01*
X002686Y022180D01*
X002711Y022205D01*
X002711Y022058D02*
X002686Y022033D01*
X002686Y021983D01*
X002711Y021958D01*
X002736Y021958D01*
X002761Y021983D01*
X002761Y022033D01*
X002786Y022058D01*
X002811Y022058D01*
X002836Y022033D01*
X002836Y021983D01*
X002811Y021958D01*
X003186Y021810D02*
X003336Y021810D01*
X003336Y026663D02*
X003186Y026663D01*
X003186Y026738D01*
X003211Y026763D01*
X003261Y026763D01*
X003286Y026738D01*
X003286Y026663D01*
X003286Y026713D02*
X003336Y026763D01*
X003336Y026810D02*
X003336Y026885D01*
X003311Y026910D01*
X003211Y026910D01*
X003186Y026885D01*
X003186Y026810D01*
X003336Y026810D01*
X003336Y026958D02*
X003186Y026958D01*
X003186Y027033D01*
X003211Y027058D01*
X003261Y027058D01*
X003286Y027033D01*
X003286Y026958D01*
X003286Y027008D02*
X003336Y027058D01*
X003361Y027105D02*
X003361Y027205D01*
X003336Y027252D02*
X003186Y027252D01*
X003186Y027327D01*
X003211Y027352D01*
X003261Y027352D01*
X003286Y027327D01*
X003286Y027252D01*
X003336Y027400D02*
X003286Y027450D01*
X003336Y027500D01*
X003186Y027500D01*
X003186Y027547D02*
X003186Y027622D01*
X003211Y027647D01*
X003261Y027647D01*
X003286Y027622D01*
X003286Y027547D01*
X003286Y027597D02*
X003336Y027647D01*
X003336Y027547D02*
X003186Y027547D01*
X003186Y027400D02*
X003336Y027400D01*
X002836Y027400D02*
X002836Y027500D01*
X002836Y027547D02*
X002786Y027597D01*
X002836Y027647D01*
X002686Y027647D01*
X002686Y027547D02*
X002836Y027547D01*
X002761Y027450D02*
X002761Y027400D01*
X002761Y027352D02*
X002786Y027327D01*
X002786Y027252D01*
X002786Y027302D02*
X002836Y027352D01*
X002836Y027400D02*
X002686Y027400D01*
X002686Y027500D01*
X002711Y027352D02*
X002761Y027352D01*
X002711Y027352D02*
X002686Y027327D01*
X002686Y027252D01*
X002836Y027252D01*
X002811Y027205D02*
X002836Y027180D01*
X002836Y027130D01*
X002811Y027105D01*
X002711Y027105D01*
X002686Y027130D01*
X002686Y027180D01*
X002711Y027205D01*
X002711Y027058D02*
X002686Y027033D01*
X002686Y026983D01*
X002711Y026958D01*
X002736Y026958D01*
X002761Y026983D01*
X002761Y027033D01*
X002786Y027058D01*
X002811Y027058D01*
X002836Y027033D01*
X002836Y026983D01*
X002811Y026958D01*
D13*
X026931Y030189D02*
X026877Y030232D01*
X026825Y030278D01*
X026776Y030327D01*
X026729Y030379D01*
X026686Y030433D01*
X026645Y030489D01*
X026608Y030548D01*
X026574Y030608D01*
X026544Y030671D01*
X026517Y030734D01*
X026493Y030800D01*
X026473Y030866D01*
X026457Y030934D01*
X026445Y031002D01*
X026437Y031071D01*
X026432Y031140D01*
X026431Y031210D01*
X026434Y031279D01*
X026441Y031348D01*
X026452Y031416D01*
X026466Y031484D01*
X026485Y031551D01*
X026507Y031617D01*
X026532Y031682D01*
X026561Y031745D01*
X026594Y031806D01*
X026630Y031865D01*
X026669Y031922D01*
X026711Y031978D01*
X026756Y032030D01*
X026804Y032080D01*
X026855Y032127D01*
X026909Y032172D01*
X026964Y032213D01*
X027022Y032251D01*
X027082Y032286D01*
X027144Y032318D01*
X027207Y032346D01*
X027272Y032370D01*
X027338Y032391D01*
X027406Y032408D01*
X027474Y032422D01*
X027543Y032431D01*
X027612Y032437D01*
X027681Y032439D01*
X027750Y032437D01*
X027819Y032431D01*
X027888Y032422D01*
X027956Y032408D01*
X028024Y032391D01*
X028090Y032370D01*
X028155Y032346D01*
X028218Y032318D01*
X028280Y032286D01*
X028340Y032251D01*
X028398Y032213D01*
X028453Y032172D01*
X028507Y032127D01*
X028558Y032080D01*
X028606Y032030D01*
X028651Y031978D01*
X028693Y031922D01*
X028732Y031865D01*
X028768Y031806D01*
X028801Y031745D01*
X028830Y031682D01*
X028855Y031617D01*
X028877Y031551D01*
X028896Y031484D01*
X028910Y031416D01*
X028921Y031348D01*
X028928Y031279D01*
X028931Y031210D01*
X028930Y031140D01*
X028925Y031071D01*
X028917Y031002D01*
X028905Y030934D01*
X028889Y030866D01*
X028869Y030800D01*
X028845Y030734D01*
X028818Y030671D01*
X028788Y030608D01*
X028754Y030548D01*
X028717Y030489D01*
X028676Y030433D01*
X028633Y030379D01*
X028586Y030327D01*
X028537Y030278D01*
X028485Y030232D01*
X028431Y030189D01*
X028431Y004189D02*
X028485Y004146D01*
X028537Y004100D01*
X028586Y004051D01*
X028633Y003999D01*
X028676Y003945D01*
X028717Y003889D01*
X028754Y003830D01*
X028788Y003770D01*
X028818Y003707D01*
X028845Y003644D01*
X028869Y003578D01*
X028889Y003512D01*
X028905Y003444D01*
X028917Y003376D01*
X028925Y003307D01*
X028930Y003238D01*
X028931Y003168D01*
X028928Y003099D01*
X028921Y003030D01*
X028910Y002962D01*
X028896Y002894D01*
X028877Y002827D01*
X028855Y002761D01*
X028830Y002696D01*
X028801Y002633D01*
X028768Y002572D01*
X028732Y002513D01*
X028693Y002456D01*
X028651Y002400D01*
X028606Y002348D01*
X028558Y002298D01*
X028507Y002251D01*
X028453Y002206D01*
X028398Y002165D01*
X028340Y002127D01*
X028280Y002092D01*
X028218Y002060D01*
X028155Y002032D01*
X028090Y002008D01*
X028024Y001987D01*
X027956Y001970D01*
X027888Y001956D01*
X027819Y001947D01*
X027750Y001941D01*
X027681Y001939D01*
X027612Y001941D01*
X027543Y001947D01*
X027474Y001956D01*
X027406Y001970D01*
X027338Y001987D01*
X027272Y002008D01*
X027207Y002032D01*
X027144Y002060D01*
X027082Y002092D01*
X027022Y002127D01*
X026964Y002165D01*
X026909Y002206D01*
X026855Y002251D01*
X026804Y002298D01*
X026756Y002348D01*
X026711Y002400D01*
X026669Y002456D01*
X026630Y002513D01*
X026594Y002572D01*
X026561Y002633D01*
X026532Y002696D01*
X026507Y002761D01*
X026485Y002827D01*
X026466Y002894D01*
X026452Y002962D01*
X026441Y003030D01*
X026434Y003099D01*
X026431Y003168D01*
X026432Y003238D01*
X026437Y003307D01*
X026445Y003376D01*
X026457Y003444D01*
X026473Y003512D01*
X026493Y003578D01*
X026517Y003644D01*
X026544Y003707D01*
X026574Y003770D01*
X026608Y003830D01*
X026645Y003889D01*
X026686Y003945D01*
X026729Y003999D01*
X026776Y004051D01*
X026825Y004100D01*
X026877Y004146D01*
X026931Y004189D01*
D14*
X026521Y004066D02*
X026521Y003766D01*
X026446Y003456D02*
X026221Y003456D01*
X026071Y003606D01*
X025996Y003606D01*
X026221Y003456D02*
X026071Y003306D01*
X025996Y003306D01*
X026146Y003146D02*
X025996Y002995D01*
X026146Y002845D01*
X026446Y002845D01*
X026446Y002685D02*
X026446Y002385D01*
X025996Y002385D01*
X025996Y002225D02*
X025996Y001925D01*
X026446Y001925D01*
X026446Y002225D01*
X026221Y002075D02*
X026221Y001925D01*
X026221Y001765D02*
X026296Y001689D01*
X026296Y001464D01*
X026296Y001614D02*
X026446Y001765D01*
X026221Y001765D02*
X026071Y001765D01*
X025996Y001689D01*
X025996Y001464D01*
X026446Y001464D01*
X026221Y002845D02*
X026221Y003146D01*
X026146Y003146D02*
X026446Y003146D01*
X026446Y004226D02*
X025996Y004226D01*
X026446Y004226D02*
X026446Y004527D01*
X026446Y004687D02*
X026446Y004987D01*
X026446Y005147D02*
X026446Y005372D01*
X026371Y005447D01*
X026071Y005447D01*
X025996Y005372D01*
X025996Y005147D01*
X026446Y005147D01*
X026221Y004837D02*
X026221Y004687D01*
X025996Y004687D02*
X025996Y004987D01*
X025996Y004687D02*
X026446Y004687D01*
X026156Y007214D02*
X025706Y007214D01*
X025781Y007675D02*
X025706Y007750D01*
X025706Y007900D01*
X025781Y007975D01*
X026081Y007975D01*
X026156Y007900D01*
X026156Y007750D01*
X026081Y007675D01*
X025781Y007675D01*
X026156Y007515D02*
X026156Y007214D01*
X026081Y008135D02*
X025781Y008135D01*
X025706Y008210D01*
X025706Y008360D01*
X025781Y008435D01*
X025931Y008435D02*
X025931Y008285D01*
X025931Y008435D02*
X026081Y008435D01*
X026156Y008360D01*
X026156Y008210D01*
X026081Y008135D01*
X026081Y008595D02*
X025781Y008595D01*
X025706Y008670D01*
X025706Y008821D01*
X025781Y008896D01*
X026081Y008896D01*
X026156Y008821D01*
X026156Y008670D01*
X026081Y008595D01*
X026081Y009056D02*
X026156Y009131D01*
X026156Y009281D01*
X026081Y009356D01*
X025706Y009356D01*
X025706Y009516D02*
X025706Y009816D01*
X025706Y009666D02*
X026156Y009666D01*
X026081Y009056D02*
X025706Y009056D01*
X018132Y002310D02*
X018132Y002159D01*
X018057Y002084D01*
X017832Y002084D01*
X017832Y001934D02*
X017832Y002385D01*
X018057Y002385D01*
X018132Y002310D01*
X017982Y002084D02*
X018132Y001934D01*
X017672Y001934D02*
X017672Y002385D01*
X017372Y002385D02*
X017372Y001934D01*
X017522Y002084D01*
X017672Y001934D01*
X017212Y002159D02*
X017137Y002084D01*
X016912Y002084D01*
X016912Y001934D02*
X016912Y002385D01*
X017137Y002385D01*
X017212Y002310D01*
X017212Y002159D01*
X016751Y001859D02*
X016451Y001859D01*
X016291Y002009D02*
X016291Y002310D01*
X016216Y002385D01*
X015991Y002385D01*
X015991Y001934D01*
X016216Y001934D01*
X016291Y002009D01*
X015831Y002009D02*
X015756Y001934D01*
X015606Y001934D01*
X015530Y002009D01*
X015530Y002310D01*
X015606Y002385D01*
X015756Y002385D01*
X015831Y002310D01*
X015370Y001934D02*
X015070Y001934D01*
X015070Y002385D01*
X027706Y022214D02*
X028156Y022214D01*
X028156Y022515D01*
X028156Y022675D02*
X027706Y022975D01*
X027706Y023135D02*
X027706Y023435D01*
X027706Y023285D02*
X028156Y023285D01*
X028156Y022975D02*
X027706Y022675D01*
X027706Y022515D02*
X027706Y022214D01*
X027931Y022214D02*
X027931Y022364D01*
X027931Y023595D02*
X027931Y023745D01*
X027706Y023595D02*
X028156Y023595D01*
X028156Y023896D01*
X028156Y024056D02*
X027706Y024056D01*
X028156Y024356D01*
X027706Y024356D01*
X027706Y024516D02*
X027706Y024741D01*
X027781Y024816D01*
X028081Y024816D01*
X028156Y024741D01*
X028156Y024516D01*
X027706Y024516D01*
X027706Y023896D02*
X027706Y023595D01*
X026366Y029281D02*
X025916Y029281D01*
X025916Y029581D02*
X026366Y029581D01*
X026216Y029431D01*
X026366Y029281D01*
X026366Y029742D02*
X026066Y029742D01*
X025916Y029892D01*
X026066Y030042D01*
X026366Y030042D01*
X026366Y030202D02*
X025916Y030202D01*
X025916Y030427D01*
X025991Y030502D01*
X026141Y030502D01*
X026216Y030427D01*
X026216Y030202D01*
X026216Y030352D02*
X026366Y030502D01*
X026366Y030662D02*
X025916Y030662D01*
X026366Y030962D01*
X025916Y030962D01*
X026441Y031123D02*
X026441Y031423D01*
X026366Y031583D02*
X026366Y031883D01*
X026366Y032043D02*
X026366Y032344D01*
X026366Y032504D02*
X026366Y032729D01*
X026291Y032804D01*
X025991Y032804D01*
X025916Y032729D01*
X025916Y032504D01*
X026366Y032504D01*
X026141Y032193D02*
X026141Y032043D01*
X025916Y032043D02*
X025916Y032344D01*
X025916Y032043D02*
X026366Y032043D01*
X026366Y031583D02*
X025916Y031583D01*
X026141Y030042D02*
X026141Y029742D01*
X021046Y031139D02*
X021046Y031440D01*
X020971Y031515D01*
X020746Y031515D01*
X020746Y031064D01*
X020971Y031064D01*
X021046Y031139D01*
X020586Y031139D02*
X020511Y031064D01*
X020361Y031064D01*
X020286Y031139D01*
X020286Y031440D01*
X020361Y031515D01*
X020511Y031515D01*
X020586Y031440D01*
X020126Y031064D02*
X019825Y031064D01*
X019825Y031515D01*
X020446Y033864D02*
X020746Y033864D01*
X020596Y033864D02*
X020596Y034315D01*
X020446Y034165D01*
X014921Y031515D02*
X014921Y031064D01*
X014996Y031289D02*
X014696Y031289D01*
X014921Y031515D01*
X014386Y031515D02*
X014386Y031064D01*
X014236Y031064D02*
X014536Y031064D01*
X014236Y031365D02*
X014386Y031515D01*
X013056Y025552D02*
X013056Y025252D01*
X013056Y025402D02*
X013506Y025402D01*
X013281Y024942D02*
X013281Y024792D01*
X013056Y024792D02*
X013056Y025092D01*
X013056Y024792D02*
X013506Y024792D01*
X013506Y024635D02*
X013506Y024485D01*
X013506Y024560D02*
X013056Y024560D01*
X013056Y024485D02*
X013056Y024635D01*
X013056Y024325D02*
X013506Y024325D01*
X013281Y024325D02*
X013281Y024025D01*
X013356Y023865D02*
X013431Y023865D01*
X013506Y023789D01*
X013506Y023639D01*
X013431Y023564D01*
X013281Y023639D02*
X013281Y023789D01*
X013356Y023865D01*
X013506Y024025D02*
X013056Y024025D01*
X013131Y023865D02*
X013056Y023789D01*
X013056Y023639D01*
X013131Y023564D01*
X013206Y023564D01*
X013281Y023639D01*
X014756Y024464D02*
X014756Y024539D01*
X015057Y024840D01*
X015057Y024915D01*
X014756Y024915D01*
X015217Y024689D02*
X015517Y024689D01*
X015677Y024689D02*
X015977Y024689D01*
X016137Y024539D02*
X016137Y024840D01*
X016213Y024915D01*
X016363Y024915D01*
X016438Y024840D01*
X016598Y024915D02*
X016598Y024689D01*
X016748Y024765D01*
X016823Y024765D01*
X016898Y024689D01*
X016898Y024539D01*
X016823Y024464D01*
X016673Y024464D01*
X016598Y024539D01*
X016438Y024539D02*
X016363Y024464D01*
X016213Y024464D01*
X016137Y024539D01*
X015977Y024464D02*
X015977Y024915D01*
X015677Y024915D02*
X015677Y024464D01*
X015442Y024464D02*
X015442Y024915D01*
X015217Y024689D01*
X016598Y024915D02*
X016898Y024915D01*
X017058Y024840D02*
X017058Y024765D01*
X017133Y024689D01*
X017358Y024689D01*
X017358Y024539D02*
X017358Y024840D01*
X017283Y024915D01*
X017133Y024915D01*
X017058Y024840D01*
X017058Y024539D02*
X017133Y024464D01*
X017283Y024464D01*
X017358Y024539D01*
X017519Y024539D02*
X017594Y024464D01*
X017744Y024464D01*
X017819Y024539D01*
X017819Y024689D01*
X017744Y024765D01*
X017669Y024765D01*
X017519Y024689D01*
X017519Y024915D01*
X017819Y024915D01*
X017979Y024915D02*
X017979Y024464D01*
X018279Y024464D02*
X017979Y024915D01*
X018279Y024915D02*
X018279Y024464D01*
X007156Y028974D02*
X007156Y029275D01*
X007156Y029124D02*
X006706Y029124D01*
X006856Y028974D01*
X006781Y029435D02*
X006706Y029510D01*
X006706Y029660D01*
X006781Y029735D01*
X007081Y029435D01*
X007156Y029510D01*
X007156Y029660D01*
X007081Y029735D01*
X006781Y029735D01*
X006706Y029895D02*
X007156Y029895D01*
X007006Y029895D02*
X006706Y030195D01*
X006931Y029970D02*
X007156Y030195D01*
X007081Y029435D02*
X006781Y029435D01*
X006256Y029291D02*
X006256Y029064D01*
X006256Y029178D02*
X005916Y029178D01*
X006030Y029064D01*
X006706Y030964D02*
X006706Y031189D01*
X006781Y031265D01*
X006931Y031265D01*
X007006Y031189D01*
X007006Y030964D01*
X007006Y031114D02*
X007156Y031265D01*
X006931Y031425D02*
X006931Y031725D01*
X007156Y031650D02*
X006706Y031650D01*
X006931Y031425D01*
X007156Y030964D02*
X006706Y030964D01*
X006256Y031221D02*
X006200Y031164D01*
X006256Y031221D02*
X006256Y031334D01*
X006200Y031391D01*
X006143Y031391D01*
X006086Y031334D01*
X006086Y031278D01*
X006086Y031334D02*
X006030Y031391D01*
X005973Y031391D01*
X005916Y031334D01*
X005916Y031221D01*
X005973Y031164D01*
D15*
X017451Y015009D02*
X017488Y015009D01*
X017635Y014862D01*
X017671Y014862D01*
X017671Y015009D01*
X017451Y015009D02*
X017451Y014862D01*
X017451Y014788D02*
X017488Y014788D01*
X017635Y014641D01*
X017671Y014641D01*
X017671Y014788D01*
X017451Y014788D02*
X017451Y014641D01*
X017451Y014567D02*
X017635Y014567D01*
X017671Y014530D01*
X017671Y014457D01*
X017635Y014420D01*
X017451Y014420D01*
X017488Y014346D02*
X017525Y014346D01*
X017561Y014309D01*
X017561Y014199D01*
X017451Y014199D02*
X017451Y014309D01*
X017488Y014346D01*
X017561Y014309D02*
X017598Y014346D01*
X017635Y014346D01*
X017671Y014309D01*
X017671Y014199D01*
X017451Y014199D01*
D16*
X005031Y029099D02*
X005031Y029249D01*
X004381Y029439D02*
X004281Y029339D01*
X004111Y030189D02*
X003961Y030189D01*
X004381Y030889D02*
X004281Y030989D01*
X005031Y031129D02*
X005031Y031279D01*
M02*
