%
M48
M72
T01C0.0320
T02C0.0354
T03C0.0400
T04C0.0472
T05C0.1200
%
T01
X14181Y23189
X15181Y23189
X16181Y23189
X17181Y23189
X18181Y23189
X19181Y23189
X20181Y23189
X21181Y23189
X21181Y26189
X20181Y26189
X19181Y26189
X18181Y26189
X17181Y26189
X16181Y26189
X15181Y26189
X14181Y26189
X5181Y29189
X4181Y30189
X5181Y31189
X27681Y30689
X27681Y31689
X27681Y3689
X27681Y2689
T02
X24681Y7189
X21681Y7189
X15681Y6189
X15681Y3189
X18681Y13910
X18681Y16469
X22681Y28689
X25681Y28689
T03
X26791Y27469
X28571Y27469
X28571Y24909
X26791Y24909
X24681Y22689
X24681Y21689
X24681Y20689
X24681Y19689
X24681Y18689
X24681Y17689
X24681Y15689
X24681Y14689
X24681Y13689
X24681Y12689
X24681Y11689
X24681Y10689
X26791Y9469
X28571Y9469
X28571Y6909
X26791Y6909
X19575Y1189
X18575Y1189
X17575Y1189
X16575Y1189
X15575Y1189
X5681Y7189
X5681Y8189
X5681Y9189
X5681Y10189
X5681Y11189
X5681Y12189
X5681Y13189
X5681Y14189
X5681Y15689
X5681Y16689
X5681Y17689
X5681Y18689
X5681Y19689
X5681Y20689
X5681Y21689
X5681Y22689
X14681Y32189
X14681Y33189
X15681Y33189
X15681Y32189
X16681Y32189
X16681Y33189
X17681Y33189
X17681Y32189
X18681Y32189
X18681Y33189
X19681Y33189
X19681Y32189
X20681Y32189
X20681Y33189
T04
X2181Y27189
X2181Y25811
X2181Y22189
X2181Y20811
X2181Y6189
X2181Y4811
T05
X1575Y1583
X29788Y1583
X29788Y33796
X1575Y33796
M30
