G75*
G70*
%OFA0B0*%
%FSLAX24Y24*%
%IPPOS*%
%LPD*%
%AMOC8*
5,1,8,0,0,1.08239X$1,22.5*
%
%ADD10C,0.0160*%
%ADD11C,0.0820*%
%ADD12R,0.0880X0.0880*%
%ADD13C,0.0880*%
%ADD14OC8,0.0640*%
%ADD15C,0.0674*%
%ADD16C,0.0640*%
%ADD17OC8,0.0720*%
%ADD18C,0.0000*%
%ADD19C,0.1280*%
D10*
X005191Y002689D02*
X036191Y002689D01*
X036191Y037689D01*
X005191Y037689D01*
X005191Y002689D01*
D11*
X010691Y009689D03*
X010691Y010689D03*
X010691Y011689D03*
X010691Y012689D03*
X010691Y013689D03*
X010691Y014689D03*
X010691Y015689D03*
X010691Y016689D03*
X010691Y018189D03*
X010691Y019189D03*
X010691Y020189D03*
X010691Y021189D03*
X010691Y022189D03*
X010691Y023189D03*
X010691Y024189D03*
X010691Y025189D03*
X026691Y009689D03*
X029691Y009689D03*
X031801Y009409D03*
X033581Y009409D03*
X033581Y011969D03*
X031801Y011969D03*
X029691Y013189D03*
X029691Y014189D03*
X029691Y015189D03*
X029691Y016189D03*
X029691Y017189D03*
X029691Y018189D03*
X029691Y020189D03*
X029691Y021189D03*
X029691Y022189D03*
X029691Y023189D03*
X029691Y024189D03*
X029691Y025189D03*
X031801Y027409D03*
X033581Y027409D03*
X033581Y029969D03*
X031801Y029969D03*
X030691Y031189D03*
X027691Y031189D03*
X020691Y006189D03*
X020584Y003689D03*
X021584Y003689D03*
X022584Y003689D03*
X023584Y003689D03*
X024584Y003689D03*
X017691Y006189D03*
D12*
X007191Y008689D03*
X007191Y024689D03*
X007191Y029689D03*
D13*
X007191Y028311D03*
X007191Y023311D03*
X007191Y007311D03*
D14*
X010191Y031689D03*
X009191Y032689D03*
X010191Y033689D03*
X032691Y034189D03*
X032691Y033189D03*
X032691Y006189D03*
X032691Y005189D03*
D15*
X023691Y016409D03*
X023691Y018968D03*
D16*
X024191Y025409D02*
X024191Y025969D01*
X025191Y025969D02*
X025191Y025409D01*
X026191Y025409D02*
X026191Y025969D01*
X026191Y028409D02*
X026191Y028969D01*
X025191Y028969D02*
X025191Y028409D01*
X024191Y028409D02*
X024191Y028969D01*
X023191Y028969D02*
X023191Y028409D01*
X022191Y028409D02*
X022191Y028969D01*
X021191Y028969D02*
X021191Y028409D01*
X020191Y028409D02*
X020191Y028969D01*
X019191Y028969D02*
X019191Y028409D01*
X019191Y025969D02*
X019191Y025409D01*
X020191Y025409D02*
X020191Y025969D01*
X021191Y025969D02*
X021191Y025409D01*
X022191Y025409D02*
X022191Y025969D01*
X023191Y025969D02*
X023191Y025409D01*
D17*
X023691Y034689D03*
X022691Y034689D03*
X021691Y034689D03*
X021691Y035689D03*
X022691Y035689D03*
X023691Y035689D03*
X024691Y035689D03*
X025691Y035689D03*
X025691Y034689D03*
X024691Y034689D03*
X020691Y034689D03*
X019691Y034689D03*
X019691Y035689D03*
X020691Y035689D03*
D18*
X005984Y036295D02*
X005986Y036344D01*
X005992Y036392D01*
X006002Y036440D01*
X006016Y036487D01*
X006033Y036533D01*
X006054Y036577D01*
X006079Y036619D01*
X006107Y036659D01*
X006139Y036697D01*
X006173Y036732D01*
X006210Y036764D01*
X006249Y036793D01*
X006291Y036819D01*
X006335Y036841D01*
X006380Y036859D01*
X006427Y036874D01*
X006474Y036885D01*
X006523Y036892D01*
X006572Y036895D01*
X006621Y036894D01*
X006669Y036889D01*
X006718Y036880D01*
X006765Y036867D01*
X006811Y036850D01*
X006855Y036830D01*
X006898Y036806D01*
X006939Y036779D01*
X006977Y036748D01*
X007013Y036715D01*
X007045Y036679D01*
X007075Y036640D01*
X007102Y036599D01*
X007125Y036555D01*
X007144Y036510D01*
X007160Y036464D01*
X007172Y036417D01*
X007180Y036368D01*
X007184Y036319D01*
X007184Y036271D01*
X007180Y036222D01*
X007172Y036173D01*
X007160Y036126D01*
X007144Y036080D01*
X007125Y036035D01*
X007102Y035991D01*
X007075Y035950D01*
X007045Y035911D01*
X007013Y035875D01*
X006977Y035842D01*
X006939Y035811D01*
X006898Y035784D01*
X006855Y035760D01*
X006811Y035740D01*
X006765Y035723D01*
X006718Y035710D01*
X006669Y035701D01*
X006621Y035696D01*
X006572Y035695D01*
X006523Y035698D01*
X006474Y035705D01*
X006427Y035716D01*
X006380Y035731D01*
X006335Y035749D01*
X006291Y035771D01*
X006249Y035797D01*
X006210Y035826D01*
X006173Y035858D01*
X006139Y035893D01*
X006107Y035931D01*
X006079Y035971D01*
X006054Y036013D01*
X006033Y036057D01*
X006016Y036103D01*
X006002Y036150D01*
X005992Y036198D01*
X005986Y036246D01*
X005984Y036295D01*
X034197Y036295D02*
X034199Y036344D01*
X034205Y036392D01*
X034215Y036440D01*
X034229Y036487D01*
X034246Y036533D01*
X034267Y036577D01*
X034292Y036619D01*
X034320Y036659D01*
X034352Y036697D01*
X034386Y036732D01*
X034423Y036764D01*
X034462Y036793D01*
X034504Y036819D01*
X034548Y036841D01*
X034593Y036859D01*
X034640Y036874D01*
X034687Y036885D01*
X034736Y036892D01*
X034785Y036895D01*
X034834Y036894D01*
X034882Y036889D01*
X034931Y036880D01*
X034978Y036867D01*
X035024Y036850D01*
X035068Y036830D01*
X035111Y036806D01*
X035152Y036779D01*
X035190Y036748D01*
X035226Y036715D01*
X035258Y036679D01*
X035288Y036640D01*
X035315Y036599D01*
X035338Y036555D01*
X035357Y036510D01*
X035373Y036464D01*
X035385Y036417D01*
X035393Y036368D01*
X035397Y036319D01*
X035397Y036271D01*
X035393Y036222D01*
X035385Y036173D01*
X035373Y036126D01*
X035357Y036080D01*
X035338Y036035D01*
X035315Y035991D01*
X035288Y035950D01*
X035258Y035911D01*
X035226Y035875D01*
X035190Y035842D01*
X035152Y035811D01*
X035111Y035784D01*
X035068Y035760D01*
X035024Y035740D01*
X034978Y035723D01*
X034931Y035710D01*
X034882Y035701D01*
X034834Y035696D01*
X034785Y035695D01*
X034736Y035698D01*
X034687Y035705D01*
X034640Y035716D01*
X034593Y035731D01*
X034548Y035749D01*
X034504Y035771D01*
X034462Y035797D01*
X034423Y035826D01*
X034386Y035858D01*
X034352Y035893D01*
X034320Y035931D01*
X034292Y035971D01*
X034267Y036013D01*
X034246Y036057D01*
X034229Y036103D01*
X034215Y036150D01*
X034205Y036198D01*
X034199Y036246D01*
X034197Y036295D01*
X034197Y004083D02*
X034199Y004132D01*
X034205Y004180D01*
X034215Y004228D01*
X034229Y004275D01*
X034246Y004321D01*
X034267Y004365D01*
X034292Y004407D01*
X034320Y004447D01*
X034352Y004485D01*
X034386Y004520D01*
X034423Y004552D01*
X034462Y004581D01*
X034504Y004607D01*
X034548Y004629D01*
X034593Y004647D01*
X034640Y004662D01*
X034687Y004673D01*
X034736Y004680D01*
X034785Y004683D01*
X034834Y004682D01*
X034882Y004677D01*
X034931Y004668D01*
X034978Y004655D01*
X035024Y004638D01*
X035068Y004618D01*
X035111Y004594D01*
X035152Y004567D01*
X035190Y004536D01*
X035226Y004503D01*
X035258Y004467D01*
X035288Y004428D01*
X035315Y004387D01*
X035338Y004343D01*
X035357Y004298D01*
X035373Y004252D01*
X035385Y004205D01*
X035393Y004156D01*
X035397Y004107D01*
X035397Y004059D01*
X035393Y004010D01*
X035385Y003961D01*
X035373Y003914D01*
X035357Y003868D01*
X035338Y003823D01*
X035315Y003779D01*
X035288Y003738D01*
X035258Y003699D01*
X035226Y003663D01*
X035190Y003630D01*
X035152Y003599D01*
X035111Y003572D01*
X035068Y003548D01*
X035024Y003528D01*
X034978Y003511D01*
X034931Y003498D01*
X034882Y003489D01*
X034834Y003484D01*
X034785Y003483D01*
X034736Y003486D01*
X034687Y003493D01*
X034640Y003504D01*
X034593Y003519D01*
X034548Y003537D01*
X034504Y003559D01*
X034462Y003585D01*
X034423Y003614D01*
X034386Y003646D01*
X034352Y003681D01*
X034320Y003719D01*
X034292Y003759D01*
X034267Y003801D01*
X034246Y003845D01*
X034229Y003891D01*
X034215Y003938D01*
X034205Y003986D01*
X034199Y004034D01*
X034197Y004083D01*
X005984Y004083D02*
X005986Y004132D01*
X005992Y004180D01*
X006002Y004228D01*
X006016Y004275D01*
X006033Y004321D01*
X006054Y004365D01*
X006079Y004407D01*
X006107Y004447D01*
X006139Y004485D01*
X006173Y004520D01*
X006210Y004552D01*
X006249Y004581D01*
X006291Y004607D01*
X006335Y004629D01*
X006380Y004647D01*
X006427Y004662D01*
X006474Y004673D01*
X006523Y004680D01*
X006572Y004683D01*
X006621Y004682D01*
X006669Y004677D01*
X006718Y004668D01*
X006765Y004655D01*
X006811Y004638D01*
X006855Y004618D01*
X006898Y004594D01*
X006939Y004567D01*
X006977Y004536D01*
X007013Y004503D01*
X007045Y004467D01*
X007075Y004428D01*
X007102Y004387D01*
X007125Y004343D01*
X007144Y004298D01*
X007160Y004252D01*
X007172Y004205D01*
X007180Y004156D01*
X007184Y004107D01*
X007184Y004059D01*
X007180Y004010D01*
X007172Y003961D01*
X007160Y003914D01*
X007144Y003868D01*
X007125Y003823D01*
X007102Y003779D01*
X007075Y003738D01*
X007045Y003699D01*
X007013Y003663D01*
X006977Y003630D01*
X006939Y003599D01*
X006898Y003572D01*
X006855Y003548D01*
X006811Y003528D01*
X006765Y003511D01*
X006718Y003498D01*
X006669Y003489D01*
X006621Y003484D01*
X006572Y003483D01*
X006523Y003486D01*
X006474Y003493D01*
X006427Y003504D01*
X006380Y003519D01*
X006335Y003537D01*
X006291Y003559D01*
X006249Y003585D01*
X006210Y003614D01*
X006173Y003646D01*
X006139Y003681D01*
X006107Y003719D01*
X006079Y003759D01*
X006054Y003801D01*
X006033Y003845D01*
X006016Y003891D01*
X006002Y003938D01*
X005992Y003986D01*
X005986Y004034D01*
X005984Y004083D01*
D19*
X006584Y004083D03*
X034797Y004083D03*
X034797Y036295D03*
X006584Y036295D03*
M02*
