G75*
G70*
%OFA0B0*%
%FSLAX24Y24*%
%IPPOS*%
%LPD*%
%AMOC8*
5,1,8,0,0,1.08239X$1,22.5*
%
%ADD10C,0.0160*%
%ADD11C,0.0740*%
%ADD12R,0.0800X0.0800*%
%ADD13C,0.0800*%
%ADD14OC8,0.0520*%
%ADD15C,0.0520*%
%ADD16C,0.0000*%
%ADD17C,0.0515*%
%ADD18C,0.1000*%
%ADD19C,0.0100*%
%ADD20C,0.0240*%
%ADD21C,0.0080*%
D10*
X004183Y002689D02*
X035183Y002689D01*
X035183Y037689D01*
X004183Y037689D01*
X004183Y002689D01*
X004443Y002949D02*
X004443Y037429D01*
X034923Y037429D01*
X034923Y002949D01*
X004443Y002949D01*
X004443Y003055D02*
X034923Y003055D01*
X034923Y003213D02*
X004443Y003213D01*
X004443Y003372D02*
X005085Y003372D01*
X005095Y003362D02*
X005095Y003362D01*
X005407Y003233D01*
X005527Y003233D01*
X005527Y003233D01*
X005576Y003233D01*
X005593Y003233D01*
X005626Y003233D01*
X005745Y003233D01*
X006058Y003362D01*
X006297Y003601D01*
X006426Y003913D01*
X006426Y003913D01*
X006426Y004252D01*
X006297Y004564D01*
X006058Y004803D01*
X006058Y004803D01*
X005745Y004932D01*
X005626Y004932D01*
X005626Y004932D01*
X005576Y004932D01*
X005575Y004932D01*
X005527Y004932D01*
X005407Y004932D01*
X005095Y004803D01*
X005095Y004803D01*
X004856Y004564D01*
X004726Y004252D01*
X004726Y004252D01*
X004726Y003913D01*
X004856Y003601D01*
X005095Y003362D01*
X004927Y003530D02*
X004443Y003530D01*
X004443Y003689D02*
X004819Y003689D01*
X004856Y003601D02*
X004856Y003601D01*
X004754Y003847D02*
X004443Y003847D01*
X004443Y004006D02*
X004726Y004006D01*
X004726Y003913D02*
X004726Y003913D01*
X004726Y004164D02*
X004443Y004164D01*
X004443Y004323D02*
X004756Y004323D01*
X004822Y004482D02*
X004443Y004482D01*
X004443Y004640D02*
X004932Y004640D01*
X004856Y004564D02*
X004856Y004564D01*
X005090Y004799D02*
X004443Y004799D01*
X004443Y004957D02*
X034923Y004957D01*
X034923Y004799D02*
X034275Y004799D01*
X034270Y004803D02*
X034270Y004803D01*
X033958Y004932D01*
X033839Y004932D01*
X033839Y004932D01*
X033789Y004932D01*
X033788Y004932D01*
X033739Y004932D01*
X033620Y004932D01*
X033308Y004803D01*
X033307Y004803D01*
X033068Y004564D01*
X032939Y004252D01*
X032939Y004252D01*
X032939Y003913D01*
X033068Y003601D01*
X033307Y003362D01*
X033308Y003362D01*
X033620Y003233D01*
X033739Y003233D01*
X033739Y003233D01*
X033766Y003233D01*
X033789Y003233D01*
X033839Y003233D01*
X033958Y003233D01*
X034270Y003362D01*
X034270Y003362D01*
X034509Y003601D01*
X034639Y003913D01*
X034639Y003913D01*
X034639Y004252D01*
X034509Y004564D01*
X034270Y004803D01*
X034433Y004640D02*
X034923Y004640D01*
X034923Y004482D02*
X034544Y004482D01*
X034509Y004564D02*
X034509Y004564D01*
X034609Y004323D02*
X034923Y004323D01*
X034923Y004164D02*
X034639Y004164D01*
X034639Y004252D02*
X034639Y004252D01*
X034639Y004006D02*
X034923Y004006D01*
X034923Y003847D02*
X034611Y003847D01*
X034546Y003689D02*
X034923Y003689D01*
X034923Y003530D02*
X034439Y003530D01*
X034509Y003601D02*
X034509Y003601D01*
X034280Y003372D02*
X034923Y003372D01*
X033958Y003233D02*
X033958Y003233D01*
X033839Y003233D02*
X033839Y003233D01*
X033620Y003233D02*
X033620Y003233D01*
X033298Y003372D02*
X006068Y003372D01*
X006226Y003530D02*
X033139Y003530D01*
X033068Y003601D02*
X033068Y003601D01*
X033032Y003689D02*
X006333Y003689D01*
X006297Y003601D02*
X006297Y003601D01*
X006399Y003847D02*
X032966Y003847D01*
X032939Y003913D02*
X032939Y003913D01*
X032939Y004006D02*
X006426Y004006D01*
X006426Y004164D02*
X032939Y004164D01*
X032969Y004323D02*
X006397Y004323D01*
X006426Y004252D02*
X006426Y004252D01*
X006331Y004482D02*
X033034Y004482D01*
X033068Y004564D02*
X033068Y004564D01*
X033145Y004640D02*
X006221Y004640D01*
X006297Y004564D02*
X006297Y004564D01*
X006062Y004799D02*
X033303Y004799D01*
X033620Y004932D02*
X033620Y004932D01*
X033739Y004932D02*
X033739Y004932D01*
X033958Y004932D02*
X033958Y004932D01*
X034923Y005116D02*
X030644Y005116D01*
X030597Y005069D02*
X030803Y005275D01*
X030914Y005543D01*
X030914Y005834D01*
X030803Y006103D01*
X030597Y006309D01*
X030328Y006420D01*
X030037Y006420D01*
X029768Y006309D01*
X029563Y006103D01*
X029451Y005834D01*
X029451Y005543D01*
X029563Y005275D01*
X029768Y005069D01*
X030037Y004958D01*
X030328Y004958D01*
X030597Y005069D01*
X030802Y005274D02*
X034923Y005274D01*
X034923Y005433D02*
X030868Y005433D01*
X030914Y005591D02*
X034923Y005591D01*
X034923Y005750D02*
X030914Y005750D01*
X030883Y005908D02*
X034923Y005908D01*
X034923Y006067D02*
X030817Y006067D01*
X030680Y006226D02*
X034923Y006226D01*
X034923Y006384D02*
X030415Y006384D01*
X029951Y006384D02*
X018242Y006384D01*
X018155Y006420D02*
X017864Y006420D01*
X017595Y006309D01*
X017390Y006103D01*
X017278Y005834D01*
X017278Y005543D01*
X017390Y005275D01*
X017595Y005069D01*
X017864Y004958D01*
X018155Y004958D01*
X018424Y005069D01*
X018629Y005275D01*
X018741Y005543D01*
X018741Y005834D01*
X018629Y006103D01*
X018424Y006309D01*
X018155Y006420D01*
X017777Y006384D02*
X004443Y006384D01*
X004443Y006226D02*
X017512Y006226D01*
X017375Y006067D02*
X004443Y006067D01*
X004443Y005908D02*
X017309Y005908D01*
X017278Y005750D02*
X004443Y005750D01*
X004443Y005591D02*
X017278Y005591D01*
X017324Y005433D02*
X004443Y005433D01*
X004443Y005274D02*
X017390Y005274D01*
X017548Y005116D02*
X004443Y005116D01*
X005407Y004932D02*
X005407Y004932D01*
X005527Y004932D02*
X005527Y004932D01*
X005745Y004932D02*
X005745Y004932D01*
X006047Y006745D02*
X005960Y006773D01*
X005879Y006815D01*
X005805Y006868D01*
X005740Y006933D01*
X005687Y007007D01*
X005645Y007088D01*
X005617Y007175D01*
X005603Y007265D01*
X005603Y007273D01*
X006144Y007273D01*
X006144Y007349D01*
X005603Y007349D01*
X005603Y007356D01*
X005617Y007447D01*
X005645Y007534D01*
X005687Y007615D01*
X005740Y007689D01*
X005805Y007753D01*
X005879Y007807D01*
X005960Y007848D01*
X006047Y007877D01*
X006137Y007891D01*
X006144Y007891D01*
X006144Y007349D01*
X006221Y007349D01*
X006763Y007349D01*
X006763Y007356D01*
X006748Y007447D01*
X006720Y007534D01*
X006679Y007615D01*
X006625Y007689D01*
X006561Y007753D01*
X006487Y007807D01*
X006405Y007848D01*
X006319Y007877D01*
X006228Y007891D01*
X006221Y007891D01*
X006221Y007349D01*
X006221Y007273D01*
X006763Y007273D01*
X006763Y007265D01*
X006748Y007175D01*
X006720Y007088D01*
X006679Y007007D01*
X006625Y006933D01*
X006561Y006868D01*
X006487Y006815D01*
X006405Y006773D01*
X006319Y006745D01*
X006228Y006731D01*
X006221Y006731D01*
X006221Y007272D01*
X006144Y007272D01*
X006144Y006731D01*
X006137Y006731D01*
X006047Y006745D01*
X006144Y006860D02*
X006221Y006860D01*
X006221Y007018D02*
X006144Y007018D01*
X006144Y007177D02*
X006221Y007177D01*
X006221Y007335D02*
X007739Y007335D01*
X007898Y007177D02*
X006749Y007177D01*
X006684Y007018D02*
X008056Y007018D01*
X008096Y006979D02*
X008270Y006979D01*
X032270Y006979D01*
X032393Y007102D01*
X033040Y007749D01*
X033365Y007749D01*
X033623Y008007D01*
X033623Y008371D01*
X033365Y008629D01*
X033000Y008629D01*
X032743Y008371D01*
X032743Y008046D01*
X032096Y007399D01*
X008270Y007399D01*
X006893Y008776D01*
X006770Y008899D01*
X006763Y008899D01*
X006763Y009163D01*
X006657Y009269D01*
X006643Y009269D01*
X006643Y019602D01*
X009546Y022505D01*
X009582Y022517D01*
X009605Y022564D01*
X009643Y022602D01*
X009643Y022639D01*
X009792Y022639D01*
X009994Y022723D01*
X010149Y022877D01*
X010233Y023079D01*
X010233Y023298D01*
X010149Y023500D01*
X009994Y023655D01*
X009913Y023689D01*
X009994Y023723D01*
X010149Y023877D01*
X010233Y024079D01*
X010233Y024298D01*
X010149Y024500D01*
X009994Y024655D01*
X009913Y024689D01*
X009994Y024723D01*
X010149Y024877D01*
X010233Y025079D01*
X010233Y025298D01*
X010149Y025500D01*
X009994Y025655D01*
X009913Y025689D01*
X009994Y025723D01*
X010149Y025877D01*
X010191Y025979D01*
X020020Y025979D01*
X020143Y026102D01*
X021270Y027229D01*
X021520Y027229D01*
X021540Y027249D01*
X022030Y027249D01*
X022192Y027316D01*
X022316Y027440D01*
X022383Y027601D01*
X022383Y027776D01*
X022316Y027938D01*
X022192Y028062D01*
X022030Y028129D01*
X021335Y028129D01*
X021173Y028062D01*
X021050Y027938D01*
X020983Y027776D01*
X020983Y027601D01*
X021002Y027555D01*
X019846Y026399D01*
X018440Y026399D01*
X021270Y029229D01*
X021520Y029229D01*
X021540Y029249D01*
X022030Y029249D01*
X022192Y029316D01*
X022316Y029440D01*
X022383Y029601D01*
X022383Y029776D01*
X022316Y029938D01*
X022192Y030062D01*
X022030Y030129D01*
X021335Y030129D01*
X021173Y030062D01*
X021050Y029938D01*
X020983Y029776D01*
X020983Y029601D01*
X021002Y029555D01*
X018096Y026649D01*
X017690Y026649D01*
X021270Y030229D01*
X021520Y030229D01*
X021540Y030249D01*
X022030Y030249D01*
X022192Y030316D01*
X022316Y030440D01*
X022383Y030601D01*
X022383Y030776D01*
X022316Y030938D01*
X022192Y031062D01*
X022030Y031129D01*
X021335Y031129D01*
X021173Y031062D01*
X021050Y030938D01*
X020983Y030776D01*
X020983Y030601D01*
X021002Y030555D01*
X017336Y026889D01*
X010154Y026889D01*
X010233Y027079D01*
X010233Y027298D01*
X010149Y027500D01*
X009994Y027655D01*
X009913Y027689D01*
X009994Y027723D01*
X010149Y027877D01*
X010233Y028079D01*
X010233Y028298D01*
X010149Y028500D01*
X009994Y028655D01*
X009913Y028689D01*
X009994Y028723D01*
X010149Y028877D01*
X010233Y029079D01*
X010233Y029298D01*
X010149Y029500D01*
X009994Y029655D01*
X009913Y029689D01*
X009994Y029723D01*
X010149Y029877D01*
X010233Y030079D01*
X010233Y030298D01*
X010149Y030500D01*
X009994Y030655D01*
X009816Y030729D01*
X010020Y030729D01*
X010143Y030852D01*
X012284Y032993D01*
X012327Y032949D01*
X012489Y032883D01*
X012664Y032883D01*
X012826Y032949D01*
X012949Y033073D01*
X013016Y033235D01*
X013016Y033930D01*
X012949Y034092D01*
X012826Y034216D01*
X012664Y034282D01*
X012489Y034282D01*
X012327Y034216D01*
X012203Y034092D01*
X012136Y033930D01*
X012136Y033439D01*
X009846Y031149D01*
X007846Y031149D01*
X007723Y031026D01*
X007723Y031026D01*
X006763Y030066D01*
X006763Y030163D01*
X006657Y030269D01*
X005708Y030269D01*
X005603Y030163D01*
X005603Y029214D01*
X004443Y029214D01*
X004443Y029056D02*
X009142Y029056D01*
X009133Y029079D02*
X009216Y028877D01*
X009371Y028723D01*
X009453Y028689D01*
X009371Y028655D01*
X009216Y028500D01*
X009174Y028399D01*
X009096Y028399D01*
X006096Y025399D01*
X005973Y025276D01*
X005973Y025269D01*
X005708Y025269D01*
X005603Y025163D01*
X005603Y024214D01*
X005708Y024109D01*
X006657Y024109D01*
X006763Y024214D01*
X006763Y025163D01*
X006657Y025269D01*
X006560Y025269D01*
X009202Y027911D01*
X009216Y027877D01*
X009371Y027723D01*
X009453Y027689D01*
X009371Y027655D01*
X009216Y027500D01*
X009133Y027298D01*
X009133Y027079D01*
X009212Y026889D01*
X009030Y026889D01*
X009020Y026899D01*
X008846Y026899D01*
X008346Y026399D01*
X008223Y026276D01*
X008223Y025276D01*
X008223Y025102D01*
X008346Y024979D01*
X009174Y024979D01*
X009216Y024877D01*
X009371Y024723D01*
X009453Y024689D01*
X009371Y024655D01*
X009216Y024500D01*
X009133Y024298D01*
X009133Y024079D01*
X009216Y023877D01*
X009371Y023723D01*
X009453Y023689D01*
X009371Y023655D01*
X009216Y023500D01*
X009133Y023298D01*
X009133Y023079D01*
X009216Y022877D01*
X009267Y022827D01*
X009260Y022813D01*
X006346Y019899D01*
X006223Y019776D01*
X006223Y009269D01*
X005708Y009269D01*
X005603Y009163D01*
X005603Y008214D01*
X005708Y008109D01*
X006657Y008109D01*
X006763Y008214D01*
X006763Y008312D01*
X008096Y006979D01*
X008175Y007494D02*
X017482Y007494D01*
X017467Y007505D02*
X017523Y007464D01*
X017584Y007433D01*
X017649Y007412D01*
X017718Y007401D01*
X018009Y007401D01*
X018009Y007838D01*
X018010Y007838D01*
X018010Y007839D01*
X018009Y007839D01*
X018009Y008276D01*
X017718Y008276D01*
X017649Y008265D01*
X017584Y008244D01*
X017523Y008213D01*
X017467Y008172D01*
X017418Y008123D01*
X017378Y008068D01*
X017347Y008006D01*
X017325Y007941D01*
X017314Y007873D01*
X017314Y007839D01*
X018009Y007839D01*
X018009Y007838D01*
X017314Y007838D01*
X017314Y007804D01*
X017325Y007736D01*
X017347Y007670D01*
X017378Y007609D01*
X017418Y007553D01*
X017467Y007505D01*
X017356Y007652D02*
X008016Y007652D01*
X007857Y007811D02*
X017314Y007811D01*
X017335Y007969D02*
X007699Y007969D01*
X007540Y008128D02*
X017423Y008128D01*
X017558Y008445D02*
X007223Y008445D01*
X007065Y008604D02*
X017376Y008604D01*
X017381Y008591D02*
X017504Y008468D01*
X017665Y008401D01*
X018354Y008401D01*
X018515Y008468D01*
X018638Y008591D01*
X018704Y008751D01*
X018704Y008925D01*
X018638Y009086D01*
X018632Y009092D01*
X028020Y018479D01*
X028143Y018602D01*
X028143Y019055D01*
X028216Y018877D01*
X028371Y018723D01*
X028453Y018689D01*
X028371Y018655D01*
X028216Y018500D01*
X028133Y018298D01*
X028133Y018079D01*
X028216Y017877D01*
X028371Y017723D01*
X028573Y017639D01*
X028792Y017639D01*
X028994Y017723D01*
X029149Y017877D01*
X029233Y018079D01*
X029233Y018298D01*
X029149Y018500D01*
X028994Y018655D01*
X028913Y018689D01*
X028994Y018723D01*
X029149Y018877D01*
X029233Y019079D01*
X029233Y019298D01*
X029149Y019500D01*
X028994Y019655D01*
X028913Y019689D01*
X028994Y019723D01*
X029149Y019877D01*
X029233Y020079D01*
X029233Y020298D01*
X029149Y020500D01*
X028994Y020655D01*
X028913Y020689D01*
X028971Y020718D01*
X029041Y020769D01*
X029102Y020831D01*
X029153Y020901D01*
X029192Y020978D01*
X029219Y021060D01*
X029233Y021146D01*
X029233Y021169D01*
X028703Y021169D01*
X028703Y021209D01*
X029233Y021209D01*
X029233Y021232D01*
X029219Y021318D01*
X029192Y021400D01*
X029153Y021477D01*
X029102Y021547D01*
X029041Y021608D01*
X028971Y021659D01*
X028913Y021689D01*
X028994Y021723D01*
X029149Y021877D01*
X029233Y022079D01*
X029233Y022298D01*
X029149Y022500D01*
X028994Y022655D01*
X028913Y022689D01*
X028994Y022723D01*
X029149Y022877D01*
X029233Y023079D01*
X029233Y023298D01*
X029149Y023500D01*
X028994Y023655D01*
X028792Y023739D01*
X028573Y023739D01*
X028371Y023655D01*
X028216Y023500D01*
X028133Y023298D01*
X028133Y023079D01*
X028216Y022877D01*
X028371Y022723D01*
X028453Y022689D01*
X028371Y022655D01*
X028216Y022500D01*
X028133Y022298D01*
X028133Y022079D01*
X028216Y021877D01*
X028371Y021723D01*
X028453Y021689D01*
X028394Y021659D01*
X028324Y021608D01*
X028263Y021547D01*
X028212Y021477D01*
X028173Y021400D01*
X028146Y021318D01*
X028133Y021232D01*
X028133Y021209D01*
X028662Y021209D01*
X028662Y021169D01*
X028133Y021169D01*
X028133Y021146D01*
X028146Y021060D01*
X028173Y020978D01*
X028212Y020901D01*
X028263Y020831D01*
X028324Y020769D01*
X028394Y020718D01*
X028453Y020689D01*
X028371Y020655D01*
X028216Y020500D01*
X028174Y020399D01*
X027846Y020399D01*
X027723Y020276D01*
X027723Y020102D01*
X027723Y018776D01*
X018704Y009757D01*
X018704Y009925D01*
X018638Y010086D01*
X018515Y010209D01*
X018354Y010276D01*
X017665Y010276D01*
X017504Y010209D01*
X017381Y010086D01*
X017314Y009925D01*
X017314Y009751D01*
X017381Y009591D01*
X017504Y009468D01*
X017665Y009401D01*
X018348Y009401D01*
X018223Y009276D01*
X017665Y009276D01*
X017504Y009209D01*
X017381Y009086D01*
X017314Y008925D01*
X017314Y008751D01*
X017381Y008591D01*
X017314Y008762D02*
X006906Y008762D01*
X006763Y008921D02*
X017314Y008921D01*
X017378Y009079D02*
X006763Y009079D01*
X006688Y009238D02*
X017573Y009238D01*
X017417Y009555D02*
X013885Y009555D01*
X013902Y009559D02*
X013984Y009593D01*
X014061Y009638D01*
X014132Y009692D01*
X014195Y009755D01*
X014249Y009826D01*
X014294Y009903D01*
X014328Y009986D01*
X014351Y010072D01*
X014363Y010160D01*
X014363Y010186D01*
X013701Y010186D01*
X013701Y009525D01*
X013727Y009525D01*
X013816Y009536D01*
X013902Y009559D01*
X013701Y009555D02*
X013664Y009555D01*
X013664Y009525D02*
X013664Y010186D01*
X013003Y010186D01*
X013003Y010160D01*
X013014Y010072D01*
X013037Y009986D01*
X013071Y009903D01*
X013116Y009826D01*
X013170Y009755D01*
X013233Y009692D01*
X013304Y009638D01*
X013381Y009593D01*
X013464Y009559D01*
X013550Y009536D01*
X013638Y009525D01*
X013664Y009525D01*
X013480Y009555D02*
X006643Y009555D01*
X006643Y009713D02*
X013212Y009713D01*
X013089Y009872D02*
X006643Y009872D01*
X006643Y010031D02*
X013025Y010031D01*
X013003Y010223D02*
X013664Y010223D01*
X013664Y010186D01*
X013701Y010186D01*
X013701Y010223D01*
X013664Y010223D01*
X013664Y010885D01*
X013638Y010885D01*
X013550Y010873D01*
X013464Y010850D01*
X013381Y010816D01*
X013304Y010771D01*
X013233Y010717D01*
X013170Y010654D01*
X013116Y010583D01*
X013071Y010506D01*
X013037Y010424D01*
X013014Y010338D01*
X013003Y010249D01*
X013003Y010223D01*
X013017Y010348D02*
X006643Y010348D01*
X006643Y010506D02*
X013072Y010506D01*
X013181Y010665D02*
X006643Y010665D01*
X006643Y010823D02*
X013400Y010823D01*
X013664Y010823D02*
X013701Y010823D01*
X013701Y010885D02*
X013701Y010223D01*
X014363Y010223D01*
X014363Y010249D01*
X014351Y010338D01*
X014328Y010424D01*
X014294Y010506D01*
X014249Y010583D01*
X014195Y010654D01*
X014132Y010717D01*
X014061Y010771D01*
X013984Y010816D01*
X013902Y010850D01*
X013816Y010873D01*
X013727Y010885D01*
X013701Y010885D01*
X013701Y010665D02*
X013664Y010665D01*
X013664Y010506D02*
X013701Y010506D01*
X013701Y010348D02*
X013664Y010348D01*
X013664Y010189D02*
X006643Y010189D01*
X006223Y010189D02*
X004443Y010189D01*
X004443Y010031D02*
X006223Y010031D01*
X006223Y009872D02*
X004443Y009872D01*
X004443Y009713D02*
X006223Y009713D01*
X006223Y009555D02*
X004443Y009555D01*
X004443Y009396D02*
X006223Y009396D01*
X006643Y009396D02*
X018343Y009396D01*
X018641Y009079D02*
X026643Y009079D01*
X026646Y009060D02*
X026673Y008978D01*
X026712Y008901D01*
X026763Y008831D01*
X026824Y008769D01*
X026894Y008718D01*
X026972Y008679D01*
X027054Y008652D01*
X027139Y008639D01*
X027174Y008639D01*
X027174Y009180D01*
X027191Y009180D01*
X027191Y008639D01*
X027226Y008639D01*
X027311Y008652D01*
X027394Y008679D01*
X027471Y008718D01*
X027541Y008769D01*
X027602Y008831D01*
X027653Y008901D01*
X027692Y008978D01*
X027719Y009060D01*
X027733Y009146D01*
X027733Y009180D01*
X027191Y009180D01*
X027191Y009197D01*
X027733Y009197D01*
X027733Y009232D01*
X027719Y009318D01*
X027692Y009400D01*
X027653Y009477D01*
X027602Y009547D01*
X027541Y009608D01*
X027471Y009659D01*
X027394Y009699D01*
X027311Y009725D01*
X027226Y009739D01*
X027191Y009739D01*
X027191Y009198D01*
X027174Y009198D01*
X027174Y009739D01*
X027139Y009739D01*
X027054Y009725D01*
X026972Y009699D01*
X026894Y009659D01*
X026824Y009608D01*
X026763Y009547D01*
X026712Y009477D01*
X026673Y009400D01*
X026646Y009318D01*
X026633Y009232D01*
X026633Y009197D01*
X027174Y009197D01*
X027174Y009180D01*
X026633Y009180D01*
X026633Y009146D01*
X026646Y009060D01*
X026702Y008921D02*
X018704Y008921D01*
X018704Y008762D02*
X026834Y008762D01*
X027174Y008762D02*
X027191Y008762D01*
X027174Y008921D02*
X027191Y008921D01*
X027174Y009079D02*
X027191Y009079D01*
X027174Y009238D02*
X027191Y009238D01*
X027174Y009396D02*
X027191Y009396D01*
X027174Y009555D02*
X027191Y009555D01*
X027174Y009713D02*
X027191Y009713D01*
X027348Y009713D02*
X030012Y009713D01*
X030073Y009739D02*
X029871Y009655D01*
X029716Y009500D01*
X029633Y009298D01*
X029633Y009079D01*
X027722Y009079D01*
X027732Y009238D02*
X029633Y009238D01*
X029633Y009079D02*
X029716Y008877D01*
X029871Y008723D01*
X030073Y008639D01*
X030292Y008639D01*
X030494Y008723D01*
X030649Y008877D01*
X030733Y009079D01*
X032743Y009079D01*
X032743Y009007D02*
X033000Y008749D01*
X033365Y008749D01*
X033623Y009007D01*
X033623Y009371D01*
X033365Y009629D01*
X033000Y009629D01*
X032743Y009371D01*
X032743Y009007D01*
X032829Y008921D02*
X030667Y008921D01*
X030733Y009079D02*
X030733Y009298D01*
X030649Y009500D01*
X030494Y009655D01*
X030292Y009739D01*
X030073Y009739D01*
X030353Y009713D02*
X034923Y009713D01*
X034923Y009555D02*
X033439Y009555D01*
X033597Y009396D02*
X034923Y009396D01*
X034923Y009238D02*
X033623Y009238D01*
X033623Y009079D02*
X034923Y009079D01*
X034923Y008921D02*
X033537Y008921D01*
X033378Y008762D02*
X034923Y008762D01*
X034923Y008604D02*
X033390Y008604D01*
X033549Y008445D02*
X034923Y008445D01*
X034923Y008287D02*
X033623Y008287D01*
X033623Y008128D02*
X034923Y008128D01*
X034923Y007969D02*
X033586Y007969D01*
X033427Y007811D02*
X034923Y007811D01*
X034923Y007652D02*
X032943Y007652D01*
X032785Y007494D02*
X034923Y007494D01*
X034923Y007335D02*
X032626Y007335D01*
X032468Y007177D02*
X034923Y007177D01*
X034923Y007018D02*
X032309Y007018D01*
X032191Y007494D02*
X018537Y007494D01*
X018552Y007505D02*
X018601Y007553D01*
X018641Y007609D01*
X018672Y007670D01*
X018694Y007736D01*
X018704Y007804D01*
X018704Y007838D01*
X018010Y007838D01*
X018010Y007401D01*
X018301Y007401D01*
X018369Y007412D01*
X018435Y007433D01*
X018496Y007464D01*
X018552Y007505D01*
X018663Y007652D02*
X032349Y007652D01*
X032508Y007811D02*
X018704Y007811D01*
X018704Y007839D02*
X018704Y007873D01*
X018694Y007941D01*
X018672Y008006D01*
X018641Y008068D01*
X018601Y008123D01*
X018552Y008172D01*
X018496Y008213D01*
X018435Y008244D01*
X018369Y008265D01*
X018301Y008276D01*
X018010Y008276D01*
X018010Y007839D01*
X018704Y007839D01*
X018684Y007969D02*
X032666Y007969D01*
X032743Y008128D02*
X018596Y008128D01*
X018461Y008445D02*
X032817Y008445D01*
X032743Y008287D02*
X007382Y008287D01*
X007105Y007969D02*
X004443Y007969D01*
X004443Y007811D02*
X005887Y007811D01*
X005714Y007652D02*
X004443Y007652D01*
X004443Y007494D02*
X005632Y007494D01*
X005617Y007177D02*
X004443Y007177D01*
X004443Y007335D02*
X006144Y007335D01*
X006144Y007494D02*
X006221Y007494D01*
X006221Y007652D02*
X006144Y007652D01*
X006144Y007811D02*
X006221Y007811D01*
X006479Y007811D02*
X007264Y007811D01*
X007422Y007652D02*
X006651Y007652D01*
X006733Y007494D02*
X007581Y007494D01*
X006946Y008128D02*
X006676Y008128D01*
X006763Y008287D02*
X006788Y008287D01*
X005689Y008128D02*
X004443Y008128D01*
X004443Y008287D02*
X005603Y008287D01*
X005603Y008445D02*
X004443Y008445D01*
X004443Y008604D02*
X005603Y008604D01*
X005603Y008762D02*
X004443Y008762D01*
X004443Y008921D02*
X005603Y008921D01*
X005603Y009079D02*
X004443Y009079D01*
X004443Y009238D02*
X005677Y009238D01*
X006223Y010348D02*
X004443Y010348D01*
X004443Y010506D02*
X006223Y010506D01*
X006223Y010665D02*
X004443Y010665D01*
X004443Y010823D02*
X006223Y010823D01*
X006223Y010982D02*
X004443Y010982D01*
X004443Y011140D02*
X006223Y011140D01*
X006223Y011299D02*
X004443Y011299D01*
X004443Y011457D02*
X006223Y011457D01*
X006223Y011616D02*
X004443Y011616D01*
X004443Y011775D02*
X006223Y011775D01*
X006223Y011933D02*
X004443Y011933D01*
X004443Y012092D02*
X006223Y012092D01*
X006223Y012250D02*
X004443Y012250D01*
X004443Y012409D02*
X006223Y012409D01*
X006223Y012567D02*
X004443Y012567D01*
X004443Y012726D02*
X006223Y012726D01*
X006223Y012884D02*
X004443Y012884D01*
X004443Y013043D02*
X006223Y013043D01*
X006223Y013201D02*
X004443Y013201D01*
X004443Y013360D02*
X006223Y013360D01*
X006223Y013519D02*
X004443Y013519D01*
X004443Y013677D02*
X006223Y013677D01*
X006223Y013836D02*
X004443Y013836D01*
X004443Y013994D02*
X006223Y013994D01*
X006223Y014153D02*
X004443Y014153D01*
X004443Y014311D02*
X006223Y014311D01*
X006223Y014470D02*
X004443Y014470D01*
X004443Y014628D02*
X006223Y014628D01*
X006223Y014787D02*
X004443Y014787D01*
X004443Y014945D02*
X006223Y014945D01*
X006223Y015104D02*
X004443Y015104D01*
X004443Y015262D02*
X006223Y015262D01*
X006223Y015421D02*
X004443Y015421D01*
X004443Y015580D02*
X006223Y015580D01*
X006223Y015738D02*
X004443Y015738D01*
X004443Y015897D02*
X006223Y015897D01*
X006223Y016055D02*
X004443Y016055D01*
X004443Y016214D02*
X006223Y016214D01*
X006223Y016372D02*
X004443Y016372D01*
X004443Y016531D02*
X006223Y016531D01*
X006223Y016689D02*
X004443Y016689D01*
X004443Y016848D02*
X006223Y016848D01*
X006223Y017006D02*
X004443Y017006D01*
X004443Y017165D02*
X006223Y017165D01*
X006223Y017324D02*
X004443Y017324D01*
X004443Y017482D02*
X006223Y017482D01*
X006223Y017641D02*
X004443Y017641D01*
X004443Y017799D02*
X006223Y017799D01*
X006223Y017958D02*
X004443Y017958D01*
X004443Y018116D02*
X006223Y018116D01*
X006223Y018275D02*
X004443Y018275D01*
X004443Y018433D02*
X006223Y018433D01*
X006223Y018592D02*
X004443Y018592D01*
X004443Y018750D02*
X006223Y018750D01*
X006223Y018909D02*
X004443Y018909D01*
X004443Y019068D02*
X006223Y019068D01*
X006223Y019226D02*
X004443Y019226D01*
X004443Y019385D02*
X006223Y019385D01*
X006223Y019543D02*
X004443Y019543D01*
X004443Y019702D02*
X006223Y019702D01*
X006307Y019860D02*
X004443Y019860D01*
X004443Y020019D02*
X006466Y020019D01*
X006624Y020177D02*
X004443Y020177D01*
X004443Y020336D02*
X006783Y020336D01*
X006941Y020494D02*
X004443Y020494D01*
X004443Y020653D02*
X007100Y020653D01*
X007258Y020811D02*
X004443Y020811D01*
X004443Y020970D02*
X007417Y020970D01*
X007575Y021129D02*
X004443Y021129D01*
X004443Y021287D02*
X007734Y021287D01*
X007893Y021446D02*
X004443Y021446D01*
X004443Y021604D02*
X008051Y021604D01*
X008210Y021763D02*
X004443Y021763D01*
X004443Y021921D02*
X008368Y021921D01*
X008527Y022080D02*
X004443Y022080D01*
X004443Y022238D02*
X008685Y022238D01*
X008844Y022397D02*
X004443Y022397D01*
X004443Y022555D02*
X009002Y022555D01*
X009161Y022714D02*
X004443Y022714D01*
X004443Y022873D02*
X005801Y022873D01*
X005854Y022819D02*
X006067Y022731D01*
X006298Y022731D01*
X006511Y022819D01*
X006674Y022982D01*
X006763Y023195D01*
X006763Y023426D01*
X006674Y023639D01*
X006511Y023803D01*
X006298Y023891D01*
X006067Y023891D01*
X005854Y023803D01*
X005691Y023639D01*
X005603Y023426D01*
X005603Y023195D01*
X005691Y022982D01*
X005854Y022819D01*
X005671Y023031D02*
X004443Y023031D01*
X004443Y023190D02*
X005605Y023190D01*
X005603Y023348D02*
X004443Y023348D01*
X004443Y023507D02*
X005636Y023507D01*
X005717Y023665D02*
X004443Y023665D01*
X004443Y023824D02*
X005906Y023824D01*
X005676Y024141D02*
X004443Y024141D01*
X004443Y024299D02*
X005603Y024299D01*
X005603Y024458D02*
X004443Y024458D01*
X004443Y024617D02*
X005603Y024617D01*
X005603Y024775D02*
X004443Y024775D01*
X004443Y024934D02*
X005603Y024934D01*
X005603Y025092D02*
X004443Y025092D01*
X004443Y025251D02*
X005690Y025251D01*
X006106Y025409D02*
X004443Y025409D01*
X004443Y025568D02*
X006265Y025568D01*
X006423Y025726D02*
X004443Y025726D01*
X004443Y025885D02*
X006582Y025885D01*
X006740Y026043D02*
X004443Y026043D01*
X004443Y026202D02*
X006899Y026202D01*
X007057Y026361D02*
X004443Y026361D01*
X004443Y026519D02*
X007216Y026519D01*
X007374Y026678D02*
X004443Y026678D01*
X004443Y026836D02*
X007533Y026836D01*
X007692Y026995D02*
X004443Y026995D01*
X004443Y027153D02*
X007850Y027153D01*
X008009Y027312D02*
X004443Y027312D01*
X004443Y027470D02*
X008167Y027470D01*
X008326Y027629D02*
X004443Y027629D01*
X004443Y027787D02*
X005932Y027787D01*
X005960Y027773D02*
X006047Y027745D01*
X006137Y027731D01*
X006144Y027731D01*
X006144Y028272D01*
X006221Y028272D01*
X006221Y027731D01*
X006228Y027731D01*
X006319Y027745D01*
X006405Y027773D01*
X006487Y027815D01*
X006561Y027868D01*
X006625Y027933D01*
X006679Y028007D01*
X006720Y028088D01*
X006748Y028175D01*
X006763Y028265D01*
X006763Y028273D01*
X006221Y028273D01*
X006221Y028349D01*
X006763Y028349D01*
X006763Y028356D01*
X006748Y028447D01*
X006720Y028534D01*
X006679Y028615D01*
X006625Y028689D01*
X006561Y028753D01*
X006487Y028807D01*
X006405Y028848D01*
X006319Y028877D01*
X006228Y028891D01*
X006221Y028891D01*
X006221Y028349D01*
X006144Y028349D01*
X006144Y028273D01*
X005603Y028273D01*
X005603Y028265D01*
X005617Y028175D01*
X005645Y028088D01*
X005687Y028007D01*
X005740Y027933D01*
X005805Y027868D01*
X005879Y027815D01*
X005960Y027773D01*
X006144Y027787D02*
X006221Y027787D01*
X006221Y027946D02*
X006144Y027946D01*
X006144Y028104D02*
X006221Y028104D01*
X006221Y028263D02*
X006144Y028263D01*
X006144Y028349D02*
X005603Y028349D01*
X005603Y028356D01*
X005617Y028447D01*
X005645Y028534D01*
X005687Y028615D01*
X005740Y028689D01*
X005805Y028753D01*
X005879Y028807D01*
X005960Y028848D01*
X006047Y028877D01*
X006137Y028891D01*
X006144Y028891D01*
X006144Y028349D01*
X006144Y028422D02*
X006221Y028422D01*
X006221Y028580D02*
X006144Y028580D01*
X006144Y028739D02*
X006221Y028739D01*
X006575Y028739D02*
X009355Y028739D01*
X009296Y028580D02*
X006696Y028580D01*
X006752Y028422D02*
X009184Y028422D01*
X008960Y028263D02*
X006762Y028263D01*
X006725Y028104D02*
X008801Y028104D01*
X008643Y027946D02*
X006634Y027946D01*
X006433Y027787D02*
X008484Y027787D01*
X008761Y027470D02*
X009204Y027470D01*
X009138Y027312D02*
X008603Y027312D01*
X008444Y027153D02*
X009133Y027153D01*
X009168Y026995D02*
X008285Y026995D01*
X008127Y026836D02*
X008783Y026836D01*
X008624Y026678D02*
X007968Y026678D01*
X007810Y026519D02*
X008466Y026519D01*
X008307Y026361D02*
X007651Y026361D01*
X007493Y026202D02*
X008223Y026202D01*
X008223Y026043D02*
X007334Y026043D01*
X007176Y025885D02*
X008223Y025885D01*
X008223Y025726D02*
X007017Y025726D01*
X006859Y025568D02*
X008223Y025568D01*
X008223Y025409D02*
X006700Y025409D01*
X006675Y025251D02*
X008223Y025251D01*
X008232Y025092D02*
X006763Y025092D01*
X006763Y024934D02*
X009193Y024934D01*
X009319Y024775D02*
X006763Y024775D01*
X006763Y024617D02*
X009333Y024617D01*
X009199Y024458D02*
X006763Y024458D01*
X006763Y024299D02*
X009133Y024299D01*
X009133Y024141D02*
X006689Y024141D01*
X006460Y023824D02*
X009270Y023824D01*
X009173Y023982D02*
X004443Y023982D01*
X006648Y023665D02*
X009396Y023665D01*
X009223Y023507D02*
X006729Y023507D01*
X006763Y023348D02*
X009153Y023348D01*
X009133Y023190D02*
X006760Y023190D01*
X006695Y023031D02*
X009153Y023031D01*
X009221Y022873D02*
X006565Y022873D01*
X008169Y021129D02*
X009345Y021129D01*
X009371Y021155D02*
X009216Y021000D01*
X009133Y020798D01*
X009133Y020579D01*
X009216Y020377D01*
X009371Y020223D01*
X009453Y020189D01*
X009371Y020155D01*
X009216Y020000D01*
X009133Y019798D01*
X009133Y019579D01*
X009216Y019377D01*
X009371Y019223D01*
X009453Y019189D01*
X009371Y019155D01*
X009216Y019000D01*
X009133Y018798D01*
X009133Y018579D01*
X009216Y018377D01*
X009371Y018223D01*
X009453Y018189D01*
X009371Y018155D01*
X009216Y018000D01*
X009133Y017798D01*
X009133Y017579D01*
X009216Y017377D01*
X009371Y017223D01*
X009453Y017189D01*
X009371Y017155D01*
X009216Y017000D01*
X009133Y016798D01*
X009133Y016579D01*
X009216Y016377D01*
X009371Y016223D01*
X009453Y016189D01*
X009371Y016155D01*
X009216Y016000D01*
X009133Y015798D01*
X009133Y015579D01*
X009216Y015377D01*
X009371Y015223D01*
X009453Y015189D01*
X009371Y015155D01*
X009216Y015000D01*
X009133Y014798D01*
X009133Y014579D01*
X009216Y014377D01*
X009371Y014223D01*
X009573Y014139D01*
X009792Y014139D01*
X009994Y014223D01*
X010149Y014377D01*
X010233Y014579D01*
X010233Y014798D01*
X010149Y015000D01*
X009994Y015155D01*
X009913Y015189D01*
X009994Y015223D01*
X010149Y015377D01*
X010233Y015579D01*
X010233Y015798D01*
X010149Y016000D01*
X009994Y016155D01*
X009913Y016189D01*
X009994Y016223D01*
X010149Y016377D01*
X010233Y016579D01*
X010233Y016798D01*
X010149Y017000D01*
X009994Y017155D01*
X009913Y017189D01*
X009994Y017223D01*
X010149Y017377D01*
X010233Y017579D01*
X010233Y017798D01*
X010149Y018000D01*
X009994Y018155D01*
X009913Y018189D01*
X009994Y018223D01*
X010149Y018377D01*
X010233Y018579D01*
X010233Y018798D01*
X010149Y019000D01*
X009994Y019155D01*
X009913Y019189D01*
X009994Y019223D01*
X010149Y019377D01*
X010233Y019579D01*
X010233Y019798D01*
X010149Y020000D01*
X009994Y020155D01*
X009913Y020189D01*
X009994Y020223D01*
X010149Y020377D01*
X010191Y020479D01*
X010270Y020479D01*
X010393Y020602D01*
X013270Y023479D01*
X016723Y023479D01*
X016723Y023352D01*
X016723Y020026D01*
X016723Y019852D01*
X017435Y019140D01*
X017381Y019086D01*
X017314Y018925D01*
X017314Y018751D01*
X017381Y018591D01*
X017504Y018468D01*
X017665Y018401D01*
X018348Y018401D01*
X018223Y018276D01*
X017665Y018276D01*
X017504Y018209D01*
X017381Y018086D01*
X017314Y017925D01*
X017314Y017751D01*
X017381Y017591D01*
X017504Y017468D01*
X017665Y017401D01*
X018354Y017401D01*
X018515Y017468D01*
X018638Y017591D01*
X018704Y017751D01*
X018704Y017925D01*
X018638Y018086D01*
X018632Y018092D01*
X022020Y021479D01*
X024346Y021479D01*
X024520Y021479D01*
X025473Y022432D01*
X025473Y018526D01*
X018696Y011749D01*
X018704Y011804D01*
X018704Y011838D01*
X018010Y011838D01*
X018010Y011839D01*
X018009Y011839D01*
X018009Y012276D01*
X017718Y012276D01*
X017649Y012265D01*
X017584Y012244D01*
X017523Y012213D01*
X017467Y012172D01*
X017418Y012123D01*
X017378Y012068D01*
X017347Y012006D01*
X017325Y011941D01*
X017314Y011873D01*
X017314Y011839D01*
X018009Y011839D01*
X018009Y011838D01*
X018010Y011838D01*
X018010Y011401D01*
X018301Y011401D01*
X018357Y011410D01*
X018223Y011276D01*
X017665Y011276D01*
X017504Y011209D01*
X017381Y011086D01*
X017314Y010925D01*
X017314Y010751D01*
X017381Y010591D01*
X017504Y010468D01*
X017665Y010401D01*
X018354Y010401D01*
X018515Y010468D01*
X018638Y010591D01*
X018704Y010751D01*
X018704Y010925D01*
X018638Y011086D01*
X018632Y011092D01*
X025770Y018229D01*
X025893Y018352D01*
X025893Y031352D01*
X025893Y031526D01*
X025770Y031649D01*
X025383Y031649D01*
X025383Y031776D01*
X025316Y031938D01*
X025192Y032062D01*
X025030Y032129D01*
X024335Y032129D01*
X024173Y032062D01*
X024050Y031938D01*
X023983Y031776D01*
X023983Y031601D01*
X024050Y031440D01*
X024173Y031316D01*
X024335Y031249D01*
X025030Y031249D01*
X025062Y031262D01*
X025096Y031229D01*
X025270Y031229D01*
X025473Y031229D01*
X025473Y027649D01*
X025383Y027649D01*
X025383Y027776D01*
X025316Y027938D01*
X025192Y028062D01*
X025030Y028129D01*
X024335Y028129D01*
X024173Y028062D01*
X024050Y027938D01*
X023983Y027776D01*
X023983Y027601D01*
X024050Y027440D01*
X024173Y027316D01*
X024335Y027249D01*
X025030Y027249D01*
X025062Y027262D01*
X025096Y027229D01*
X025223Y027229D01*
X025223Y027031D01*
X025192Y027062D01*
X025030Y027129D01*
X024335Y027129D01*
X024173Y027062D01*
X024050Y026938D01*
X023983Y026776D01*
X023983Y026601D01*
X024002Y026555D01*
X022893Y025446D01*
X022893Y025526D01*
X022893Y031852D01*
X024520Y033479D01*
X031096Y033479D01*
X032743Y031832D01*
X032743Y031507D01*
X033000Y031249D01*
X033365Y031249D01*
X033623Y031507D01*
X033623Y031871D01*
X033365Y032129D01*
X033040Y032129D01*
X031393Y033776D01*
X031270Y033899D01*
X024520Y033899D01*
X024346Y033899D01*
X022596Y032149D01*
X022473Y032026D01*
X022473Y025526D01*
X020846Y023899D01*
X013270Y023899D01*
X013096Y023899D01*
X010163Y020966D01*
X010149Y021000D01*
X009994Y021155D01*
X009913Y021189D01*
X009994Y021223D01*
X010149Y021377D01*
X010233Y021579D01*
X010233Y021798D01*
X010149Y022000D01*
X009994Y022155D01*
X009792Y022239D01*
X009573Y022239D01*
X009371Y022155D01*
X009216Y022000D01*
X009133Y021798D01*
X009133Y021579D01*
X009216Y021377D01*
X009371Y021223D01*
X009453Y021189D01*
X009371Y021155D01*
X009307Y021287D02*
X008328Y021287D01*
X008486Y021446D02*
X009188Y021446D01*
X009133Y021604D02*
X008645Y021604D01*
X008804Y021763D02*
X009133Y021763D01*
X009184Y021921D02*
X008962Y021921D01*
X009121Y022080D02*
X009296Y022080D01*
X009279Y022238D02*
X009572Y022238D01*
X009438Y022397D02*
X011594Y022397D01*
X011752Y022555D02*
X009601Y022555D01*
X009793Y022238D02*
X011435Y022238D01*
X011277Y022080D02*
X010069Y022080D01*
X010182Y021921D02*
X011118Y021921D01*
X010960Y021763D02*
X010233Y021763D01*
X010233Y021604D02*
X010801Y021604D01*
X010643Y021446D02*
X010177Y021446D01*
X010059Y021287D02*
X010484Y021287D01*
X010326Y021129D02*
X010021Y021129D01*
X010161Y020970D02*
X010167Y020970D01*
X010444Y020653D02*
X016723Y020653D01*
X016723Y020811D02*
X010602Y020811D01*
X010761Y020970D02*
X016723Y020970D01*
X016723Y021129D02*
X010919Y021129D01*
X011078Y021287D02*
X016723Y021287D01*
X016723Y021446D02*
X011236Y021446D01*
X011395Y021604D02*
X016723Y021604D01*
X016723Y021763D02*
X011554Y021763D01*
X011712Y021921D02*
X016723Y021921D01*
X016723Y022080D02*
X011871Y022080D01*
X012029Y022238D02*
X016723Y022238D01*
X016723Y022397D02*
X012188Y022397D01*
X012346Y022555D02*
X016723Y022555D01*
X016723Y022714D02*
X012505Y022714D01*
X012663Y022873D02*
X016723Y022873D01*
X016723Y023031D02*
X012822Y023031D01*
X012980Y023190D02*
X016723Y023190D01*
X016723Y023348D02*
X013139Y023348D01*
X012862Y023665D02*
X009970Y023665D01*
X010095Y023824D02*
X013021Y023824D01*
X012704Y023507D02*
X010143Y023507D01*
X010212Y023348D02*
X012545Y023348D01*
X012387Y023190D02*
X010233Y023190D01*
X010213Y023031D02*
X012228Y023031D01*
X012069Y022873D02*
X010144Y022873D01*
X009974Y022714D02*
X011911Y022714D01*
X010192Y023982D02*
X020929Y023982D01*
X021088Y024141D02*
X010233Y024141D01*
X010232Y024299D02*
X021246Y024299D01*
X021405Y024458D02*
X010166Y024458D01*
X010033Y024617D02*
X021563Y024617D01*
X021722Y024775D02*
X019915Y024775D01*
X019920Y024780D02*
X019963Y024883D01*
X019963Y024922D01*
X021303Y026262D01*
X021335Y026249D01*
X022030Y026249D01*
X022192Y026316D01*
X022316Y026440D01*
X022383Y026601D01*
X022383Y026776D01*
X022316Y026938D01*
X022192Y027062D01*
X022030Y027129D01*
X021335Y027129D01*
X021173Y027062D01*
X021050Y026938D01*
X020983Y026776D01*
X020983Y026601D01*
X021002Y026555D01*
X019666Y025219D01*
X019627Y025219D01*
X019524Y025176D01*
X019445Y025097D01*
X019403Y024994D01*
X019403Y024883D01*
X019445Y024780D01*
X019524Y024701D01*
X019627Y024659D01*
X019738Y024659D01*
X019841Y024701D01*
X019920Y024780D01*
X019974Y024934D02*
X021881Y024934D01*
X022039Y025092D02*
X020133Y025092D01*
X020291Y025251D02*
X021331Y025251D01*
X021335Y025249D02*
X021173Y025316D01*
X021050Y025440D01*
X020983Y025601D01*
X020983Y025776D01*
X021050Y025938D01*
X021173Y026062D01*
X021335Y026129D01*
X022030Y026129D01*
X022192Y026062D01*
X022316Y025938D01*
X022383Y025776D01*
X022383Y025601D01*
X022316Y025440D01*
X022192Y025316D01*
X022030Y025249D01*
X021335Y025249D01*
X021080Y025409D02*
X020450Y025409D01*
X020609Y025568D02*
X020997Y025568D01*
X020983Y025726D02*
X020767Y025726D01*
X020926Y025885D02*
X021028Y025885D01*
X021084Y026043D02*
X021155Y026043D01*
X021243Y026202D02*
X022473Y026202D01*
X022473Y026361D02*
X022237Y026361D01*
X022349Y026519D02*
X022473Y026519D01*
X022473Y026678D02*
X022383Y026678D01*
X022358Y026836D02*
X022473Y026836D01*
X022473Y026995D02*
X022259Y026995D01*
X022473Y027153D02*
X021194Y027153D01*
X021106Y026995D02*
X021036Y026995D01*
X021007Y026836D02*
X020877Y026836D01*
X020983Y026678D02*
X020718Y026678D01*
X020560Y026519D02*
X020966Y026519D01*
X020807Y026361D02*
X020401Y026361D01*
X020243Y026202D02*
X020649Y026202D01*
X020490Y026043D02*
X020084Y026043D01*
X020332Y025885D02*
X010152Y025885D01*
X009998Y025726D02*
X020173Y025726D01*
X020015Y025568D02*
X010081Y025568D01*
X010187Y025409D02*
X019856Y025409D01*
X019698Y025251D02*
X010233Y025251D01*
X010233Y025092D02*
X019443Y025092D01*
X019403Y024934D02*
X010172Y024934D01*
X010047Y024775D02*
X019450Y024775D01*
X019966Y026519D02*
X018560Y026519D01*
X018718Y026678D02*
X020125Y026678D01*
X020283Y026836D02*
X018877Y026836D01*
X019035Y026995D02*
X020442Y026995D01*
X020600Y027153D02*
X019194Y027153D01*
X019353Y027312D02*
X020759Y027312D01*
X020917Y027470D02*
X019511Y027470D01*
X019670Y027629D02*
X020983Y027629D01*
X020987Y027787D02*
X019828Y027787D01*
X019987Y027946D02*
X021058Y027946D01*
X021276Y028104D02*
X020145Y028104D01*
X020304Y028263D02*
X021309Y028263D01*
X021320Y028260D02*
X021388Y028249D01*
X021682Y028249D01*
X021682Y028688D01*
X021683Y028688D01*
X021683Y028249D01*
X021977Y028249D01*
X022046Y028260D01*
X022112Y028281D01*
X022173Y028312D01*
X022229Y028353D01*
X022278Y028402D01*
X022319Y028458D01*
X022350Y028520D01*
X022372Y028586D01*
X022383Y028654D01*
X022383Y028689D01*
X022383Y028723D01*
X022372Y028792D01*
X022350Y028858D01*
X022319Y028919D01*
X022278Y028975D01*
X022229Y029024D01*
X022173Y029065D01*
X022112Y029097D01*
X022046Y029118D01*
X021977Y029129D01*
X021683Y029129D01*
X021683Y028689D01*
X022383Y028689D01*
X021683Y028689D01*
X021683Y028689D01*
X021682Y028689D01*
X021682Y028689D01*
X020983Y028689D01*
X020983Y028723D01*
X020994Y028792D01*
X021015Y028858D01*
X021046Y028919D01*
X021087Y028975D01*
X021136Y029024D01*
X021192Y029065D01*
X021254Y029097D01*
X021320Y029118D01*
X021388Y029129D01*
X021682Y029129D01*
X021682Y028689D01*
X020983Y028689D01*
X020983Y028654D01*
X020994Y028586D01*
X021015Y028520D01*
X021046Y028458D01*
X021087Y028402D01*
X021136Y028353D01*
X021192Y028312D01*
X021254Y028281D01*
X021320Y028260D01*
X021073Y028422D02*
X020462Y028422D01*
X020621Y028580D02*
X020995Y028580D01*
X020985Y028739D02*
X020779Y028739D01*
X020938Y028897D02*
X021035Y028897D01*
X021097Y029056D02*
X021179Y029056D01*
X021255Y029214D02*
X022473Y029214D01*
X022473Y029056D02*
X022186Y029056D01*
X022330Y028897D02*
X022473Y028897D01*
X022473Y028739D02*
X022380Y028739D01*
X022370Y028580D02*
X022473Y028580D01*
X022473Y028422D02*
X022292Y028422D01*
X022473Y028263D02*
X022056Y028263D01*
X022089Y028104D02*
X022473Y028104D01*
X022473Y027946D02*
X022308Y027946D01*
X022378Y027787D02*
X022473Y027787D01*
X022473Y027629D02*
X022383Y027629D01*
X022328Y027470D02*
X022473Y027470D01*
X022473Y027312D02*
X022182Y027312D01*
X022893Y027312D02*
X024183Y027312D01*
X024037Y027470D02*
X022893Y027470D01*
X022893Y027629D02*
X023983Y027629D01*
X023987Y027787D02*
X022893Y027787D01*
X022893Y027946D02*
X024058Y027946D01*
X024276Y028104D02*
X022893Y028104D01*
X022893Y028263D02*
X024301Y028263D01*
X024335Y028249D02*
X024173Y028316D01*
X024050Y028440D01*
X023983Y028601D01*
X023983Y028776D01*
X024050Y028938D01*
X024173Y029062D01*
X024335Y029129D01*
X025030Y029129D01*
X025192Y029062D01*
X025316Y028938D01*
X025383Y028776D01*
X025383Y028601D01*
X025316Y028440D01*
X025192Y028316D01*
X025030Y028249D01*
X024335Y028249D01*
X024068Y028422D02*
X022893Y028422D01*
X022893Y028580D02*
X023991Y028580D01*
X023983Y028739D02*
X022893Y028739D01*
X022893Y028897D02*
X024033Y028897D01*
X024167Y029056D02*
X022893Y029056D01*
X022893Y029214D02*
X025473Y029214D01*
X025473Y029056D02*
X025198Y029056D01*
X025333Y028897D02*
X025473Y028897D01*
X025473Y028739D02*
X025383Y028739D01*
X025374Y028580D02*
X025473Y028580D01*
X025473Y028422D02*
X025298Y028422D01*
X025473Y028263D02*
X025064Y028263D01*
X025089Y028104D02*
X025473Y028104D01*
X025473Y027946D02*
X025308Y027946D01*
X025378Y027787D02*
X025473Y027787D01*
X025893Y027787D02*
X028306Y027787D01*
X028371Y027723D02*
X028216Y027877D01*
X028133Y028079D01*
X028133Y028298D01*
X028216Y028500D01*
X028371Y028655D01*
X028453Y028689D01*
X028371Y028723D01*
X028216Y028877D01*
X028133Y029079D01*
X028133Y029298D01*
X028216Y029500D01*
X028371Y029655D01*
X028453Y029689D01*
X028371Y029723D01*
X028216Y029877D01*
X028133Y030079D01*
X028133Y030298D01*
X028216Y030500D01*
X028371Y030655D01*
X028573Y030739D01*
X028792Y030739D01*
X028994Y030655D01*
X029149Y030500D01*
X029191Y030399D01*
X029270Y030399D01*
X032210Y027459D01*
X032402Y027459D01*
X032604Y027375D01*
X032759Y027220D01*
X032843Y027018D01*
X032843Y026799D01*
X032759Y026597D01*
X032604Y026443D01*
X032402Y026359D01*
X032183Y026359D01*
X031981Y026443D01*
X031826Y026597D01*
X031743Y026799D01*
X031743Y027018D01*
X031826Y027220D01*
X031840Y027234D01*
X029163Y029911D01*
X029149Y029877D01*
X028994Y029723D01*
X028913Y029689D01*
X028994Y029655D01*
X029149Y029500D01*
X029233Y029298D01*
X029233Y029079D01*
X029149Y028877D01*
X028994Y028723D01*
X028913Y028689D01*
X028994Y028655D01*
X029149Y028500D01*
X029233Y028298D01*
X029233Y028079D01*
X029149Y027877D01*
X028994Y027723D01*
X028913Y027689D01*
X028994Y027655D01*
X029149Y027500D01*
X029233Y027298D01*
X029233Y027079D01*
X029149Y026877D01*
X028994Y026723D01*
X028913Y026689D01*
X028994Y026655D01*
X029149Y026500D01*
X029233Y026298D01*
X029233Y026079D01*
X029149Y025877D01*
X028994Y025723D01*
X028913Y025689D01*
X028994Y025655D01*
X029149Y025500D01*
X029233Y025298D01*
X029233Y025079D01*
X029149Y024877D01*
X028994Y024723D01*
X028792Y024639D01*
X028573Y024639D01*
X028371Y024723D01*
X028216Y024877D01*
X028133Y025079D01*
X028133Y025298D01*
X028216Y025500D01*
X028371Y025655D01*
X028453Y025689D01*
X028371Y025723D01*
X028216Y025877D01*
X028133Y026079D01*
X028133Y026298D01*
X028216Y026500D01*
X028371Y026655D01*
X028453Y026689D01*
X028371Y026723D01*
X028216Y026877D01*
X028133Y027079D01*
X028133Y027298D01*
X028216Y027500D01*
X028371Y027655D01*
X028453Y027689D01*
X028371Y027723D01*
X028345Y027629D02*
X025893Y027629D01*
X025893Y027470D02*
X028204Y027470D01*
X028138Y027312D02*
X025893Y027312D01*
X025893Y027153D02*
X028133Y027153D01*
X028168Y026995D02*
X025893Y026995D01*
X025893Y026836D02*
X028258Y026836D01*
X028426Y026678D02*
X025893Y026678D01*
X025893Y026519D02*
X028235Y026519D01*
X028159Y026361D02*
X025893Y026361D01*
X025893Y026202D02*
X028133Y026202D01*
X028148Y026043D02*
X025893Y026043D01*
X025893Y025885D02*
X028213Y025885D01*
X028367Y025726D02*
X025893Y025726D01*
X025893Y025568D02*
X028284Y025568D01*
X028179Y025409D02*
X025893Y025409D01*
X025893Y025251D02*
X028133Y025251D01*
X028133Y025092D02*
X025893Y025092D01*
X025893Y024934D02*
X028193Y024934D01*
X028319Y024775D02*
X025893Y024775D01*
X025893Y024617D02*
X034923Y024617D01*
X034923Y024775D02*
X029047Y024775D01*
X029172Y024934D02*
X034923Y024934D01*
X034923Y025092D02*
X029233Y025092D01*
X029233Y025251D02*
X034923Y025251D01*
X034923Y025409D02*
X029187Y025409D01*
X029081Y025568D02*
X034923Y025568D01*
X034923Y025726D02*
X028998Y025726D01*
X029152Y025885D02*
X034923Y025885D01*
X034923Y026043D02*
X029218Y026043D01*
X029233Y026202D02*
X034923Y026202D01*
X034923Y026361D02*
X034127Y026361D01*
X034116Y026359D02*
X034201Y026372D01*
X034284Y026399D01*
X034361Y026438D01*
X034431Y026489D01*
X034492Y026551D01*
X034543Y026621D01*
X034582Y026698D01*
X034609Y026780D01*
X034623Y026866D01*
X034623Y026889D01*
X034093Y026889D01*
X034093Y026929D01*
X034623Y026929D01*
X034623Y026952D01*
X034609Y027038D01*
X034582Y027120D01*
X034543Y027197D01*
X034492Y027267D01*
X034431Y027328D01*
X034361Y027379D01*
X034284Y027419D01*
X034201Y027445D01*
X034116Y027459D01*
X034093Y027459D01*
X034093Y026929D01*
X034053Y026929D01*
X034053Y027459D01*
X034029Y027459D01*
X033944Y027445D01*
X033862Y027419D01*
X033784Y027379D01*
X033714Y027328D01*
X033653Y027267D01*
X033602Y027197D01*
X033563Y027120D01*
X033536Y027038D01*
X033523Y026952D01*
X033523Y026929D01*
X034052Y026929D01*
X034052Y026889D01*
X033523Y026889D01*
X033523Y026866D01*
X033536Y026780D01*
X033563Y026698D01*
X033602Y026621D01*
X033653Y026551D01*
X033714Y026489D01*
X033784Y026438D01*
X033862Y026399D01*
X033944Y026372D01*
X034029Y026359D01*
X034053Y026359D01*
X034053Y026889D01*
X034093Y026889D01*
X034093Y026359D01*
X034116Y026359D01*
X034093Y026361D02*
X034053Y026361D01*
X034019Y026361D02*
X032406Y026361D01*
X032179Y026361D02*
X029207Y026361D01*
X029130Y026519D02*
X031905Y026519D01*
X031793Y026678D02*
X028940Y026678D01*
X029108Y026836D02*
X031743Y026836D01*
X031743Y026995D02*
X029198Y026995D01*
X029233Y027153D02*
X031799Y027153D01*
X031763Y027312D02*
X029227Y027312D01*
X029161Y027470D02*
X031604Y027470D01*
X031446Y027629D02*
X029020Y027629D01*
X029059Y027787D02*
X031287Y027787D01*
X031129Y027946D02*
X029177Y027946D01*
X029233Y028104D02*
X030970Y028104D01*
X030811Y028263D02*
X029233Y028263D01*
X029182Y028422D02*
X030653Y028422D01*
X030494Y028580D02*
X029069Y028580D01*
X029010Y028739D02*
X030336Y028739D01*
X030177Y028897D02*
X029157Y028897D01*
X029223Y029056D02*
X030019Y029056D01*
X029860Y029214D02*
X029233Y029214D01*
X029202Y029373D02*
X029702Y029373D01*
X029543Y029531D02*
X029118Y029531D01*
X028915Y029690D02*
X029385Y029690D01*
X029226Y029848D02*
X029120Y029848D01*
X029503Y030166D02*
X034923Y030166D01*
X034923Y030324D02*
X029344Y030324D01*
X029156Y030483D02*
X034923Y030483D01*
X034923Y030641D02*
X029008Y030641D01*
X028357Y030641D02*
X025893Y030641D01*
X025893Y030483D02*
X028209Y030483D01*
X028143Y030324D02*
X025893Y030324D01*
X025893Y030166D02*
X028133Y030166D01*
X028163Y030007D02*
X025893Y030007D01*
X025893Y029848D02*
X028245Y029848D01*
X028450Y029690D02*
X025893Y029690D01*
X025893Y029531D02*
X028247Y029531D01*
X028164Y029373D02*
X025893Y029373D01*
X025893Y029214D02*
X028133Y029214D01*
X028142Y029056D02*
X025893Y029056D01*
X025893Y028897D02*
X028208Y028897D01*
X028355Y028739D02*
X025893Y028739D01*
X025893Y028580D02*
X028296Y028580D01*
X028184Y028422D02*
X025893Y028422D01*
X025893Y028263D02*
X028133Y028263D01*
X028133Y028104D02*
X025893Y028104D01*
X025893Y027946D02*
X028188Y027946D01*
X029979Y029690D02*
X031789Y029690D01*
X031826Y029780D02*
X031743Y029578D01*
X031743Y029359D01*
X031826Y029157D01*
X031981Y029003D01*
X032183Y028919D01*
X032402Y028919D01*
X032604Y029003D01*
X032759Y029157D01*
X032843Y029359D01*
X032843Y029578D01*
X032759Y029780D01*
X032604Y029935D01*
X032402Y030019D01*
X032183Y030019D01*
X031981Y029935D01*
X031826Y029780D01*
X031895Y029848D02*
X029820Y029848D01*
X029661Y030007D02*
X032155Y030007D01*
X032431Y030007D02*
X033935Y030007D01*
X033963Y030019D02*
X033761Y029935D01*
X033606Y029780D01*
X033523Y029578D01*
X033523Y029359D01*
X033606Y029157D01*
X033761Y029003D01*
X033963Y028919D01*
X034182Y028919D01*
X034384Y029003D01*
X034539Y029157D01*
X034623Y029359D01*
X034623Y029578D01*
X034539Y029780D01*
X034384Y029935D01*
X034182Y030019D01*
X033963Y030019D01*
X034211Y030007D02*
X034923Y030007D01*
X034923Y029848D02*
X034471Y029848D01*
X034576Y029690D02*
X034923Y029690D01*
X034923Y029531D02*
X034623Y029531D01*
X034623Y029373D02*
X034923Y029373D01*
X034923Y029214D02*
X034563Y029214D01*
X034437Y029056D02*
X034923Y029056D01*
X034923Y028897D02*
X030771Y028897D01*
X030613Y029056D02*
X031928Y029056D01*
X031803Y029214D02*
X030454Y029214D01*
X030296Y029373D02*
X031743Y029373D01*
X031743Y029531D02*
X030137Y029531D01*
X030930Y028739D02*
X034923Y028739D01*
X034923Y028580D02*
X031088Y028580D01*
X031247Y028422D02*
X034923Y028422D01*
X034923Y028263D02*
X031405Y028263D01*
X031564Y028104D02*
X034923Y028104D01*
X034923Y027946D02*
X031722Y027946D01*
X031881Y027787D02*
X034923Y027787D01*
X034923Y027629D02*
X032040Y027629D01*
X032198Y027470D02*
X034923Y027470D01*
X034923Y027312D02*
X034447Y027312D01*
X034565Y027153D02*
X034923Y027153D01*
X034923Y026995D02*
X034616Y026995D01*
X034618Y026836D02*
X034923Y026836D01*
X034923Y026678D02*
X034572Y026678D01*
X034461Y026519D02*
X034923Y026519D01*
X034093Y026519D02*
X034053Y026519D01*
X034053Y026678D02*
X034093Y026678D01*
X034093Y026836D02*
X034053Y026836D01*
X034053Y026995D02*
X034093Y026995D01*
X034093Y027153D02*
X034053Y027153D01*
X034053Y027312D02*
X034093Y027312D01*
X033698Y027312D02*
X032667Y027312D01*
X032787Y027153D02*
X033580Y027153D01*
X033529Y026995D02*
X032843Y026995D01*
X032843Y026836D02*
X033527Y026836D01*
X033573Y026678D02*
X032792Y026678D01*
X032681Y026519D02*
X033685Y026519D01*
X034923Y024458D02*
X025893Y024458D01*
X025893Y024299D02*
X034923Y024299D01*
X034923Y024141D02*
X025893Y024141D01*
X025893Y023982D02*
X034923Y023982D01*
X034923Y023824D02*
X025893Y023824D01*
X025893Y023665D02*
X028396Y023665D01*
X028223Y023507D02*
X025893Y023507D01*
X025893Y023348D02*
X028153Y023348D01*
X028133Y023190D02*
X026911Y023190D01*
X026894Y023199D02*
X026811Y023225D01*
X026726Y023239D01*
X026691Y023239D01*
X026691Y022698D01*
X026674Y022698D01*
X026674Y023239D01*
X026639Y023239D01*
X026554Y023225D01*
X026472Y023199D01*
X026394Y023159D01*
X026324Y023108D01*
X026263Y023047D01*
X026212Y022977D01*
X026173Y022900D01*
X026146Y022818D01*
X026133Y022732D01*
X026133Y022697D01*
X026674Y022697D01*
X026674Y022680D01*
X026691Y022680D01*
X026691Y022139D01*
X026726Y022139D01*
X026811Y022152D01*
X026894Y022179D01*
X026971Y022218D01*
X027041Y022269D01*
X027102Y022331D01*
X027153Y022401D01*
X027192Y022478D01*
X027219Y022560D01*
X027233Y022646D01*
X027233Y022680D01*
X026691Y022680D01*
X026691Y022697D01*
X027233Y022697D01*
X027233Y022732D01*
X027219Y022818D01*
X027192Y022900D01*
X027153Y022977D01*
X027102Y023047D01*
X027041Y023108D01*
X026971Y023159D01*
X026894Y023199D01*
X026691Y023190D02*
X026674Y023190D01*
X026674Y023031D02*
X026691Y023031D01*
X026674Y022873D02*
X026691Y022873D01*
X026674Y022714D02*
X026691Y022714D01*
X026674Y022680D02*
X026133Y022680D01*
X026133Y022646D01*
X026146Y022560D01*
X026173Y022478D01*
X026212Y022401D01*
X026263Y022331D01*
X026324Y022269D01*
X026394Y022218D01*
X026472Y022179D01*
X026554Y022152D01*
X026639Y022139D01*
X026674Y022139D01*
X026674Y022680D01*
X026674Y022555D02*
X026691Y022555D01*
X026674Y022397D02*
X026691Y022397D01*
X026674Y022238D02*
X026691Y022238D01*
X026998Y022238D02*
X028133Y022238D01*
X028133Y022080D02*
X025893Y022080D01*
X025893Y022238D02*
X026367Y022238D01*
X026215Y022397D02*
X025893Y022397D01*
X025893Y022555D02*
X026148Y022555D01*
X026133Y022714D02*
X025893Y022714D01*
X025893Y022873D02*
X026164Y022873D01*
X026252Y023031D02*
X025893Y023031D01*
X025893Y023190D02*
X026454Y023190D01*
X027114Y023031D02*
X028153Y023031D01*
X028221Y022873D02*
X027201Y022873D01*
X027233Y022714D02*
X028392Y022714D01*
X028272Y022555D02*
X027218Y022555D01*
X027150Y022397D02*
X028174Y022397D01*
X028198Y021921D02*
X025893Y021921D01*
X025893Y021763D02*
X028331Y021763D01*
X028320Y021604D02*
X025893Y021604D01*
X025893Y021446D02*
X028196Y021446D01*
X028141Y021287D02*
X025893Y021287D01*
X025893Y021129D02*
X028135Y021129D01*
X028177Y020970D02*
X025893Y020970D01*
X025893Y020811D02*
X028282Y020811D01*
X028369Y020653D02*
X025893Y020653D01*
X025893Y020494D02*
X028214Y020494D01*
X027783Y020336D02*
X025893Y020336D01*
X025893Y020177D02*
X027723Y020177D01*
X027723Y020019D02*
X025893Y020019D01*
X025893Y019860D02*
X027723Y019860D01*
X027723Y019702D02*
X025893Y019702D01*
X025893Y019543D02*
X027723Y019543D01*
X027723Y019385D02*
X025893Y019385D01*
X025893Y019226D02*
X027723Y019226D01*
X027723Y019068D02*
X025893Y019068D01*
X025893Y018909D02*
X027723Y018909D01*
X027697Y018750D02*
X025893Y018750D01*
X025893Y018592D02*
X027539Y018592D01*
X027380Y018433D02*
X025893Y018433D01*
X025816Y018275D02*
X027222Y018275D01*
X027063Y018116D02*
X025657Y018116D01*
X025499Y017958D02*
X026905Y017958D01*
X026746Y017799D02*
X025340Y017799D01*
X025181Y017641D02*
X026588Y017641D01*
X026429Y017482D02*
X025023Y017482D01*
X024864Y017324D02*
X026270Y017324D01*
X026112Y017165D02*
X024706Y017165D01*
X024547Y017006D02*
X025953Y017006D01*
X025795Y016848D02*
X024389Y016848D01*
X024230Y016689D02*
X025636Y016689D01*
X025478Y016531D02*
X024072Y016531D01*
X023913Y016372D02*
X025319Y016372D01*
X025161Y016214D02*
X023755Y016214D01*
X023596Y016055D02*
X025002Y016055D01*
X024844Y015897D02*
X023437Y015897D01*
X023279Y015738D02*
X024685Y015738D01*
X024526Y015580D02*
X023120Y015580D01*
X022962Y015421D02*
X024368Y015421D01*
X024209Y015262D02*
X022803Y015262D01*
X022645Y015104D02*
X024051Y015104D01*
X023892Y014945D02*
X022486Y014945D01*
X022328Y014787D02*
X023734Y014787D01*
X023575Y014628D02*
X022169Y014628D01*
X022011Y014470D02*
X023417Y014470D01*
X023258Y014311D02*
X021852Y014311D01*
X021693Y014153D02*
X023100Y014153D01*
X022941Y013994D02*
X021535Y013994D01*
X021376Y013836D02*
X022783Y013836D01*
X022624Y013677D02*
X021218Y013677D01*
X021059Y013519D02*
X022465Y013519D01*
X022307Y013360D02*
X020901Y013360D01*
X020742Y013201D02*
X022148Y013201D01*
X021990Y013043D02*
X020584Y013043D01*
X020425Y012884D02*
X021831Y012884D01*
X021673Y012726D02*
X020267Y012726D01*
X020108Y012567D02*
X021514Y012567D01*
X021356Y012409D02*
X019949Y012409D01*
X019791Y012250D02*
X021197Y012250D01*
X021039Y012092D02*
X019632Y012092D01*
X019474Y011933D02*
X020880Y011933D01*
X020721Y011775D02*
X019315Y011775D01*
X019157Y011616D02*
X020563Y011616D01*
X020404Y011457D02*
X018998Y011457D01*
X018840Y011299D02*
X020246Y011299D01*
X020087Y011140D02*
X018681Y011140D01*
X018681Y010982D02*
X019929Y010982D01*
X019770Y010823D02*
X018704Y010823D01*
X018668Y010665D02*
X019612Y010665D01*
X019453Y010506D02*
X018553Y010506D01*
X018535Y010189D02*
X019136Y010189D01*
X018977Y010031D02*
X018661Y010031D01*
X018704Y009872D02*
X018819Y009872D01*
X019096Y009555D02*
X026771Y009555D01*
X026672Y009396D02*
X018937Y009396D01*
X018779Y009238D02*
X026634Y009238D01*
X027018Y009713D02*
X019254Y009713D01*
X019413Y009872D02*
X034923Y009872D01*
X034923Y010031D02*
X019571Y010031D01*
X019730Y010189D02*
X034923Y010189D01*
X034923Y010348D02*
X019888Y010348D01*
X020047Y010506D02*
X034923Y010506D01*
X034923Y010665D02*
X020206Y010665D01*
X020364Y010823D02*
X034923Y010823D01*
X034923Y010982D02*
X034423Y010982D01*
X034384Y010943D02*
X034539Y011097D01*
X034623Y011299D01*
X034623Y011518D01*
X034539Y011720D01*
X034384Y011875D01*
X034182Y011959D01*
X033963Y011959D01*
X033761Y011875D01*
X033606Y011720D01*
X033523Y011518D01*
X033523Y011299D01*
X032842Y011299D01*
X032843Y011299D02*
X032759Y011097D01*
X032604Y010943D01*
X032402Y010859D01*
X032183Y010859D01*
X031981Y010943D01*
X031826Y011097D01*
X031743Y011299D01*
X020840Y011299D01*
X020998Y011457D02*
X031743Y011457D01*
X031743Y011518D02*
X031743Y011299D01*
X031809Y011140D02*
X020681Y011140D01*
X020523Y010982D02*
X031942Y010982D01*
X032643Y010982D02*
X033722Y010982D01*
X033761Y010943D02*
X033963Y010859D01*
X034182Y010859D01*
X034384Y010943D01*
X034557Y011140D02*
X034923Y011140D01*
X034923Y011299D02*
X034622Y011299D01*
X034623Y011457D02*
X034923Y011457D01*
X034923Y011616D02*
X034582Y011616D01*
X034485Y011775D02*
X034923Y011775D01*
X034923Y011933D02*
X034244Y011933D01*
X033901Y011933D02*
X032464Y011933D01*
X032402Y011959D02*
X032183Y011959D01*
X031981Y011875D01*
X031826Y011720D01*
X031743Y011518D01*
X031783Y011616D02*
X021157Y011616D01*
X021315Y011775D02*
X031881Y011775D01*
X032121Y011933D02*
X021474Y011933D01*
X021632Y012092D02*
X034923Y012092D01*
X034923Y012250D02*
X021791Y012250D01*
X021949Y012409D02*
X034923Y012409D01*
X034923Y012567D02*
X022108Y012567D01*
X022267Y012726D02*
X034923Y012726D01*
X034923Y012884D02*
X022425Y012884D01*
X022584Y013043D02*
X034923Y013043D01*
X034923Y013201D02*
X022742Y013201D01*
X022901Y013360D02*
X034923Y013360D01*
X034923Y013519D02*
X034400Y013519D01*
X034384Y013503D02*
X034539Y013657D01*
X034623Y013859D01*
X034623Y014078D01*
X034539Y014280D01*
X034384Y014435D01*
X034182Y014519D01*
X033963Y014519D01*
X033761Y014435D01*
X033606Y014280D01*
X033523Y014078D01*
X033523Y013859D01*
X033606Y013657D01*
X033761Y013503D01*
X033963Y013419D01*
X034182Y013419D01*
X034384Y013503D01*
X034547Y013677D02*
X034923Y013677D01*
X034923Y013836D02*
X034613Y013836D01*
X034623Y013994D02*
X034923Y013994D01*
X034923Y014153D02*
X034592Y014153D01*
X034508Y014311D02*
X034923Y014311D01*
X034923Y014470D02*
X034300Y014470D01*
X034923Y014628D02*
X024169Y014628D01*
X024011Y014470D02*
X032064Y014470D01*
X032082Y014479D02*
X032004Y014439D01*
X031934Y014388D01*
X031873Y014327D01*
X031822Y014257D01*
X031783Y014180D01*
X031756Y014098D01*
X031743Y014012D01*
X031743Y013989D01*
X032272Y013989D01*
X032272Y013949D01*
X031743Y013949D01*
X031743Y013926D01*
X031756Y013840D01*
X031783Y013758D01*
X031822Y013681D01*
X031873Y013611D01*
X031934Y013549D01*
X032004Y013498D01*
X032082Y013459D01*
X032164Y013432D01*
X032249Y013419D01*
X032273Y013419D01*
X032273Y013949D01*
X032313Y013949D01*
X032313Y013989D01*
X032843Y013989D01*
X032843Y014012D01*
X032829Y014098D01*
X032802Y014180D01*
X032763Y014257D01*
X032712Y014327D01*
X032651Y014388D01*
X032581Y014439D01*
X032504Y014479D01*
X032421Y014505D01*
X032336Y014519D01*
X032313Y014519D01*
X032313Y013989D01*
X032273Y013989D01*
X032273Y014519D01*
X032249Y014519D01*
X032164Y014505D01*
X032082Y014479D01*
X032273Y014470D02*
X032313Y014470D01*
X032313Y014311D02*
X032273Y014311D01*
X032273Y014153D02*
X032313Y014153D01*
X032313Y013994D02*
X032273Y013994D01*
X032313Y013949D02*
X032843Y013949D01*
X032843Y013926D01*
X032829Y013840D01*
X032802Y013758D01*
X032763Y013681D01*
X032712Y013611D01*
X032651Y013549D01*
X032581Y013498D01*
X032504Y013459D01*
X032421Y013432D01*
X032336Y013419D01*
X032313Y013419D01*
X032313Y013949D01*
X032313Y013836D02*
X032273Y013836D01*
X032273Y013677D02*
X032313Y013677D01*
X032313Y013519D02*
X032273Y013519D01*
X031977Y013519D02*
X023059Y013519D01*
X023218Y013677D02*
X031825Y013677D01*
X031758Y013836D02*
X023376Y013836D01*
X023535Y013994D02*
X031743Y013994D01*
X031774Y014153D02*
X023693Y014153D01*
X023852Y014311D02*
X031862Y014311D01*
X032521Y014470D02*
X033845Y014470D01*
X033637Y014311D02*
X032724Y014311D01*
X032811Y014153D02*
X033554Y014153D01*
X033523Y013994D02*
X032843Y013994D01*
X032828Y013836D02*
X033533Y013836D01*
X033598Y013677D02*
X032760Y013677D01*
X032609Y013519D02*
X033745Y013519D01*
X034923Y014787D02*
X024328Y014787D01*
X024486Y014945D02*
X034923Y014945D01*
X034923Y015104D02*
X024645Y015104D01*
X024803Y015262D02*
X034923Y015262D01*
X034923Y015421D02*
X024962Y015421D01*
X025120Y015580D02*
X034923Y015580D01*
X034923Y015738D02*
X025279Y015738D01*
X025437Y015897D02*
X034923Y015897D01*
X034923Y016055D02*
X025596Y016055D01*
X025755Y016214D02*
X034923Y016214D01*
X034923Y016372D02*
X025913Y016372D01*
X026072Y016531D02*
X034923Y016531D01*
X034923Y016689D02*
X026230Y016689D01*
X026389Y016848D02*
X034923Y016848D01*
X034923Y017006D02*
X026547Y017006D01*
X026706Y017165D02*
X034923Y017165D01*
X034923Y017324D02*
X026864Y017324D01*
X027023Y017482D02*
X034923Y017482D01*
X034923Y017641D02*
X028796Y017641D01*
X028569Y017641D02*
X027181Y017641D01*
X027340Y017799D02*
X028294Y017799D01*
X028183Y017958D02*
X027499Y017958D01*
X027657Y018116D02*
X028133Y018116D01*
X028133Y018275D02*
X027816Y018275D01*
X027974Y018433D02*
X028189Y018433D01*
X028133Y018592D02*
X028308Y018592D01*
X028343Y018750D02*
X028143Y018750D01*
X028143Y018909D02*
X028203Y018909D01*
X029022Y018750D02*
X034923Y018750D01*
X034923Y018592D02*
X029057Y018592D01*
X029177Y018433D02*
X034923Y018433D01*
X034923Y018275D02*
X029233Y018275D01*
X029233Y018116D02*
X034923Y018116D01*
X034923Y017958D02*
X029182Y017958D01*
X029071Y017799D02*
X034923Y017799D01*
X034923Y018909D02*
X029162Y018909D01*
X029228Y019068D02*
X034923Y019068D01*
X034923Y019226D02*
X029233Y019226D01*
X029197Y019385D02*
X034923Y019385D01*
X034923Y019543D02*
X029106Y019543D01*
X028944Y019702D02*
X034923Y019702D01*
X034923Y019860D02*
X029132Y019860D01*
X029208Y020019D02*
X034923Y020019D01*
X034923Y020177D02*
X029233Y020177D01*
X029217Y020336D02*
X034923Y020336D01*
X034923Y020494D02*
X029151Y020494D01*
X028996Y020653D02*
X034923Y020653D01*
X034923Y020811D02*
X029083Y020811D01*
X029188Y020970D02*
X034923Y020970D01*
X034923Y021129D02*
X029230Y021129D01*
X029224Y021287D02*
X034923Y021287D01*
X034923Y021446D02*
X029169Y021446D01*
X029045Y021604D02*
X034923Y021604D01*
X034923Y021763D02*
X029034Y021763D01*
X029167Y021921D02*
X034923Y021921D01*
X034923Y022080D02*
X029233Y022080D01*
X029233Y022238D02*
X034923Y022238D01*
X034923Y022397D02*
X029192Y022397D01*
X029094Y022555D02*
X034923Y022555D01*
X034923Y022714D02*
X028974Y022714D01*
X029144Y022873D02*
X034923Y022873D01*
X034923Y023031D02*
X029213Y023031D01*
X029233Y023190D02*
X034923Y023190D01*
X034923Y023348D02*
X029212Y023348D01*
X029143Y023507D02*
X034923Y023507D01*
X034923Y023665D02*
X028970Y023665D01*
X025473Y022397D02*
X025438Y022397D01*
X025473Y022238D02*
X025279Y022238D01*
X025121Y022080D02*
X025473Y022080D01*
X025473Y021921D02*
X024962Y021921D01*
X024804Y021763D02*
X025473Y021763D01*
X025473Y021604D02*
X024645Y021604D01*
X025473Y021446D02*
X021986Y021446D01*
X021828Y021287D02*
X025473Y021287D01*
X025473Y021129D02*
X021669Y021129D01*
X021511Y020970D02*
X025473Y020970D01*
X025473Y020811D02*
X021352Y020811D01*
X021194Y020653D02*
X025473Y020653D01*
X025473Y020494D02*
X021035Y020494D01*
X020877Y020336D02*
X025473Y020336D01*
X025473Y020177D02*
X020718Y020177D01*
X020560Y020019D02*
X025473Y020019D01*
X025473Y019860D02*
X020401Y019860D01*
X020242Y019702D02*
X025473Y019702D01*
X025473Y019543D02*
X020084Y019543D01*
X019925Y019385D02*
X025473Y019385D01*
X025473Y019226D02*
X019767Y019226D01*
X019608Y019068D02*
X025473Y019068D01*
X025473Y018909D02*
X019450Y018909D01*
X019291Y018750D02*
X025473Y018750D01*
X025473Y018592D02*
X019133Y018592D01*
X018974Y018433D02*
X025380Y018433D01*
X025222Y018275D02*
X018816Y018275D01*
X018657Y018116D02*
X025063Y018116D01*
X024905Y017958D02*
X018691Y017958D01*
X018704Y017799D02*
X024746Y017799D01*
X024588Y017641D02*
X018658Y017641D01*
X018529Y017482D02*
X024429Y017482D01*
X024270Y017324D02*
X010095Y017324D01*
X010192Y017482D02*
X017490Y017482D01*
X017360Y017641D02*
X010233Y017641D01*
X010232Y017799D02*
X017314Y017799D01*
X017328Y017958D02*
X010167Y017958D01*
X010033Y018116D02*
X017411Y018116D01*
X017662Y018275D02*
X010046Y018275D01*
X010172Y018433D02*
X017587Y018433D01*
X017381Y018592D02*
X010233Y018592D01*
X010233Y018750D02*
X017315Y018750D01*
X017314Y018909D02*
X010187Y018909D01*
X010082Y019068D02*
X017373Y019068D01*
X017348Y019226D02*
X009998Y019226D01*
X010152Y019385D02*
X017190Y019385D01*
X017031Y019543D02*
X010218Y019543D01*
X010233Y019702D02*
X016873Y019702D01*
X016723Y019860D02*
X010207Y019860D01*
X010130Y020019D02*
X016723Y020019D01*
X016723Y020177D02*
X009940Y020177D01*
X010108Y020336D02*
X016723Y020336D01*
X016723Y020494D02*
X010285Y020494D01*
X009425Y020177D02*
X007218Y020177D01*
X007060Y020019D02*
X009235Y020019D01*
X009158Y019860D02*
X006901Y019860D01*
X006742Y019702D02*
X009133Y019702D01*
X009148Y019543D02*
X006643Y019543D01*
X006643Y019385D02*
X009213Y019385D01*
X009368Y019226D02*
X006643Y019226D01*
X006643Y019068D02*
X009284Y019068D01*
X009179Y018909D02*
X006643Y018909D01*
X006643Y018750D02*
X009133Y018750D01*
X009133Y018592D02*
X006643Y018592D01*
X006643Y018433D02*
X009193Y018433D01*
X009319Y018275D02*
X006643Y018275D01*
X006643Y018116D02*
X009332Y018116D01*
X009199Y017958D02*
X006643Y017958D01*
X006643Y017799D02*
X009133Y017799D01*
X009133Y017641D02*
X006643Y017641D01*
X006643Y017482D02*
X009173Y017482D01*
X009270Y017324D02*
X006643Y017324D01*
X006643Y017165D02*
X009395Y017165D01*
X009223Y017006D02*
X006643Y017006D01*
X006643Y016848D02*
X009153Y016848D01*
X009133Y016689D02*
X006643Y016689D01*
X006643Y016531D02*
X009153Y016531D01*
X009221Y016372D02*
X006643Y016372D01*
X006643Y016214D02*
X009392Y016214D01*
X009271Y016055D02*
X006643Y016055D01*
X006643Y015897D02*
X009173Y015897D01*
X009133Y015738D02*
X006643Y015738D01*
X006643Y015580D02*
X009133Y015580D01*
X009198Y015421D02*
X006643Y015421D01*
X006643Y015262D02*
X009331Y015262D01*
X009320Y015104D02*
X006643Y015104D01*
X006643Y014945D02*
X009194Y014945D01*
X009133Y014787D02*
X006643Y014787D01*
X006643Y014628D02*
X009133Y014628D01*
X009178Y014470D02*
X006643Y014470D01*
X006643Y014311D02*
X009282Y014311D01*
X009540Y014153D02*
X006643Y014153D01*
X006643Y013994D02*
X017343Y013994D01*
X017314Y013925D02*
X017314Y013751D01*
X017381Y013591D01*
X017504Y013468D01*
X017665Y013401D01*
X018354Y013401D01*
X018515Y013468D01*
X018638Y013591D01*
X018704Y013751D01*
X018704Y013925D01*
X018638Y014086D01*
X018515Y014209D01*
X018354Y014276D01*
X017665Y014276D01*
X017504Y014209D01*
X017381Y014086D01*
X017314Y013925D01*
X017314Y013836D02*
X006643Y013836D01*
X006643Y013677D02*
X017345Y013677D01*
X017453Y013519D02*
X006643Y013519D01*
X006643Y013360D02*
X020307Y013360D01*
X020465Y013519D02*
X018566Y013519D01*
X018674Y013677D02*
X020624Y013677D01*
X020783Y013836D02*
X018704Y013836D01*
X018676Y013994D02*
X020941Y013994D01*
X021100Y014153D02*
X018571Y014153D01*
X018515Y014468D02*
X018638Y014591D01*
X018704Y014751D01*
X018704Y014925D01*
X018638Y015086D01*
X018515Y015209D01*
X018354Y015276D01*
X017665Y015276D01*
X017504Y015209D01*
X017381Y015086D01*
X017314Y014925D01*
X017314Y014751D01*
X017381Y014591D01*
X017504Y014468D01*
X017665Y014401D01*
X018354Y014401D01*
X018515Y014468D01*
X018517Y014470D02*
X021417Y014470D01*
X021575Y014628D02*
X018653Y014628D01*
X018704Y014787D02*
X021734Y014787D01*
X021892Y014945D02*
X018696Y014945D01*
X018620Y015104D02*
X022051Y015104D01*
X022209Y015262D02*
X018386Y015262D01*
X018354Y015401D02*
X018515Y015468D01*
X018638Y015591D01*
X018704Y015751D01*
X018704Y015925D01*
X018638Y016086D01*
X018515Y016209D01*
X018354Y016276D01*
X017665Y016276D01*
X017504Y016209D01*
X017381Y016086D01*
X017314Y015925D01*
X017314Y015751D01*
X017381Y015591D01*
X017504Y015468D01*
X017665Y015401D01*
X018354Y015401D01*
X018402Y015421D02*
X022368Y015421D01*
X022526Y015580D02*
X018627Y015580D01*
X018699Y015738D02*
X022685Y015738D01*
X022844Y015897D02*
X018704Y015897D01*
X018651Y016055D02*
X023002Y016055D01*
X023161Y016214D02*
X018504Y016214D01*
X018354Y016401D02*
X018515Y016468D01*
X018638Y016591D01*
X018704Y016751D01*
X018704Y016925D01*
X018638Y017086D01*
X018515Y017209D01*
X018354Y017276D01*
X017665Y017276D01*
X017504Y017209D01*
X017381Y017086D01*
X017314Y016925D01*
X017314Y016751D01*
X017381Y016591D01*
X017504Y016468D01*
X017665Y016401D01*
X018354Y016401D01*
X018578Y016531D02*
X023478Y016531D01*
X023636Y016689D02*
X018679Y016689D01*
X018704Y016848D02*
X023795Y016848D01*
X023953Y017006D02*
X018671Y017006D01*
X018559Y017165D02*
X024112Y017165D01*
X023319Y016372D02*
X010144Y016372D01*
X010213Y016531D02*
X017441Y016531D01*
X017340Y016689D02*
X010233Y016689D01*
X010212Y016848D02*
X017314Y016848D01*
X017348Y017006D02*
X010143Y017006D01*
X009970Y017165D02*
X017460Y017165D01*
X017515Y016214D02*
X009973Y016214D01*
X010094Y016055D02*
X017368Y016055D01*
X017314Y015897D02*
X010192Y015897D01*
X010233Y015738D02*
X017320Y015738D01*
X017392Y015580D02*
X010233Y015580D01*
X010167Y015421D02*
X017616Y015421D01*
X017633Y015262D02*
X010034Y015262D01*
X010045Y015104D02*
X017399Y015104D01*
X017323Y014945D02*
X010172Y014945D01*
X010233Y014787D02*
X017314Y014787D01*
X017365Y014628D02*
X010233Y014628D01*
X010187Y014470D02*
X017502Y014470D01*
X017448Y014153D02*
X009826Y014153D01*
X010083Y014311D02*
X021258Y014311D01*
X020148Y013201D02*
X018523Y013201D01*
X018515Y013209D02*
X018354Y013276D01*
X017665Y013276D01*
X017504Y013209D01*
X017381Y013086D01*
X017314Y012925D01*
X017314Y012751D01*
X017381Y012591D01*
X017504Y012468D01*
X017665Y012401D01*
X018354Y012401D01*
X018515Y012468D01*
X018638Y012591D01*
X018704Y012751D01*
X018704Y012925D01*
X018638Y013086D01*
X018515Y013209D01*
X018656Y013043D02*
X019990Y013043D01*
X019831Y012884D02*
X018704Y012884D01*
X018694Y012726D02*
X019673Y012726D01*
X019514Y012567D02*
X018614Y012567D01*
X018373Y012409D02*
X019356Y012409D01*
X019197Y012250D02*
X018415Y012250D01*
X018435Y012244D02*
X018369Y012265D01*
X018301Y012276D01*
X018010Y012276D01*
X018010Y011839D01*
X018704Y011839D01*
X018704Y011873D01*
X018694Y011941D01*
X018672Y012006D01*
X018641Y012068D01*
X018601Y012123D01*
X018552Y012172D01*
X018496Y012213D01*
X018435Y012244D01*
X018624Y012092D02*
X019039Y012092D01*
X018880Y011933D02*
X018695Y011933D01*
X018700Y011775D02*
X018721Y011775D01*
X018246Y011299D02*
X006643Y011299D01*
X006643Y011457D02*
X017536Y011457D01*
X017523Y011464D02*
X017584Y011433D01*
X017649Y011412D01*
X017718Y011401D01*
X018009Y011401D01*
X018009Y011838D01*
X017314Y011838D01*
X017314Y011804D01*
X017325Y011736D01*
X017347Y011670D01*
X017378Y011609D01*
X017418Y011553D01*
X017467Y011505D01*
X017523Y011464D01*
X017374Y011616D02*
X014087Y011616D01*
X014068Y011597D02*
X014259Y011788D01*
X014363Y012038D01*
X014363Y012308D01*
X014259Y012558D01*
X014068Y012750D01*
X013818Y012853D01*
X013547Y012853D01*
X013297Y012750D01*
X013106Y012558D01*
X013003Y012308D01*
X013003Y012038D01*
X013106Y011788D01*
X013297Y011597D01*
X013547Y011493D01*
X013818Y011493D01*
X014068Y011597D01*
X014246Y011775D02*
X017319Y011775D01*
X017324Y011933D02*
X014319Y011933D01*
X014363Y012092D02*
X017395Y012092D01*
X017604Y012250D02*
X014363Y012250D01*
X014321Y012409D02*
X017646Y012409D01*
X017404Y012567D02*
X014250Y012567D01*
X014092Y012726D02*
X017325Y012726D01*
X017314Y012884D02*
X006643Y012884D01*
X006643Y012726D02*
X013274Y012726D01*
X013115Y012567D02*
X006643Y012567D01*
X006643Y012409D02*
X013044Y012409D01*
X013003Y012250D02*
X006643Y012250D01*
X006643Y012092D02*
X013003Y012092D01*
X013046Y011933D02*
X006643Y011933D01*
X006643Y011775D02*
X013120Y011775D01*
X013278Y011616D02*
X006643Y011616D01*
X006643Y011140D02*
X017435Y011140D01*
X017338Y010982D02*
X006643Y010982D01*
X006643Y013043D02*
X017363Y013043D01*
X017496Y013201D02*
X006643Y013201D01*
X005681Y007018D02*
X004443Y007018D01*
X004443Y006860D02*
X005817Y006860D01*
X006548Y006860D02*
X034923Y006860D01*
X034923Y006701D02*
X004443Y006701D01*
X004443Y006543D02*
X034923Y006543D01*
X032975Y008604D02*
X018643Y008604D01*
X018009Y008128D02*
X018010Y008128D01*
X018009Y007969D02*
X018010Y007969D01*
X018009Y007811D02*
X018010Y007811D01*
X018009Y007652D02*
X018010Y007652D01*
X018009Y007494D02*
X018010Y007494D01*
X018507Y006226D02*
X029685Y006226D01*
X029548Y006067D02*
X018644Y006067D01*
X018710Y005908D02*
X029482Y005908D01*
X029451Y005750D02*
X018741Y005750D01*
X018741Y005591D02*
X029451Y005591D01*
X029497Y005433D02*
X018695Y005433D01*
X018629Y005274D02*
X029563Y005274D01*
X029722Y005116D02*
X018470Y005116D01*
X017330Y009713D02*
X014153Y009713D01*
X014276Y009872D02*
X017314Y009872D01*
X017358Y010031D02*
X014340Y010031D01*
X014348Y010348D02*
X019295Y010348D01*
X018010Y011457D02*
X018009Y011457D01*
X018009Y011616D02*
X018010Y011616D01*
X018009Y011775D02*
X018010Y011775D01*
X018009Y011933D02*
X018010Y011933D01*
X018009Y012092D02*
X018010Y012092D01*
X018009Y012250D02*
X018010Y012250D01*
X017314Y010823D02*
X013966Y010823D01*
X014184Y010665D02*
X017350Y010665D01*
X017466Y010506D02*
X014294Y010506D01*
X013701Y010189D02*
X017484Y010189D01*
X013701Y010031D02*
X013664Y010031D01*
X013664Y009872D02*
X013701Y009872D01*
X013701Y009713D02*
X013664Y009713D01*
X005745Y003233D02*
X005745Y003233D01*
X005626Y003233D02*
X005626Y003233D01*
X005407Y003233D02*
X005407Y003233D01*
X007377Y020336D02*
X009258Y020336D01*
X009168Y020494D02*
X007535Y020494D01*
X007694Y020653D02*
X009133Y020653D01*
X009138Y020811D02*
X007852Y020811D01*
X008011Y020970D02*
X009204Y020970D01*
X010198Y026995D02*
X017442Y026995D01*
X017600Y027153D02*
X010233Y027153D01*
X010227Y027312D02*
X017759Y027312D01*
X017917Y027470D02*
X010161Y027470D01*
X010020Y027629D02*
X018076Y027629D01*
X018234Y027787D02*
X010059Y027787D01*
X010177Y027946D02*
X018393Y027946D01*
X018551Y028104D02*
X010233Y028104D01*
X010233Y028263D02*
X018710Y028263D01*
X018869Y028422D02*
X010182Y028422D01*
X010069Y028580D02*
X019027Y028580D01*
X019186Y028739D02*
X010010Y028739D01*
X010157Y028897D02*
X019344Y028897D01*
X019503Y029056D02*
X010223Y029056D01*
X010233Y029214D02*
X019661Y029214D01*
X019820Y029373D02*
X010202Y029373D01*
X010118Y029531D02*
X019978Y029531D01*
X020137Y029690D02*
X009915Y029690D01*
X010120Y029848D02*
X020295Y029848D01*
X020454Y030007D02*
X010203Y030007D01*
X010233Y030166D02*
X020612Y030166D01*
X020771Y030324D02*
X010222Y030324D01*
X010156Y030483D02*
X020930Y030483D01*
X020983Y030641D02*
X010008Y030641D01*
X010091Y030800D02*
X020992Y030800D01*
X021070Y030958D02*
X010249Y030958D01*
X010143Y030852D02*
X010143Y030852D01*
X010408Y031117D02*
X021306Y031117D01*
X021335Y031249D02*
X021173Y031316D01*
X021050Y031440D01*
X020983Y031601D01*
X020983Y031776D01*
X021050Y031938D01*
X021173Y032062D01*
X021335Y032129D01*
X022030Y032129D01*
X022192Y032062D01*
X022316Y031938D01*
X022383Y031776D01*
X022383Y031601D01*
X022316Y031440D01*
X022192Y031316D01*
X022030Y031249D01*
X021335Y031249D01*
X021271Y031275D02*
X010566Y031275D01*
X010725Y031434D02*
X021055Y031434D01*
X020986Y031592D02*
X010883Y031592D01*
X011042Y031751D02*
X020983Y031751D01*
X021038Y031910D02*
X011200Y031910D01*
X011359Y032068D02*
X021189Y032068D01*
X021335Y032249D02*
X021173Y032316D01*
X021050Y032440D01*
X020983Y032601D01*
X020983Y032776D01*
X021050Y032938D01*
X021173Y033062D01*
X021335Y033129D01*
X022030Y033129D01*
X022192Y033062D01*
X022316Y032938D01*
X022383Y032776D01*
X022383Y032601D01*
X022316Y032440D01*
X022192Y032316D01*
X022030Y032249D01*
X021335Y032249D01*
X021104Y032385D02*
X011676Y032385D01*
X011517Y032227D02*
X022674Y032227D01*
X022832Y032385D02*
X022261Y032385D01*
X022359Y032544D02*
X022991Y032544D01*
X023149Y032702D02*
X022383Y032702D01*
X022348Y032861D02*
X023308Y032861D01*
X023466Y033019D02*
X022234Y033019D01*
X022177Y032068D02*
X022515Y032068D01*
X022473Y031910D02*
X022327Y031910D01*
X022383Y031751D02*
X022473Y031751D01*
X022473Y031592D02*
X022379Y031592D01*
X022310Y031434D02*
X022473Y031434D01*
X022473Y031275D02*
X022094Y031275D01*
X022059Y031117D02*
X022473Y031117D01*
X022473Y030958D02*
X022295Y030958D01*
X022373Y030800D02*
X022473Y030800D01*
X022473Y030641D02*
X022383Y030641D01*
X022334Y030483D02*
X022473Y030483D01*
X022473Y030324D02*
X022200Y030324D01*
X022473Y030166D02*
X021206Y030166D01*
X021119Y030007D02*
X021048Y030007D01*
X021013Y029848D02*
X020889Y029848D01*
X020983Y029690D02*
X020731Y029690D01*
X020572Y029531D02*
X020978Y029531D01*
X020820Y029373D02*
X020414Y029373D01*
X020255Y029214D02*
X020661Y029214D01*
X020503Y029056D02*
X020097Y029056D01*
X019938Y028897D02*
X020344Y028897D01*
X020186Y028739D02*
X019779Y028739D01*
X019621Y028580D02*
X020027Y028580D01*
X019869Y028422D02*
X019462Y028422D01*
X019304Y028263D02*
X019710Y028263D01*
X019551Y028104D02*
X019145Y028104D01*
X018987Y027946D02*
X019393Y027946D01*
X019234Y027787D02*
X018828Y027787D01*
X018670Y027629D02*
X019076Y027629D01*
X018917Y027470D02*
X018511Y027470D01*
X018353Y027312D02*
X018759Y027312D01*
X018600Y027153D02*
X018194Y027153D01*
X018035Y026995D02*
X018442Y026995D01*
X018283Y026836D02*
X017877Y026836D01*
X017718Y026678D02*
X018125Y026678D01*
X021682Y028263D02*
X021683Y028263D01*
X021682Y028422D02*
X021683Y028422D01*
X021682Y028580D02*
X021683Y028580D01*
X021682Y028739D02*
X021683Y028739D01*
X021682Y028897D02*
X021683Y028897D01*
X021682Y029056D02*
X021683Y029056D01*
X022249Y029373D02*
X022473Y029373D01*
X022473Y029531D02*
X022354Y029531D01*
X022383Y029690D02*
X022473Y029690D01*
X022473Y029848D02*
X022353Y029848D01*
X022247Y030007D02*
X022473Y030007D01*
X022893Y030007D02*
X024119Y030007D01*
X024173Y030062D02*
X024050Y029938D01*
X023983Y029776D01*
X023983Y029601D01*
X024050Y029440D01*
X024173Y029316D01*
X024335Y029249D01*
X025030Y029249D01*
X025192Y029316D01*
X025316Y029440D01*
X025383Y029601D01*
X025383Y029776D01*
X025316Y029938D01*
X025192Y030062D01*
X025030Y030129D01*
X024335Y030129D01*
X024173Y030062D01*
X024335Y030249D02*
X024173Y030316D01*
X024050Y030440D01*
X023983Y030601D01*
X023983Y030776D01*
X024050Y030938D01*
X024173Y031062D01*
X024335Y031129D01*
X025030Y031129D01*
X025192Y031062D01*
X025316Y030938D01*
X025383Y030776D01*
X025383Y030601D01*
X025316Y030440D01*
X025192Y030316D01*
X025030Y030249D01*
X024335Y030249D01*
X024165Y030324D02*
X022893Y030324D01*
X022893Y030166D02*
X025473Y030166D01*
X025473Y030324D02*
X025200Y030324D01*
X025334Y030483D02*
X025473Y030483D01*
X025473Y030641D02*
X025383Y030641D01*
X025373Y030800D02*
X025473Y030800D01*
X025473Y030958D02*
X025295Y030958D01*
X025473Y031117D02*
X025059Y031117D01*
X025383Y031751D02*
X032743Y031751D01*
X032743Y031592D02*
X025826Y031592D01*
X025893Y031434D02*
X032815Y031434D01*
X032974Y031275D02*
X025893Y031275D01*
X025893Y031117D02*
X034923Y031117D01*
X034923Y031275D02*
X033391Y031275D01*
X033550Y031434D02*
X034923Y031434D01*
X034923Y031592D02*
X033623Y031592D01*
X033623Y031751D02*
X034923Y031751D01*
X034923Y031910D02*
X033584Y031910D01*
X033426Y032068D02*
X034923Y032068D01*
X034923Y032227D02*
X032942Y032227D01*
X033000Y032249D02*
X033365Y032249D01*
X033623Y032507D01*
X033623Y032871D01*
X033365Y033129D01*
X033000Y033129D01*
X032743Y032871D01*
X032743Y032507D01*
X033000Y032249D01*
X032864Y032385D02*
X032783Y032385D01*
X032743Y032544D02*
X032625Y032544D01*
X032743Y032702D02*
X032466Y032702D01*
X032308Y032861D02*
X032743Y032861D01*
X032891Y033019D02*
X032149Y033019D01*
X031991Y033178D02*
X034923Y033178D01*
X034923Y033336D02*
X031832Y033336D01*
X031673Y033495D02*
X034923Y033495D01*
X034923Y033654D02*
X031515Y033654D01*
X031356Y033812D02*
X034923Y033812D01*
X034923Y033971D02*
X013000Y033971D01*
X013016Y033812D02*
X024259Y033812D01*
X024100Y033654D02*
X013016Y033654D01*
X013016Y033495D02*
X023942Y033495D01*
X023783Y033336D02*
X013016Y033336D01*
X012993Y033178D02*
X023625Y033178D01*
X023902Y032861D02*
X024016Y032861D01*
X024015Y032858D02*
X023994Y032792D01*
X023983Y032723D01*
X023983Y032689D01*
X024682Y032689D01*
X024682Y032689D01*
X024682Y033129D01*
X024388Y033129D01*
X024320Y033118D01*
X024254Y033097D01*
X024192Y033065D01*
X024136Y033024D01*
X024087Y032975D01*
X024046Y032919D01*
X024015Y032858D01*
X023983Y032702D02*
X023743Y032702D01*
X023585Y032544D02*
X024007Y032544D01*
X024015Y032520D02*
X024046Y032458D01*
X024087Y032402D01*
X024136Y032353D01*
X024192Y032312D01*
X024254Y032281D01*
X024320Y032260D01*
X024388Y032249D01*
X024682Y032249D01*
X024682Y032688D01*
X024683Y032688D01*
X024683Y032249D01*
X024977Y032249D01*
X025046Y032260D01*
X025112Y032281D01*
X025173Y032312D01*
X025229Y032353D01*
X025278Y032402D01*
X025319Y032458D01*
X025350Y032520D01*
X025372Y032586D01*
X025383Y032654D01*
X025383Y032689D01*
X025383Y032723D01*
X025372Y032792D01*
X025350Y032858D01*
X025319Y032919D01*
X025278Y032975D01*
X025229Y033024D01*
X025173Y033065D01*
X025112Y033097D01*
X025046Y033118D01*
X024977Y033129D01*
X024683Y033129D01*
X024683Y032689D01*
X025383Y032689D01*
X024683Y032689D01*
X024683Y032689D01*
X024682Y032689D01*
X023983Y032689D01*
X023983Y032654D01*
X023994Y032586D01*
X024015Y032520D01*
X024104Y032385D02*
X023426Y032385D01*
X023267Y032227D02*
X026883Y032227D01*
X026894Y032218D02*
X026972Y032179D01*
X027054Y032152D01*
X027139Y032139D01*
X027174Y032139D01*
X027174Y032680D01*
X027191Y032680D01*
X027191Y032139D01*
X027226Y032139D01*
X027311Y032152D01*
X027394Y032179D01*
X027471Y032218D01*
X027541Y032269D01*
X027602Y032331D01*
X027653Y032401D01*
X027692Y032478D01*
X027719Y032560D01*
X027733Y032646D01*
X027733Y032680D01*
X027191Y032680D01*
X027191Y032697D01*
X027733Y032697D01*
X027733Y032732D01*
X027719Y032818D01*
X027692Y032900D01*
X027653Y032977D01*
X027602Y033047D01*
X027541Y033108D01*
X027471Y033159D01*
X027394Y033199D01*
X027311Y033225D01*
X027226Y033239D01*
X027191Y033239D01*
X027191Y032698D01*
X027174Y032698D01*
X027174Y033239D01*
X027139Y033239D01*
X027054Y033225D01*
X026972Y033199D01*
X026894Y033159D01*
X026824Y033108D01*
X026763Y033047D01*
X026712Y032977D01*
X026673Y032900D01*
X026646Y032818D01*
X026633Y032732D01*
X026633Y032697D01*
X027174Y032697D01*
X027174Y032680D01*
X026633Y032680D01*
X026633Y032646D01*
X026646Y032560D01*
X026673Y032478D01*
X026712Y032401D01*
X026763Y032331D01*
X026824Y032269D01*
X026894Y032218D01*
X026723Y032385D02*
X025261Y032385D01*
X025358Y032544D02*
X026651Y032544D01*
X026633Y032702D02*
X025383Y032702D01*
X025349Y032861D02*
X026660Y032861D01*
X026743Y033019D02*
X025234Y033019D01*
X024683Y033019D02*
X024682Y033019D01*
X024682Y032861D02*
X024683Y032861D01*
X024682Y032702D02*
X024683Y032702D01*
X024682Y032544D02*
X024683Y032544D01*
X024682Y032385D02*
X024683Y032385D01*
X024189Y032068D02*
X023109Y032068D01*
X022950Y031910D02*
X024038Y031910D01*
X023983Y031751D02*
X022893Y031751D01*
X022893Y031592D02*
X023986Y031592D01*
X024055Y031434D02*
X022893Y031434D01*
X022893Y031275D02*
X024271Y031275D01*
X024306Y031117D02*
X022893Y031117D01*
X022893Y030958D02*
X024070Y030958D01*
X023992Y030800D02*
X022893Y030800D01*
X022893Y030641D02*
X023983Y030641D01*
X024032Y030483D02*
X022893Y030483D01*
X022893Y029848D02*
X024013Y029848D01*
X023983Y029690D02*
X022893Y029690D01*
X022893Y029531D02*
X024012Y029531D01*
X024116Y029373D02*
X022893Y029373D01*
X022893Y027153D02*
X025223Y027153D01*
X024106Y026995D02*
X022893Y026995D01*
X022893Y026836D02*
X024007Y026836D01*
X023983Y026678D02*
X022893Y026678D01*
X022893Y026519D02*
X023966Y026519D01*
X023807Y026361D02*
X022893Y026361D01*
X022893Y026202D02*
X023649Y026202D01*
X023490Y026043D02*
X022893Y026043D01*
X022893Y025885D02*
X023332Y025885D01*
X023173Y025726D02*
X022893Y025726D01*
X022893Y025568D02*
X023015Y025568D01*
X022473Y025568D02*
X022369Y025568D01*
X022383Y025726D02*
X022473Y025726D01*
X022473Y025885D02*
X022338Y025885D01*
X022210Y026043D02*
X022473Y026043D01*
X022356Y025409D02*
X022285Y025409D01*
X022198Y025251D02*
X022035Y025251D01*
X025249Y029373D02*
X025473Y029373D01*
X025473Y029531D02*
X025354Y029531D01*
X025383Y029690D02*
X025473Y029690D01*
X025473Y029848D02*
X025353Y029848D01*
X025247Y030007D02*
X025473Y030007D01*
X025893Y030800D02*
X034923Y030800D01*
X034923Y030958D02*
X025893Y030958D01*
X025327Y031910D02*
X032665Y031910D01*
X032506Y032068D02*
X025177Y032068D01*
X024131Y033019D02*
X024060Y033019D01*
X024219Y033178D02*
X026931Y033178D01*
X027174Y033178D02*
X027191Y033178D01*
X027174Y033019D02*
X027191Y033019D01*
X027174Y032861D02*
X027191Y032861D01*
X027174Y032702D02*
X027191Y032702D01*
X027174Y032544D02*
X027191Y032544D01*
X027174Y032385D02*
X027191Y032385D01*
X027174Y032227D02*
X027191Y032227D01*
X027482Y032227D02*
X029867Y032227D01*
X029871Y032223D02*
X030073Y032139D01*
X030292Y032139D01*
X030494Y032223D01*
X030649Y032377D01*
X030733Y032579D01*
X030733Y032798D01*
X030649Y033000D01*
X030494Y033155D01*
X030292Y033239D01*
X030073Y033239D01*
X029871Y033155D01*
X029716Y033000D01*
X029633Y032798D01*
X029633Y032579D01*
X029716Y032377D01*
X029871Y032223D01*
X029713Y032385D02*
X027642Y032385D01*
X027714Y032544D02*
X029647Y032544D01*
X029633Y032702D02*
X027733Y032702D01*
X027705Y032861D02*
X029659Y032861D01*
X029735Y033019D02*
X027622Y033019D01*
X027434Y033178D02*
X029926Y033178D01*
X030439Y033178D02*
X031397Y033178D01*
X031555Y033019D02*
X030630Y033019D01*
X030707Y032861D02*
X031714Y032861D01*
X031872Y032702D02*
X030733Y032702D01*
X030718Y032544D02*
X032031Y032544D01*
X032189Y032385D02*
X030652Y032385D01*
X030498Y032227D02*
X032348Y032227D01*
X033474Y033019D02*
X034923Y033019D01*
X034923Y032861D02*
X033623Y032861D01*
X033623Y032702D02*
X034923Y032702D01*
X034923Y032544D02*
X033623Y032544D01*
X033501Y032385D02*
X034923Y032385D01*
X034923Y034129D02*
X012912Y034129D01*
X012241Y034129D02*
X010912Y034129D01*
X010863Y034178D01*
X010807Y034219D01*
X010745Y034250D01*
X010679Y034272D01*
X010611Y034282D01*
X010577Y034282D01*
X010577Y033583D01*
X011016Y033583D01*
X011016Y033877D01*
X011006Y033946D01*
X010984Y034011D01*
X010953Y034073D01*
X010912Y034129D01*
X010997Y033971D02*
X012153Y033971D01*
X012136Y033812D02*
X011016Y033812D01*
X011016Y033654D02*
X012136Y033654D01*
X012136Y033495D02*
X011016Y033495D01*
X011016Y033582D02*
X011016Y033288D01*
X011006Y033219D01*
X010984Y033154D01*
X010953Y033092D01*
X010912Y033036D01*
X010863Y032987D01*
X010807Y032946D01*
X010745Y032915D01*
X010679Y032893D01*
X010611Y032883D01*
X010577Y032883D01*
X010577Y033582D01*
X010577Y033583D01*
X010576Y033583D01*
X010576Y034282D01*
X010542Y034282D01*
X010473Y034272D01*
X010407Y034250D01*
X010346Y034219D01*
X010290Y034178D01*
X010241Y034129D01*
X004443Y034129D01*
X004443Y033971D02*
X010155Y033971D01*
X010147Y033946D02*
X010136Y033877D01*
X010136Y033583D01*
X010576Y033583D01*
X010576Y033582D01*
X010577Y033582D01*
X011016Y033582D01*
X011016Y033336D02*
X012033Y033336D01*
X011875Y033178D02*
X010992Y033178D01*
X010895Y033019D02*
X011716Y033019D01*
X011558Y032861D02*
X004443Y032861D01*
X004443Y033019D02*
X010257Y033019D01*
X010241Y033036D02*
X010290Y032987D01*
X010346Y032946D01*
X010407Y032915D01*
X010473Y032893D01*
X010542Y032883D01*
X010576Y032883D01*
X010576Y033582D01*
X010136Y033582D01*
X010136Y033288D01*
X010147Y033219D01*
X010169Y033154D01*
X010200Y033092D01*
X010241Y033036D01*
X010161Y033178D02*
X004443Y033178D01*
X004443Y033336D02*
X010136Y033336D01*
X010136Y033495D02*
X004443Y033495D01*
X004443Y033654D02*
X010136Y033654D01*
X010136Y033812D02*
X004443Y033812D01*
X004443Y034288D02*
X034923Y034288D01*
X034923Y034446D02*
X004443Y034446D01*
X004443Y034605D02*
X017555Y034605D01*
X017595Y034565D02*
X017864Y034454D01*
X018155Y034454D01*
X018424Y034565D01*
X018629Y034771D01*
X018741Y035039D01*
X018741Y035330D01*
X018629Y035599D01*
X018424Y035805D01*
X018155Y035916D01*
X017864Y035916D01*
X017595Y035805D01*
X017390Y035599D01*
X017278Y035330D01*
X017278Y035039D01*
X017390Y034771D01*
X017595Y034565D01*
X017397Y034763D02*
X004443Y034763D01*
X004443Y034922D02*
X011394Y034922D01*
X011327Y034949D02*
X011489Y034883D01*
X011664Y034883D01*
X011826Y034949D01*
X011949Y035073D01*
X012016Y035235D01*
X012016Y035930D01*
X011949Y036092D01*
X011826Y036216D01*
X011664Y036282D01*
X011489Y036282D01*
X011327Y036216D01*
X011203Y036092D01*
X011136Y035930D01*
X011136Y035235D01*
X011203Y035073D01*
X011327Y034949D01*
X011200Y035080D02*
X004443Y035080D01*
X004443Y035239D02*
X011136Y035239D01*
X011136Y035397D02*
X004443Y035397D01*
X004443Y035556D02*
X005140Y035556D01*
X005095Y035575D02*
X005407Y035445D01*
X005527Y035445D01*
X005527Y035445D01*
X005576Y035445D01*
X005596Y035445D01*
X005626Y035445D01*
X005626Y035445D01*
X005745Y035445D01*
X005745Y035445D01*
X006058Y035575D01*
X006297Y035814D01*
X006426Y036126D01*
X006426Y036464D01*
X006297Y036777D01*
X006058Y037016D01*
X006058Y037016D01*
X005745Y037145D01*
X005626Y037145D01*
X005576Y037145D01*
X005527Y037145D01*
X005407Y037145D01*
X005095Y037016D01*
X004856Y036777D01*
X004726Y036464D01*
X004726Y036126D01*
X004856Y035814D01*
X004856Y035814D01*
X005095Y035575D01*
X005095Y035575D01*
X005095Y035575D01*
X004955Y035715D02*
X004443Y035715D01*
X004443Y035873D02*
X004831Y035873D01*
X004766Y036032D02*
X004443Y036032D01*
X004443Y036190D02*
X004726Y036190D01*
X004726Y036349D02*
X004443Y036349D01*
X004443Y036507D02*
X004744Y036507D01*
X004810Y036666D02*
X004443Y036666D01*
X004443Y036824D02*
X004904Y036824D01*
X005062Y036983D02*
X004443Y036983D01*
X004443Y037141D02*
X005399Y037141D01*
X005407Y037145D02*
X005407Y037145D01*
X005527Y037145D02*
X005527Y037145D01*
X005576Y037145D02*
X005576Y037145D01*
X005626Y037145D02*
X005626Y037145D01*
X005745Y037145D02*
X005745Y037145D01*
X005754Y037141D02*
X033611Y037141D01*
X033620Y037145D02*
X033308Y037016D01*
X033307Y037016D02*
X033068Y036777D01*
X033068Y036777D01*
X032939Y036464D01*
X032939Y036126D01*
X033068Y035814D01*
X033307Y035575D01*
X033308Y035575D01*
X033620Y035445D01*
X033739Y035445D01*
X033739Y035445D01*
X033765Y035445D01*
X033789Y035445D01*
X033839Y035445D01*
X033958Y035445D01*
X034270Y035575D01*
X034270Y035575D01*
X034509Y035814D01*
X034639Y036126D01*
X034639Y036464D01*
X034639Y036464D01*
X034509Y036777D01*
X034270Y037016D01*
X033958Y037145D01*
X033839Y037145D01*
X033789Y037145D01*
X033788Y037145D01*
X033739Y037145D01*
X033620Y037145D01*
X033620Y037145D01*
X033739Y037145D02*
X033739Y037145D01*
X033839Y037145D02*
X033839Y037145D01*
X033958Y037145D02*
X033958Y037145D01*
X033967Y037141D02*
X034923Y037141D01*
X034923Y036983D02*
X034303Y036983D01*
X034270Y037016D02*
X034270Y037016D01*
X034462Y036824D02*
X034923Y036824D01*
X034923Y036666D02*
X034555Y036666D01*
X034509Y036777D02*
X034509Y036777D01*
X034621Y036507D02*
X034923Y036507D01*
X034923Y036349D02*
X034639Y036349D01*
X034639Y036190D02*
X034923Y036190D01*
X034923Y036032D02*
X034600Y036032D01*
X034639Y036126D02*
X034639Y036126D01*
X034534Y035873D02*
X034923Y035873D01*
X034923Y035715D02*
X034410Y035715D01*
X034509Y035814D02*
X034509Y035814D01*
X034226Y035556D02*
X034923Y035556D01*
X034923Y035397D02*
X030886Y035397D01*
X030914Y035330D02*
X030803Y035599D01*
X030597Y035805D01*
X030328Y035916D01*
X030037Y035916D01*
X029768Y035805D01*
X029563Y035599D01*
X029451Y035330D01*
X029451Y035039D01*
X029563Y034771D01*
X029768Y034565D01*
X030037Y034454D01*
X030328Y034454D01*
X030597Y034565D01*
X030803Y034771D01*
X030914Y035039D01*
X030914Y035330D01*
X030914Y035239D02*
X034923Y035239D01*
X034923Y035080D02*
X030914Y035080D01*
X030865Y034922D02*
X034923Y034922D01*
X034923Y034763D02*
X030795Y034763D01*
X030637Y034605D02*
X034923Y034605D01*
X033958Y035445D02*
X033958Y035445D01*
X033839Y035445D02*
X033839Y035445D01*
X033620Y035445D02*
X033620Y035445D01*
X033352Y035556D02*
X030820Y035556D01*
X030687Y035715D02*
X033167Y035715D01*
X033068Y035814D02*
X033068Y035814D01*
X033044Y035873D02*
X030432Y035873D01*
X029934Y035873D02*
X018259Y035873D01*
X018514Y035715D02*
X029678Y035715D01*
X029545Y035556D02*
X018647Y035556D01*
X018713Y035397D02*
X029479Y035397D01*
X029451Y035239D02*
X018741Y035239D01*
X018741Y035080D02*
X029451Y035080D01*
X029500Y034922D02*
X018692Y034922D01*
X018622Y034763D02*
X029570Y034763D01*
X029729Y034605D02*
X018463Y034605D01*
X017327Y034922D02*
X011759Y034922D01*
X011952Y035080D02*
X017278Y035080D01*
X017278Y035239D02*
X012016Y035239D01*
X012016Y035397D02*
X017306Y035397D01*
X017372Y035556D02*
X012016Y035556D01*
X012016Y035715D02*
X017505Y035715D01*
X017760Y035873D02*
X012016Y035873D01*
X011974Y036032D02*
X032978Y036032D01*
X032939Y036126D02*
X032939Y036126D01*
X032939Y036190D02*
X011851Y036190D01*
X011302Y036190D02*
X006426Y036190D01*
X006426Y036126D02*
X006426Y036126D01*
X006387Y036032D02*
X011178Y036032D01*
X011136Y035873D02*
X006321Y035873D01*
X006297Y035814D02*
X006297Y035814D01*
X006198Y035715D02*
X011136Y035715D01*
X011136Y035556D02*
X006013Y035556D01*
X006058Y035575D02*
X006058Y035575D01*
X006426Y036349D02*
X032939Y036349D01*
X032939Y036464D02*
X032939Y036464D01*
X032957Y036507D02*
X006408Y036507D01*
X006426Y036464D02*
X006426Y036464D01*
X006343Y036666D02*
X033023Y036666D01*
X033116Y036824D02*
X006249Y036824D01*
X006297Y036777D02*
X006297Y036777D01*
X006091Y036983D02*
X033275Y036983D01*
X033307Y037016D02*
X033308Y037016D01*
X034923Y037300D02*
X004443Y037300D01*
X005095Y037016D02*
X005095Y037016D01*
X005407Y035445D02*
X005407Y035445D01*
X004443Y032702D02*
X011399Y032702D01*
X011241Y032544D02*
X004443Y032544D01*
X004443Y032385D02*
X011082Y032385D01*
X010924Y032227D02*
X004443Y032227D01*
X004443Y032068D02*
X010765Y032068D01*
X010606Y031910D02*
X004443Y031910D01*
X004443Y031751D02*
X010448Y031751D01*
X010289Y031592D02*
X004443Y031592D01*
X004443Y031434D02*
X010131Y031434D01*
X009972Y031275D02*
X004443Y031275D01*
X004443Y031117D02*
X007814Y031117D01*
X007655Y030958D02*
X004443Y030958D01*
X004443Y030800D02*
X007497Y030800D01*
X007338Y030641D02*
X004443Y030641D01*
X004443Y030483D02*
X007180Y030483D01*
X007021Y030324D02*
X004443Y030324D01*
X004443Y030166D02*
X005605Y030166D01*
X005603Y030007D02*
X004443Y030007D01*
X004443Y029848D02*
X005603Y029848D01*
X005603Y029690D02*
X004443Y029690D01*
X004443Y029531D02*
X005603Y029531D01*
X005603Y029373D02*
X004443Y029373D01*
X004443Y028897D02*
X009208Y028897D01*
X009133Y029079D02*
X009133Y029298D01*
X009216Y029500D01*
X009371Y029655D01*
X009453Y029689D01*
X009371Y029723D01*
X009216Y029877D01*
X009133Y030079D01*
X009133Y030298D01*
X009216Y030500D01*
X009371Y030655D01*
X009549Y030729D01*
X008020Y030729D01*
X006893Y029602D01*
X006893Y029602D01*
X006770Y029479D01*
X006763Y029479D01*
X006763Y029214D01*
X006657Y029109D01*
X005708Y029109D01*
X005603Y029214D01*
X005790Y028739D02*
X004443Y028739D01*
X004443Y028580D02*
X005669Y028580D01*
X005613Y028422D02*
X004443Y028422D01*
X004443Y028263D02*
X005603Y028263D01*
X005640Y028104D02*
X004443Y028104D01*
X004443Y027946D02*
X005731Y027946D01*
X006763Y029214D02*
X009133Y029214D01*
X009164Y029373D02*
X006763Y029373D01*
X006822Y029531D02*
X009247Y029531D01*
X009450Y029690D02*
X006981Y029690D01*
X007139Y029848D02*
X009245Y029848D01*
X009163Y030007D02*
X007298Y030007D01*
X007456Y030166D02*
X009133Y030166D01*
X009143Y030324D02*
X007615Y030324D01*
X007773Y030483D02*
X009209Y030483D01*
X009357Y030641D02*
X007932Y030641D01*
X006862Y030166D02*
X006760Y030166D01*
X009078Y027787D02*
X009306Y027787D01*
X009345Y027629D02*
X008920Y027629D01*
X011834Y032544D02*
X021006Y032544D01*
X020983Y032702D02*
X011993Y032702D01*
X012152Y032861D02*
X021018Y032861D01*
X021131Y033019D02*
X012895Y033019D01*
X010577Y033019D02*
X010576Y033019D01*
X010576Y033178D02*
X010577Y033178D01*
X010576Y033336D02*
X010577Y033336D01*
X010576Y033495D02*
X010577Y033495D01*
X010576Y033654D02*
X010577Y033654D01*
X010576Y033812D02*
X010577Y033812D01*
X010576Y033971D02*
X010577Y033971D01*
X010576Y034129D02*
X010577Y034129D01*
X010241Y034129D02*
X010200Y034073D01*
X010169Y034011D01*
X010147Y033946D01*
X024377Y033336D02*
X031238Y033336D01*
X032691Y029848D02*
X033675Y029848D01*
X033569Y029690D02*
X032796Y029690D01*
X032843Y029531D02*
X033523Y029531D01*
X033523Y029373D02*
X032843Y029373D01*
X032783Y029214D02*
X033583Y029214D01*
X033708Y029056D02*
X032657Y029056D01*
X032402Y011959D02*
X032604Y011875D01*
X032759Y011720D01*
X032843Y011518D01*
X032843Y011299D01*
X032843Y011457D02*
X033523Y011457D01*
X033523Y011299D02*
X033606Y011097D01*
X033761Y010943D01*
X033589Y011140D02*
X032777Y011140D01*
X032802Y011616D02*
X033563Y011616D01*
X033661Y011775D02*
X032705Y011775D01*
X032927Y009555D02*
X030594Y009555D01*
X030692Y009396D02*
X032768Y009396D01*
X032743Y009238D02*
X030733Y009238D01*
X030534Y008762D02*
X032987Y008762D01*
X029831Y008762D02*
X027531Y008762D01*
X027663Y008921D02*
X029698Y008921D01*
X029673Y009396D02*
X027694Y009396D01*
X027594Y009555D02*
X029771Y009555D01*
D11*
X030183Y009189D03*
X032293Y011409D03*
X034073Y011409D03*
X034073Y013969D03*
X032293Y013969D03*
X028683Y018189D03*
X028683Y019189D03*
X028683Y020189D03*
X028683Y021189D03*
X028683Y022189D03*
X028683Y023189D03*
X028683Y025189D03*
X028683Y026189D03*
X028683Y027189D03*
X028683Y028189D03*
X028683Y029189D03*
X028683Y030189D03*
X030183Y032689D03*
X027183Y032689D03*
X032293Y029469D03*
X034073Y029469D03*
X034073Y026909D03*
X032293Y026909D03*
X026683Y022689D03*
X023683Y022689D03*
X027183Y009189D03*
X009683Y014689D03*
X009683Y015689D03*
X009683Y016689D03*
X009683Y017689D03*
X009683Y018689D03*
X009683Y019689D03*
X009683Y020689D03*
X009683Y021689D03*
X009683Y023189D03*
X009683Y024189D03*
X009683Y025189D03*
X009683Y026189D03*
X009683Y027189D03*
X009683Y028189D03*
X009683Y029189D03*
X009683Y030189D03*
D12*
X006183Y029689D03*
X006183Y024689D03*
X006183Y008689D03*
D13*
X006183Y007311D03*
X006183Y023311D03*
X006183Y028311D03*
D14*
X033183Y031689D03*
X033183Y032689D03*
X033183Y009189D03*
X033183Y008189D03*
D15*
X024943Y025689D02*
X024423Y025689D01*
X024423Y026689D02*
X024943Y026689D01*
X024943Y027689D02*
X024423Y027689D01*
X024423Y028689D02*
X024943Y028689D01*
X024943Y029689D02*
X024423Y029689D01*
X024423Y030689D02*
X024943Y030689D01*
X024943Y031689D02*
X024423Y031689D01*
X024423Y032689D02*
X024943Y032689D01*
X021943Y032689D02*
X021423Y032689D01*
X021423Y031689D02*
X021943Y031689D01*
X021943Y030689D02*
X021423Y030689D01*
X021423Y029689D02*
X021943Y029689D01*
X021943Y028689D02*
X021423Y028689D01*
X021423Y027689D02*
X021943Y027689D01*
X021943Y026689D02*
X021423Y026689D01*
X021423Y025689D02*
X021943Y025689D01*
X012576Y033323D02*
X012576Y033843D01*
X011576Y035323D02*
X011576Y035843D01*
X010576Y033843D02*
X010576Y033323D01*
D16*
X004976Y036295D02*
X004978Y036344D01*
X004984Y036392D01*
X004994Y036440D01*
X005008Y036487D01*
X005025Y036533D01*
X005046Y036577D01*
X005071Y036619D01*
X005099Y036659D01*
X005131Y036697D01*
X005165Y036732D01*
X005202Y036764D01*
X005241Y036793D01*
X005283Y036819D01*
X005327Y036841D01*
X005372Y036859D01*
X005419Y036874D01*
X005466Y036885D01*
X005515Y036892D01*
X005564Y036895D01*
X005613Y036894D01*
X005661Y036889D01*
X005710Y036880D01*
X005757Y036867D01*
X005803Y036850D01*
X005847Y036830D01*
X005890Y036806D01*
X005931Y036779D01*
X005969Y036748D01*
X006005Y036715D01*
X006037Y036679D01*
X006067Y036640D01*
X006094Y036599D01*
X006117Y036555D01*
X006136Y036510D01*
X006152Y036464D01*
X006164Y036417D01*
X006172Y036368D01*
X006176Y036319D01*
X006176Y036271D01*
X006172Y036222D01*
X006164Y036173D01*
X006152Y036126D01*
X006136Y036080D01*
X006117Y036035D01*
X006094Y035991D01*
X006067Y035950D01*
X006037Y035911D01*
X006005Y035875D01*
X005969Y035842D01*
X005931Y035811D01*
X005890Y035784D01*
X005847Y035760D01*
X005803Y035740D01*
X005757Y035723D01*
X005710Y035710D01*
X005661Y035701D01*
X005613Y035696D01*
X005564Y035695D01*
X005515Y035698D01*
X005466Y035705D01*
X005419Y035716D01*
X005372Y035731D01*
X005327Y035749D01*
X005283Y035771D01*
X005241Y035797D01*
X005202Y035826D01*
X005165Y035858D01*
X005131Y035893D01*
X005099Y035931D01*
X005071Y035971D01*
X005046Y036013D01*
X005025Y036057D01*
X005008Y036103D01*
X004994Y036150D01*
X004984Y036198D01*
X004978Y036246D01*
X004976Y036295D01*
X017458Y035185D02*
X017460Y035232D01*
X017466Y035278D01*
X017476Y035324D01*
X017489Y035369D01*
X017507Y035412D01*
X017528Y035454D01*
X017552Y035494D01*
X017580Y035531D01*
X017611Y035566D01*
X017645Y035599D01*
X017681Y035628D01*
X017720Y035654D01*
X017761Y035677D01*
X017804Y035696D01*
X017848Y035712D01*
X017893Y035724D01*
X017939Y035732D01*
X017986Y035736D01*
X018032Y035736D01*
X018079Y035732D01*
X018125Y035724D01*
X018170Y035712D01*
X018214Y035696D01*
X018257Y035677D01*
X018298Y035654D01*
X018337Y035628D01*
X018373Y035599D01*
X018407Y035566D01*
X018438Y035531D01*
X018466Y035494D01*
X018490Y035454D01*
X018511Y035412D01*
X018529Y035369D01*
X018542Y035324D01*
X018552Y035278D01*
X018558Y035232D01*
X018560Y035185D01*
X018558Y035138D01*
X018552Y035092D01*
X018542Y035046D01*
X018529Y035001D01*
X018511Y034958D01*
X018490Y034916D01*
X018466Y034876D01*
X018438Y034839D01*
X018407Y034804D01*
X018373Y034771D01*
X018337Y034742D01*
X018298Y034716D01*
X018257Y034693D01*
X018214Y034674D01*
X018170Y034658D01*
X018125Y034646D01*
X018079Y034638D01*
X018032Y034634D01*
X017986Y034634D01*
X017939Y034638D01*
X017893Y034646D01*
X017848Y034658D01*
X017804Y034674D01*
X017761Y034693D01*
X017720Y034716D01*
X017681Y034742D01*
X017645Y034771D01*
X017611Y034804D01*
X017580Y034839D01*
X017552Y034876D01*
X017528Y034916D01*
X017507Y034958D01*
X017489Y035001D01*
X017476Y035046D01*
X017466Y035092D01*
X017460Y035138D01*
X017458Y035185D01*
X029632Y035185D02*
X029634Y035232D01*
X029640Y035278D01*
X029650Y035324D01*
X029663Y035369D01*
X029681Y035412D01*
X029702Y035454D01*
X029726Y035494D01*
X029754Y035531D01*
X029785Y035566D01*
X029819Y035599D01*
X029855Y035628D01*
X029894Y035654D01*
X029935Y035677D01*
X029978Y035696D01*
X030022Y035712D01*
X030067Y035724D01*
X030113Y035732D01*
X030160Y035736D01*
X030206Y035736D01*
X030253Y035732D01*
X030299Y035724D01*
X030344Y035712D01*
X030388Y035696D01*
X030431Y035677D01*
X030472Y035654D01*
X030511Y035628D01*
X030547Y035599D01*
X030581Y035566D01*
X030612Y035531D01*
X030640Y035494D01*
X030664Y035454D01*
X030685Y035412D01*
X030703Y035369D01*
X030716Y035324D01*
X030726Y035278D01*
X030732Y035232D01*
X030734Y035185D01*
X030732Y035138D01*
X030726Y035092D01*
X030716Y035046D01*
X030703Y035001D01*
X030685Y034958D01*
X030664Y034916D01*
X030640Y034876D01*
X030612Y034839D01*
X030581Y034804D01*
X030547Y034771D01*
X030511Y034742D01*
X030472Y034716D01*
X030431Y034693D01*
X030388Y034674D01*
X030344Y034658D01*
X030299Y034646D01*
X030253Y034638D01*
X030206Y034634D01*
X030160Y034634D01*
X030113Y034638D01*
X030067Y034646D01*
X030022Y034658D01*
X029978Y034674D01*
X029935Y034693D01*
X029894Y034716D01*
X029855Y034742D01*
X029819Y034771D01*
X029785Y034804D01*
X029754Y034839D01*
X029726Y034876D01*
X029702Y034916D01*
X029681Y034958D01*
X029663Y035001D01*
X029650Y035046D01*
X029640Y035092D01*
X029634Y035138D01*
X029632Y035185D01*
X033189Y036295D02*
X033191Y036344D01*
X033197Y036392D01*
X033207Y036440D01*
X033221Y036487D01*
X033238Y036533D01*
X033259Y036577D01*
X033284Y036619D01*
X033312Y036659D01*
X033344Y036697D01*
X033378Y036732D01*
X033415Y036764D01*
X033454Y036793D01*
X033496Y036819D01*
X033540Y036841D01*
X033585Y036859D01*
X033632Y036874D01*
X033679Y036885D01*
X033728Y036892D01*
X033777Y036895D01*
X033826Y036894D01*
X033874Y036889D01*
X033923Y036880D01*
X033970Y036867D01*
X034016Y036850D01*
X034060Y036830D01*
X034103Y036806D01*
X034144Y036779D01*
X034182Y036748D01*
X034218Y036715D01*
X034250Y036679D01*
X034280Y036640D01*
X034307Y036599D01*
X034330Y036555D01*
X034349Y036510D01*
X034365Y036464D01*
X034377Y036417D01*
X034385Y036368D01*
X034389Y036319D01*
X034389Y036271D01*
X034385Y036222D01*
X034377Y036173D01*
X034365Y036126D01*
X034349Y036080D01*
X034330Y036035D01*
X034307Y035991D01*
X034280Y035950D01*
X034250Y035911D01*
X034218Y035875D01*
X034182Y035842D01*
X034144Y035811D01*
X034103Y035784D01*
X034060Y035760D01*
X034016Y035740D01*
X033970Y035723D01*
X033923Y035710D01*
X033874Y035701D01*
X033826Y035696D01*
X033777Y035695D01*
X033728Y035698D01*
X033679Y035705D01*
X033632Y035716D01*
X033585Y035731D01*
X033540Y035749D01*
X033496Y035771D01*
X033454Y035797D01*
X033415Y035826D01*
X033378Y035858D01*
X033344Y035893D01*
X033312Y035931D01*
X033284Y035971D01*
X033259Y036013D01*
X033238Y036057D01*
X033221Y036103D01*
X033207Y036150D01*
X033197Y036198D01*
X033191Y036246D01*
X033189Y036295D01*
X029632Y005689D02*
X029634Y005736D01*
X029640Y005782D01*
X029650Y005828D01*
X029663Y005873D01*
X029681Y005916D01*
X029702Y005958D01*
X029726Y005998D01*
X029754Y006035D01*
X029785Y006070D01*
X029819Y006103D01*
X029855Y006132D01*
X029894Y006158D01*
X029935Y006181D01*
X029978Y006200D01*
X030022Y006216D01*
X030067Y006228D01*
X030113Y006236D01*
X030160Y006240D01*
X030206Y006240D01*
X030253Y006236D01*
X030299Y006228D01*
X030344Y006216D01*
X030388Y006200D01*
X030431Y006181D01*
X030472Y006158D01*
X030511Y006132D01*
X030547Y006103D01*
X030581Y006070D01*
X030612Y006035D01*
X030640Y005998D01*
X030664Y005958D01*
X030685Y005916D01*
X030703Y005873D01*
X030716Y005828D01*
X030726Y005782D01*
X030732Y005736D01*
X030734Y005689D01*
X030732Y005642D01*
X030726Y005596D01*
X030716Y005550D01*
X030703Y005505D01*
X030685Y005462D01*
X030664Y005420D01*
X030640Y005380D01*
X030612Y005343D01*
X030581Y005308D01*
X030547Y005275D01*
X030511Y005246D01*
X030472Y005220D01*
X030431Y005197D01*
X030388Y005178D01*
X030344Y005162D01*
X030299Y005150D01*
X030253Y005142D01*
X030206Y005138D01*
X030160Y005138D01*
X030113Y005142D01*
X030067Y005150D01*
X030022Y005162D01*
X029978Y005178D01*
X029935Y005197D01*
X029894Y005220D01*
X029855Y005246D01*
X029819Y005275D01*
X029785Y005308D01*
X029754Y005343D01*
X029726Y005380D01*
X029702Y005420D01*
X029681Y005462D01*
X029663Y005505D01*
X029650Y005550D01*
X029640Y005596D01*
X029634Y005642D01*
X029632Y005689D01*
X033189Y004083D02*
X033191Y004132D01*
X033197Y004180D01*
X033207Y004228D01*
X033221Y004275D01*
X033238Y004321D01*
X033259Y004365D01*
X033284Y004407D01*
X033312Y004447D01*
X033344Y004485D01*
X033378Y004520D01*
X033415Y004552D01*
X033454Y004581D01*
X033496Y004607D01*
X033540Y004629D01*
X033585Y004647D01*
X033632Y004662D01*
X033679Y004673D01*
X033728Y004680D01*
X033777Y004683D01*
X033826Y004682D01*
X033874Y004677D01*
X033923Y004668D01*
X033970Y004655D01*
X034016Y004638D01*
X034060Y004618D01*
X034103Y004594D01*
X034144Y004567D01*
X034182Y004536D01*
X034218Y004503D01*
X034250Y004467D01*
X034280Y004428D01*
X034307Y004387D01*
X034330Y004343D01*
X034349Y004298D01*
X034365Y004252D01*
X034377Y004205D01*
X034385Y004156D01*
X034389Y004107D01*
X034389Y004059D01*
X034385Y004010D01*
X034377Y003961D01*
X034365Y003914D01*
X034349Y003868D01*
X034330Y003823D01*
X034307Y003779D01*
X034280Y003738D01*
X034250Y003699D01*
X034218Y003663D01*
X034182Y003630D01*
X034144Y003599D01*
X034103Y003572D01*
X034060Y003548D01*
X034016Y003528D01*
X033970Y003511D01*
X033923Y003498D01*
X033874Y003489D01*
X033826Y003484D01*
X033777Y003483D01*
X033728Y003486D01*
X033679Y003493D01*
X033632Y003504D01*
X033585Y003519D01*
X033540Y003537D01*
X033496Y003559D01*
X033454Y003585D01*
X033415Y003614D01*
X033378Y003646D01*
X033344Y003681D01*
X033312Y003719D01*
X033284Y003759D01*
X033259Y003801D01*
X033238Y003845D01*
X033221Y003891D01*
X033207Y003938D01*
X033197Y003986D01*
X033191Y004034D01*
X033189Y004083D01*
X017458Y005689D02*
X017460Y005736D01*
X017466Y005782D01*
X017476Y005828D01*
X017489Y005873D01*
X017507Y005916D01*
X017528Y005958D01*
X017552Y005998D01*
X017580Y006035D01*
X017611Y006070D01*
X017645Y006103D01*
X017681Y006132D01*
X017720Y006158D01*
X017761Y006181D01*
X017804Y006200D01*
X017848Y006216D01*
X017893Y006228D01*
X017939Y006236D01*
X017986Y006240D01*
X018032Y006240D01*
X018079Y006236D01*
X018125Y006228D01*
X018170Y006216D01*
X018214Y006200D01*
X018257Y006181D01*
X018298Y006158D01*
X018337Y006132D01*
X018373Y006103D01*
X018407Y006070D01*
X018438Y006035D01*
X018466Y005998D01*
X018490Y005958D01*
X018511Y005916D01*
X018529Y005873D01*
X018542Y005828D01*
X018552Y005782D01*
X018558Y005736D01*
X018560Y005689D01*
X018558Y005642D01*
X018552Y005596D01*
X018542Y005550D01*
X018529Y005505D01*
X018511Y005462D01*
X018490Y005420D01*
X018466Y005380D01*
X018438Y005343D01*
X018407Y005308D01*
X018373Y005275D01*
X018337Y005246D01*
X018298Y005220D01*
X018257Y005197D01*
X018214Y005178D01*
X018170Y005162D01*
X018125Y005150D01*
X018079Y005142D01*
X018032Y005138D01*
X017986Y005138D01*
X017939Y005142D01*
X017893Y005150D01*
X017848Y005162D01*
X017804Y005178D01*
X017761Y005197D01*
X017720Y005220D01*
X017681Y005246D01*
X017645Y005275D01*
X017611Y005308D01*
X017580Y005343D01*
X017552Y005380D01*
X017528Y005420D01*
X017507Y005462D01*
X017489Y005505D01*
X017476Y005550D01*
X017466Y005596D01*
X017460Y005642D01*
X017458Y005689D01*
X004976Y004083D02*
X004978Y004132D01*
X004984Y004180D01*
X004994Y004228D01*
X005008Y004275D01*
X005025Y004321D01*
X005046Y004365D01*
X005071Y004407D01*
X005099Y004447D01*
X005131Y004485D01*
X005165Y004520D01*
X005202Y004552D01*
X005241Y004581D01*
X005283Y004607D01*
X005327Y004629D01*
X005372Y004647D01*
X005419Y004662D01*
X005466Y004673D01*
X005515Y004680D01*
X005564Y004683D01*
X005613Y004682D01*
X005661Y004677D01*
X005710Y004668D01*
X005757Y004655D01*
X005803Y004638D01*
X005847Y004618D01*
X005890Y004594D01*
X005931Y004567D01*
X005969Y004536D01*
X006005Y004503D01*
X006037Y004467D01*
X006067Y004428D01*
X006094Y004387D01*
X006117Y004343D01*
X006136Y004298D01*
X006152Y004252D01*
X006164Y004205D01*
X006172Y004156D01*
X006176Y004107D01*
X006176Y004059D01*
X006172Y004010D01*
X006164Y003961D01*
X006152Y003914D01*
X006136Y003868D01*
X006117Y003823D01*
X006094Y003779D01*
X006067Y003738D01*
X006037Y003699D01*
X006005Y003663D01*
X005969Y003630D01*
X005931Y003599D01*
X005890Y003572D01*
X005847Y003548D01*
X005803Y003528D01*
X005757Y003511D01*
X005710Y003498D01*
X005661Y003489D01*
X005613Y003484D01*
X005564Y003483D01*
X005515Y003486D01*
X005466Y003493D01*
X005419Y003504D01*
X005372Y003519D01*
X005327Y003537D01*
X005283Y003559D01*
X005241Y003585D01*
X005202Y003614D01*
X005165Y003646D01*
X005131Y003681D01*
X005099Y003719D01*
X005071Y003759D01*
X005046Y003801D01*
X005025Y003845D01*
X005008Y003891D01*
X004994Y003938D01*
X004984Y003986D01*
X004978Y004034D01*
X004976Y004083D01*
D17*
X017752Y007838D02*
X018267Y007838D01*
X018267Y008838D02*
X017752Y008838D01*
X017752Y009838D02*
X018267Y009838D01*
X018267Y010838D02*
X017752Y010838D01*
X017752Y011838D02*
X018267Y011838D01*
X018267Y012838D02*
X017752Y012838D01*
X017752Y013838D02*
X018267Y013838D01*
X018267Y014838D02*
X017752Y014838D01*
X017752Y015838D02*
X018267Y015838D01*
X018267Y016838D02*
X017752Y016838D01*
X017752Y017838D02*
X018267Y017838D01*
X018267Y018838D02*
X017752Y018838D01*
X017752Y019838D02*
X018267Y019838D01*
X018267Y020838D02*
X017752Y020838D01*
X017752Y021838D02*
X018267Y021838D01*
X018267Y022838D02*
X017752Y022838D01*
D18*
X013683Y012173D03*
X013683Y010205D03*
D19*
X018009Y010838D02*
X018183Y010939D01*
X025683Y018439D01*
X025683Y031439D01*
X025183Y031439D01*
X024933Y031689D01*
X024683Y031689D01*
X022683Y031939D02*
X024433Y033689D01*
X031183Y033689D01*
X033183Y031689D01*
X029183Y030189D02*
X032433Y026939D01*
X032293Y026909D01*
X029183Y030189D02*
X028683Y030189D01*
X025433Y027439D02*
X025183Y027439D01*
X024933Y027689D01*
X024683Y027689D01*
X025433Y027439D02*
X025433Y022689D01*
X024433Y021689D01*
X021933Y021689D01*
X018183Y017939D01*
X018009Y017838D01*
X018009Y018838D02*
X017933Y018939D01*
X016933Y019939D01*
X016933Y023439D01*
X021183Y023439D01*
X024433Y026689D01*
X024683Y026689D01*
X024683Y025689D02*
X024683Y022439D01*
X024183Y021939D01*
X020183Y021939D01*
X018183Y019939D01*
X018009Y019838D01*
X018183Y022689D02*
X018009Y022838D01*
X018183Y022689D02*
X023683Y022689D01*
X020933Y023689D02*
X022683Y025439D01*
X022683Y031939D01*
X021683Y030689D02*
X021433Y030439D01*
X021183Y030439D01*
X017433Y026689D01*
X018183Y026439D02*
X012433Y026439D01*
X009683Y026189D02*
X019933Y026189D01*
X021183Y027439D01*
X021433Y027439D01*
X021683Y027689D01*
X021683Y026689D02*
X021433Y026689D01*
X019683Y024939D01*
X020933Y023689D02*
X013183Y023689D01*
X010183Y020689D01*
X009683Y020689D01*
X009433Y022689D02*
X006433Y019689D01*
X006433Y008689D01*
X006183Y008689D01*
X006433Y008689D02*
X006683Y008689D01*
X008183Y007189D01*
X032183Y007189D01*
X033183Y008189D01*
X027933Y018689D02*
X027933Y020189D01*
X028683Y020189D01*
X027933Y018689D02*
X018183Y008939D01*
X018009Y008838D01*
X009433Y022689D02*
X009683Y023189D01*
X009683Y025189D02*
X008433Y025189D01*
X008433Y026189D01*
X008933Y026689D01*
X009183Y028189D02*
X006183Y025189D01*
X006183Y024689D01*
X009183Y028189D02*
X009683Y028189D01*
X009933Y030939D02*
X007933Y030939D01*
X006683Y029689D01*
X006183Y029689D01*
X009933Y030939D02*
X012576Y033583D01*
X018183Y026439D02*
X021183Y029439D01*
X021433Y029439D01*
X021683Y029689D01*
D20*
X019683Y024939D03*
X012433Y026439D03*
D21*
X008933Y026689D02*
X017433Y026689D01*
M02*
