G75*
G70*
%OFA0B0*%
%FSLAX24Y24*%
%IPPOS*%
%LPD*%
%AMOC8*
5,1,8,0,0,1.08239X$1,22.5*
%
%ADD10C,0.0060*%
%ADD11C,0.0160*%
%ADD12C,0.0030*%
%ADD13C,0.0080*%
%ADD14C,0.0100*%
%ADD15C,0.0050*%
%ADD16C,0.0000*%
D10*
X005532Y005574D02*
X005532Y006001D01*
X005426Y010326D02*
X005426Y010753D01*
X005213Y010539D02*
X005640Y010539D01*
X011283Y011189D02*
X011286Y011307D01*
X011295Y011424D01*
X011309Y011541D01*
X011329Y011657D01*
X011355Y011772D01*
X011386Y011886D01*
X011423Y011998D01*
X011466Y012107D01*
X011513Y012215D01*
X011566Y012320D01*
X011624Y012423D01*
X011687Y012522D01*
X011755Y012619D01*
X011828Y012712D01*
X011905Y012801D01*
X011986Y012886D01*
X012071Y012967D01*
X012160Y013044D01*
X012253Y013117D01*
X012350Y013185D01*
X012449Y013248D01*
X012552Y013306D01*
X012657Y013359D01*
X012765Y013406D01*
X012874Y013449D01*
X012986Y013486D01*
X013100Y013517D01*
X013215Y013543D01*
X013331Y013563D01*
X013448Y013577D01*
X013565Y013586D01*
X013683Y013589D01*
X013801Y013586D01*
X013918Y013577D01*
X014035Y013563D01*
X014151Y013543D01*
X014266Y013517D01*
X014380Y013486D01*
X014492Y013449D01*
X014601Y013406D01*
X014709Y013359D01*
X014814Y013306D01*
X014917Y013248D01*
X015016Y013185D01*
X015113Y013117D01*
X015206Y013044D01*
X015295Y012967D01*
X015380Y012886D01*
X015461Y012801D01*
X015538Y012712D01*
X015611Y012619D01*
X015679Y012522D01*
X015742Y012423D01*
X015800Y012320D01*
X015853Y012215D01*
X015900Y012107D01*
X015943Y011998D01*
X015980Y011886D01*
X016011Y011772D01*
X016037Y011657D01*
X016057Y011541D01*
X016071Y011424D01*
X016080Y011307D01*
X016083Y011189D01*
X016080Y011071D01*
X016071Y010954D01*
X016057Y010837D01*
X016037Y010721D01*
X016011Y010606D01*
X015980Y010492D01*
X015943Y010380D01*
X015900Y010271D01*
X015853Y010163D01*
X015800Y010058D01*
X015742Y009955D01*
X015679Y009856D01*
X015611Y009759D01*
X015538Y009666D01*
X015461Y009577D01*
X015380Y009492D01*
X015295Y009411D01*
X015206Y009334D01*
X015113Y009261D01*
X015016Y009193D01*
X014917Y009130D01*
X014814Y009072D01*
X014709Y009019D01*
X014601Y008972D01*
X014492Y008929D01*
X014380Y008892D01*
X014266Y008861D01*
X014151Y008835D01*
X014035Y008815D01*
X013918Y008801D01*
X013801Y008792D01*
X013683Y008789D01*
X013565Y008792D01*
X013448Y008801D01*
X013331Y008815D01*
X013215Y008835D01*
X013100Y008861D01*
X012986Y008892D01*
X012874Y008929D01*
X012765Y008972D01*
X012657Y009019D01*
X012552Y009072D01*
X012449Y009130D01*
X012350Y009193D01*
X012253Y009261D01*
X012160Y009334D01*
X012071Y009411D01*
X011986Y009492D01*
X011905Y009577D01*
X011828Y009666D01*
X011755Y009759D01*
X011687Y009856D01*
X011624Y009955D01*
X011566Y010058D01*
X011513Y010163D01*
X011466Y010271D01*
X011423Y010380D01*
X011386Y010492D01*
X011355Y010606D01*
X011329Y010721D01*
X011309Y010837D01*
X011295Y010954D01*
X011286Y011071D01*
X011283Y011189D01*
X014619Y014719D02*
X015046Y014719D01*
X015153Y014826D01*
X015153Y015039D01*
X015046Y015146D01*
X014619Y015146D01*
X014512Y015039D01*
X014512Y014826D01*
X014619Y014719D01*
X014726Y015363D02*
X014726Y015684D01*
X014832Y015790D01*
X015046Y015790D01*
X015153Y015684D01*
X015153Y015363D01*
X015366Y015363D02*
X014726Y015363D01*
X014832Y016008D02*
X014726Y016115D01*
X014726Y016328D01*
X014832Y016435D01*
X014939Y016435D01*
X014939Y016008D01*
X015046Y016008D02*
X014832Y016008D01*
X015046Y016008D02*
X015153Y016115D01*
X015153Y016328D01*
X015153Y016652D02*
X014726Y016652D01*
X014726Y016973D01*
X014832Y017079D01*
X015153Y017079D01*
X015153Y017941D02*
X014726Y017941D01*
X014512Y018155D01*
X014726Y018368D01*
X015153Y018368D01*
X015046Y018586D02*
X015153Y018693D01*
X015153Y019013D01*
X015046Y019231D02*
X015153Y019337D01*
X015153Y019658D01*
X015046Y019875D02*
X015153Y019982D01*
X015153Y020195D01*
X014939Y020302D02*
X014939Y019875D01*
X014832Y019875D02*
X014726Y019982D01*
X014726Y020195D01*
X014832Y020302D01*
X014939Y020302D01*
X014832Y020520D02*
X014726Y020626D01*
X014726Y020947D01*
X014939Y020840D02*
X014939Y020626D01*
X014832Y020520D01*
X015153Y020520D02*
X015153Y020840D01*
X015046Y020947D01*
X014939Y020840D01*
X014832Y021164D02*
X014726Y021271D01*
X014726Y021591D01*
X014939Y021484D02*
X014939Y021271D01*
X014832Y021164D01*
X015153Y021164D02*
X015153Y021484D01*
X015046Y021591D01*
X014939Y021484D01*
X015046Y022453D02*
X014619Y022453D01*
X014512Y022560D01*
X014512Y022773D01*
X014619Y022880D01*
X014832Y023098D02*
X014726Y023204D01*
X014726Y023418D01*
X014832Y023525D01*
X015046Y023525D01*
X015153Y023418D01*
X015153Y023204D01*
X015046Y023098D01*
X014832Y023098D01*
X015046Y022880D02*
X015153Y022773D01*
X015153Y022560D01*
X015046Y022453D01*
X016226Y022561D02*
X016226Y022988D01*
X016653Y022561D01*
X016653Y022988D01*
X016546Y023205D02*
X016653Y023312D01*
X016653Y023632D01*
X016759Y023632D02*
X016226Y023632D01*
X016226Y023850D02*
X016226Y024170D01*
X016332Y024277D01*
X016546Y024277D01*
X016653Y024170D01*
X016653Y023850D01*
X016866Y023850D02*
X016226Y023850D01*
X016332Y024494D02*
X016226Y024601D01*
X016226Y024814D01*
X016332Y024921D01*
X016653Y024921D01*
X016546Y025139D02*
X016332Y025139D01*
X016226Y025245D01*
X016226Y025459D01*
X016332Y025566D01*
X016546Y025566D01*
X016653Y025459D01*
X016653Y025245D01*
X016546Y025139D01*
X016653Y025783D02*
X016226Y025783D01*
X016226Y026103D01*
X016332Y026210D01*
X016653Y026210D01*
X016653Y026428D02*
X016653Y026534D01*
X016546Y026534D01*
X016546Y026428D01*
X016653Y026428D01*
X016546Y026750D02*
X016332Y026750D01*
X016226Y026857D01*
X016226Y027177D01*
X016332Y027394D02*
X016546Y027394D01*
X016653Y027501D01*
X016653Y027715D01*
X016546Y027821D01*
X016332Y027821D01*
X016226Y027715D01*
X016226Y027501D01*
X016332Y027394D01*
X016653Y027177D02*
X016653Y026857D01*
X016546Y026750D01*
X016653Y028039D02*
X016226Y028039D01*
X016226Y028146D01*
X016332Y028253D01*
X016226Y028359D01*
X016332Y028466D01*
X016653Y028466D01*
X016653Y028253D02*
X016332Y028253D01*
X016653Y028684D02*
X016012Y029111D01*
X016332Y029328D02*
X016546Y029328D01*
X016653Y029435D01*
X016653Y029648D01*
X016546Y029755D01*
X016332Y029755D01*
X016226Y029648D01*
X016226Y029435D01*
X016332Y029328D01*
X016546Y029973D02*
X016439Y030079D01*
X016439Y030400D01*
X016332Y030400D02*
X016653Y030400D01*
X016653Y030079D01*
X016546Y029973D01*
X016226Y030079D02*
X016226Y030293D01*
X016332Y030400D01*
X016332Y030617D02*
X016546Y030617D01*
X016653Y030724D01*
X016653Y031044D01*
X016653Y031262D02*
X016653Y031475D01*
X016653Y031368D02*
X016226Y031368D01*
X016226Y031262D01*
X016226Y031044D02*
X016226Y030724D01*
X016332Y030617D01*
X016012Y031368D02*
X015905Y031368D01*
X015153Y031476D02*
X014512Y031476D01*
X014726Y031259D02*
X014726Y030939D01*
X014832Y030832D01*
X015046Y030832D01*
X015153Y030939D01*
X015153Y031259D01*
X014939Y031476D02*
X014726Y031797D01*
X014939Y031476D02*
X015153Y031797D01*
X014726Y032658D02*
X015153Y032872D01*
X014726Y033085D01*
X014726Y033303D02*
X014512Y033516D01*
X015153Y033516D01*
X015153Y033303D02*
X015153Y033730D01*
X013476Y032693D02*
X013476Y036483D01*
X013076Y036483D01*
X013076Y036133D01*
X010076Y036133D01*
X010076Y036483D01*
X009676Y036483D01*
X009676Y032693D01*
X013476Y032693D01*
X014832Y030614D02*
X014726Y030508D01*
X014726Y030294D01*
X014832Y030187D01*
X015046Y030187D01*
X015153Y030294D01*
X015153Y030508D01*
X015046Y030614D01*
X014832Y030614D01*
X015153Y029971D02*
X015153Y029758D01*
X015153Y029864D02*
X014512Y029864D01*
X014512Y029758D01*
X014726Y029541D02*
X014726Y029434D01*
X014939Y029221D01*
X014726Y029221D02*
X015153Y029221D01*
X014939Y029003D02*
X014939Y028576D01*
X014832Y028576D02*
X014726Y028683D01*
X014726Y028896D01*
X014832Y029003D01*
X014939Y029003D01*
X015153Y028896D02*
X015153Y028683D01*
X015046Y028576D01*
X014832Y028576D01*
X014726Y028360D02*
X014726Y028146D01*
X014619Y028253D02*
X015046Y028253D01*
X015153Y028360D01*
X015153Y027929D02*
X014832Y027929D01*
X014726Y027822D01*
X014726Y027502D01*
X015153Y027502D01*
X015153Y027286D02*
X015153Y027072D01*
X015153Y027179D02*
X014512Y027179D01*
X014512Y027072D02*
X014512Y027286D01*
X015153Y026212D02*
X015153Y025998D01*
X015153Y026105D02*
X014512Y026105D01*
X014512Y025998D01*
X014832Y025781D02*
X014726Y025674D01*
X014726Y025460D01*
X014832Y025354D01*
X015046Y025354D01*
X015153Y025460D01*
X015153Y025674D01*
X015046Y025781D01*
X014832Y025781D01*
X014726Y025137D02*
X014726Y025030D01*
X014939Y024816D01*
X014726Y024816D02*
X015153Y024816D01*
X015153Y024600D02*
X015046Y024493D01*
X014619Y024493D01*
X014726Y024387D02*
X014726Y024600D01*
X014832Y024169D02*
X015153Y024169D01*
X014832Y024169D02*
X014726Y024062D01*
X014726Y023742D01*
X015153Y023742D01*
X016012Y024494D02*
X016653Y024494D01*
X016759Y023632D02*
X016866Y023525D01*
X016866Y023419D01*
X016546Y023205D02*
X016226Y023205D01*
X016546Y021700D02*
X016546Y021593D01*
X016653Y021593D01*
X016653Y021700D01*
X016546Y021700D01*
X016653Y021700D02*
X016866Y021486D01*
X016759Y021269D02*
X016866Y021162D01*
X016866Y021055D01*
X016653Y020949D02*
X016546Y020842D01*
X016226Y020842D01*
X016332Y020624D02*
X016439Y020624D01*
X016439Y020197D01*
X016546Y020197D02*
X016332Y020197D01*
X016226Y020304D01*
X016226Y020518D01*
X016332Y020624D01*
X016653Y020518D02*
X016653Y020304D01*
X016546Y020197D01*
X016653Y019981D02*
X016653Y019768D01*
X016653Y019874D02*
X016012Y019874D01*
X016012Y019768D01*
X016012Y019550D02*
X016653Y019550D01*
X016653Y019230D01*
X016546Y019123D01*
X016332Y019123D01*
X016226Y019230D01*
X016226Y019550D01*
X016332Y018906D02*
X016653Y018906D01*
X016653Y018585D01*
X016546Y018479D01*
X016439Y018585D01*
X016439Y018906D01*
X016332Y018906D02*
X016226Y018799D01*
X016226Y018585D01*
X016226Y018262D02*
X016226Y018155D01*
X016439Y017941D01*
X016226Y017941D02*
X016653Y017941D01*
X016546Y017724D02*
X016653Y017617D01*
X016653Y017297D01*
X016012Y017297D01*
X016012Y017617D01*
X016119Y017724D01*
X016226Y017724D01*
X016332Y017617D01*
X016332Y017297D01*
X016332Y017617D02*
X016439Y017724D01*
X016546Y017724D01*
X016653Y016436D02*
X016653Y016223D01*
X016653Y016329D02*
X016012Y016329D01*
X016012Y016223D01*
X016012Y015900D02*
X016653Y015900D01*
X016653Y015793D02*
X016653Y016007D01*
X016653Y015577D02*
X016653Y015363D01*
X016653Y015470D02*
X016226Y015470D01*
X016226Y015363D01*
X016012Y015470D02*
X015905Y015470D01*
X016012Y015793D02*
X016012Y015900D01*
X016012Y015146D02*
X016653Y015146D01*
X016439Y014932D01*
X016653Y014719D01*
X016012Y014719D01*
X014832Y017941D02*
X014832Y018368D01*
X014832Y018586D02*
X014726Y018693D01*
X014726Y019013D01*
X014832Y019231D02*
X014726Y019337D01*
X014726Y019658D01*
X014832Y019875D02*
X015046Y019875D01*
X015046Y019231D02*
X014832Y019231D01*
X014832Y018586D02*
X015046Y018586D01*
X016653Y020949D02*
X016653Y021269D01*
X016759Y021269D02*
X016226Y021269D01*
X018012Y023719D02*
X018653Y023719D01*
X018653Y024146D01*
X018546Y024363D02*
X018653Y024470D01*
X018653Y024684D01*
X018546Y024790D01*
X018653Y025008D02*
X018012Y025008D01*
X018012Y025328D01*
X018119Y025435D01*
X018546Y025435D01*
X018653Y025328D01*
X018653Y025008D01*
X018119Y024790D02*
X018012Y024684D01*
X018012Y024470D01*
X018119Y024363D01*
X018546Y024363D01*
X022033Y025189D02*
X022783Y025189D01*
X022785Y025228D01*
X022791Y025267D01*
X022800Y025305D01*
X022813Y025342D01*
X022830Y025378D01*
X022850Y025411D01*
X022874Y025443D01*
X022900Y025472D01*
X022929Y025498D01*
X022961Y025522D01*
X022994Y025542D01*
X023030Y025559D01*
X023067Y025572D01*
X023105Y025581D01*
X023144Y025587D01*
X023183Y025589D01*
X023222Y025587D01*
X023261Y025581D01*
X023299Y025572D01*
X023336Y025559D01*
X023372Y025542D01*
X023405Y025522D01*
X023437Y025498D01*
X023466Y025472D01*
X023492Y025443D01*
X023516Y025411D01*
X023536Y025378D01*
X023553Y025342D01*
X023566Y025305D01*
X023575Y025267D01*
X023581Y025228D01*
X023583Y025189D01*
X024333Y025189D01*
X024333Y033189D01*
X022033Y033189D01*
X022033Y025189D01*
X024413Y022852D02*
X024469Y022909D01*
X024583Y022909D01*
X024640Y022852D01*
X024640Y022796D01*
X024413Y022569D01*
X024640Y022569D01*
X024781Y022569D02*
X025008Y022796D01*
X025008Y022852D01*
X024951Y022909D01*
X024838Y022909D01*
X024781Y022852D01*
X024781Y022569D02*
X025008Y022569D01*
X025149Y022626D02*
X025376Y022852D01*
X025376Y022626D01*
X025319Y022569D01*
X025206Y022569D01*
X025149Y022626D01*
X025149Y022852D01*
X025206Y022909D01*
X025319Y022909D01*
X025376Y022852D01*
X032183Y032189D02*
X032185Y032252D01*
X032191Y032314D01*
X032201Y032376D01*
X032214Y032438D01*
X032232Y032498D01*
X032253Y032557D01*
X032278Y032615D01*
X032307Y032671D01*
X032339Y032725D01*
X032374Y032777D01*
X032412Y032826D01*
X032454Y032874D01*
X032498Y032918D01*
X032546Y032960D01*
X032595Y032998D01*
X032647Y033033D01*
X032701Y033065D01*
X032757Y033094D01*
X032815Y033119D01*
X032874Y033140D01*
X032934Y033158D01*
X032996Y033171D01*
X033058Y033181D01*
X033120Y033187D01*
X033183Y033189D01*
X033246Y033187D01*
X033308Y033181D01*
X033370Y033171D01*
X033432Y033158D01*
X033492Y033140D01*
X033551Y033119D01*
X033609Y033094D01*
X033665Y033065D01*
X033719Y033033D01*
X033771Y032998D01*
X033820Y032960D01*
X033868Y032918D01*
X033912Y032874D01*
X033954Y032826D01*
X033992Y032777D01*
X034027Y032725D01*
X034059Y032671D01*
X034088Y032615D01*
X034113Y032557D01*
X034134Y032498D01*
X034152Y032438D01*
X034165Y032376D01*
X034175Y032314D01*
X034181Y032252D01*
X034183Y032189D01*
X034181Y032126D01*
X034175Y032064D01*
X034165Y032002D01*
X034152Y031940D01*
X034134Y031880D01*
X034113Y031821D01*
X034088Y031763D01*
X034059Y031707D01*
X034027Y031653D01*
X033992Y031601D01*
X033954Y031552D01*
X033912Y031504D01*
X033868Y031460D01*
X033820Y031418D01*
X033771Y031380D01*
X033719Y031345D01*
X033665Y031313D01*
X033609Y031284D01*
X033551Y031259D01*
X033492Y031238D01*
X033432Y031220D01*
X033370Y031207D01*
X033308Y031197D01*
X033246Y031191D01*
X033183Y031189D01*
X033120Y031191D01*
X033058Y031197D01*
X032996Y031207D01*
X032934Y031220D01*
X032874Y031238D01*
X032815Y031259D01*
X032757Y031284D01*
X032701Y031313D01*
X032647Y031345D01*
X032595Y031380D01*
X032546Y031418D01*
X032498Y031460D01*
X032454Y031504D01*
X032412Y031552D01*
X032374Y031601D01*
X032339Y031653D01*
X032307Y031707D01*
X032278Y031763D01*
X032253Y031821D01*
X032232Y031880D01*
X032214Y031940D01*
X032201Y032002D01*
X032191Y032064D01*
X032185Y032126D01*
X032183Y032189D01*
X028876Y032626D02*
X028819Y032569D01*
X028706Y032569D01*
X028649Y032626D01*
X028876Y032852D01*
X028876Y032626D01*
X028876Y032852D02*
X028819Y032909D01*
X028706Y032909D01*
X028649Y032852D01*
X028649Y032626D01*
X028508Y032569D02*
X028281Y032569D01*
X028508Y032796D01*
X028508Y032852D01*
X028451Y032909D01*
X028338Y032909D01*
X028281Y032852D01*
X028140Y032852D02*
X028083Y032909D01*
X027969Y032909D01*
X027913Y032852D01*
X028140Y032852D02*
X028140Y032796D01*
X027913Y032569D01*
X028140Y032569D01*
X012792Y033887D02*
X012826Y033952D01*
X012857Y034018D01*
X012885Y034086D01*
X012909Y034155D01*
X012930Y034225D01*
X012947Y034296D01*
X012960Y034368D01*
X012969Y034441D01*
X012974Y034514D01*
X012976Y034587D01*
X012974Y034660D01*
X012968Y034733D01*
X012958Y034805D01*
X012945Y034877D01*
X012927Y034948D01*
X012906Y035018D01*
X012882Y035087D01*
X012854Y035155D01*
X012822Y035221D01*
X012787Y035285D01*
X012749Y035347D01*
X012707Y035407D01*
X012662Y035465D01*
X012615Y035521D01*
X012564Y035574D01*
X012511Y035624D01*
X012455Y035671D01*
X012397Y035716D01*
X012337Y035757D01*
X012275Y035795D01*
X012210Y035830D01*
X012144Y035861D01*
X012077Y035889D01*
X012008Y035914D01*
X011938Y035934D01*
X011866Y035952D01*
X011795Y035965D01*
X011722Y035974D01*
X011649Y035980D01*
X011576Y035982D01*
X011576Y035983D02*
X011502Y035981D01*
X011428Y035975D01*
X011355Y035965D01*
X011283Y035952D01*
X011211Y035935D01*
X011140Y035913D01*
X011070Y035889D01*
X011002Y035860D01*
X010936Y035828D01*
X010871Y035792D01*
X010808Y035754D01*
X010747Y035711D01*
X010689Y035666D01*
X010633Y035618D01*
X010580Y035567D01*
X010529Y035513D01*
X010482Y035456D01*
X010437Y035397D01*
X010396Y035336D01*
X010358Y035273D01*
X010323Y035208D01*
X010292Y035141D01*
X010264Y035072D01*
X010240Y035002D01*
X010220Y034931D01*
X010203Y034859D01*
X010191Y034786D01*
X010182Y034713D01*
X010177Y034639D01*
X010176Y034565D01*
X010179Y034492D01*
X010186Y034418D01*
X010196Y034345D01*
X010211Y034272D01*
X010229Y034201D01*
X010251Y034130D01*
X010277Y034061D01*
X010306Y033993D01*
X010339Y033927D01*
X010375Y033863D01*
X011576Y033183D02*
X011645Y033185D01*
X011713Y033190D01*
X011782Y033198D01*
X011849Y033210D01*
X011916Y033225D01*
X011983Y033243D01*
X012048Y033265D01*
X012112Y033290D01*
X012175Y033318D01*
X012236Y033349D01*
X012296Y033383D01*
X011576Y033183D02*
X011506Y033185D01*
X011437Y033190D01*
X011367Y033199D01*
X011299Y033211D01*
X011231Y033226D01*
X011163Y033245D01*
X011097Y033267D01*
X011032Y033293D01*
X010969Y033322D01*
X010906Y033353D01*
X010846Y033388D01*
X005640Y031539D02*
X005213Y031539D01*
X005426Y031753D02*
X005426Y031326D01*
X005532Y027001D02*
X005532Y026574D01*
X027913Y009352D02*
X027969Y009409D01*
X028083Y009409D01*
X028140Y009352D01*
X028140Y009296D01*
X027913Y009069D01*
X028140Y009069D01*
X028281Y009069D02*
X028508Y009296D01*
X028508Y009352D01*
X028451Y009409D01*
X028338Y009409D01*
X028281Y009352D01*
X028281Y009069D02*
X028508Y009069D01*
X028649Y009126D02*
X028876Y009352D01*
X028876Y009126D01*
X028819Y009069D01*
X028706Y009069D01*
X028649Y009126D01*
X028649Y009352D01*
X028706Y009409D01*
X028819Y009409D01*
X028876Y009352D01*
X032183Y008689D02*
X032185Y008752D01*
X032191Y008814D01*
X032201Y008876D01*
X032214Y008938D01*
X032232Y008998D01*
X032253Y009057D01*
X032278Y009115D01*
X032307Y009171D01*
X032339Y009225D01*
X032374Y009277D01*
X032412Y009326D01*
X032454Y009374D01*
X032498Y009418D01*
X032546Y009460D01*
X032595Y009498D01*
X032647Y009533D01*
X032701Y009565D01*
X032757Y009594D01*
X032815Y009619D01*
X032874Y009640D01*
X032934Y009658D01*
X032996Y009671D01*
X033058Y009681D01*
X033120Y009687D01*
X033183Y009689D01*
X033246Y009687D01*
X033308Y009681D01*
X033370Y009671D01*
X033432Y009658D01*
X033492Y009640D01*
X033551Y009619D01*
X033609Y009594D01*
X033665Y009565D01*
X033719Y009533D01*
X033771Y009498D01*
X033820Y009460D01*
X033868Y009418D01*
X033912Y009374D01*
X033954Y009326D01*
X033992Y009277D01*
X034027Y009225D01*
X034059Y009171D01*
X034088Y009115D01*
X034113Y009057D01*
X034134Y008998D01*
X034152Y008938D01*
X034165Y008876D01*
X034175Y008814D01*
X034181Y008752D01*
X034183Y008689D01*
X034181Y008626D01*
X034175Y008564D01*
X034165Y008502D01*
X034152Y008440D01*
X034134Y008380D01*
X034113Y008321D01*
X034088Y008263D01*
X034059Y008207D01*
X034027Y008153D01*
X033992Y008101D01*
X033954Y008052D01*
X033912Y008004D01*
X033868Y007960D01*
X033820Y007918D01*
X033771Y007880D01*
X033719Y007845D01*
X033665Y007813D01*
X033609Y007784D01*
X033551Y007759D01*
X033492Y007738D01*
X033432Y007720D01*
X033370Y007707D01*
X033308Y007697D01*
X033246Y007691D01*
X033183Y007689D01*
X033120Y007691D01*
X033058Y007697D01*
X032996Y007707D01*
X032934Y007720D01*
X032874Y007738D01*
X032815Y007759D01*
X032757Y007784D01*
X032701Y007813D01*
X032647Y007845D01*
X032595Y007880D01*
X032546Y007918D01*
X032498Y007960D01*
X032454Y008004D01*
X032412Y008052D01*
X032374Y008101D01*
X032339Y008153D01*
X032307Y008207D01*
X032278Y008263D01*
X032253Y008321D01*
X032232Y008380D01*
X032214Y008440D01*
X032201Y008502D01*
X032191Y008564D01*
X032185Y008626D01*
X032183Y008689D01*
D11*
X035183Y002689D02*
X004183Y002689D01*
X004183Y037689D01*
X035183Y037689D01*
X035183Y002689D01*
D12*
X029813Y009704D02*
X029566Y009704D01*
X029813Y009951D01*
X029813Y010012D01*
X029751Y010074D01*
X029628Y010074D01*
X029566Y010012D01*
X029445Y010012D02*
X029445Y009889D01*
X029383Y009827D01*
X029198Y009827D01*
X029321Y009827D02*
X029445Y009704D01*
X029198Y009704D02*
X029198Y010074D01*
X029383Y010074D01*
X029445Y010012D01*
X024813Y023204D02*
X024566Y023204D01*
X024445Y023204D02*
X024321Y023327D01*
X024383Y023327D02*
X024198Y023327D01*
X024198Y023204D02*
X024198Y023574D01*
X024383Y023574D01*
X024445Y023512D01*
X024445Y023389D01*
X024383Y023327D01*
X024566Y023451D02*
X024689Y023574D01*
X024689Y023204D01*
X029198Y033204D02*
X029198Y033574D01*
X029383Y033574D01*
X029445Y033512D01*
X029445Y033389D01*
X029383Y033327D01*
X029198Y033327D01*
X029321Y033327D02*
X029445Y033204D01*
X029566Y033266D02*
X029628Y033204D01*
X029751Y033204D01*
X029813Y033266D01*
X029813Y033327D01*
X029751Y033389D01*
X029689Y033389D01*
X029751Y033389D02*
X029813Y033451D01*
X029813Y033512D01*
X029751Y033574D01*
X029628Y033574D01*
X029566Y033512D01*
X008417Y029190D02*
X008417Y028943D01*
X008355Y028822D02*
X008232Y028698D01*
X008232Y028760D02*
X008232Y028575D01*
X008355Y028575D02*
X007985Y028575D01*
X007985Y028760D01*
X008046Y028822D01*
X008170Y028822D01*
X008232Y028760D01*
X008293Y028453D02*
X008046Y028453D01*
X007985Y028392D01*
X007985Y028207D01*
X008355Y028207D01*
X008355Y028392D01*
X008293Y028453D01*
X008355Y028085D02*
X008232Y027962D01*
X008232Y028023D02*
X008232Y027838D01*
X008355Y027838D02*
X007985Y027838D01*
X007985Y028023D01*
X008046Y028085D01*
X008170Y028085D01*
X008232Y028023D01*
X008232Y029311D02*
X008232Y029497D01*
X008170Y029558D01*
X008046Y029558D01*
X007985Y029497D01*
X007985Y029311D01*
X008355Y029311D01*
X008355Y029680D02*
X008232Y029803D01*
X008355Y029927D01*
X007985Y029927D01*
X007985Y030048D02*
X007985Y030233D01*
X008046Y030295D01*
X008170Y030295D01*
X008232Y030233D01*
X008232Y030048D01*
X008355Y030048D02*
X007985Y030048D01*
X008232Y030171D02*
X008355Y030295D01*
X008355Y029680D02*
X007985Y029680D01*
X008108Y025295D02*
X008355Y025295D01*
X008170Y025295D02*
X008170Y025048D01*
X008108Y025048D02*
X007985Y025171D01*
X008108Y025295D01*
X008108Y025048D02*
X008355Y025048D01*
X008355Y024803D02*
X007985Y024803D01*
X007985Y024680D02*
X007985Y024927D01*
X008108Y024558D02*
X008355Y024558D01*
X008170Y024558D02*
X008170Y024311D01*
X008108Y024311D02*
X007985Y024435D01*
X008108Y024558D01*
X008108Y024311D02*
X008355Y024311D01*
X008293Y024190D02*
X008046Y024190D01*
X007985Y024128D01*
X007985Y023943D01*
X008355Y023943D01*
X008355Y024128D01*
X008293Y024190D01*
X008417Y023822D02*
X008417Y023575D01*
X008355Y023453D02*
X008232Y023330D01*
X008232Y023392D02*
X008232Y023207D01*
X008355Y023207D02*
X007985Y023207D01*
X007985Y023392D01*
X008046Y023453D01*
X008170Y023453D01*
X008232Y023392D01*
X008293Y023085D02*
X008046Y023085D01*
X007985Y023023D01*
X007985Y022838D01*
X008355Y022838D01*
X008355Y023023D01*
X008293Y023085D01*
X008355Y022717D02*
X008232Y022593D01*
X008232Y022655D02*
X008232Y022470D01*
X008355Y022470D02*
X007985Y022470D01*
X007985Y022655D01*
X008046Y022717D01*
X008170Y022717D01*
X008232Y022655D01*
X008046Y008401D02*
X007985Y008401D01*
X008046Y008401D02*
X008170Y008278D01*
X008355Y008278D01*
X008170Y008278D02*
X008046Y008154D01*
X007985Y008154D01*
X008108Y008033D02*
X008355Y008033D01*
X008170Y008033D02*
X008170Y007786D01*
X008108Y007786D02*
X007985Y007910D01*
X008108Y008033D01*
X008108Y007786D02*
X008355Y007786D01*
X008355Y007665D02*
X008355Y007418D01*
X007985Y007418D01*
X007985Y007296D02*
X007985Y007049D01*
X008355Y007049D01*
X008355Y007296D01*
X008170Y007173D02*
X008170Y007049D01*
X008170Y006928D02*
X008232Y006866D01*
X008232Y006681D01*
X008355Y006681D02*
X007985Y006681D01*
X007985Y006866D01*
X008046Y006928D01*
X008170Y006928D01*
X008232Y006805D02*
X008355Y006928D01*
X010759Y004574D02*
X010883Y004574D01*
X010945Y004512D01*
X010945Y004451D01*
X010883Y004389D01*
X010945Y004327D01*
X010945Y004266D01*
X010883Y004204D01*
X010759Y004204D01*
X010698Y004266D01*
X010821Y004389D02*
X010883Y004389D01*
X011066Y004451D02*
X011128Y004389D01*
X011313Y004389D01*
X011313Y004266D02*
X011313Y004512D01*
X011251Y004574D01*
X011128Y004574D01*
X011066Y004512D01*
X011066Y004451D01*
X011066Y004266D02*
X011128Y004204D01*
X011251Y004204D01*
X011313Y004266D01*
X011434Y004266D02*
X011496Y004204D01*
X011619Y004204D01*
X011681Y004266D01*
X011681Y004512D01*
X011619Y004574D01*
X011496Y004574D01*
X011434Y004512D01*
X011434Y004451D01*
X011496Y004389D01*
X011681Y004389D01*
X011803Y004451D02*
X011926Y004574D01*
X011926Y004204D01*
X011803Y004204D02*
X012049Y004204D01*
X012171Y004266D02*
X012233Y004204D01*
X012356Y004204D01*
X012418Y004266D01*
X012418Y004512D01*
X012356Y004574D01*
X012233Y004574D01*
X012171Y004512D01*
X012171Y004451D01*
X012233Y004389D01*
X012418Y004389D01*
X010759Y004574D02*
X010698Y004512D01*
D13*
X007521Y006622D02*
X005080Y006622D01*
X005080Y009378D01*
X007521Y009378D01*
X007521Y006622D01*
X005080Y006622D02*
X004765Y006622D01*
X004765Y009378D01*
X005080Y009378D01*
X005080Y022622D02*
X004765Y022622D01*
X004765Y025378D01*
X005080Y025378D01*
X005080Y022622D01*
X007521Y022622D01*
X007521Y025378D01*
X005080Y025378D01*
X005080Y027622D02*
X004765Y027622D01*
X004765Y030378D01*
X005080Y030378D01*
X005080Y027622D01*
X007521Y027622D01*
X007521Y030378D01*
X005080Y030378D01*
X024183Y022989D02*
X024183Y022689D01*
X024083Y022689D01*
X024183Y022689D02*
X024183Y022389D01*
X026183Y022389D01*
X026183Y022689D01*
X026283Y022689D01*
X026183Y022689D02*
X026183Y022989D01*
X024183Y022989D01*
X031983Y027339D02*
X031983Y029039D01*
X032783Y029389D02*
X033587Y029389D01*
X034383Y029039D02*
X034383Y027339D01*
X033576Y026989D02*
X032783Y026989D01*
X032483Y028189D02*
X032485Y028241D01*
X032491Y028293D01*
X032501Y028345D01*
X032514Y028395D01*
X032531Y028445D01*
X032552Y028493D01*
X032577Y028539D01*
X032605Y028583D01*
X032636Y028625D01*
X032670Y028665D01*
X032707Y028702D01*
X032747Y028736D01*
X032789Y028767D01*
X032833Y028795D01*
X032879Y028820D01*
X032927Y028841D01*
X032977Y028858D01*
X033027Y028871D01*
X033079Y028881D01*
X033131Y028887D01*
X033183Y028889D01*
X033235Y028887D01*
X033287Y028881D01*
X033339Y028871D01*
X033389Y028858D01*
X033439Y028841D01*
X033487Y028820D01*
X033533Y028795D01*
X033577Y028767D01*
X033619Y028736D01*
X033659Y028702D01*
X033696Y028665D01*
X033730Y028625D01*
X033761Y028583D01*
X033789Y028539D01*
X033814Y028493D01*
X033835Y028445D01*
X033852Y028395D01*
X033865Y028345D01*
X033875Y028293D01*
X033881Y028241D01*
X033883Y028189D01*
X033881Y028137D01*
X033875Y028085D01*
X033865Y028033D01*
X033852Y027983D01*
X033835Y027933D01*
X033814Y027885D01*
X033789Y027839D01*
X033761Y027795D01*
X033730Y027753D01*
X033696Y027713D01*
X033659Y027676D01*
X033619Y027642D01*
X033577Y027611D01*
X033533Y027583D01*
X033487Y027558D01*
X033439Y027537D01*
X033389Y027520D01*
X033339Y027507D01*
X033287Y027497D01*
X033235Y027491D01*
X033183Y027489D01*
X033131Y027491D01*
X033079Y027497D01*
X033027Y027507D01*
X032977Y027520D01*
X032927Y027537D01*
X032879Y027558D01*
X032833Y027583D01*
X032789Y027611D01*
X032747Y027642D01*
X032707Y027676D01*
X032670Y027713D01*
X032636Y027753D01*
X032605Y027795D01*
X032577Y027839D01*
X032552Y027885D01*
X032531Y027933D01*
X032514Y027983D01*
X032501Y028033D01*
X032491Y028085D01*
X032485Y028137D01*
X032483Y028189D01*
X029683Y032389D02*
X027683Y032389D01*
X027683Y032689D01*
X027583Y032689D01*
X027683Y032689D02*
X027683Y032989D01*
X029683Y032989D01*
X029683Y032689D01*
X029783Y032689D01*
X029683Y032689D02*
X029683Y032389D01*
X032433Y033189D02*
X033933Y033189D01*
X033583Y013889D02*
X032790Y013889D01*
X031983Y013539D02*
X031983Y011839D01*
X032778Y011489D02*
X033583Y011489D01*
X034383Y011839D02*
X034383Y013539D01*
X032483Y012689D02*
X032485Y012741D01*
X032491Y012793D01*
X032501Y012845D01*
X032514Y012895D01*
X032531Y012945D01*
X032552Y012993D01*
X032577Y013039D01*
X032605Y013083D01*
X032636Y013125D01*
X032670Y013165D01*
X032707Y013202D01*
X032747Y013236D01*
X032789Y013267D01*
X032833Y013295D01*
X032879Y013320D01*
X032927Y013341D01*
X032977Y013358D01*
X033027Y013371D01*
X033079Y013381D01*
X033131Y013387D01*
X033183Y013389D01*
X033235Y013387D01*
X033287Y013381D01*
X033339Y013371D01*
X033389Y013358D01*
X033439Y013341D01*
X033487Y013320D01*
X033533Y013295D01*
X033577Y013267D01*
X033619Y013236D01*
X033659Y013202D01*
X033696Y013165D01*
X033730Y013125D01*
X033761Y013083D01*
X033789Y013039D01*
X033814Y012993D01*
X033835Y012945D01*
X033852Y012895D01*
X033865Y012845D01*
X033875Y012793D01*
X033881Y012741D01*
X033883Y012689D01*
X033881Y012637D01*
X033875Y012585D01*
X033865Y012533D01*
X033852Y012483D01*
X033835Y012433D01*
X033814Y012385D01*
X033789Y012339D01*
X033761Y012295D01*
X033730Y012253D01*
X033696Y012213D01*
X033659Y012176D01*
X033619Y012142D01*
X033577Y012111D01*
X033533Y012083D01*
X033487Y012058D01*
X033439Y012037D01*
X033389Y012020D01*
X033339Y012007D01*
X033287Y011997D01*
X033235Y011991D01*
X033183Y011989D01*
X033131Y011991D01*
X033079Y011997D01*
X033027Y012007D01*
X032977Y012020D01*
X032927Y012037D01*
X032879Y012058D01*
X032833Y012083D01*
X032789Y012111D01*
X032747Y012142D01*
X032707Y012176D01*
X032670Y012213D01*
X032636Y012253D01*
X032605Y012295D01*
X032577Y012339D01*
X032552Y012385D01*
X032531Y012433D01*
X032514Y012483D01*
X032501Y012533D01*
X032491Y012585D01*
X032485Y012637D01*
X032483Y012689D01*
X032433Y009689D02*
X033933Y009689D01*
X029783Y009189D02*
X029683Y009189D01*
X029683Y008889D01*
X027683Y008889D01*
X027683Y009189D01*
X027583Y009189D01*
X027683Y009189D02*
X027683Y009489D01*
X029683Y009489D01*
X029683Y009189D01*
D14*
X032433Y009689D02*
X032379Y009646D01*
X032327Y009600D01*
X032278Y009551D01*
X032231Y009499D01*
X032188Y009445D01*
X032147Y009389D01*
X032110Y009330D01*
X032076Y009270D01*
X032046Y009207D01*
X032019Y009144D01*
X031995Y009078D01*
X031975Y009012D01*
X031959Y008944D01*
X031947Y008876D01*
X031939Y008807D01*
X031934Y008738D01*
X031933Y008668D01*
X031936Y008599D01*
X031943Y008530D01*
X031954Y008462D01*
X031968Y008394D01*
X031987Y008327D01*
X032009Y008261D01*
X032034Y008196D01*
X032063Y008133D01*
X032096Y008072D01*
X032132Y008013D01*
X032171Y007956D01*
X032213Y007900D01*
X032258Y007848D01*
X032306Y007798D01*
X032357Y007751D01*
X032411Y007706D01*
X032466Y007665D01*
X032524Y007627D01*
X032584Y007592D01*
X032646Y007560D01*
X032709Y007532D01*
X032774Y007508D01*
X032840Y007487D01*
X032908Y007470D01*
X032976Y007456D01*
X033045Y007447D01*
X033114Y007441D01*
X033183Y007439D01*
X033252Y007441D01*
X033321Y007447D01*
X033390Y007456D01*
X033458Y007470D01*
X033526Y007487D01*
X033592Y007508D01*
X033657Y007532D01*
X033720Y007560D01*
X033782Y007592D01*
X033842Y007627D01*
X033900Y007665D01*
X033955Y007706D01*
X034009Y007751D01*
X034060Y007798D01*
X034108Y007848D01*
X034153Y007900D01*
X034195Y007956D01*
X034234Y008013D01*
X034270Y008072D01*
X034303Y008133D01*
X034332Y008196D01*
X034357Y008261D01*
X034379Y008327D01*
X034398Y008394D01*
X034412Y008462D01*
X034423Y008530D01*
X034430Y008599D01*
X034433Y008668D01*
X034432Y008738D01*
X034427Y008807D01*
X034419Y008876D01*
X034407Y008944D01*
X034391Y009012D01*
X034371Y009078D01*
X034347Y009144D01*
X034320Y009207D01*
X034290Y009270D01*
X034256Y009330D01*
X034219Y009389D01*
X034178Y009445D01*
X034135Y009499D01*
X034088Y009551D01*
X034039Y009600D01*
X033987Y009646D01*
X033933Y009689D01*
X033933Y033189D02*
X033987Y033146D01*
X034039Y033100D01*
X034088Y033051D01*
X034135Y032999D01*
X034178Y032945D01*
X034219Y032889D01*
X034256Y032830D01*
X034290Y032770D01*
X034320Y032707D01*
X034347Y032644D01*
X034371Y032578D01*
X034391Y032512D01*
X034407Y032444D01*
X034419Y032376D01*
X034427Y032307D01*
X034432Y032238D01*
X034433Y032168D01*
X034430Y032099D01*
X034423Y032030D01*
X034412Y031962D01*
X034398Y031894D01*
X034379Y031827D01*
X034357Y031761D01*
X034332Y031696D01*
X034303Y031633D01*
X034270Y031572D01*
X034234Y031513D01*
X034195Y031456D01*
X034153Y031400D01*
X034108Y031348D01*
X034060Y031298D01*
X034009Y031251D01*
X033955Y031206D01*
X033900Y031165D01*
X033842Y031127D01*
X033782Y031092D01*
X033720Y031060D01*
X033657Y031032D01*
X033592Y031008D01*
X033526Y030987D01*
X033458Y030970D01*
X033390Y030956D01*
X033321Y030947D01*
X033252Y030941D01*
X033183Y030939D01*
X033114Y030941D01*
X033045Y030947D01*
X032976Y030956D01*
X032908Y030970D01*
X032840Y030987D01*
X032774Y031008D01*
X032709Y031032D01*
X032646Y031060D01*
X032584Y031092D01*
X032524Y031127D01*
X032466Y031165D01*
X032411Y031206D01*
X032357Y031251D01*
X032306Y031298D01*
X032258Y031348D01*
X032213Y031400D01*
X032171Y031456D01*
X032132Y031513D01*
X032096Y031572D01*
X032063Y031633D01*
X032034Y031696D01*
X032009Y031761D01*
X031987Y031827D01*
X031968Y031894D01*
X031954Y031962D01*
X031943Y032030D01*
X031936Y032099D01*
X031933Y032168D01*
X031934Y032238D01*
X031939Y032307D01*
X031947Y032376D01*
X031959Y032444D01*
X031975Y032512D01*
X031995Y032578D01*
X032019Y032644D01*
X032046Y032707D01*
X032076Y032770D01*
X032110Y032830D01*
X032147Y032889D01*
X032188Y032945D01*
X032231Y032999D01*
X032278Y033051D01*
X032327Y033100D01*
X032379Y033146D01*
X032433Y033189D01*
X011826Y034333D02*
X011576Y033833D01*
X011326Y034333D01*
X011426Y034333D01*
X011426Y034183D01*
X011426Y034333D02*
X011456Y034333D01*
X011476Y034333D01*
X011456Y034333D02*
X011456Y035203D01*
X011706Y035203D01*
X011706Y034333D01*
X011726Y034333D01*
X011726Y034183D01*
X011726Y034333D02*
X011826Y034333D01*
X011706Y034333D02*
X011676Y034333D01*
X011576Y033733D02*
X011518Y033735D01*
X011461Y033741D01*
X011404Y033751D01*
X011348Y033764D01*
X011293Y033781D01*
X011239Y033803D01*
X011187Y033827D01*
X011137Y033855D01*
X011088Y033887D01*
X011042Y033921D01*
X010999Y033959D01*
X010958Y034000D01*
X010920Y034043D01*
X010884Y034089D01*
X010853Y034137D01*
X010824Y034187D01*
X010799Y034239D01*
X010777Y034292D01*
X010759Y034347D01*
X010745Y034403D01*
X010735Y034460D01*
X010729Y034517D01*
X010726Y034575D01*
X010727Y034632D01*
X010733Y034690D01*
X010742Y034747D01*
X010755Y034803D01*
X010772Y034858D01*
X010792Y034912D01*
X010816Y034964D01*
X010844Y035015D01*
X010875Y035064D01*
X010909Y035110D01*
X010947Y035154D01*
X010987Y035196D01*
X011030Y035234D01*
X011075Y035270D01*
X011123Y035302D01*
X011173Y035331D01*
X011224Y035357D01*
X011278Y035379D01*
X011526Y035183D02*
X011526Y033983D01*
X011626Y033983D01*
X011626Y035183D01*
X011576Y035183D01*
X011874Y035379D02*
X011928Y035357D01*
X011979Y035331D01*
X012029Y035302D01*
X012077Y035270D01*
X012122Y035234D01*
X012165Y035196D01*
X012205Y035154D01*
X012243Y035110D01*
X012277Y035064D01*
X012308Y035015D01*
X012336Y034964D01*
X012360Y034912D01*
X012380Y034858D01*
X012397Y034803D01*
X012410Y034747D01*
X012419Y034690D01*
X012425Y034632D01*
X012426Y034575D01*
X012423Y034517D01*
X012417Y034460D01*
X012407Y034403D01*
X012393Y034347D01*
X012375Y034292D01*
X012353Y034239D01*
X012328Y034187D01*
X012299Y034137D01*
X012268Y034089D01*
X012232Y034043D01*
X012194Y034000D01*
X012153Y033959D01*
X012110Y033921D01*
X012064Y033887D01*
X012015Y033855D01*
X011965Y033827D01*
X011913Y033803D01*
X011859Y033781D01*
X011804Y033764D01*
X011748Y033751D01*
X011691Y033741D01*
X011634Y033735D01*
X011576Y033733D01*
D15*
X011605Y032452D02*
X011305Y032452D01*
X011455Y032452D02*
X011455Y032001D01*
X011145Y032001D02*
X011145Y032452D01*
X010845Y032452D02*
X011145Y032001D01*
X010845Y032001D02*
X010845Y032452D01*
X010685Y032377D02*
X010685Y032076D01*
X010610Y032001D01*
X010460Y032001D01*
X010385Y032076D01*
X010385Y032377D01*
X010460Y032452D01*
X010610Y032452D01*
X010685Y032377D01*
X010224Y032377D02*
X010149Y032452D01*
X009999Y032452D01*
X009924Y032377D01*
X009924Y032076D01*
X009999Y032001D01*
X010149Y032001D01*
X010224Y032076D01*
X011766Y032151D02*
X011991Y032151D01*
X012066Y032226D01*
X012066Y032377D01*
X011991Y032452D01*
X011766Y032452D01*
X011766Y032001D01*
X011916Y032151D02*
X012066Y032001D01*
X012226Y032001D02*
X012226Y032301D01*
X012376Y032452D01*
X012526Y032301D01*
X012526Y032001D01*
X012686Y032076D02*
X012761Y032001D01*
X012911Y032001D01*
X012987Y032076D01*
X012987Y032151D01*
X012911Y032226D01*
X012761Y032226D01*
X012686Y032301D01*
X012686Y032377D01*
X012761Y032452D01*
X012911Y032452D01*
X012987Y032377D01*
X013147Y032452D02*
X013447Y032452D01*
X013297Y032452D02*
X013297Y032001D01*
X012526Y032226D02*
X012226Y032226D01*
X012791Y035508D02*
X013091Y035508D01*
X012941Y035508D02*
X012941Y035958D01*
X012791Y035808D01*
X010141Y035808D02*
X010066Y035733D01*
X010141Y035658D01*
X010141Y035583D01*
X010066Y035508D01*
X009916Y035508D01*
X009841Y035583D01*
X009991Y035733D02*
X010066Y035733D01*
X010141Y035808D02*
X010141Y035883D01*
X010066Y035958D01*
X009916Y035958D01*
X009841Y035883D01*
X017009Y036185D02*
X017009Y004689D01*
X031183Y004689D01*
X031183Y036185D01*
X017009Y036185D01*
X019372Y034610D02*
X028820Y034610D01*
X028820Y006264D01*
X019372Y006264D01*
X019372Y034610D01*
X020159Y033823D02*
X020553Y033823D01*
X020553Y007051D01*
X020159Y007051D01*
X020159Y033823D01*
X021340Y031854D02*
X021340Y009020D01*
X021342Y008954D01*
X021347Y008888D01*
X021357Y008822D01*
X021370Y008757D01*
X021386Y008693D01*
X021406Y008630D01*
X021430Y008568D01*
X021457Y008508D01*
X021487Y008449D01*
X021521Y008392D01*
X021558Y008337D01*
X021598Y008284D01*
X021640Y008233D01*
X021686Y008185D01*
X021734Y008139D01*
X021785Y008097D01*
X021838Y008057D01*
X021893Y008020D01*
X021950Y007986D01*
X022009Y007956D01*
X022069Y007929D01*
X022131Y007905D01*
X022194Y007885D01*
X022258Y007869D01*
X022323Y007856D01*
X022389Y007846D01*
X022455Y007841D01*
X022521Y007839D01*
X022521Y007838D02*
X025671Y007838D01*
X025671Y007839D02*
X025737Y007841D01*
X025803Y007846D01*
X025869Y007856D01*
X025934Y007869D01*
X025998Y007885D01*
X026061Y007905D01*
X026123Y007929D01*
X026183Y007956D01*
X026242Y007986D01*
X026299Y008020D01*
X026354Y008057D01*
X026407Y008097D01*
X026458Y008139D01*
X026506Y008185D01*
X026552Y008233D01*
X026594Y008284D01*
X026634Y008337D01*
X026671Y008392D01*
X026705Y008449D01*
X026735Y008508D01*
X026762Y008568D01*
X026786Y008630D01*
X026806Y008693D01*
X026822Y008757D01*
X026835Y008822D01*
X026845Y008888D01*
X026850Y008954D01*
X026852Y009020D01*
X026852Y031854D01*
X026850Y031920D01*
X026845Y031986D01*
X026835Y032052D01*
X026822Y032117D01*
X026806Y032181D01*
X026786Y032244D01*
X026762Y032306D01*
X026735Y032366D01*
X026705Y032425D01*
X026671Y032482D01*
X026634Y032537D01*
X026594Y032590D01*
X026552Y032641D01*
X026506Y032689D01*
X026458Y032735D01*
X026407Y032777D01*
X026354Y032817D01*
X026299Y032854D01*
X026242Y032888D01*
X026183Y032918D01*
X026123Y032945D01*
X026061Y032969D01*
X025998Y032989D01*
X025934Y033005D01*
X025869Y033018D01*
X025803Y033028D01*
X025737Y033033D01*
X025671Y033035D01*
X022521Y033035D01*
X022455Y033033D01*
X022389Y033028D01*
X022323Y033018D01*
X022258Y033005D01*
X022194Y032989D01*
X022131Y032969D01*
X022069Y032945D01*
X022009Y032918D01*
X021950Y032888D01*
X021893Y032854D01*
X021838Y032817D01*
X021785Y032777D01*
X021734Y032735D01*
X021686Y032689D01*
X021640Y032641D01*
X021598Y032590D01*
X021558Y032537D01*
X021521Y032482D01*
X021487Y032425D01*
X021457Y032366D01*
X021430Y032306D01*
X021406Y032244D01*
X021386Y032181D01*
X021370Y032117D01*
X021357Y032052D01*
X021347Y031986D01*
X021342Y031920D01*
X021340Y031854D01*
X027639Y033823D02*
X027639Y007051D01*
X028033Y007051D01*
X028033Y033823D01*
X027639Y033823D01*
X031997Y033764D02*
X032448Y033764D01*
X032298Y033614D01*
X032448Y033464D01*
X031997Y033464D01*
X032147Y033924D02*
X031997Y034074D01*
X032147Y034224D01*
X032448Y034224D01*
X032448Y034385D02*
X031997Y034385D01*
X031997Y034610D01*
X032072Y034685D01*
X032223Y034685D01*
X032298Y034610D01*
X032298Y034385D01*
X032298Y034535D02*
X032448Y034685D01*
X032448Y034845D02*
X031997Y034845D01*
X032448Y035145D01*
X031997Y035145D01*
X032523Y035305D02*
X032523Y035605D01*
X032448Y035766D02*
X032448Y036066D01*
X032448Y036226D02*
X032448Y036526D01*
X032448Y036686D02*
X032448Y036911D01*
X032373Y036987D01*
X032072Y036987D01*
X031997Y036911D01*
X031997Y036686D01*
X032448Y036686D01*
X032223Y036376D02*
X032223Y036226D01*
X032448Y036226D02*
X031997Y036226D01*
X031997Y036526D01*
X031997Y035766D02*
X032448Y035766D01*
X032223Y034224D02*
X032223Y033924D01*
X032147Y033924D02*
X032448Y033924D01*
X033251Y026191D02*
X033176Y026116D01*
X033176Y025891D01*
X033626Y025891D01*
X033626Y026116D01*
X033551Y026191D01*
X033251Y026191D01*
X033176Y025731D02*
X033626Y025731D01*
X033176Y025431D01*
X033626Y025431D01*
X033626Y025271D02*
X033626Y024970D01*
X033176Y024970D01*
X033176Y025271D01*
X033401Y025120D02*
X033401Y024970D01*
X033176Y024810D02*
X033176Y024510D01*
X033176Y024660D02*
X033626Y024660D01*
X033626Y024350D02*
X033176Y024050D01*
X033176Y023890D02*
X033176Y023589D01*
X033626Y023589D01*
X033626Y023890D01*
X033626Y024050D02*
X033176Y024350D01*
X033401Y023739D02*
X033401Y023589D01*
X033207Y017316D02*
X033207Y017016D01*
X033207Y017166D02*
X033658Y017166D01*
X033583Y016855D02*
X033207Y016855D01*
X033207Y016555D02*
X033583Y016555D01*
X033658Y016630D01*
X033658Y016780D01*
X033583Y016855D01*
X033583Y016395D02*
X033282Y016395D01*
X033207Y016320D01*
X033207Y016170D01*
X033282Y016095D01*
X033583Y016095D01*
X033658Y016170D01*
X033658Y016320D01*
X033583Y016395D01*
X033583Y015935D02*
X033433Y015935D01*
X033433Y015785D01*
X033583Y015935D02*
X033658Y015860D01*
X033658Y015710D01*
X033583Y015635D01*
X033282Y015635D01*
X033207Y015710D01*
X033207Y015860D01*
X033282Y015935D01*
X033282Y015474D02*
X033207Y015399D01*
X033207Y015249D01*
X033282Y015174D01*
X033583Y015174D01*
X033658Y015249D01*
X033658Y015399D01*
X033583Y015474D01*
X033282Y015474D01*
X033658Y015014D02*
X033658Y014714D01*
X033207Y014714D01*
X032373Y007447D02*
X032072Y007447D01*
X031997Y007372D01*
X031997Y007147D01*
X032448Y007147D01*
X032448Y007372D01*
X032373Y007447D01*
X032448Y006987D02*
X032448Y006686D01*
X031997Y006686D01*
X031997Y006987D01*
X032223Y006836D02*
X032223Y006686D01*
X032448Y006526D02*
X032448Y006226D01*
X031997Y006226D01*
X032523Y006066D02*
X032523Y005766D01*
X032448Y005455D02*
X032223Y005455D01*
X032072Y005605D01*
X031997Y005605D01*
X032223Y005455D02*
X032072Y005305D01*
X031997Y005305D01*
X032147Y005145D02*
X032448Y005145D01*
X032223Y005145D02*
X032223Y004845D01*
X032147Y004845D02*
X031997Y004995D01*
X032147Y005145D01*
X032147Y004845D02*
X032448Y004845D01*
X032448Y004685D02*
X032448Y004385D01*
X031997Y004385D01*
X031997Y004224D02*
X031997Y003924D01*
X032448Y003924D01*
X032448Y004224D01*
X032223Y004074D02*
X032223Y003924D01*
X032223Y003764D02*
X032298Y003689D01*
X032298Y003464D01*
X032448Y003464D02*
X031997Y003464D01*
X031997Y003689D01*
X032072Y003764D01*
X032223Y003764D01*
X032298Y003614D02*
X032448Y003764D01*
X016658Y010447D02*
X016583Y010372D01*
X016658Y010447D02*
X016658Y010597D01*
X016583Y010673D01*
X016508Y010673D01*
X016433Y010597D01*
X016433Y010447D01*
X016357Y010372D01*
X016282Y010372D01*
X016207Y010447D01*
X016207Y010597D01*
X016282Y010673D01*
X016207Y010833D02*
X016207Y011058D01*
X016282Y011133D01*
X016433Y011133D01*
X016508Y011058D01*
X016508Y010833D01*
X016658Y010833D02*
X016207Y010833D01*
X016207Y011293D02*
X016658Y011293D01*
X016508Y011293D02*
X016207Y011593D01*
X016207Y011753D02*
X016207Y011979D01*
X016282Y012054D01*
X016433Y012054D01*
X016508Y011979D01*
X016508Y011753D01*
X016658Y011753D02*
X016207Y011753D01*
X016508Y011903D02*
X016658Y012054D01*
X016658Y011593D02*
X016433Y011368D01*
X022284Y024564D02*
X022209Y024639D01*
X022284Y024564D02*
X022434Y024564D01*
X022509Y024639D01*
X022509Y024714D01*
X022434Y024789D01*
X022284Y024789D01*
X022209Y024864D01*
X022209Y024939D01*
X022284Y025014D01*
X022434Y025014D01*
X022509Y024939D01*
X022670Y025014D02*
X022670Y024564D01*
X022670Y024789D02*
X022970Y024789D01*
X022970Y025014D02*
X022970Y024564D01*
X023130Y024564D02*
X023280Y024564D01*
X023205Y024564D02*
X023205Y025014D01*
X023130Y025014D02*
X023280Y025014D01*
X023437Y025014D02*
X023737Y025014D01*
X023897Y025014D02*
X024197Y025014D01*
X024047Y025014D02*
X024047Y024564D01*
X023587Y024789D02*
X023437Y024789D01*
X023437Y024564D02*
X023437Y025014D01*
D16*
X017458Y035185D02*
X017460Y035232D01*
X017466Y035278D01*
X017476Y035324D01*
X017489Y035369D01*
X017507Y035412D01*
X017528Y035454D01*
X017552Y035494D01*
X017580Y035531D01*
X017611Y035566D01*
X017645Y035599D01*
X017681Y035628D01*
X017720Y035654D01*
X017761Y035677D01*
X017804Y035696D01*
X017848Y035712D01*
X017893Y035724D01*
X017939Y035732D01*
X017986Y035736D01*
X018032Y035736D01*
X018079Y035732D01*
X018125Y035724D01*
X018170Y035712D01*
X018214Y035696D01*
X018257Y035677D01*
X018298Y035654D01*
X018337Y035628D01*
X018373Y035599D01*
X018407Y035566D01*
X018438Y035531D01*
X018466Y035494D01*
X018490Y035454D01*
X018511Y035412D01*
X018529Y035369D01*
X018542Y035324D01*
X018552Y035278D01*
X018558Y035232D01*
X018560Y035185D01*
X018558Y035138D01*
X018552Y035092D01*
X018542Y035046D01*
X018529Y035001D01*
X018511Y034958D01*
X018490Y034916D01*
X018466Y034876D01*
X018438Y034839D01*
X018407Y034804D01*
X018373Y034771D01*
X018337Y034742D01*
X018298Y034716D01*
X018257Y034693D01*
X018214Y034674D01*
X018170Y034658D01*
X018125Y034646D01*
X018079Y034638D01*
X018032Y034634D01*
X017986Y034634D01*
X017939Y034638D01*
X017893Y034646D01*
X017848Y034658D01*
X017804Y034674D01*
X017761Y034693D01*
X017720Y034716D01*
X017681Y034742D01*
X017645Y034771D01*
X017611Y034804D01*
X017580Y034839D01*
X017552Y034876D01*
X017528Y034916D01*
X017507Y034958D01*
X017489Y035001D01*
X017476Y035046D01*
X017466Y035092D01*
X017460Y035138D01*
X017458Y035185D01*
X004976Y036295D02*
X004978Y036344D01*
X004984Y036392D01*
X004994Y036440D01*
X005008Y036487D01*
X005025Y036533D01*
X005046Y036577D01*
X005071Y036619D01*
X005099Y036659D01*
X005131Y036697D01*
X005165Y036732D01*
X005202Y036764D01*
X005241Y036793D01*
X005283Y036819D01*
X005327Y036841D01*
X005372Y036859D01*
X005419Y036874D01*
X005466Y036885D01*
X005515Y036892D01*
X005564Y036895D01*
X005613Y036894D01*
X005661Y036889D01*
X005710Y036880D01*
X005757Y036867D01*
X005803Y036850D01*
X005847Y036830D01*
X005890Y036806D01*
X005931Y036779D01*
X005969Y036748D01*
X006005Y036715D01*
X006037Y036679D01*
X006067Y036640D01*
X006094Y036599D01*
X006117Y036555D01*
X006136Y036510D01*
X006152Y036464D01*
X006164Y036417D01*
X006172Y036368D01*
X006176Y036319D01*
X006176Y036271D01*
X006172Y036222D01*
X006164Y036173D01*
X006152Y036126D01*
X006136Y036080D01*
X006117Y036035D01*
X006094Y035991D01*
X006067Y035950D01*
X006037Y035911D01*
X006005Y035875D01*
X005969Y035842D01*
X005931Y035811D01*
X005890Y035784D01*
X005847Y035760D01*
X005803Y035740D01*
X005757Y035723D01*
X005710Y035710D01*
X005661Y035701D01*
X005613Y035696D01*
X005564Y035695D01*
X005515Y035698D01*
X005466Y035705D01*
X005419Y035716D01*
X005372Y035731D01*
X005327Y035749D01*
X005283Y035771D01*
X005241Y035797D01*
X005202Y035826D01*
X005165Y035858D01*
X005131Y035893D01*
X005099Y035931D01*
X005071Y035971D01*
X005046Y036013D01*
X005025Y036057D01*
X005008Y036103D01*
X004994Y036150D01*
X004984Y036198D01*
X004978Y036246D01*
X004976Y036295D01*
X029632Y035185D02*
X029634Y035232D01*
X029640Y035278D01*
X029650Y035324D01*
X029663Y035369D01*
X029681Y035412D01*
X029702Y035454D01*
X029726Y035494D01*
X029754Y035531D01*
X029785Y035566D01*
X029819Y035599D01*
X029855Y035628D01*
X029894Y035654D01*
X029935Y035677D01*
X029978Y035696D01*
X030022Y035712D01*
X030067Y035724D01*
X030113Y035732D01*
X030160Y035736D01*
X030206Y035736D01*
X030253Y035732D01*
X030299Y035724D01*
X030344Y035712D01*
X030388Y035696D01*
X030431Y035677D01*
X030472Y035654D01*
X030511Y035628D01*
X030547Y035599D01*
X030581Y035566D01*
X030612Y035531D01*
X030640Y035494D01*
X030664Y035454D01*
X030685Y035412D01*
X030703Y035369D01*
X030716Y035324D01*
X030726Y035278D01*
X030732Y035232D01*
X030734Y035185D01*
X030732Y035138D01*
X030726Y035092D01*
X030716Y035046D01*
X030703Y035001D01*
X030685Y034958D01*
X030664Y034916D01*
X030640Y034876D01*
X030612Y034839D01*
X030581Y034804D01*
X030547Y034771D01*
X030511Y034742D01*
X030472Y034716D01*
X030431Y034693D01*
X030388Y034674D01*
X030344Y034658D01*
X030299Y034646D01*
X030253Y034638D01*
X030206Y034634D01*
X030160Y034634D01*
X030113Y034638D01*
X030067Y034646D01*
X030022Y034658D01*
X029978Y034674D01*
X029935Y034693D01*
X029894Y034716D01*
X029855Y034742D01*
X029819Y034771D01*
X029785Y034804D01*
X029754Y034839D01*
X029726Y034876D01*
X029702Y034916D01*
X029681Y034958D01*
X029663Y035001D01*
X029650Y035046D01*
X029640Y035092D01*
X029634Y035138D01*
X029632Y035185D01*
X033189Y036295D02*
X033191Y036344D01*
X033197Y036392D01*
X033207Y036440D01*
X033221Y036487D01*
X033238Y036533D01*
X033259Y036577D01*
X033284Y036619D01*
X033312Y036659D01*
X033344Y036697D01*
X033378Y036732D01*
X033415Y036764D01*
X033454Y036793D01*
X033496Y036819D01*
X033540Y036841D01*
X033585Y036859D01*
X033632Y036874D01*
X033679Y036885D01*
X033728Y036892D01*
X033777Y036895D01*
X033826Y036894D01*
X033874Y036889D01*
X033923Y036880D01*
X033970Y036867D01*
X034016Y036850D01*
X034060Y036830D01*
X034103Y036806D01*
X034144Y036779D01*
X034182Y036748D01*
X034218Y036715D01*
X034250Y036679D01*
X034280Y036640D01*
X034307Y036599D01*
X034330Y036555D01*
X034349Y036510D01*
X034365Y036464D01*
X034377Y036417D01*
X034385Y036368D01*
X034389Y036319D01*
X034389Y036271D01*
X034385Y036222D01*
X034377Y036173D01*
X034365Y036126D01*
X034349Y036080D01*
X034330Y036035D01*
X034307Y035991D01*
X034280Y035950D01*
X034250Y035911D01*
X034218Y035875D01*
X034182Y035842D01*
X034144Y035811D01*
X034103Y035784D01*
X034060Y035760D01*
X034016Y035740D01*
X033970Y035723D01*
X033923Y035710D01*
X033874Y035701D01*
X033826Y035696D01*
X033777Y035695D01*
X033728Y035698D01*
X033679Y035705D01*
X033632Y035716D01*
X033585Y035731D01*
X033540Y035749D01*
X033496Y035771D01*
X033454Y035797D01*
X033415Y035826D01*
X033378Y035858D01*
X033344Y035893D01*
X033312Y035931D01*
X033284Y035971D01*
X033259Y036013D01*
X033238Y036057D01*
X033221Y036103D01*
X033207Y036150D01*
X033197Y036198D01*
X033191Y036246D01*
X033189Y036295D01*
X029632Y005689D02*
X029634Y005736D01*
X029640Y005782D01*
X029650Y005828D01*
X029663Y005873D01*
X029681Y005916D01*
X029702Y005958D01*
X029726Y005998D01*
X029754Y006035D01*
X029785Y006070D01*
X029819Y006103D01*
X029855Y006132D01*
X029894Y006158D01*
X029935Y006181D01*
X029978Y006200D01*
X030022Y006216D01*
X030067Y006228D01*
X030113Y006236D01*
X030160Y006240D01*
X030206Y006240D01*
X030253Y006236D01*
X030299Y006228D01*
X030344Y006216D01*
X030388Y006200D01*
X030431Y006181D01*
X030472Y006158D01*
X030511Y006132D01*
X030547Y006103D01*
X030581Y006070D01*
X030612Y006035D01*
X030640Y005998D01*
X030664Y005958D01*
X030685Y005916D01*
X030703Y005873D01*
X030716Y005828D01*
X030726Y005782D01*
X030732Y005736D01*
X030734Y005689D01*
X030732Y005642D01*
X030726Y005596D01*
X030716Y005550D01*
X030703Y005505D01*
X030685Y005462D01*
X030664Y005420D01*
X030640Y005380D01*
X030612Y005343D01*
X030581Y005308D01*
X030547Y005275D01*
X030511Y005246D01*
X030472Y005220D01*
X030431Y005197D01*
X030388Y005178D01*
X030344Y005162D01*
X030299Y005150D01*
X030253Y005142D01*
X030206Y005138D01*
X030160Y005138D01*
X030113Y005142D01*
X030067Y005150D01*
X030022Y005162D01*
X029978Y005178D01*
X029935Y005197D01*
X029894Y005220D01*
X029855Y005246D01*
X029819Y005275D01*
X029785Y005308D01*
X029754Y005343D01*
X029726Y005380D01*
X029702Y005420D01*
X029681Y005462D01*
X029663Y005505D01*
X029650Y005550D01*
X029640Y005596D01*
X029634Y005642D01*
X029632Y005689D01*
X033189Y004083D02*
X033191Y004132D01*
X033197Y004180D01*
X033207Y004228D01*
X033221Y004275D01*
X033238Y004321D01*
X033259Y004365D01*
X033284Y004407D01*
X033312Y004447D01*
X033344Y004485D01*
X033378Y004520D01*
X033415Y004552D01*
X033454Y004581D01*
X033496Y004607D01*
X033540Y004629D01*
X033585Y004647D01*
X033632Y004662D01*
X033679Y004673D01*
X033728Y004680D01*
X033777Y004683D01*
X033826Y004682D01*
X033874Y004677D01*
X033923Y004668D01*
X033970Y004655D01*
X034016Y004638D01*
X034060Y004618D01*
X034103Y004594D01*
X034144Y004567D01*
X034182Y004536D01*
X034218Y004503D01*
X034250Y004467D01*
X034280Y004428D01*
X034307Y004387D01*
X034330Y004343D01*
X034349Y004298D01*
X034365Y004252D01*
X034377Y004205D01*
X034385Y004156D01*
X034389Y004107D01*
X034389Y004059D01*
X034385Y004010D01*
X034377Y003961D01*
X034365Y003914D01*
X034349Y003868D01*
X034330Y003823D01*
X034307Y003779D01*
X034280Y003738D01*
X034250Y003699D01*
X034218Y003663D01*
X034182Y003630D01*
X034144Y003599D01*
X034103Y003572D01*
X034060Y003548D01*
X034016Y003528D01*
X033970Y003511D01*
X033923Y003498D01*
X033874Y003489D01*
X033826Y003484D01*
X033777Y003483D01*
X033728Y003486D01*
X033679Y003493D01*
X033632Y003504D01*
X033585Y003519D01*
X033540Y003537D01*
X033496Y003559D01*
X033454Y003585D01*
X033415Y003614D01*
X033378Y003646D01*
X033344Y003681D01*
X033312Y003719D01*
X033284Y003759D01*
X033259Y003801D01*
X033238Y003845D01*
X033221Y003891D01*
X033207Y003938D01*
X033197Y003986D01*
X033191Y004034D01*
X033189Y004083D01*
X017458Y005689D02*
X017460Y005736D01*
X017466Y005782D01*
X017476Y005828D01*
X017489Y005873D01*
X017507Y005916D01*
X017528Y005958D01*
X017552Y005998D01*
X017580Y006035D01*
X017611Y006070D01*
X017645Y006103D01*
X017681Y006132D01*
X017720Y006158D01*
X017761Y006181D01*
X017804Y006200D01*
X017848Y006216D01*
X017893Y006228D01*
X017939Y006236D01*
X017986Y006240D01*
X018032Y006240D01*
X018079Y006236D01*
X018125Y006228D01*
X018170Y006216D01*
X018214Y006200D01*
X018257Y006181D01*
X018298Y006158D01*
X018337Y006132D01*
X018373Y006103D01*
X018407Y006070D01*
X018438Y006035D01*
X018466Y005998D01*
X018490Y005958D01*
X018511Y005916D01*
X018529Y005873D01*
X018542Y005828D01*
X018552Y005782D01*
X018558Y005736D01*
X018560Y005689D01*
X018558Y005642D01*
X018552Y005596D01*
X018542Y005550D01*
X018529Y005505D01*
X018511Y005462D01*
X018490Y005420D01*
X018466Y005380D01*
X018438Y005343D01*
X018407Y005308D01*
X018373Y005275D01*
X018337Y005246D01*
X018298Y005220D01*
X018257Y005197D01*
X018214Y005178D01*
X018170Y005162D01*
X018125Y005150D01*
X018079Y005142D01*
X018032Y005138D01*
X017986Y005138D01*
X017939Y005142D01*
X017893Y005150D01*
X017848Y005162D01*
X017804Y005178D01*
X017761Y005197D01*
X017720Y005220D01*
X017681Y005246D01*
X017645Y005275D01*
X017611Y005308D01*
X017580Y005343D01*
X017552Y005380D01*
X017528Y005420D01*
X017507Y005462D01*
X017489Y005505D01*
X017476Y005550D01*
X017466Y005596D01*
X017460Y005642D01*
X017458Y005689D01*
X004976Y004083D02*
X004978Y004132D01*
X004984Y004180D01*
X004994Y004228D01*
X005008Y004275D01*
X005025Y004321D01*
X005046Y004365D01*
X005071Y004407D01*
X005099Y004447D01*
X005131Y004485D01*
X005165Y004520D01*
X005202Y004552D01*
X005241Y004581D01*
X005283Y004607D01*
X005327Y004629D01*
X005372Y004647D01*
X005419Y004662D01*
X005466Y004673D01*
X005515Y004680D01*
X005564Y004683D01*
X005613Y004682D01*
X005661Y004677D01*
X005710Y004668D01*
X005757Y004655D01*
X005803Y004638D01*
X005847Y004618D01*
X005890Y004594D01*
X005931Y004567D01*
X005969Y004536D01*
X006005Y004503D01*
X006037Y004467D01*
X006067Y004428D01*
X006094Y004387D01*
X006117Y004343D01*
X006136Y004298D01*
X006152Y004252D01*
X006164Y004205D01*
X006172Y004156D01*
X006176Y004107D01*
X006176Y004059D01*
X006172Y004010D01*
X006164Y003961D01*
X006152Y003914D01*
X006136Y003868D01*
X006117Y003823D01*
X006094Y003779D01*
X006067Y003738D01*
X006037Y003699D01*
X006005Y003663D01*
X005969Y003630D01*
X005931Y003599D01*
X005890Y003572D01*
X005847Y003548D01*
X005803Y003528D01*
X005757Y003511D01*
X005710Y003498D01*
X005661Y003489D01*
X005613Y003484D01*
X005564Y003483D01*
X005515Y003486D01*
X005466Y003493D01*
X005419Y003504D01*
X005372Y003519D01*
X005327Y003537D01*
X005283Y003559D01*
X005241Y003585D01*
X005202Y003614D01*
X005165Y003646D01*
X005131Y003681D01*
X005099Y003719D01*
X005071Y003759D01*
X005046Y003801D01*
X005025Y003845D01*
X005008Y003891D01*
X004994Y003938D01*
X004984Y003986D01*
X004978Y004034D01*
X004976Y004083D01*
M02*
