%
M48
M72
T01C0.0120
T02C0.0315
T03C0.0320
T04C0.0354
T05C0.0394
T06C0.0400
T07C0.0472
T08C0.1102
T09C0.1200
%
T01
X19683Y24939
X12433Y26439
T02
X18009Y22838
X18009Y21838
X18009Y20838
X18009Y19838
X18009Y18838
X18009Y17838
X18009Y16838
X18009Y15838
X18009Y14838
X18009Y13838
X18009Y12838
X18009Y11838
X18009Y10838
X18009Y9838
X18009Y8838
X18009Y7838
T03
X33183Y8189
X33183Y9189
X24683Y25689
X24683Y26689
X24683Y27689
X24683Y28689
X24683Y29689
X24683Y30689
X24683Y31689
X24683Y32689
X21683Y32689
X21683Y31689
X21683Y30689
X21683Y29689
X21683Y28689
X21683Y27689
X21683Y26689
X21683Y25689
X12576Y33583
X10576Y33583
X11576Y35583
X33183Y32689
X33183Y31689
T04
X30183Y32689
X27183Y32689
X26683Y22689
X23683Y22689
X27183Y9189
X30183Y9189
T05
X13683Y10205
X13683Y12173
T06
X9683Y14689
X9683Y15689
X9683Y16689
X9683Y17689
X9683Y18689
X9683Y19689
X9683Y20689
X9683Y21689
X9683Y23189
X9683Y24189
X9683Y25189
X9683Y26189
X9683Y27189
X9683Y28189
X9683Y29189
X9683Y30189
X28683Y30189
X28683Y29189
X28683Y28189
X28683Y27189
X28683Y26189
X28683Y25189
X28683Y23189
X28683Y22189
X28683Y21189
X28683Y20189
X28683Y19189
X28683Y18189
X32293Y13969
X34073Y13969
X34073Y11409
X32293Y11409
X32293Y26909
X34073Y26909
X34073Y29469
X32293Y29469
T07
X6183Y29689
X6183Y28311
X6183Y24689
X6183Y23311
X6183Y8689
X6183Y7311
T08
X18009Y5689
X30183Y5689
X30183Y35185
X18009Y35185
T09
X5576Y4083
X33789Y4083
X33789Y36295
X5576Y36295
M30
