G75*
G70*
%OFA0B0*%
%FSLAX24Y24*%
%IPPOS*%
%LPD*%
%AMOC8*
5,1,8,0,0,1.08239X$1,22.5*
%
%ADD10C,0.0060*%
%ADD11C,0.0160*%
%ADD12C,0.0080*%
%ADD13C,0.0010*%
%ADD14C,0.0100*%
%ADD15C,0.0050*%
%ADD16C,0.0020*%
%ADD17C,0.0120*%
%ADD18C,0.0000*%
D10*
X015020Y009326D02*
X015127Y009219D01*
X015554Y009219D01*
X015661Y009326D01*
X015661Y009539D01*
X015554Y009646D01*
X015127Y009646D01*
X015020Y009539D01*
X015020Y009326D01*
X015234Y009863D02*
X015234Y010184D01*
X015340Y010290D01*
X015554Y010290D01*
X015661Y010184D01*
X015661Y009863D01*
X015874Y009863D02*
X015234Y009863D01*
X015340Y010508D02*
X015234Y010615D01*
X015234Y010828D01*
X015340Y010935D01*
X015447Y010935D01*
X015447Y010508D01*
X015554Y010508D02*
X015340Y010508D01*
X015554Y010508D02*
X015661Y010615D01*
X015661Y010828D01*
X015661Y011152D02*
X015234Y011152D01*
X015234Y011473D01*
X015340Y011579D01*
X015661Y011579D01*
X015661Y012441D02*
X015234Y012441D01*
X015020Y012655D01*
X015234Y012868D01*
X015661Y012868D01*
X015554Y013086D02*
X015661Y013193D01*
X015661Y013513D01*
X015554Y013731D02*
X015661Y013837D01*
X015661Y014158D01*
X015554Y014375D02*
X015340Y014375D01*
X015234Y014482D01*
X015234Y014695D01*
X015340Y014802D01*
X015447Y014802D01*
X015447Y014375D01*
X015554Y014375D02*
X015661Y014482D01*
X015661Y014695D01*
X015661Y015020D02*
X015661Y015340D01*
X015554Y015447D01*
X015447Y015340D01*
X015447Y015126D01*
X015340Y015020D01*
X015234Y015126D01*
X015234Y015447D01*
X015340Y015664D02*
X015234Y015771D01*
X015234Y016091D01*
X015447Y015984D02*
X015447Y015771D01*
X015340Y015664D01*
X015661Y015664D02*
X015661Y015984D01*
X015554Y016091D01*
X015447Y015984D01*
X015661Y016953D02*
X015661Y017167D01*
X015661Y017060D02*
X015020Y017060D01*
X015020Y016953D02*
X015020Y017167D01*
X015234Y017383D02*
X015234Y017703D01*
X015340Y017810D01*
X015661Y017810D01*
X015554Y018134D02*
X015127Y018134D01*
X015234Y018027D02*
X015234Y018241D01*
X015340Y018457D02*
X015234Y018564D01*
X015234Y018777D01*
X015340Y018884D01*
X015447Y018884D01*
X015447Y018457D01*
X015554Y018457D02*
X015340Y018457D01*
X015554Y018457D02*
X015661Y018564D01*
X015661Y018777D01*
X015661Y019102D02*
X015234Y019102D01*
X015447Y019102D02*
X015234Y019315D01*
X015234Y019422D01*
X015020Y019639D02*
X015020Y019745D01*
X015661Y019745D01*
X015661Y019639D02*
X015661Y019852D01*
X015554Y020068D02*
X015661Y020175D01*
X015661Y020389D01*
X015554Y020495D01*
X015340Y020495D01*
X015234Y020389D01*
X015234Y020175D01*
X015340Y020068D01*
X015554Y020068D01*
X015554Y020713D02*
X015661Y020820D01*
X015661Y021140D01*
X015661Y021357D02*
X015020Y021357D01*
X015234Y021140D02*
X015234Y020820D01*
X015340Y020713D01*
X015554Y020713D01*
X015447Y021357D02*
X015234Y021678D01*
X015447Y021357D02*
X015661Y021678D01*
X015234Y022539D02*
X015661Y022753D01*
X015234Y022966D01*
X015234Y023184D02*
X015020Y023397D01*
X015661Y023397D01*
X015661Y023184D02*
X015661Y023611D01*
X016520Y023611D02*
X017161Y023184D01*
X017161Y022966D02*
X016840Y022966D01*
X016734Y022859D01*
X016840Y022753D01*
X017161Y022753D01*
X017161Y022539D02*
X016734Y022539D01*
X016734Y022646D01*
X016840Y022753D01*
X016840Y022321D02*
X016734Y022215D01*
X016734Y022001D01*
X016840Y021894D01*
X017054Y021894D01*
X017161Y022001D01*
X017161Y022215D01*
X017054Y022321D01*
X016840Y022321D01*
X016734Y021677D02*
X016734Y021357D01*
X016840Y021250D01*
X017054Y021250D01*
X017161Y021357D01*
X017161Y021677D01*
X017161Y021034D02*
X017161Y020928D01*
X017054Y020928D01*
X017054Y021034D01*
X017161Y021034D01*
X017161Y020710D02*
X016840Y020710D01*
X016734Y020603D01*
X016734Y020283D01*
X017161Y020283D01*
X017054Y020066D02*
X016840Y020066D01*
X016734Y019959D01*
X016734Y019745D01*
X016840Y019639D01*
X017054Y019639D01*
X017161Y019745D01*
X017161Y019959D01*
X017054Y020066D01*
X017161Y019421D02*
X016840Y019421D01*
X016734Y019314D01*
X016734Y019101D01*
X016840Y018994D01*
X016840Y018777D02*
X017054Y018777D01*
X017161Y018670D01*
X017161Y018350D01*
X017374Y018350D02*
X016734Y018350D01*
X016734Y018670D01*
X016840Y018777D01*
X016520Y018994D02*
X017161Y018994D01*
X017161Y018132D02*
X017161Y017812D01*
X017054Y017705D01*
X016734Y017705D01*
X016734Y017488D02*
X017161Y017061D01*
X017161Y017488D01*
X016734Y017488D02*
X016734Y017061D01*
X017054Y016200D02*
X017054Y016093D01*
X017161Y016093D01*
X017161Y016200D01*
X017054Y016200D01*
X017161Y016200D02*
X017374Y015986D01*
X017267Y015769D02*
X016734Y015769D01*
X017161Y015769D02*
X017161Y015449D01*
X017054Y015342D01*
X016734Y015342D01*
X016840Y015124D02*
X016947Y015124D01*
X016947Y014697D01*
X016840Y014697D02*
X016734Y014804D01*
X016734Y015018D01*
X016840Y015124D01*
X017161Y015018D02*
X017161Y014804D01*
X017054Y014697D01*
X016840Y014697D01*
X017161Y014481D02*
X017161Y014268D01*
X017161Y014374D02*
X016520Y014374D01*
X016520Y014268D01*
X016520Y014050D02*
X017161Y014050D01*
X017161Y013730D01*
X017054Y013623D01*
X016840Y013623D01*
X016734Y013730D01*
X016734Y014050D01*
X016840Y013406D02*
X017161Y013406D01*
X017161Y013085D01*
X017054Y012979D01*
X016947Y013085D01*
X016947Y013406D01*
X016840Y013406D02*
X016734Y013299D01*
X016734Y013085D01*
X016734Y012762D02*
X016734Y012655D01*
X016947Y012441D01*
X016734Y012441D02*
X017161Y012441D01*
X017054Y012224D02*
X016947Y012224D01*
X016840Y012117D01*
X016840Y011797D01*
X016520Y011797D02*
X016520Y012117D01*
X016627Y012224D01*
X016734Y012224D01*
X016840Y012117D01*
X017054Y012224D02*
X017161Y012117D01*
X017161Y011797D01*
X016520Y011797D01*
X016520Y010829D02*
X017161Y010829D01*
X017161Y010723D02*
X017161Y010936D01*
X017161Y010507D02*
X017161Y010293D01*
X017161Y010400D02*
X016520Y010400D01*
X016520Y010293D01*
X016520Y009970D02*
X016413Y009970D01*
X016734Y009970D02*
X017161Y009970D01*
X017161Y009863D02*
X017161Y010077D01*
X017161Y009646D02*
X016947Y009432D01*
X017161Y009219D01*
X016520Y009219D01*
X016520Y009646D02*
X017161Y009646D01*
X016734Y009863D02*
X016734Y009970D01*
X016520Y010723D02*
X016520Y010829D01*
X015340Y012441D02*
X015340Y012868D01*
X015340Y013086D02*
X015234Y013193D01*
X015234Y013513D01*
X015340Y013731D02*
X015234Y013837D01*
X015234Y014158D01*
X015340Y013731D02*
X015554Y013731D01*
X015554Y013086D02*
X015340Y013086D01*
X017374Y015555D02*
X017374Y015662D01*
X017267Y015769D01*
X015661Y017383D02*
X015234Y017383D01*
X015554Y018134D02*
X015661Y018241D01*
X016734Y018132D02*
X017267Y018132D01*
X017374Y018025D01*
X017374Y017919D01*
X017054Y023828D02*
X016840Y023828D01*
X016734Y023935D01*
X016734Y024148D01*
X016840Y024255D01*
X017054Y024255D01*
X017161Y024148D01*
X017161Y023935D01*
X017054Y023828D01*
X017054Y024473D02*
X016947Y024579D01*
X016947Y024900D01*
X016840Y024900D02*
X017161Y024900D01*
X017161Y024579D01*
X017054Y024473D01*
X016734Y024579D02*
X016734Y024793D01*
X016840Y024900D01*
X016840Y025117D02*
X017054Y025117D01*
X017161Y025224D01*
X017161Y025544D01*
X017161Y025762D02*
X017161Y025975D01*
X017161Y025868D02*
X016734Y025868D01*
X016734Y025762D01*
X016734Y025544D02*
X016734Y025224D01*
X016840Y025117D01*
X016520Y025868D02*
X016413Y025868D01*
X018691Y026039D02*
X018691Y026789D01*
X018730Y026791D01*
X018769Y026797D01*
X018807Y026806D01*
X018844Y026819D01*
X018880Y026836D01*
X018913Y026856D01*
X018945Y026880D01*
X018974Y026906D01*
X019000Y026935D01*
X019024Y026967D01*
X019044Y027000D01*
X019061Y027036D01*
X019074Y027073D01*
X019083Y027111D01*
X019089Y027150D01*
X019091Y027189D01*
X019089Y027228D01*
X019083Y027267D01*
X019074Y027305D01*
X019061Y027342D01*
X019044Y027378D01*
X019024Y027411D01*
X019000Y027443D01*
X018974Y027472D01*
X018945Y027498D01*
X018913Y027522D01*
X018880Y027542D01*
X018844Y027559D01*
X018807Y027572D01*
X018769Y027581D01*
X018730Y027587D01*
X018691Y027589D01*
X018691Y028339D01*
X026691Y028339D01*
X026691Y026039D01*
X018691Y026039D01*
X011541Y031439D02*
X011441Y031339D01*
X010791Y031339D01*
X010291Y031339D02*
X008941Y031339D01*
X008841Y031439D01*
X008841Y033939D01*
X008941Y034039D01*
X010291Y034039D01*
X010791Y034039D02*
X011441Y034039D01*
X011541Y033939D01*
X011541Y033689D01*
X011541Y032939D01*
X011391Y033089D02*
X011391Y033689D01*
X011541Y033689D01*
X010791Y032839D02*
X010491Y032839D01*
X010341Y032839D01*
X010191Y032989D01*
X010191Y033289D01*
X009891Y033289D01*
X009891Y032989D01*
X009741Y032839D01*
X009591Y032839D01*
X009291Y032839D01*
X009291Y032539D01*
X009591Y032539D01*
X009741Y032539D01*
X009891Y032389D01*
X009891Y032089D01*
X010191Y032089D01*
X010191Y032389D01*
X010341Y032539D01*
X010491Y032539D01*
X010791Y032539D01*
X010791Y032839D01*
X010491Y032839D02*
X010491Y032539D01*
X009591Y032539D02*
X009591Y032839D01*
X011391Y032289D02*
X011391Y031689D01*
X011541Y031689D01*
X011541Y032439D01*
X011541Y031689D02*
X011541Y031439D01*
X019191Y034439D02*
X019441Y034189D01*
X019941Y034189D01*
X020191Y034439D01*
X020441Y034189D01*
X020941Y034189D01*
X021191Y034439D01*
X021441Y034189D01*
X021941Y034189D01*
X022191Y034439D01*
X022441Y034189D01*
X022941Y034189D01*
X023191Y034439D01*
X023441Y034189D01*
X023941Y034189D01*
X024191Y034439D01*
X024441Y034189D01*
X024941Y034189D01*
X025191Y034439D01*
X025441Y034189D01*
X025941Y034189D01*
X026191Y034439D01*
X026191Y035939D01*
X025941Y036189D01*
X025441Y036189D01*
X025191Y035939D01*
X024941Y036189D01*
X024441Y036189D01*
X024191Y035939D01*
X023941Y036189D01*
X023441Y036189D01*
X023191Y035939D01*
X022941Y036189D01*
X022441Y036189D01*
X022191Y035939D01*
X021941Y036189D01*
X021441Y036189D01*
X021191Y035939D01*
X020941Y036189D01*
X020441Y036189D01*
X020191Y035939D01*
X019941Y036189D01*
X019441Y036189D01*
X019191Y035939D01*
X019191Y034439D01*
X028421Y031352D02*
X028477Y031409D01*
X028591Y031409D01*
X028647Y031352D01*
X028647Y031296D01*
X028421Y031069D01*
X028647Y031069D01*
X028789Y031069D02*
X029016Y031296D01*
X029016Y031352D01*
X028959Y031409D01*
X028846Y031409D01*
X028789Y031352D01*
X028789Y031069D02*
X029016Y031069D01*
X029157Y031126D02*
X029384Y031352D01*
X029384Y031126D01*
X029327Y031069D01*
X029214Y031069D01*
X029157Y031126D01*
X029157Y031352D01*
X029214Y031409D01*
X029327Y031409D01*
X029384Y031352D01*
X031691Y033689D02*
X031693Y033752D01*
X031699Y033814D01*
X031709Y033876D01*
X031722Y033938D01*
X031740Y033998D01*
X031761Y034057D01*
X031786Y034115D01*
X031815Y034171D01*
X031847Y034225D01*
X031882Y034277D01*
X031920Y034326D01*
X031962Y034374D01*
X032006Y034418D01*
X032054Y034460D01*
X032103Y034498D01*
X032155Y034533D01*
X032209Y034565D01*
X032265Y034594D01*
X032323Y034619D01*
X032382Y034640D01*
X032442Y034658D01*
X032504Y034671D01*
X032566Y034681D01*
X032628Y034687D01*
X032691Y034689D01*
X032754Y034687D01*
X032816Y034681D01*
X032878Y034671D01*
X032940Y034658D01*
X033000Y034640D01*
X033059Y034619D01*
X033117Y034594D01*
X033173Y034565D01*
X033227Y034533D01*
X033279Y034498D01*
X033328Y034460D01*
X033376Y034418D01*
X033420Y034374D01*
X033462Y034326D01*
X033500Y034277D01*
X033535Y034225D01*
X033567Y034171D01*
X033596Y034115D01*
X033621Y034057D01*
X033642Y033998D01*
X033660Y033938D01*
X033673Y033876D01*
X033683Y033814D01*
X033689Y033752D01*
X033691Y033689D01*
X033689Y033626D01*
X033683Y033564D01*
X033673Y033502D01*
X033660Y033440D01*
X033642Y033380D01*
X033621Y033321D01*
X033596Y033263D01*
X033567Y033207D01*
X033535Y033153D01*
X033500Y033101D01*
X033462Y033052D01*
X033420Y033004D01*
X033376Y032960D01*
X033328Y032918D01*
X033279Y032880D01*
X033227Y032845D01*
X033173Y032813D01*
X033117Y032784D01*
X033059Y032759D01*
X033000Y032738D01*
X032940Y032720D01*
X032878Y032707D01*
X032816Y032697D01*
X032754Y032691D01*
X032691Y032689D01*
X032628Y032691D01*
X032566Y032697D01*
X032504Y032707D01*
X032442Y032720D01*
X032382Y032738D01*
X032323Y032759D01*
X032265Y032784D01*
X032209Y032813D01*
X032155Y032845D01*
X032103Y032880D01*
X032054Y032918D01*
X032006Y032960D01*
X031962Y033004D01*
X031920Y033052D01*
X031882Y033101D01*
X031847Y033153D01*
X031815Y033207D01*
X031786Y033263D01*
X031761Y033321D01*
X031740Y033380D01*
X031722Y033440D01*
X031709Y033502D01*
X031699Y033564D01*
X031693Y033626D01*
X031691Y033689D01*
X028327Y009909D02*
X028384Y009852D01*
X028157Y009626D01*
X028214Y009569D01*
X028327Y009569D01*
X028384Y009626D01*
X028384Y009852D01*
X028327Y009909D02*
X028214Y009909D01*
X028157Y009852D01*
X028157Y009626D01*
X028016Y009569D02*
X027789Y009569D01*
X028016Y009796D01*
X028016Y009852D01*
X027959Y009909D01*
X027846Y009909D01*
X027789Y009852D01*
X027647Y009852D02*
X027591Y009909D01*
X027477Y009909D01*
X027421Y009852D01*
X027647Y009852D02*
X027647Y009796D01*
X027421Y009569D01*
X027647Y009569D01*
X031691Y005689D02*
X031693Y005752D01*
X031699Y005814D01*
X031709Y005876D01*
X031722Y005938D01*
X031740Y005998D01*
X031761Y006057D01*
X031786Y006115D01*
X031815Y006171D01*
X031847Y006225D01*
X031882Y006277D01*
X031920Y006326D01*
X031962Y006374D01*
X032006Y006418D01*
X032054Y006460D01*
X032103Y006498D01*
X032155Y006533D01*
X032209Y006565D01*
X032265Y006594D01*
X032323Y006619D01*
X032382Y006640D01*
X032442Y006658D01*
X032504Y006671D01*
X032566Y006681D01*
X032628Y006687D01*
X032691Y006689D01*
X032754Y006687D01*
X032816Y006681D01*
X032878Y006671D01*
X032940Y006658D01*
X033000Y006640D01*
X033059Y006619D01*
X033117Y006594D01*
X033173Y006565D01*
X033227Y006533D01*
X033279Y006498D01*
X033328Y006460D01*
X033376Y006418D01*
X033420Y006374D01*
X033462Y006326D01*
X033500Y006277D01*
X033535Y006225D01*
X033567Y006171D01*
X033596Y006115D01*
X033621Y006057D01*
X033642Y005998D01*
X033660Y005938D01*
X033673Y005876D01*
X033683Y005814D01*
X033689Y005752D01*
X033691Y005689D01*
X033689Y005626D01*
X033683Y005564D01*
X033673Y005502D01*
X033660Y005440D01*
X033642Y005380D01*
X033621Y005321D01*
X033596Y005263D01*
X033567Y005207D01*
X033535Y005153D01*
X033500Y005101D01*
X033462Y005052D01*
X033420Y005004D01*
X033376Y004960D01*
X033328Y004918D01*
X033279Y004880D01*
X033227Y004845D01*
X033173Y004813D01*
X033117Y004784D01*
X033059Y004759D01*
X033000Y004738D01*
X032940Y004720D01*
X032878Y004707D01*
X032816Y004697D01*
X032754Y004691D01*
X032691Y004689D01*
X032628Y004691D01*
X032566Y004697D01*
X032504Y004707D01*
X032442Y004720D01*
X032382Y004738D01*
X032323Y004759D01*
X032265Y004784D01*
X032209Y004813D01*
X032155Y004845D01*
X032103Y004880D01*
X032054Y004918D01*
X032006Y004960D01*
X031962Y005004D01*
X031920Y005052D01*
X031882Y005101D01*
X031847Y005153D01*
X031815Y005207D01*
X031786Y005263D01*
X031761Y005321D01*
X031740Y005380D01*
X031722Y005440D01*
X031709Y005502D01*
X031699Y005564D01*
X031693Y005626D01*
X031691Y005689D01*
X019879Y006026D02*
X019822Y005969D01*
X019709Y005969D01*
X019652Y006026D01*
X019879Y006252D01*
X019879Y006026D01*
X019879Y006252D02*
X019822Y006309D01*
X019709Y006309D01*
X019652Y006252D01*
X019652Y006026D01*
X019511Y005969D02*
X019284Y005969D01*
X019511Y006196D01*
X019511Y006252D01*
X019454Y006309D01*
X019341Y006309D01*
X019284Y006252D01*
X019142Y006252D02*
X019086Y006309D01*
X018972Y006309D01*
X018916Y006252D01*
X019142Y006252D02*
X019142Y006196D01*
X018916Y005969D01*
X019142Y005969D01*
D11*
X005191Y002689D02*
X036191Y002689D01*
X036191Y037689D01*
X005191Y037689D01*
X005191Y002689D01*
D12*
X005773Y006622D02*
X005773Y009378D01*
X006088Y009378D01*
X006088Y006622D01*
X005773Y006622D01*
X006088Y006622D02*
X008529Y006622D01*
X008529Y009378D01*
X006088Y009378D01*
X018091Y006189D02*
X018191Y006189D01*
X018191Y006489D01*
X020191Y006489D01*
X020191Y006189D01*
X020291Y006189D01*
X020191Y006189D02*
X020191Y005889D01*
X018191Y005889D01*
X018191Y006189D01*
X020334Y004189D02*
X020084Y003939D01*
X020084Y003439D01*
X020334Y003189D01*
X020834Y003189D01*
X021084Y003439D01*
X021334Y003189D01*
X021834Y003189D01*
X022084Y003439D01*
X022334Y003189D01*
X022834Y003189D01*
X023084Y003439D01*
X023334Y003189D01*
X023834Y003189D01*
X024084Y003439D01*
X024334Y003189D01*
X024834Y003189D01*
X025084Y003439D01*
X025084Y003939D01*
X024834Y004189D01*
X024334Y004189D01*
X024084Y003939D01*
X023834Y004189D01*
X023334Y004189D01*
X023084Y003939D01*
X022834Y004189D01*
X022334Y004189D01*
X022084Y003939D01*
X021834Y004189D01*
X021334Y004189D01*
X021084Y003939D01*
X020834Y004189D01*
X020334Y004189D01*
X027091Y009689D02*
X027191Y009689D01*
X027191Y009989D01*
X029191Y009989D01*
X029191Y009689D01*
X029291Y009689D01*
X029191Y009689D02*
X029191Y009389D01*
X027191Y009389D01*
X027191Y009689D01*
X031491Y009839D02*
X031491Y011539D01*
X032298Y011889D02*
X033091Y011889D01*
X033891Y011539D02*
X033891Y009839D01*
X033091Y009489D02*
X032286Y009489D01*
X031991Y010689D02*
X031993Y010741D01*
X031999Y010793D01*
X032009Y010845D01*
X032022Y010895D01*
X032039Y010945D01*
X032060Y010993D01*
X032085Y011039D01*
X032113Y011083D01*
X032144Y011125D01*
X032178Y011165D01*
X032215Y011202D01*
X032255Y011236D01*
X032297Y011267D01*
X032341Y011295D01*
X032387Y011320D01*
X032435Y011341D01*
X032485Y011358D01*
X032535Y011371D01*
X032587Y011381D01*
X032639Y011387D01*
X032691Y011389D01*
X032743Y011387D01*
X032795Y011381D01*
X032847Y011371D01*
X032897Y011358D01*
X032947Y011341D01*
X032995Y011320D01*
X033041Y011295D01*
X033085Y011267D01*
X033127Y011236D01*
X033167Y011202D01*
X033204Y011165D01*
X033238Y011125D01*
X033269Y011083D01*
X033297Y011039D01*
X033322Y010993D01*
X033343Y010945D01*
X033360Y010895D01*
X033373Y010845D01*
X033383Y010793D01*
X033389Y010741D01*
X033391Y010689D01*
X033389Y010637D01*
X033383Y010585D01*
X033373Y010533D01*
X033360Y010483D01*
X033343Y010433D01*
X033322Y010385D01*
X033297Y010339D01*
X033269Y010295D01*
X033238Y010253D01*
X033204Y010213D01*
X033167Y010176D01*
X033127Y010142D01*
X033085Y010111D01*
X033041Y010083D01*
X032995Y010058D01*
X032947Y010037D01*
X032897Y010020D01*
X032847Y010007D01*
X032795Y009997D01*
X032743Y009991D01*
X032691Y009989D01*
X032639Y009991D01*
X032587Y009997D01*
X032535Y010007D01*
X032485Y010020D01*
X032435Y010037D01*
X032387Y010058D01*
X032341Y010083D01*
X032297Y010111D01*
X032255Y010142D01*
X032215Y010176D01*
X032178Y010213D01*
X032144Y010253D01*
X032113Y010295D01*
X032085Y010339D01*
X032060Y010385D01*
X032039Y010433D01*
X032022Y010483D01*
X032009Y010533D01*
X031999Y010585D01*
X031993Y010637D01*
X031991Y010689D01*
X031941Y006689D02*
X033441Y006689D01*
X033091Y027489D02*
X032286Y027489D01*
X031491Y027839D02*
X031491Y029539D01*
X032298Y029889D02*
X033091Y029889D01*
X033891Y029539D02*
X033891Y027839D01*
X031991Y028689D02*
X031993Y028741D01*
X031999Y028793D01*
X032009Y028845D01*
X032022Y028895D01*
X032039Y028945D01*
X032060Y028993D01*
X032085Y029039D01*
X032113Y029083D01*
X032144Y029125D01*
X032178Y029165D01*
X032215Y029202D01*
X032255Y029236D01*
X032297Y029267D01*
X032341Y029295D01*
X032387Y029320D01*
X032435Y029341D01*
X032485Y029358D01*
X032535Y029371D01*
X032587Y029381D01*
X032639Y029387D01*
X032691Y029389D01*
X032743Y029387D01*
X032795Y029381D01*
X032847Y029371D01*
X032897Y029358D01*
X032947Y029341D01*
X032995Y029320D01*
X033041Y029295D01*
X033085Y029267D01*
X033127Y029236D01*
X033167Y029202D01*
X033204Y029165D01*
X033238Y029125D01*
X033269Y029083D01*
X033297Y029039D01*
X033322Y028993D01*
X033343Y028945D01*
X033360Y028895D01*
X033373Y028845D01*
X033383Y028793D01*
X033389Y028741D01*
X033391Y028689D01*
X033389Y028637D01*
X033383Y028585D01*
X033373Y028533D01*
X033360Y028483D01*
X033343Y028433D01*
X033322Y028385D01*
X033297Y028339D01*
X033269Y028295D01*
X033238Y028253D01*
X033204Y028213D01*
X033167Y028176D01*
X033127Y028142D01*
X033085Y028111D01*
X033041Y028083D01*
X032995Y028058D01*
X032947Y028037D01*
X032897Y028020D01*
X032847Y028007D01*
X032795Y027997D01*
X032743Y027991D01*
X032691Y027989D01*
X032639Y027991D01*
X032587Y027997D01*
X032535Y028007D01*
X032485Y028020D01*
X032435Y028037D01*
X032387Y028058D01*
X032341Y028083D01*
X032297Y028111D01*
X032255Y028142D01*
X032215Y028176D01*
X032178Y028213D01*
X032144Y028253D01*
X032113Y028295D01*
X032085Y028339D01*
X032060Y028385D01*
X032039Y028433D01*
X032022Y028483D01*
X032009Y028533D01*
X031999Y028585D01*
X031993Y028637D01*
X031991Y028689D01*
X030191Y030889D02*
X028191Y030889D01*
X028191Y031189D01*
X028091Y031189D01*
X028191Y031189D02*
X028191Y031489D01*
X030191Y031489D01*
X030191Y031189D01*
X030291Y031189D01*
X030191Y031189D02*
X030191Y030889D01*
X031941Y032689D02*
X033441Y032689D01*
X008529Y030378D02*
X008529Y027622D01*
X006088Y027622D01*
X006088Y030378D01*
X008529Y030378D01*
X006088Y030378D02*
X005773Y030378D01*
X005773Y027622D01*
X006088Y027622D01*
X006088Y025378D02*
X005773Y025378D01*
X005773Y022622D01*
X006088Y022622D01*
X006088Y025378D01*
X008529Y025378D01*
X008529Y022622D01*
X006088Y022622D01*
D13*
X007720Y024457D02*
X007745Y024457D01*
X007771Y024482D01*
X007771Y024532D01*
X007796Y024557D01*
X007821Y024557D01*
X007846Y024532D01*
X007846Y024482D01*
X007821Y024457D01*
X007720Y024457D02*
X007695Y024482D01*
X007695Y024532D01*
X007720Y024557D01*
X007720Y024605D02*
X007821Y024605D01*
X007846Y024630D01*
X007846Y024680D01*
X007821Y024705D01*
X007846Y024752D02*
X007695Y024752D01*
X007695Y024827D01*
X007720Y024852D01*
X007771Y024852D01*
X007796Y024827D01*
X007796Y024752D01*
X007796Y024802D02*
X007846Y024852D01*
X007846Y024899D02*
X007846Y024999D01*
X007846Y025046D02*
X007796Y025097D01*
X007846Y025147D01*
X007695Y025147D01*
X007695Y025046D02*
X007846Y025046D01*
X007771Y024949D02*
X007771Y024899D01*
X007846Y024899D02*
X007695Y024899D01*
X007695Y024999D01*
X007720Y024705D02*
X007695Y024680D01*
X007695Y024630D01*
X007720Y024605D01*
X008195Y024605D02*
X008195Y024680D01*
X008220Y024705D01*
X008321Y024705D01*
X008346Y024680D01*
X008346Y024605D01*
X008195Y024605D01*
X008245Y024752D02*
X008195Y024802D01*
X008245Y024852D01*
X008346Y024852D01*
X008271Y024852D02*
X008271Y024752D01*
X008245Y024752D02*
X008346Y024752D01*
X008371Y024557D02*
X008371Y024457D01*
X008346Y024410D02*
X008296Y024360D01*
X008296Y024385D02*
X008296Y024310D01*
X008346Y024310D02*
X008195Y024310D01*
X008195Y024385D01*
X008220Y024410D01*
X008271Y024410D01*
X008296Y024385D01*
X008321Y024263D02*
X008220Y024263D01*
X008195Y024238D01*
X008195Y024163D01*
X008346Y024163D01*
X008346Y024238D01*
X008321Y024263D01*
X008346Y024115D02*
X008296Y024065D01*
X008296Y024090D02*
X008296Y024015D01*
X008346Y024015D02*
X008195Y024015D01*
X008195Y024090D01*
X008220Y024115D01*
X008271Y024115D01*
X008296Y024090D01*
X008195Y024899D02*
X008195Y024999D01*
X008195Y024949D02*
X008346Y024949D01*
X008346Y025046D02*
X008245Y025046D01*
X008195Y025097D01*
X008245Y025147D01*
X008346Y025147D01*
X008271Y025147D02*
X008271Y025046D01*
X008296Y029163D02*
X008296Y029238D01*
X008271Y029263D01*
X008220Y029263D01*
X008195Y029238D01*
X008195Y029163D01*
X008346Y029163D01*
X008296Y029213D02*
X008346Y029263D01*
X008346Y029310D02*
X008346Y029385D01*
X008321Y029410D01*
X008220Y029410D01*
X008195Y029385D01*
X008195Y029310D01*
X008346Y029310D01*
X008346Y029457D02*
X008195Y029457D01*
X008195Y029532D01*
X008220Y029557D01*
X008271Y029557D01*
X008296Y029532D01*
X008296Y029457D01*
X008296Y029507D02*
X008346Y029557D01*
X008371Y029605D02*
X008371Y029705D01*
X008346Y029752D02*
X008195Y029752D01*
X008195Y029827D01*
X008220Y029852D01*
X008271Y029852D01*
X008296Y029827D01*
X008296Y029752D01*
X008346Y029899D02*
X008296Y029949D01*
X008346Y029999D01*
X008195Y029999D01*
X008195Y030046D02*
X008195Y030122D01*
X008220Y030147D01*
X008271Y030147D01*
X008296Y030122D01*
X008296Y030046D01*
X008346Y030046D02*
X008195Y030046D01*
X008296Y030097D02*
X008346Y030147D01*
X008346Y029899D02*
X008195Y029899D01*
X007846Y029899D02*
X007846Y029999D01*
X007846Y030046D02*
X007796Y030097D01*
X007846Y030147D01*
X007695Y030147D01*
X007695Y030046D02*
X007846Y030046D01*
X007771Y029949D02*
X007771Y029899D01*
X007771Y029852D02*
X007796Y029827D01*
X007796Y029752D01*
X007846Y029752D02*
X007695Y029752D01*
X007695Y029827D01*
X007720Y029852D01*
X007771Y029852D01*
X007796Y029802D02*
X007846Y029852D01*
X007846Y029899D02*
X007695Y029899D01*
X007695Y029999D01*
X007720Y029705D02*
X007695Y029680D01*
X007695Y029630D01*
X007720Y029605D01*
X007821Y029605D01*
X007846Y029630D01*
X007846Y029680D01*
X007821Y029705D01*
X007821Y029557D02*
X007846Y029532D01*
X007846Y029482D01*
X007821Y029457D01*
X007771Y029482D02*
X007771Y029532D01*
X007796Y029557D01*
X007821Y029557D01*
X007771Y029482D02*
X007745Y029457D01*
X007720Y029457D01*
X007695Y029482D01*
X007695Y029532D01*
X007720Y029557D01*
X027196Y010344D02*
X027271Y010344D01*
X027296Y010319D01*
X027296Y010269D01*
X027271Y010244D01*
X027196Y010244D01*
X027246Y010244D02*
X027296Y010194D01*
X027343Y010194D02*
X027443Y010294D01*
X027443Y010319D01*
X027418Y010344D01*
X027368Y010344D01*
X027343Y010319D01*
X027343Y010194D02*
X027443Y010194D01*
X027196Y010194D02*
X027196Y010344D01*
X020098Y005684D02*
X020098Y005534D01*
X020048Y005534D02*
X020148Y005534D01*
X020048Y005634D02*
X020098Y005684D01*
X020001Y005659D02*
X020001Y005609D01*
X019976Y005584D01*
X019901Y005584D01*
X019951Y005584D02*
X020001Y005534D01*
X019901Y005534D02*
X019901Y005684D01*
X019976Y005684D01*
X020001Y005659D01*
X008346Y008457D02*
X008195Y008457D01*
X008195Y008532D01*
X008220Y008557D01*
X008271Y008557D01*
X008296Y008532D01*
X008296Y008457D01*
X008296Y008507D02*
X008346Y008557D01*
X008346Y008605D02*
X008346Y008705D01*
X008346Y008752D02*
X008346Y008852D01*
X008346Y008899D02*
X008245Y008899D01*
X008195Y008949D01*
X008245Y008999D01*
X008346Y008999D01*
X008271Y008999D02*
X008271Y008899D01*
X008220Y009046D02*
X008271Y009097D01*
X008346Y009097D01*
X008271Y009097D02*
X008220Y009147D01*
X008195Y009147D01*
X008195Y009046D02*
X008220Y009046D01*
X008195Y008752D02*
X008346Y008752D01*
X008271Y008655D02*
X008271Y008605D01*
X008346Y008605D02*
X008195Y008605D01*
X008195Y008705D01*
X007846Y008680D02*
X007821Y008705D01*
X007846Y008680D02*
X007846Y008630D01*
X007821Y008605D01*
X007720Y008605D01*
X007695Y008630D01*
X007695Y008680D01*
X007720Y008705D01*
X007695Y008752D02*
X007695Y008827D01*
X007720Y008852D01*
X007771Y008852D01*
X007796Y008827D01*
X007796Y008752D01*
X007846Y008752D02*
X007695Y008752D01*
X007796Y008802D02*
X007846Y008852D01*
X007846Y008899D02*
X007846Y008999D01*
X007846Y009046D02*
X007796Y009097D01*
X007846Y009147D01*
X007695Y009147D01*
X007695Y009046D02*
X007846Y009046D01*
X007771Y008949D02*
X007771Y008899D01*
X007846Y008899D02*
X007695Y008899D01*
X007695Y008999D01*
X007720Y008557D02*
X007695Y008532D01*
X007695Y008482D01*
X007720Y008457D01*
X007745Y008457D01*
X007771Y008482D01*
X007771Y008532D01*
X007796Y008557D01*
X007821Y008557D01*
X007846Y008532D01*
X007846Y008482D01*
X007821Y008457D01*
X028196Y031694D02*
X028196Y031844D01*
X028271Y031844D01*
X028296Y031819D01*
X028296Y031769D01*
X028271Y031744D01*
X028196Y031744D01*
X028246Y031744D02*
X028296Y031694D01*
X028343Y031719D02*
X028368Y031694D01*
X028418Y031694D01*
X028443Y031719D01*
X028443Y031744D01*
X028418Y031769D01*
X028393Y031769D01*
X028418Y031769D02*
X028443Y031794D01*
X028443Y031819D01*
X028418Y031844D01*
X028368Y031844D01*
X028343Y031819D01*
D14*
X031941Y032689D02*
X031887Y032732D01*
X031835Y032778D01*
X031786Y032827D01*
X031739Y032879D01*
X031696Y032933D01*
X031655Y032989D01*
X031618Y033048D01*
X031584Y033108D01*
X031554Y033171D01*
X031527Y033234D01*
X031503Y033300D01*
X031483Y033366D01*
X031467Y033434D01*
X031455Y033502D01*
X031447Y033571D01*
X031442Y033640D01*
X031441Y033710D01*
X031444Y033779D01*
X031451Y033848D01*
X031462Y033916D01*
X031476Y033984D01*
X031495Y034051D01*
X031517Y034117D01*
X031542Y034182D01*
X031571Y034245D01*
X031604Y034306D01*
X031640Y034365D01*
X031679Y034422D01*
X031721Y034478D01*
X031766Y034530D01*
X031814Y034580D01*
X031865Y034627D01*
X031919Y034672D01*
X031974Y034713D01*
X032032Y034751D01*
X032092Y034786D01*
X032154Y034818D01*
X032217Y034846D01*
X032282Y034870D01*
X032348Y034891D01*
X032416Y034908D01*
X032484Y034922D01*
X032553Y034931D01*
X032622Y034937D01*
X032691Y034939D01*
X032760Y034937D01*
X032829Y034931D01*
X032898Y034922D01*
X032966Y034908D01*
X033034Y034891D01*
X033100Y034870D01*
X033165Y034846D01*
X033228Y034818D01*
X033290Y034786D01*
X033350Y034751D01*
X033408Y034713D01*
X033463Y034672D01*
X033517Y034627D01*
X033568Y034580D01*
X033616Y034530D01*
X033661Y034478D01*
X033703Y034422D01*
X033742Y034365D01*
X033778Y034306D01*
X033811Y034245D01*
X033840Y034182D01*
X033865Y034117D01*
X033887Y034051D01*
X033906Y033984D01*
X033920Y033916D01*
X033931Y033848D01*
X033938Y033779D01*
X033941Y033710D01*
X033940Y033640D01*
X033935Y033571D01*
X033927Y033502D01*
X033915Y033434D01*
X033899Y033366D01*
X033879Y033300D01*
X033855Y033234D01*
X033828Y033171D01*
X033798Y033108D01*
X033764Y033048D01*
X033727Y032989D01*
X033686Y032933D01*
X033643Y032879D01*
X033596Y032827D01*
X033547Y032778D01*
X033495Y032732D01*
X033441Y032689D01*
X033441Y006689D02*
X033495Y006646D01*
X033547Y006600D01*
X033596Y006551D01*
X033643Y006499D01*
X033686Y006445D01*
X033727Y006389D01*
X033764Y006330D01*
X033798Y006270D01*
X033828Y006207D01*
X033855Y006144D01*
X033879Y006078D01*
X033899Y006012D01*
X033915Y005944D01*
X033927Y005876D01*
X033935Y005807D01*
X033940Y005738D01*
X033941Y005668D01*
X033938Y005599D01*
X033931Y005530D01*
X033920Y005462D01*
X033906Y005394D01*
X033887Y005327D01*
X033865Y005261D01*
X033840Y005196D01*
X033811Y005133D01*
X033778Y005072D01*
X033742Y005013D01*
X033703Y004956D01*
X033661Y004900D01*
X033616Y004848D01*
X033568Y004798D01*
X033517Y004751D01*
X033463Y004706D01*
X033408Y004665D01*
X033350Y004627D01*
X033290Y004592D01*
X033228Y004560D01*
X033165Y004532D01*
X033100Y004508D01*
X033034Y004487D01*
X032966Y004470D01*
X032898Y004456D01*
X032829Y004447D01*
X032760Y004441D01*
X032691Y004439D01*
X032622Y004441D01*
X032553Y004447D01*
X032484Y004456D01*
X032416Y004470D01*
X032348Y004487D01*
X032282Y004508D01*
X032217Y004532D01*
X032154Y004560D01*
X032092Y004592D01*
X032032Y004627D01*
X031974Y004665D01*
X031919Y004706D01*
X031865Y004751D01*
X031814Y004798D01*
X031766Y004848D01*
X031721Y004900D01*
X031679Y004956D01*
X031640Y005013D01*
X031604Y005072D01*
X031571Y005133D01*
X031542Y005196D01*
X031517Y005261D01*
X031495Y005327D01*
X031476Y005394D01*
X031462Y005462D01*
X031451Y005530D01*
X031444Y005599D01*
X031441Y005668D01*
X031442Y005738D01*
X031447Y005807D01*
X031455Y005876D01*
X031467Y005944D01*
X031483Y006012D01*
X031503Y006078D01*
X031527Y006144D01*
X031554Y006207D01*
X031584Y006270D01*
X031618Y006330D01*
X031655Y006389D01*
X031696Y006445D01*
X031739Y006499D01*
X031786Y006551D01*
X031835Y006600D01*
X031887Y006646D01*
X031941Y006689D01*
D15*
X031531Y006566D02*
X031531Y006266D01*
X031456Y005955D02*
X031230Y005955D01*
X031080Y006105D01*
X031005Y006105D01*
X031230Y005955D02*
X031080Y005805D01*
X031005Y005805D01*
X031155Y005645D02*
X031456Y005645D01*
X031230Y005645D02*
X031230Y005345D01*
X031155Y005345D02*
X031005Y005495D01*
X031155Y005645D01*
X031155Y005345D02*
X031456Y005345D01*
X031456Y005185D02*
X031456Y004885D01*
X031005Y004885D01*
X031005Y004724D02*
X031005Y004424D01*
X031456Y004424D01*
X031456Y004724D01*
X031230Y004574D02*
X031230Y004424D01*
X031230Y004264D02*
X031305Y004189D01*
X031305Y003964D01*
X031305Y004114D02*
X031456Y004264D01*
X031230Y004264D02*
X031080Y004264D01*
X031005Y004189D01*
X031005Y003964D01*
X031456Y003964D01*
X031456Y006726D02*
X031005Y006726D01*
X031456Y006726D02*
X031456Y007026D01*
X031456Y007186D02*
X031456Y007487D01*
X031456Y007647D02*
X031456Y007872D01*
X031381Y007947D01*
X031080Y007947D01*
X031005Y007872D01*
X031005Y007647D01*
X031456Y007647D01*
X031230Y007336D02*
X031230Y007186D01*
X031005Y007186D02*
X031456Y007186D01*
X031005Y007186D02*
X031005Y007487D01*
X031166Y009714D02*
X030715Y009714D01*
X031166Y009714D02*
X031166Y010014D01*
X031091Y010174D02*
X031166Y010249D01*
X031166Y010399D01*
X031091Y010474D01*
X030790Y010474D01*
X030715Y010399D01*
X030715Y010249D01*
X030790Y010174D01*
X031091Y010174D01*
X031091Y010635D02*
X030790Y010635D01*
X030715Y010710D01*
X030715Y010860D01*
X030790Y010935D01*
X030940Y010935D02*
X030940Y010785D01*
X030940Y010935D02*
X031091Y010935D01*
X031166Y010860D01*
X031166Y010710D01*
X031091Y010635D01*
X031091Y011095D02*
X030790Y011095D01*
X030715Y011170D01*
X030715Y011320D01*
X030790Y011395D01*
X031091Y011395D01*
X031166Y011320D01*
X031166Y011170D01*
X031091Y011095D01*
X031091Y011555D02*
X030715Y011555D01*
X030715Y011855D02*
X031091Y011855D01*
X031166Y011780D01*
X031166Y011630D01*
X031091Y011555D01*
X030715Y012016D02*
X030715Y012316D01*
X030715Y012166D02*
X031166Y012166D01*
X023142Y004809D02*
X023142Y004659D01*
X023067Y004584D01*
X022841Y004584D01*
X022841Y004434D02*
X022841Y004884D01*
X023067Y004884D01*
X023142Y004809D01*
X022991Y004584D02*
X023142Y004434D01*
X022681Y004434D02*
X022681Y004884D01*
X022381Y004884D02*
X022381Y004434D01*
X022531Y004584D01*
X022681Y004434D01*
X022221Y004659D02*
X022146Y004584D01*
X021921Y004584D01*
X021921Y004434D02*
X021921Y004884D01*
X022146Y004884D01*
X022221Y004809D01*
X022221Y004659D01*
X021761Y004359D02*
X021460Y004359D01*
X021300Y004509D02*
X021225Y004434D01*
X021000Y004434D01*
X021000Y004884D01*
X021225Y004884D01*
X021300Y004809D01*
X021300Y004509D01*
X020840Y004509D02*
X020765Y004434D01*
X020615Y004434D01*
X020540Y004509D01*
X020540Y004809D01*
X020615Y004884D01*
X020765Y004884D01*
X020840Y004809D01*
X020379Y004434D02*
X020079Y004434D01*
X020079Y004884D01*
X032715Y024714D02*
X033166Y024714D01*
X033166Y025014D01*
X033166Y025174D02*
X032715Y025474D01*
X032715Y025635D02*
X032715Y025935D01*
X032715Y025785D02*
X033166Y025785D01*
X033166Y026095D02*
X033166Y026395D01*
X033166Y026555D02*
X032715Y026555D01*
X033166Y026855D01*
X032715Y026855D01*
X032715Y027016D02*
X032715Y027241D01*
X032790Y027316D01*
X033091Y027316D01*
X033166Y027241D01*
X033166Y027016D01*
X032715Y027016D01*
X032715Y026395D02*
X032715Y026095D01*
X033166Y026095D01*
X032940Y026095D02*
X032940Y026245D01*
X033166Y025474D02*
X032715Y025174D01*
X032715Y025014D02*
X032715Y024714D01*
X032940Y024714D02*
X032940Y024864D01*
X031376Y031781D02*
X030925Y031781D01*
X030925Y032081D02*
X031376Y032081D01*
X031225Y031931D01*
X031376Y031781D01*
X031376Y032241D02*
X031075Y032241D01*
X030925Y032391D01*
X031075Y032541D01*
X031376Y032541D01*
X031376Y032701D02*
X030925Y032701D01*
X030925Y032927D01*
X031000Y033002D01*
X031150Y033002D01*
X031225Y032927D01*
X031225Y032701D01*
X031225Y032852D02*
X031376Y033002D01*
X031376Y033162D02*
X030925Y033162D01*
X031376Y033462D01*
X030925Y033462D01*
X031451Y033622D02*
X031451Y033922D01*
X031376Y034082D02*
X031376Y034383D01*
X031376Y034543D02*
X031376Y034843D01*
X031376Y035003D02*
X031376Y035228D01*
X031301Y035303D01*
X031000Y035303D01*
X030925Y035228D01*
X030925Y035003D01*
X031376Y035003D01*
X031150Y034693D02*
X031150Y034543D01*
X030925Y034543D02*
X030925Y034843D01*
X030925Y034543D02*
X031376Y034543D01*
X031376Y034082D02*
X030925Y034082D01*
X031150Y032541D02*
X031150Y032241D01*
X026055Y033639D02*
X026055Y033939D01*
X025980Y034014D01*
X025755Y034014D01*
X025755Y033564D01*
X025980Y033564D01*
X026055Y033639D01*
X025595Y033639D02*
X025520Y033564D01*
X025370Y033564D01*
X025295Y033639D01*
X025295Y033939D01*
X025370Y034014D01*
X025520Y034014D01*
X025595Y033939D01*
X025135Y033564D02*
X024834Y033564D01*
X024834Y034014D01*
X025455Y036364D02*
X025755Y036364D01*
X025605Y036364D02*
X025605Y036814D01*
X025455Y036664D01*
X019930Y034014D02*
X019930Y033564D01*
X020005Y033789D02*
X019705Y033789D01*
X019930Y034014D01*
X019545Y033564D02*
X019245Y033564D01*
X019395Y033564D02*
X019395Y034014D01*
X019245Y033864D01*
X018065Y028052D02*
X018065Y027752D01*
X018065Y027902D02*
X018516Y027902D01*
X018290Y027442D02*
X018290Y027291D01*
X018065Y027291D02*
X018516Y027291D01*
X018516Y027135D02*
X018516Y026985D01*
X018516Y027060D02*
X018065Y027060D01*
X018065Y026985D02*
X018065Y027135D01*
X018065Y027291D02*
X018065Y027592D01*
X018065Y026824D02*
X018516Y026824D01*
X018290Y026824D02*
X018290Y026524D01*
X018365Y026364D02*
X018441Y026364D01*
X018516Y026289D01*
X018516Y026139D01*
X018441Y026064D01*
X018290Y026139D02*
X018290Y026289D01*
X018365Y026364D01*
X018516Y026524D02*
X018065Y026524D01*
X018140Y026364D02*
X018065Y026289D01*
X018065Y026139D01*
X018140Y026064D01*
X018215Y026064D01*
X018290Y026139D01*
X019766Y026964D02*
X019766Y027039D01*
X020066Y027339D01*
X020066Y027414D01*
X019766Y027414D01*
X020226Y027189D02*
X020526Y027189D01*
X020686Y027189D02*
X020986Y027189D01*
X021147Y027339D02*
X021147Y027039D01*
X021222Y026964D01*
X021372Y026964D01*
X021447Y027039D01*
X021607Y027039D02*
X021682Y026964D01*
X021832Y026964D01*
X021907Y027039D01*
X021907Y027189D01*
X021832Y027264D01*
X021757Y027264D01*
X021607Y027189D01*
X021607Y027414D01*
X021907Y027414D01*
X022067Y027339D02*
X022067Y027264D01*
X022142Y027189D01*
X022368Y027189D01*
X022368Y027339D02*
X022292Y027414D01*
X022142Y027414D01*
X022067Y027339D01*
X022067Y027039D02*
X022142Y026964D01*
X022292Y026964D01*
X022368Y027039D01*
X022368Y027339D01*
X022528Y027414D02*
X022528Y027189D01*
X022678Y027264D01*
X022753Y027264D01*
X022828Y027189D01*
X022828Y027039D01*
X022753Y026964D01*
X022603Y026964D01*
X022528Y027039D01*
X022528Y027414D02*
X022828Y027414D01*
X022988Y027414D02*
X023288Y026964D01*
X023288Y027414D01*
X022988Y027414D02*
X022988Y026964D01*
X021447Y027339D02*
X021372Y027414D01*
X021222Y027414D01*
X021147Y027339D01*
X020986Y027414D02*
X020986Y026964D01*
X020686Y026964D02*
X020686Y027414D01*
X020451Y027414D02*
X020226Y027189D01*
X020451Y026964D02*
X020451Y027414D01*
X012166Y031474D02*
X012166Y031774D01*
X012166Y031624D02*
X011715Y031624D01*
X011865Y031474D01*
X011266Y031564D02*
X011266Y031791D01*
X011266Y031677D02*
X010925Y031677D01*
X011039Y031564D01*
X011715Y032009D02*
X011715Y032159D01*
X011790Y032234D01*
X012091Y031934D01*
X012166Y032009D01*
X012166Y032159D01*
X012091Y032234D01*
X011790Y032234D01*
X011715Y032395D02*
X012166Y032395D01*
X012015Y032395D02*
X011715Y032695D01*
X011940Y032470D02*
X012166Y032695D01*
X012091Y031934D02*
X011790Y031934D01*
X011715Y032009D01*
X011715Y033464D02*
X011715Y033689D01*
X011790Y033764D01*
X011940Y033764D01*
X012015Y033689D01*
X012015Y033464D01*
X012015Y033614D02*
X012166Y033764D01*
X011940Y033924D02*
X011940Y034224D01*
X011715Y034149D02*
X012166Y034149D01*
X011940Y033924D02*
X011715Y034149D01*
X011266Y033834D02*
X011266Y033721D01*
X011209Y033664D01*
X011095Y033777D02*
X011095Y033834D01*
X011152Y033891D01*
X011209Y033891D01*
X011266Y033834D01*
X011095Y033834D02*
X011039Y033891D01*
X010982Y033891D01*
X010925Y033834D01*
X010925Y033721D01*
X010982Y033664D01*
X011715Y033464D02*
X012166Y033464D01*
D16*
X022460Y017509D02*
X022497Y017509D01*
X022644Y017362D01*
X022681Y017362D01*
X022681Y017509D01*
X022460Y017509D02*
X022460Y017362D01*
X022460Y017288D02*
X022460Y017141D01*
X022460Y017067D02*
X022644Y017067D01*
X022681Y017030D01*
X022681Y016956D01*
X022644Y016920D01*
X022460Y016920D01*
X022497Y016846D02*
X022534Y016846D01*
X022570Y016809D01*
X022570Y016699D01*
X022460Y016699D02*
X022460Y016809D01*
X022497Y016846D01*
X022570Y016809D02*
X022607Y016846D01*
X022644Y016846D01*
X022681Y016809D01*
X022681Y016699D01*
X022460Y016699D01*
X022644Y017141D02*
X022681Y017141D01*
X022681Y017288D01*
X022644Y017141D02*
X022497Y017288D01*
X022460Y017288D01*
D17*
X010041Y031599D02*
X010041Y031749D01*
X009391Y031939D02*
X009291Y031839D01*
X009121Y032689D02*
X008971Y032689D01*
X009391Y033389D02*
X009291Y033489D01*
X010041Y033629D02*
X010041Y033779D01*
D18*
X005984Y036295D02*
X005986Y036344D01*
X005992Y036392D01*
X006002Y036440D01*
X006016Y036487D01*
X006033Y036533D01*
X006054Y036577D01*
X006079Y036619D01*
X006107Y036659D01*
X006139Y036697D01*
X006173Y036732D01*
X006210Y036764D01*
X006249Y036793D01*
X006291Y036819D01*
X006335Y036841D01*
X006380Y036859D01*
X006427Y036874D01*
X006474Y036885D01*
X006523Y036892D01*
X006572Y036895D01*
X006621Y036894D01*
X006669Y036889D01*
X006718Y036880D01*
X006765Y036867D01*
X006811Y036850D01*
X006855Y036830D01*
X006898Y036806D01*
X006939Y036779D01*
X006977Y036748D01*
X007013Y036715D01*
X007045Y036679D01*
X007075Y036640D01*
X007102Y036599D01*
X007125Y036555D01*
X007144Y036510D01*
X007160Y036464D01*
X007172Y036417D01*
X007180Y036368D01*
X007184Y036319D01*
X007184Y036271D01*
X007180Y036222D01*
X007172Y036173D01*
X007160Y036126D01*
X007144Y036080D01*
X007125Y036035D01*
X007102Y035991D01*
X007075Y035950D01*
X007045Y035911D01*
X007013Y035875D01*
X006977Y035842D01*
X006939Y035811D01*
X006898Y035784D01*
X006855Y035760D01*
X006811Y035740D01*
X006765Y035723D01*
X006718Y035710D01*
X006669Y035701D01*
X006621Y035696D01*
X006572Y035695D01*
X006523Y035698D01*
X006474Y035705D01*
X006427Y035716D01*
X006380Y035731D01*
X006335Y035749D01*
X006291Y035771D01*
X006249Y035797D01*
X006210Y035826D01*
X006173Y035858D01*
X006139Y035893D01*
X006107Y035931D01*
X006079Y035971D01*
X006054Y036013D01*
X006033Y036057D01*
X006016Y036103D01*
X006002Y036150D01*
X005992Y036198D01*
X005986Y036246D01*
X005984Y036295D01*
X034197Y036295D02*
X034199Y036344D01*
X034205Y036392D01*
X034215Y036440D01*
X034229Y036487D01*
X034246Y036533D01*
X034267Y036577D01*
X034292Y036619D01*
X034320Y036659D01*
X034352Y036697D01*
X034386Y036732D01*
X034423Y036764D01*
X034462Y036793D01*
X034504Y036819D01*
X034548Y036841D01*
X034593Y036859D01*
X034640Y036874D01*
X034687Y036885D01*
X034736Y036892D01*
X034785Y036895D01*
X034834Y036894D01*
X034882Y036889D01*
X034931Y036880D01*
X034978Y036867D01*
X035024Y036850D01*
X035068Y036830D01*
X035111Y036806D01*
X035152Y036779D01*
X035190Y036748D01*
X035226Y036715D01*
X035258Y036679D01*
X035288Y036640D01*
X035315Y036599D01*
X035338Y036555D01*
X035357Y036510D01*
X035373Y036464D01*
X035385Y036417D01*
X035393Y036368D01*
X035397Y036319D01*
X035397Y036271D01*
X035393Y036222D01*
X035385Y036173D01*
X035373Y036126D01*
X035357Y036080D01*
X035338Y036035D01*
X035315Y035991D01*
X035288Y035950D01*
X035258Y035911D01*
X035226Y035875D01*
X035190Y035842D01*
X035152Y035811D01*
X035111Y035784D01*
X035068Y035760D01*
X035024Y035740D01*
X034978Y035723D01*
X034931Y035710D01*
X034882Y035701D01*
X034834Y035696D01*
X034785Y035695D01*
X034736Y035698D01*
X034687Y035705D01*
X034640Y035716D01*
X034593Y035731D01*
X034548Y035749D01*
X034504Y035771D01*
X034462Y035797D01*
X034423Y035826D01*
X034386Y035858D01*
X034352Y035893D01*
X034320Y035931D01*
X034292Y035971D01*
X034267Y036013D01*
X034246Y036057D01*
X034229Y036103D01*
X034215Y036150D01*
X034205Y036198D01*
X034199Y036246D01*
X034197Y036295D01*
X034197Y004083D02*
X034199Y004132D01*
X034205Y004180D01*
X034215Y004228D01*
X034229Y004275D01*
X034246Y004321D01*
X034267Y004365D01*
X034292Y004407D01*
X034320Y004447D01*
X034352Y004485D01*
X034386Y004520D01*
X034423Y004552D01*
X034462Y004581D01*
X034504Y004607D01*
X034548Y004629D01*
X034593Y004647D01*
X034640Y004662D01*
X034687Y004673D01*
X034736Y004680D01*
X034785Y004683D01*
X034834Y004682D01*
X034882Y004677D01*
X034931Y004668D01*
X034978Y004655D01*
X035024Y004638D01*
X035068Y004618D01*
X035111Y004594D01*
X035152Y004567D01*
X035190Y004536D01*
X035226Y004503D01*
X035258Y004467D01*
X035288Y004428D01*
X035315Y004387D01*
X035338Y004343D01*
X035357Y004298D01*
X035373Y004252D01*
X035385Y004205D01*
X035393Y004156D01*
X035397Y004107D01*
X035397Y004059D01*
X035393Y004010D01*
X035385Y003961D01*
X035373Y003914D01*
X035357Y003868D01*
X035338Y003823D01*
X035315Y003779D01*
X035288Y003738D01*
X035258Y003699D01*
X035226Y003663D01*
X035190Y003630D01*
X035152Y003599D01*
X035111Y003572D01*
X035068Y003548D01*
X035024Y003528D01*
X034978Y003511D01*
X034931Y003498D01*
X034882Y003489D01*
X034834Y003484D01*
X034785Y003483D01*
X034736Y003486D01*
X034687Y003493D01*
X034640Y003504D01*
X034593Y003519D01*
X034548Y003537D01*
X034504Y003559D01*
X034462Y003585D01*
X034423Y003614D01*
X034386Y003646D01*
X034352Y003681D01*
X034320Y003719D01*
X034292Y003759D01*
X034267Y003801D01*
X034246Y003845D01*
X034229Y003891D01*
X034215Y003938D01*
X034205Y003986D01*
X034199Y004034D01*
X034197Y004083D01*
X005984Y004083D02*
X005986Y004132D01*
X005992Y004180D01*
X006002Y004228D01*
X006016Y004275D01*
X006033Y004321D01*
X006054Y004365D01*
X006079Y004407D01*
X006107Y004447D01*
X006139Y004485D01*
X006173Y004520D01*
X006210Y004552D01*
X006249Y004581D01*
X006291Y004607D01*
X006335Y004629D01*
X006380Y004647D01*
X006427Y004662D01*
X006474Y004673D01*
X006523Y004680D01*
X006572Y004683D01*
X006621Y004682D01*
X006669Y004677D01*
X006718Y004668D01*
X006765Y004655D01*
X006811Y004638D01*
X006855Y004618D01*
X006898Y004594D01*
X006939Y004567D01*
X006977Y004536D01*
X007013Y004503D01*
X007045Y004467D01*
X007075Y004428D01*
X007102Y004387D01*
X007125Y004343D01*
X007144Y004298D01*
X007160Y004252D01*
X007172Y004205D01*
X007180Y004156D01*
X007184Y004107D01*
X007184Y004059D01*
X007180Y004010D01*
X007172Y003961D01*
X007160Y003914D01*
X007144Y003868D01*
X007125Y003823D01*
X007102Y003779D01*
X007075Y003738D01*
X007045Y003699D01*
X007013Y003663D01*
X006977Y003630D01*
X006939Y003599D01*
X006898Y003572D01*
X006855Y003548D01*
X006811Y003528D01*
X006765Y003511D01*
X006718Y003498D01*
X006669Y003489D01*
X006621Y003484D01*
X006572Y003483D01*
X006523Y003486D01*
X006474Y003493D01*
X006427Y003504D01*
X006380Y003519D01*
X006335Y003537D01*
X006291Y003559D01*
X006249Y003585D01*
X006210Y003614D01*
X006173Y003646D01*
X006139Y003681D01*
X006107Y003719D01*
X006079Y003759D01*
X006054Y003801D01*
X006033Y003845D01*
X006016Y003891D01*
X006002Y003938D01*
X005992Y003986D01*
X005986Y004034D01*
X005984Y004083D01*
M02*
