G75*
G70*
%OFA0B0*%
%FSLAX24Y24*%
%IPPOS*%
%LPD*%
%AMOC8*
5,1,8,0,0,1.08239X$1,22.5*
%
%ADD10C,0.0160*%
%ADD11C,0.0740*%
%ADD12R,0.0800X0.0800*%
%ADD13C,0.0800*%
%ADD14OC8,0.0560*%
%ADD15C,0.0594*%
%ADD16C,0.0560*%
%ADD17OC8,0.0640*%
%ADD18C,0.0000*%
%ADD19C,0.0100*%
%ADD20C,0.0120*%
D10*
X005191Y002689D02*
X036191Y002689D01*
X036191Y037689D01*
X005191Y037689D01*
X005191Y002689D01*
X005451Y002949D02*
X005451Y037429D01*
X035931Y037429D01*
X035931Y002949D01*
X005451Y002949D01*
X005451Y003055D02*
X020417Y003055D01*
X020455Y003039D02*
X020714Y003039D01*
X020952Y003138D01*
X021084Y003270D01*
X021216Y003138D01*
X021455Y003039D01*
X021714Y003039D01*
X021952Y003138D01*
X022084Y003270D01*
X022216Y003138D01*
X022455Y003039D01*
X022714Y003039D01*
X022952Y003138D01*
X023084Y003270D01*
X023216Y003138D01*
X023455Y003039D01*
X023714Y003039D01*
X023952Y003138D01*
X024084Y003270D01*
X024216Y003138D01*
X024455Y003039D01*
X024714Y003039D01*
X024952Y003138D01*
X025135Y003321D01*
X025234Y003559D01*
X025234Y003818D01*
X025135Y004057D01*
X024952Y004240D01*
X024714Y004339D01*
X024455Y004339D01*
X024216Y004240D01*
X024084Y004108D01*
X023952Y004240D01*
X023714Y004339D01*
X023455Y004339D01*
X023216Y004240D01*
X023084Y004108D01*
X022952Y004240D01*
X022714Y004339D01*
X022455Y004339D01*
X022216Y004240D01*
X022084Y004108D01*
X021952Y004240D01*
X021714Y004339D01*
X021455Y004339D01*
X021216Y004240D01*
X021084Y004108D01*
X020952Y004240D01*
X020714Y004339D01*
X020455Y004339D01*
X020216Y004240D01*
X020033Y004057D01*
X019934Y003818D01*
X019934Y003559D01*
X020033Y003321D01*
X020216Y003138D01*
X020455Y003039D01*
X020752Y003055D02*
X021417Y003055D01*
X021141Y003213D02*
X021028Y003213D01*
X021752Y003055D02*
X022417Y003055D01*
X022141Y003213D02*
X022028Y003213D01*
X022752Y003055D02*
X023417Y003055D01*
X023141Y003213D02*
X023028Y003213D01*
X023752Y003055D02*
X024417Y003055D01*
X024141Y003213D02*
X024028Y003213D01*
X024752Y003055D02*
X035931Y003055D01*
X035931Y003213D02*
X025028Y003213D01*
X025156Y003372D02*
X034306Y003372D01*
X034315Y003362D02*
X034315Y003362D01*
X034076Y003601D01*
X034076Y003601D01*
X033947Y003913D01*
X033947Y003913D01*
X033947Y004252D01*
X033947Y004252D01*
X034076Y004564D01*
X034076Y004564D01*
X034315Y004803D01*
X034315Y004803D01*
X034628Y004932D01*
X034628Y004932D01*
X034747Y004932D01*
X034747Y004932D01*
X034795Y004932D01*
X034797Y004932D01*
X034847Y004932D01*
X034847Y004932D01*
X034966Y004932D01*
X034966Y004932D01*
X035278Y004803D01*
X035278Y004803D01*
X035278Y004803D01*
X035517Y004564D01*
X035517Y004564D01*
X035647Y004252D01*
X035647Y003913D01*
X035517Y003601D01*
X035278Y003362D01*
X035278Y003362D01*
X034966Y003233D01*
X034966Y003233D01*
X034847Y003233D01*
X034847Y003233D01*
X034814Y003233D01*
X034797Y003233D01*
X034747Y003233D01*
X034747Y003233D01*
X034628Y003233D01*
X034628Y003233D01*
X034315Y003362D01*
X034147Y003530D02*
X025222Y003530D01*
X025234Y003689D02*
X034040Y003689D01*
X033974Y003847D02*
X025222Y003847D01*
X025156Y004006D02*
X033947Y004006D01*
X033947Y004164D02*
X025028Y004164D01*
X024752Y004323D02*
X033976Y004323D01*
X034042Y004482D02*
X007339Y004482D01*
X007305Y004564D02*
X007434Y004252D01*
X007434Y004252D01*
X007434Y003913D01*
X007434Y003913D01*
X007305Y003601D01*
X007305Y003601D01*
X007066Y003362D01*
X007066Y003362D01*
X006753Y003233D01*
X006753Y003233D01*
X006634Y003233D01*
X006634Y003233D01*
X006604Y003233D01*
X006584Y003233D01*
X006535Y003233D01*
X006535Y003233D01*
X006415Y003233D01*
X006415Y003233D01*
X006103Y003362D01*
X006103Y003362D01*
X005864Y003601D01*
X005734Y003913D01*
X005734Y003913D01*
X005734Y004252D01*
X005734Y004252D01*
X005864Y004564D01*
X005864Y004564D01*
X006103Y004803D01*
X006103Y004803D01*
X006415Y004932D01*
X006415Y004932D01*
X006535Y004932D01*
X006535Y004932D01*
X006584Y004932D01*
X006584Y004932D01*
X006634Y004932D01*
X006634Y004932D01*
X006753Y004932D01*
X006753Y004932D01*
X007066Y004803D01*
X007066Y004803D01*
X007305Y004564D01*
X007305Y004564D01*
X007229Y004640D02*
X032447Y004640D01*
X032459Y004629D02*
X032922Y004629D01*
X033251Y004957D01*
X035931Y004957D01*
X035931Y004799D02*
X035283Y004799D01*
X035441Y004640D02*
X035931Y004640D01*
X035931Y004482D02*
X035552Y004482D01*
X035617Y004323D02*
X035931Y004323D01*
X035931Y004164D02*
X035647Y004164D01*
X035647Y004006D02*
X035931Y004006D01*
X035931Y003847D02*
X035619Y003847D01*
X035554Y003689D02*
X035931Y003689D01*
X035931Y003530D02*
X035447Y003530D01*
X035288Y003372D02*
X035931Y003372D01*
X035931Y005116D02*
X033251Y005116D01*
X033251Y005274D02*
X035931Y005274D01*
X035931Y005433D02*
X033238Y005433D01*
X033251Y005421D02*
X032982Y005689D01*
X033251Y005957D01*
X033251Y006421D01*
X032922Y006749D01*
X032459Y006749D01*
X032131Y006421D01*
X032131Y006159D01*
X031436Y006853D01*
X031355Y006935D01*
X031248Y006979D01*
X026811Y006979D01*
X024855Y008935D01*
X024748Y008979D01*
X024633Y008979D01*
X007871Y008979D01*
X007871Y009144D01*
X007828Y009247D01*
X007749Y009326D01*
X007646Y009369D01*
X006735Y009369D01*
X006632Y009326D01*
X006553Y009247D01*
X006511Y009144D01*
X006511Y008233D01*
X006553Y008130D01*
X006632Y008051D01*
X006735Y008009D01*
X007646Y008009D01*
X007749Y008051D01*
X007828Y008130D01*
X007871Y008233D01*
X007871Y008399D01*
X024570Y008399D01*
X026445Y006525D01*
X026526Y006443D01*
X026633Y006399D01*
X031070Y006399D01*
X032131Y005339D01*
X032131Y004957D01*
X005451Y004957D01*
X005451Y004799D02*
X006098Y004799D01*
X005940Y004640D02*
X005451Y004640D01*
X005451Y004482D02*
X005830Y004482D01*
X005764Y004323D02*
X005451Y004323D01*
X005451Y004164D02*
X005734Y004164D01*
X005734Y004006D02*
X005451Y004006D01*
X005451Y003847D02*
X005762Y003847D01*
X005827Y003689D02*
X005451Y003689D01*
X005451Y003530D02*
X005934Y003530D01*
X006093Y003372D02*
X005451Y003372D01*
X005451Y003213D02*
X020141Y003213D01*
X020012Y003372D02*
X007075Y003372D01*
X007234Y003530D02*
X019946Y003530D01*
X019934Y003689D02*
X007341Y003689D01*
X007407Y003847D02*
X019946Y003847D01*
X020012Y004006D02*
X007434Y004006D01*
X007434Y004164D02*
X020141Y004164D01*
X020417Y004323D02*
X007405Y004323D01*
X007070Y004799D02*
X032289Y004799D01*
X032131Y004957D02*
X032459Y004629D01*
X032934Y004640D02*
X034152Y004640D01*
X034311Y004799D02*
X033092Y004799D01*
X033251Y004957D02*
X033251Y005421D01*
X033080Y005591D02*
X035931Y005591D01*
X035931Y005750D02*
X033044Y005750D01*
X033202Y005908D02*
X035931Y005908D01*
X035931Y006067D02*
X033251Y006067D01*
X033251Y006226D02*
X035931Y006226D01*
X035931Y006384D02*
X033251Y006384D01*
X033129Y006543D02*
X035931Y006543D01*
X035931Y006701D02*
X032970Y006701D01*
X032411Y006701D02*
X031588Y006701D01*
X031430Y006860D02*
X035931Y006860D01*
X035931Y007018D02*
X026771Y007018D01*
X026613Y007177D02*
X035931Y007177D01*
X035931Y007335D02*
X026454Y007335D01*
X026296Y007494D02*
X035931Y007494D01*
X035931Y007652D02*
X026137Y007652D01*
X025979Y007811D02*
X035931Y007811D01*
X035931Y007969D02*
X025820Y007969D01*
X025661Y008128D02*
X035931Y008128D01*
X035931Y008287D02*
X025503Y008287D01*
X025344Y008445D02*
X035931Y008445D01*
X035931Y008604D02*
X025186Y008604D01*
X025027Y008762D02*
X031663Y008762D01*
X031671Y008759D02*
X031930Y008759D01*
X032169Y008858D01*
X032352Y009041D01*
X032451Y009279D01*
X032451Y009538D01*
X032352Y009777D01*
X032169Y009960D01*
X031930Y010059D01*
X031671Y010059D01*
X031432Y009960D01*
X031249Y009777D01*
X031151Y009538D01*
X031151Y009279D01*
X031249Y009041D01*
X031432Y008858D01*
X031671Y008759D01*
X031938Y008762D02*
X033443Y008762D01*
X033451Y008759D02*
X033710Y008759D01*
X033949Y008858D01*
X034132Y009041D01*
X034231Y009279D01*
X034231Y009538D01*
X034132Y009777D01*
X033949Y009960D01*
X033710Y010059D01*
X033451Y010059D01*
X033212Y009960D01*
X033029Y009777D01*
X032931Y009538D01*
X032931Y009279D01*
X033029Y009041D01*
X033212Y008858D01*
X033451Y008759D01*
X033718Y008762D02*
X035931Y008762D01*
X035931Y008921D02*
X034012Y008921D01*
X034148Y009079D02*
X035931Y009079D01*
X035931Y009238D02*
X034213Y009238D01*
X034231Y009396D02*
X035931Y009396D01*
X035931Y009555D02*
X034224Y009555D01*
X034158Y009713D02*
X035931Y009713D01*
X035931Y009872D02*
X034037Y009872D01*
X033778Y010031D02*
X035931Y010031D01*
X035931Y010189D02*
X030109Y010189D01*
X030059Y010240D02*
X030242Y010057D01*
X030341Y009818D01*
X030341Y009559D01*
X030242Y009321D01*
X030059Y009138D01*
X029820Y009039D01*
X029561Y009039D01*
X029322Y009138D01*
X029139Y009321D01*
X029041Y009559D01*
X029041Y009818D01*
X029139Y010057D01*
X029322Y010240D01*
X029561Y010339D01*
X029820Y010339D01*
X030059Y010240D01*
X030253Y010031D02*
X031603Y010031D01*
X031344Y009872D02*
X030318Y009872D01*
X030341Y009713D02*
X031223Y009713D01*
X031158Y009555D02*
X030339Y009555D01*
X030273Y009396D02*
X031151Y009396D01*
X031168Y009238D02*
X030159Y009238D01*
X029918Y009079D02*
X031233Y009079D01*
X031369Y008921D02*
X024869Y008921D01*
X024683Y008287D02*
X007871Y008287D01*
X007826Y008128D02*
X024841Y008128D01*
X025000Y007969D02*
X005451Y007969D01*
X005451Y007811D02*
X006895Y007811D01*
X006887Y007807D02*
X006813Y007753D01*
X006748Y007689D01*
X006694Y007615D01*
X006653Y007534D01*
X006625Y007447D01*
X006611Y007356D01*
X006611Y007349D01*
X007152Y007349D01*
X007152Y007273D01*
X006611Y007273D01*
X006611Y007265D01*
X006625Y007175D01*
X006653Y007088D01*
X006694Y007007D01*
X006748Y006933D01*
X006813Y006868D01*
X006887Y006815D01*
X006968Y006773D01*
X007055Y006745D01*
X007145Y006731D01*
X007152Y006731D01*
X007152Y007272D01*
X007229Y007272D01*
X007229Y006731D01*
X007236Y006731D01*
X007326Y006745D01*
X007413Y006773D01*
X007495Y006815D01*
X007568Y006868D01*
X007633Y006933D01*
X007687Y007007D01*
X007728Y007088D01*
X007756Y007175D01*
X007771Y007265D01*
X007771Y007273D01*
X007229Y007273D01*
X007229Y007349D01*
X007771Y007349D01*
X007771Y007356D01*
X007756Y007447D01*
X007728Y007534D01*
X007687Y007615D01*
X007633Y007689D01*
X007568Y007753D01*
X007495Y007807D01*
X007413Y007848D01*
X007326Y007877D01*
X007236Y007891D01*
X007229Y007891D01*
X007229Y007349D01*
X007152Y007349D01*
X007152Y007891D01*
X007145Y007891D01*
X007055Y007877D01*
X006968Y007848D01*
X006887Y007807D01*
X006722Y007652D02*
X005451Y007652D01*
X005451Y007494D02*
X006640Y007494D01*
X006625Y007177D02*
X005451Y007177D01*
X005451Y007335D02*
X007152Y007335D01*
X007229Y007335D02*
X025634Y007335D01*
X025792Y007177D02*
X007756Y007177D01*
X007692Y007018D02*
X025951Y007018D01*
X026110Y006860D02*
X007556Y006860D01*
X007229Y006860D02*
X007152Y006860D01*
X007152Y007018D02*
X007229Y007018D01*
X007229Y007177D02*
X007152Y007177D01*
X007152Y007494D02*
X007229Y007494D01*
X007229Y007652D02*
X007152Y007652D01*
X007152Y007811D02*
X007229Y007811D01*
X007487Y007811D02*
X025158Y007811D01*
X025317Y007652D02*
X007659Y007652D01*
X007741Y007494D02*
X025475Y007494D01*
X026268Y006701D02*
X021097Y006701D01*
X021059Y006740D02*
X020820Y006839D01*
X020561Y006839D01*
X020322Y006740D01*
X020139Y006557D01*
X020041Y006318D01*
X020041Y006059D01*
X020139Y005821D01*
X020322Y005638D01*
X020561Y005539D01*
X020820Y005539D01*
X021059Y005638D01*
X021242Y005821D01*
X021341Y006059D01*
X021341Y006318D01*
X021242Y006557D01*
X021059Y006740D01*
X021248Y006543D02*
X026427Y006543D01*
X026647Y009139D02*
X026682Y009139D01*
X026682Y009680D01*
X026699Y009680D01*
X026699Y009139D01*
X026734Y009139D01*
X026819Y009152D01*
X026902Y009179D01*
X026979Y009218D01*
X027049Y009269D01*
X027110Y009331D01*
X027161Y009401D01*
X027200Y009478D01*
X027227Y009560D01*
X027241Y009646D01*
X027241Y009680D01*
X026699Y009680D01*
X026699Y009697D01*
X027241Y009697D01*
X027241Y009732D01*
X027227Y009818D01*
X027200Y009900D01*
X027161Y009977D01*
X027110Y010047D01*
X027049Y010108D01*
X026979Y010159D01*
X026902Y010199D01*
X026819Y010225D01*
X026734Y010239D01*
X026699Y010239D01*
X026699Y009698D01*
X026682Y009698D01*
X026682Y010239D01*
X026647Y010239D01*
X026562Y010225D01*
X026479Y010199D01*
X026402Y010159D01*
X026332Y010108D01*
X026271Y010047D01*
X026220Y009977D01*
X026181Y009900D01*
X026154Y009818D01*
X026141Y009732D01*
X026141Y009697D01*
X026682Y009697D01*
X026682Y009680D01*
X026141Y009680D01*
X026141Y009646D01*
X026154Y009560D01*
X026181Y009478D01*
X026220Y009401D01*
X026271Y009331D01*
X026332Y009269D01*
X026402Y009218D01*
X026479Y009179D01*
X026562Y009152D01*
X026647Y009139D01*
X026682Y009238D02*
X026699Y009238D01*
X026682Y009396D02*
X026699Y009396D01*
X026682Y009555D02*
X026699Y009555D01*
X026682Y009713D02*
X026699Y009713D01*
X026682Y009872D02*
X026699Y009872D01*
X026682Y010031D02*
X026699Y010031D01*
X026682Y010189D02*
X026699Y010189D01*
X026920Y010189D02*
X029272Y010189D01*
X029129Y010031D02*
X027122Y010031D01*
X027209Y009872D02*
X029063Y009872D01*
X029041Y009713D02*
X027241Y009713D01*
X027225Y009555D02*
X029042Y009555D01*
X029108Y009396D02*
X027158Y009396D01*
X027005Y009238D02*
X029222Y009238D01*
X029463Y009079D02*
X010918Y009079D01*
X010820Y009039D02*
X011059Y009138D01*
X011242Y009321D01*
X011341Y009559D01*
X011341Y009818D01*
X011242Y010057D01*
X011110Y010189D01*
X026461Y010189D01*
X026259Y010031D02*
X011253Y010031D01*
X011318Y009872D02*
X026172Y009872D01*
X026141Y009713D02*
X011341Y009713D01*
X011339Y009555D02*
X026156Y009555D01*
X026223Y009396D02*
X011273Y009396D01*
X011159Y009238D02*
X026376Y009238D01*
X023757Y012469D02*
X016856Y015919D01*
X016849Y015926D01*
X016807Y015944D01*
X016766Y015964D01*
X016756Y015965D01*
X016746Y015969D01*
X016700Y015969D01*
X016655Y015972D01*
X016645Y015969D01*
X011278Y015969D01*
X011242Y016057D01*
X011110Y016189D01*
X011242Y016321D01*
X011278Y016409D01*
X021246Y016409D01*
X021349Y016451D01*
X021428Y016530D01*
X023373Y018475D01*
X023576Y018391D01*
X023805Y018391D01*
X024017Y018479D01*
X024180Y018641D01*
X024268Y018854D01*
X024268Y019083D01*
X024180Y019295D01*
X024017Y019458D01*
X023805Y019545D01*
X023576Y019545D01*
X023364Y019458D01*
X023201Y019295D01*
X023113Y019083D01*
X023113Y019008D01*
X021075Y016969D01*
X011278Y016969D01*
X011242Y017057D01*
X011059Y017240D01*
X010820Y017339D01*
X010561Y017339D01*
X010322Y017240D01*
X010139Y017057D01*
X010041Y016818D01*
X010041Y016559D01*
X010139Y016321D01*
X010271Y016189D01*
X010139Y016057D01*
X010041Y015818D01*
X010041Y015559D01*
X010139Y015321D01*
X010271Y015189D01*
X010139Y015057D01*
X010041Y014818D01*
X010041Y014559D01*
X010139Y014321D01*
X010271Y014189D01*
X010139Y014057D01*
X010041Y013818D01*
X010041Y013559D01*
X010139Y013321D01*
X010271Y013189D01*
X010139Y013057D01*
X010041Y012818D01*
X010041Y012559D01*
X010139Y012321D01*
X010271Y012189D01*
X010139Y012057D01*
X010041Y011818D01*
X010041Y011559D01*
X010139Y011321D01*
X010271Y011189D01*
X010139Y011057D01*
X010041Y010818D01*
X010041Y010559D01*
X010139Y010321D01*
X010271Y010189D01*
X005451Y010189D01*
X005451Y010031D02*
X010129Y010031D01*
X010139Y010057D02*
X010041Y009818D01*
X010041Y009559D01*
X010139Y009321D01*
X010322Y009138D01*
X010561Y009039D01*
X010820Y009039D01*
X010463Y009079D02*
X007871Y009079D01*
X007832Y009238D02*
X010222Y009238D01*
X010108Y009396D02*
X005451Y009396D01*
X005451Y009238D02*
X006549Y009238D01*
X006511Y009079D02*
X005451Y009079D01*
X005451Y008921D02*
X006511Y008921D01*
X006511Y008762D02*
X005451Y008762D01*
X005451Y008604D02*
X006511Y008604D01*
X006511Y008445D02*
X005451Y008445D01*
X005451Y008287D02*
X006511Y008287D01*
X006555Y008128D02*
X005451Y008128D01*
X005451Y007018D02*
X006689Y007018D01*
X006825Y006860D02*
X005451Y006860D01*
X005451Y006701D02*
X017488Y006701D01*
X017479Y006699D02*
X017402Y006659D01*
X017332Y006608D01*
X017271Y006547D01*
X017220Y006477D01*
X017181Y006400D01*
X017154Y006318D01*
X017141Y006232D01*
X017141Y006197D01*
X017682Y006197D01*
X017682Y006180D01*
X017699Y006180D01*
X017699Y005639D01*
X017734Y005639D01*
X017819Y005652D01*
X017902Y005679D01*
X017979Y005718D01*
X018049Y005769D01*
X018110Y005831D01*
X018161Y005901D01*
X018200Y005978D01*
X018227Y006060D01*
X018241Y006146D01*
X018241Y006180D01*
X017699Y006180D01*
X017699Y006197D01*
X018241Y006197D01*
X018241Y006232D01*
X018227Y006318D01*
X018200Y006400D01*
X018161Y006477D01*
X018110Y006547D01*
X018049Y006608D01*
X017979Y006659D01*
X017902Y006699D01*
X017819Y006725D01*
X017734Y006739D01*
X017699Y006739D01*
X017699Y006198D01*
X017682Y006198D01*
X017682Y006739D01*
X017647Y006739D01*
X017562Y006725D01*
X017479Y006699D01*
X017682Y006701D02*
X017699Y006701D01*
X017682Y006543D02*
X017699Y006543D01*
X017682Y006384D02*
X017699Y006384D01*
X017682Y006226D02*
X017699Y006226D01*
X017682Y006180D02*
X017141Y006180D01*
X017141Y006146D01*
X017154Y006060D01*
X017181Y005978D01*
X017220Y005901D01*
X017271Y005831D01*
X017332Y005769D01*
X017402Y005718D01*
X017479Y005679D01*
X017562Y005652D01*
X017647Y005639D01*
X017682Y005639D01*
X017682Y006180D01*
X017682Y006067D02*
X017699Y006067D01*
X017682Y005908D02*
X017699Y005908D01*
X017682Y005750D02*
X017699Y005750D01*
X018022Y005750D02*
X020210Y005750D01*
X020103Y005908D02*
X018165Y005908D01*
X018228Y006067D02*
X020041Y006067D01*
X020041Y006226D02*
X018241Y006226D01*
X018205Y006384D02*
X020068Y006384D01*
X020134Y006543D02*
X018113Y006543D01*
X017894Y006701D02*
X020284Y006701D01*
X021171Y005750D02*
X031719Y005750D01*
X031561Y005908D02*
X021278Y005908D01*
X021341Y006067D02*
X031402Y006067D01*
X031244Y006226D02*
X021341Y006226D01*
X021313Y006384D02*
X031085Y006384D01*
X031747Y006543D02*
X032252Y006543D01*
X032131Y006384D02*
X031905Y006384D01*
X032064Y006226D02*
X032131Y006226D01*
X031878Y005591D02*
X020947Y005591D01*
X020434Y005591D02*
X005451Y005591D01*
X005451Y005433D02*
X032036Y005433D01*
X032131Y005274D02*
X005451Y005274D01*
X005451Y005116D02*
X032131Y005116D01*
X032232Y008921D02*
X033149Y008921D01*
X033013Y009079D02*
X032368Y009079D01*
X032433Y009238D02*
X032948Y009238D01*
X032931Y009396D02*
X032451Y009396D01*
X032444Y009555D02*
X032938Y009555D01*
X033003Y009713D02*
X032378Y009713D01*
X032257Y009872D02*
X033124Y009872D01*
X033383Y010031D02*
X031998Y010031D01*
X031930Y011319D02*
X031671Y011319D01*
X031454Y011409D01*
X011806Y011409D01*
X011304Y010906D01*
X011341Y010818D01*
X011341Y010559D01*
X011242Y010321D01*
X011110Y010189D01*
X011253Y010348D02*
X035931Y010348D01*
X035931Y010506D02*
X011318Y010506D01*
X011341Y010665D02*
X035931Y010665D01*
X035931Y010823D02*
X011338Y010823D01*
X011379Y010982D02*
X035931Y010982D01*
X035931Y011140D02*
X011538Y011140D01*
X011697Y011299D02*
X035931Y011299D01*
X035931Y011457D02*
X033988Y011457D01*
X033949Y011418D02*
X034132Y011601D01*
X034231Y011839D01*
X034231Y012098D01*
X034132Y012337D01*
X033971Y012498D01*
X033971Y020133D01*
X033971Y020244D01*
X033928Y020347D01*
X030304Y023971D01*
X030341Y024059D01*
X030341Y024318D01*
X030242Y024557D01*
X030110Y024689D01*
X030242Y024821D01*
X030341Y025059D01*
X030341Y025318D01*
X030242Y025557D01*
X030059Y025740D01*
X029971Y025776D01*
X029971Y026070D01*
X031169Y027235D01*
X031249Y027041D01*
X031432Y026858D01*
X031671Y026759D01*
X031930Y026759D01*
X032169Y026858D01*
X032352Y027041D01*
X032451Y027279D01*
X032451Y027538D01*
X032352Y027777D01*
X032169Y027960D01*
X031991Y028034D01*
X033355Y029359D01*
X033451Y029319D01*
X033710Y029319D01*
X033949Y029418D01*
X034132Y029601D01*
X034231Y029839D01*
X034231Y030098D01*
X034132Y030337D01*
X033949Y030520D01*
X033710Y030619D01*
X033451Y030619D01*
X033212Y030520D01*
X033029Y030337D01*
X032931Y030098D01*
X032931Y029839D01*
X032964Y029760D01*
X029534Y026427D01*
X029532Y026426D01*
X029494Y026389D01*
X029455Y026351D01*
X029455Y026349D01*
X029453Y026347D01*
X029433Y026298D01*
X029411Y026249D01*
X029411Y026246D01*
X029411Y026244D01*
X029411Y026191D01*
X029410Y026137D01*
X029411Y026135D01*
X029411Y025776D01*
X029322Y025740D01*
X029139Y025557D01*
X029041Y025318D01*
X029041Y025059D01*
X029139Y024821D01*
X029271Y024689D01*
X029139Y024557D01*
X029041Y024318D01*
X029041Y024059D01*
X029139Y023821D01*
X029271Y023689D01*
X029139Y023557D01*
X029041Y023318D01*
X029041Y023059D01*
X029139Y022821D01*
X029271Y022689D01*
X029139Y022557D01*
X029041Y022318D01*
X029041Y022059D01*
X029139Y021821D01*
X029271Y021689D01*
X029139Y021557D01*
X029041Y021318D01*
X029041Y021059D01*
X029139Y020821D01*
X029271Y020689D01*
X029139Y020557D01*
X029041Y020318D01*
X029041Y020059D01*
X029070Y019987D01*
X028471Y020347D01*
X028471Y029573D01*
X030041Y031143D01*
X030041Y031059D01*
X030139Y030821D01*
X030322Y030638D01*
X030561Y030539D01*
X030820Y030539D01*
X031059Y030638D01*
X031242Y030821D01*
X031341Y031059D01*
X031341Y031318D01*
X031242Y031557D01*
X031059Y031740D01*
X030820Y031839D01*
X030736Y031839D01*
X032131Y033233D01*
X032131Y032957D01*
X032459Y032629D01*
X032922Y032629D01*
X033251Y032957D01*
X033251Y033421D01*
X032982Y033689D01*
X033251Y033957D01*
X033251Y034421D01*
X032922Y034749D01*
X032459Y034749D01*
X032131Y034421D01*
X032131Y034025D01*
X028032Y029926D01*
X027953Y029847D01*
X027911Y029744D01*
X027911Y020210D01*
X027905Y020175D01*
X027911Y020154D01*
X027911Y020133D01*
X027924Y020101D01*
X027932Y020067D01*
X027945Y020050D01*
X027953Y020030D01*
X027978Y020006D01*
X027999Y019977D01*
X028017Y019966D01*
X028032Y019951D01*
X028064Y019938D01*
X030411Y018530D01*
X030411Y012805D01*
X030075Y012469D01*
X023757Y012469D01*
X023560Y012567D02*
X029493Y012567D01*
X029561Y012539D02*
X029820Y012539D01*
X030059Y012638D01*
X030242Y012821D01*
X030341Y013059D01*
X030341Y013318D01*
X030242Y013557D01*
X030110Y013689D01*
X030242Y013821D01*
X030341Y014059D01*
X030341Y014318D01*
X030242Y014557D01*
X030110Y014689D01*
X030242Y014821D01*
X030341Y015059D01*
X030341Y015318D01*
X030242Y015557D01*
X030059Y015740D01*
X030027Y015753D01*
X030049Y015769D01*
X030110Y015831D01*
X030161Y015901D01*
X030200Y015978D01*
X030227Y016060D01*
X030241Y016146D01*
X030241Y016169D01*
X029711Y016169D01*
X029711Y016209D01*
X030241Y016209D01*
X030241Y016232D01*
X030227Y016318D01*
X030200Y016400D01*
X030161Y016477D01*
X030110Y016547D01*
X030049Y016608D01*
X030027Y016624D01*
X030059Y016638D01*
X030242Y016821D01*
X030341Y017059D01*
X030341Y017318D01*
X030242Y017557D01*
X030110Y017689D01*
X030242Y017821D01*
X030341Y018059D01*
X030341Y018318D01*
X030242Y018557D01*
X030059Y018740D01*
X029820Y018839D01*
X029561Y018839D01*
X029322Y018740D01*
X029139Y018557D01*
X029041Y018318D01*
X029041Y018235D01*
X023849Y023426D01*
X023746Y023469D01*
X023635Y023469D01*
X017306Y023469D01*
X012349Y028426D01*
X012246Y028469D01*
X012135Y028469D01*
X007861Y028469D01*
X007767Y028696D01*
X007576Y028887D01*
X007326Y028991D01*
X007055Y028991D01*
X006805Y028887D01*
X006614Y028696D01*
X006511Y028446D01*
X006511Y028176D01*
X006614Y027926D01*
X006805Y027734D01*
X007055Y027631D01*
X007326Y027631D01*
X007576Y027734D01*
X007750Y027909D01*
X012075Y027909D01*
X016953Y023030D01*
X017032Y022951D01*
X017135Y022909D01*
X023575Y022909D01*
X029077Y017406D01*
X029041Y017318D01*
X029041Y017059D01*
X029139Y016821D01*
X029322Y016638D01*
X029355Y016624D01*
X029332Y016608D01*
X029271Y016547D01*
X029220Y016477D01*
X029181Y016400D01*
X029154Y016318D01*
X029141Y016232D01*
X029141Y016209D01*
X029670Y016209D01*
X029670Y016169D01*
X029141Y016169D01*
X029141Y016146D01*
X029154Y016060D01*
X029181Y015978D01*
X029220Y015901D01*
X029271Y015831D01*
X029332Y015769D01*
X029355Y015753D01*
X029322Y015740D01*
X029139Y015557D01*
X029041Y015318D01*
X029041Y015059D01*
X029139Y014821D01*
X029271Y014689D01*
X029139Y014557D01*
X029041Y014318D01*
X029041Y014059D01*
X029139Y013821D01*
X029271Y013689D01*
X029139Y013557D01*
X029041Y013318D01*
X029041Y013059D01*
X029139Y012821D01*
X029322Y012638D01*
X029561Y012539D01*
X029888Y012567D02*
X030173Y012567D01*
X030147Y012726D02*
X030332Y012726D01*
X030268Y012884D02*
X030411Y012884D01*
X030411Y013043D02*
X030334Y013043D01*
X030341Y013201D02*
X030411Y013201D01*
X030411Y013360D02*
X030323Y013360D01*
X030258Y013519D02*
X030411Y013519D01*
X030411Y013677D02*
X030122Y013677D01*
X030248Y013836D02*
X030411Y013836D01*
X030411Y013994D02*
X030313Y013994D01*
X030341Y014153D02*
X030411Y014153D01*
X030411Y014311D02*
X030341Y014311D01*
X030278Y014470D02*
X030411Y014470D01*
X030411Y014628D02*
X030170Y014628D01*
X030208Y014787D02*
X030411Y014787D01*
X030411Y014945D02*
X030293Y014945D01*
X030341Y015104D02*
X030411Y015104D01*
X030411Y015262D02*
X030341Y015262D01*
X030298Y015421D02*
X030411Y015421D01*
X030411Y015580D02*
X030219Y015580D01*
X030060Y015738D02*
X030411Y015738D01*
X030411Y015897D02*
X030158Y015897D01*
X030225Y016055D02*
X030411Y016055D01*
X030411Y016214D02*
X030241Y016214D01*
X030209Y016372D02*
X030411Y016372D01*
X030411Y016531D02*
X030122Y016531D01*
X030110Y016689D02*
X030411Y016689D01*
X030411Y016848D02*
X030253Y016848D01*
X030319Y017006D02*
X030411Y017006D01*
X030411Y017165D02*
X030341Y017165D01*
X030338Y017324D02*
X030411Y017324D01*
X030411Y017482D02*
X030273Y017482D01*
X030158Y017641D02*
X030411Y017641D01*
X030411Y017799D02*
X030220Y017799D01*
X030298Y017958D02*
X030411Y017958D01*
X030411Y018116D02*
X030341Y018116D01*
X030341Y018275D02*
X030411Y018275D01*
X030411Y018433D02*
X030293Y018433D01*
X030308Y018592D02*
X030207Y018592D01*
X030044Y018750D02*
X030033Y018750D01*
X029779Y018909D02*
X028366Y018909D01*
X028208Y019068D02*
X029515Y019068D01*
X029251Y019226D02*
X028049Y019226D01*
X027891Y019385D02*
X028987Y019385D01*
X028722Y019543D02*
X027732Y019543D01*
X027574Y019702D02*
X028458Y019702D01*
X028194Y019860D02*
X027415Y019860D01*
X027256Y020019D02*
X027965Y020019D01*
X027906Y020177D02*
X027098Y020177D01*
X026939Y020336D02*
X027911Y020336D01*
X027911Y020494D02*
X026781Y020494D01*
X026622Y020653D02*
X027911Y020653D01*
X027911Y020811D02*
X026464Y020811D01*
X026305Y020970D02*
X027911Y020970D01*
X027911Y021129D02*
X026147Y021129D01*
X025988Y021287D02*
X027911Y021287D01*
X027911Y021446D02*
X025830Y021446D01*
X025671Y021604D02*
X027911Y021604D01*
X027911Y021763D02*
X025513Y021763D01*
X025354Y021921D02*
X027911Y021921D01*
X027911Y022080D02*
X025195Y022080D01*
X025037Y022238D02*
X027911Y022238D01*
X027911Y022397D02*
X024878Y022397D01*
X024720Y022555D02*
X027911Y022555D01*
X027911Y022714D02*
X024561Y022714D01*
X024403Y022873D02*
X027911Y022873D01*
X027911Y023031D02*
X024244Y023031D01*
X024086Y023190D02*
X027911Y023190D01*
X027911Y023348D02*
X023927Y023348D01*
X023611Y022873D02*
X011263Y022873D01*
X011242Y022821D02*
X011341Y023059D01*
X011341Y023318D01*
X011242Y023557D01*
X011110Y023689D01*
X011242Y023821D01*
X011341Y024059D01*
X011341Y024318D01*
X011242Y024557D01*
X011110Y024689D01*
X011242Y024821D01*
X011341Y025059D01*
X011341Y025318D01*
X011242Y025557D01*
X011059Y025740D01*
X010820Y025839D01*
X010561Y025839D01*
X010322Y025740D01*
X010139Y025557D01*
X010041Y025318D01*
X010041Y025059D01*
X010139Y024821D01*
X010271Y024689D01*
X010139Y024557D01*
X010041Y024318D01*
X010041Y024235D01*
X009349Y024926D01*
X009246Y024969D01*
X009135Y024969D01*
X007871Y024969D01*
X007871Y025144D01*
X007828Y025247D01*
X007749Y025326D01*
X007646Y025369D01*
X006735Y025369D01*
X006632Y025326D01*
X006553Y025247D01*
X006511Y025144D01*
X006511Y024233D01*
X006553Y024130D01*
X006632Y024051D01*
X006735Y024009D01*
X007646Y024009D01*
X007749Y024051D01*
X007828Y024130D01*
X007871Y024233D01*
X007871Y024409D01*
X009075Y024409D01*
X010077Y023406D01*
X010041Y023318D01*
X010041Y023235D01*
X009849Y023426D01*
X009746Y023469D01*
X009635Y023469D01*
X007861Y023469D01*
X007767Y023696D01*
X007576Y023887D01*
X007326Y023991D01*
X007055Y023991D01*
X006805Y023887D01*
X006614Y023696D01*
X006511Y023446D01*
X006511Y023176D01*
X006614Y022926D01*
X006805Y022734D01*
X007055Y022631D01*
X007326Y022631D01*
X007576Y022734D01*
X007750Y022909D01*
X009575Y022909D01*
X010077Y022406D01*
X010041Y022318D01*
X010041Y022059D01*
X010139Y021821D01*
X010271Y021689D01*
X010139Y021557D01*
X010041Y021318D01*
X010041Y021059D01*
X010139Y020821D01*
X010271Y020689D01*
X010139Y020557D01*
X010041Y020318D01*
X010041Y020059D01*
X010139Y019821D01*
X010271Y019689D01*
X010139Y019557D01*
X010041Y019318D01*
X010041Y019059D01*
X010139Y018821D01*
X010271Y018689D01*
X010139Y018557D01*
X010041Y018318D01*
X010041Y018059D01*
X010139Y017821D01*
X010322Y017638D01*
X010561Y017539D01*
X010820Y017539D01*
X011059Y017638D01*
X011242Y017821D01*
X011341Y018059D01*
X011341Y018318D01*
X011242Y018557D01*
X011110Y018689D01*
X011242Y018821D01*
X011341Y019059D01*
X011341Y019318D01*
X011242Y019557D01*
X011110Y019689D01*
X011242Y019821D01*
X011341Y020059D01*
X011341Y020318D01*
X011242Y020557D01*
X011110Y020689D01*
X011242Y020821D01*
X011341Y021059D01*
X011341Y021318D01*
X011242Y021557D01*
X011110Y021689D01*
X011242Y021821D01*
X011341Y022059D01*
X011341Y022318D01*
X011242Y022557D01*
X011110Y022689D01*
X011242Y022821D01*
X011135Y022714D02*
X023769Y022714D01*
X023928Y022555D02*
X011242Y022555D01*
X011308Y022397D02*
X024086Y022397D01*
X024245Y022238D02*
X011341Y022238D01*
X011341Y022080D02*
X024404Y022080D01*
X024562Y021921D02*
X011283Y021921D01*
X011184Y021763D02*
X024721Y021763D01*
X024879Y021604D02*
X011194Y021604D01*
X011288Y021446D02*
X025038Y021446D01*
X025196Y021287D02*
X011341Y021287D01*
X011341Y021129D02*
X025355Y021129D01*
X025513Y020970D02*
X011303Y020970D01*
X011232Y020811D02*
X025672Y020811D01*
X025830Y020653D02*
X011146Y020653D01*
X011268Y020494D02*
X025989Y020494D01*
X026148Y020336D02*
X011333Y020336D01*
X011341Y020177D02*
X026306Y020177D01*
X026465Y020019D02*
X011324Y020019D01*
X011258Y019860D02*
X026623Y019860D01*
X026782Y019702D02*
X011123Y019702D01*
X011247Y019543D02*
X023570Y019543D01*
X023811Y019543D02*
X026940Y019543D01*
X027099Y019385D02*
X024090Y019385D01*
X024209Y019226D02*
X027257Y019226D01*
X027416Y019068D02*
X024268Y019068D01*
X024268Y018909D02*
X027574Y018909D01*
X027733Y018750D02*
X024225Y018750D01*
X024130Y018592D02*
X027891Y018592D01*
X028050Y018433D02*
X023907Y018433D01*
X023474Y018433D02*
X023331Y018433D01*
X023172Y018275D02*
X028209Y018275D01*
X028367Y018116D02*
X023014Y018116D01*
X022855Y017958D02*
X028526Y017958D01*
X028684Y017799D02*
X022697Y017799D01*
X022538Y017641D02*
X028843Y017641D01*
X029001Y017482D02*
X022380Y017482D01*
X022221Y017324D02*
X029043Y017324D01*
X029041Y017165D02*
X022063Y017165D01*
X021904Y017006D02*
X029062Y017006D01*
X029128Y016848D02*
X023881Y016848D01*
X023874Y016851D02*
X023802Y016875D01*
X023728Y016886D01*
X023699Y016886D01*
X023699Y016418D01*
X023682Y016418D01*
X023682Y016886D01*
X023653Y016886D01*
X023579Y016875D01*
X023507Y016851D01*
X023440Y016817D01*
X023380Y016773D01*
X023327Y016720D01*
X023282Y016659D01*
X023248Y016592D01*
X023225Y016521D01*
X023213Y016447D01*
X023213Y016418D01*
X023682Y016418D01*
X023682Y016401D01*
X023213Y016401D01*
X023213Y016372D01*
X011263Y016372D01*
X011135Y016214D02*
X023255Y016214D01*
X023248Y016226D02*
X023282Y016159D01*
X023327Y016098D01*
X023380Y016045D01*
X023440Y016001D01*
X023507Y015967D01*
X023579Y015944D01*
X023653Y015932D01*
X023682Y015932D01*
X023682Y016400D01*
X023699Y016400D01*
X023699Y015932D01*
X023728Y015932D01*
X023802Y015944D01*
X023874Y015967D01*
X023941Y016001D01*
X024001Y016045D01*
X024054Y016098D01*
X024099Y016159D01*
X024133Y016226D01*
X024156Y016298D01*
X024168Y016372D01*
X029172Y016372D01*
X029141Y016214D02*
X024126Y016214D01*
X024168Y016372D02*
X024168Y016401D01*
X023699Y016401D01*
X023699Y016418D01*
X024168Y016418D01*
X024168Y016447D01*
X024156Y016521D01*
X024133Y016592D01*
X024099Y016659D01*
X024054Y016720D01*
X024001Y016773D01*
X023941Y016817D01*
X023874Y016851D01*
X023699Y016848D02*
X023682Y016848D01*
X023682Y016689D02*
X023699Y016689D01*
X023682Y016531D02*
X023699Y016531D01*
X023682Y016372D02*
X023699Y016372D01*
X023682Y016214D02*
X023699Y016214D01*
X023682Y016055D02*
X023699Y016055D01*
X024011Y016055D02*
X029156Y016055D01*
X029223Y015897D02*
X016901Y015897D01*
X017218Y015738D02*
X029321Y015738D01*
X029162Y015580D02*
X017535Y015580D01*
X017852Y015421D02*
X029083Y015421D01*
X029041Y015262D02*
X018169Y015262D01*
X018486Y015104D02*
X029041Y015104D01*
X029088Y014945D02*
X018803Y014945D01*
X019121Y014787D02*
X029173Y014787D01*
X029211Y014628D02*
X019438Y014628D01*
X019755Y014470D02*
X029103Y014470D01*
X029041Y014311D02*
X020072Y014311D01*
X020389Y014153D02*
X029041Y014153D01*
X029068Y013994D02*
X020706Y013994D01*
X021023Y013836D02*
X029133Y013836D01*
X029260Y013677D02*
X021340Y013677D01*
X021657Y013519D02*
X029124Y013519D01*
X029058Y013360D02*
X021974Y013360D01*
X022291Y013201D02*
X029041Y013201D01*
X029047Y013043D02*
X022608Y013043D01*
X022926Y012884D02*
X029113Y012884D01*
X029234Y012726D02*
X023243Y012726D01*
X023370Y016055D02*
X011242Y016055D01*
X011263Y017006D02*
X021112Y017006D01*
X021271Y017165D02*
X011134Y017165D01*
X010857Y017324D02*
X021429Y017324D01*
X021588Y017482D02*
X005451Y017482D01*
X005451Y017324D02*
X010524Y017324D01*
X010247Y017165D02*
X005451Y017165D01*
X005451Y017006D02*
X010119Y017006D01*
X010053Y016848D02*
X005451Y016848D01*
X005451Y016689D02*
X010041Y016689D01*
X010052Y016531D02*
X005451Y016531D01*
X005451Y016372D02*
X010118Y016372D01*
X010246Y016214D02*
X005451Y016214D01*
X005451Y016055D02*
X010139Y016055D01*
X010073Y015897D02*
X005451Y015897D01*
X005451Y015738D02*
X010041Y015738D01*
X010041Y015580D02*
X005451Y015580D01*
X005451Y015421D02*
X010098Y015421D01*
X010198Y015262D02*
X005451Y015262D01*
X005451Y015104D02*
X010186Y015104D01*
X010093Y014945D02*
X005451Y014945D01*
X005451Y014787D02*
X010041Y014787D01*
X010041Y014628D02*
X005451Y014628D01*
X005451Y014470D02*
X010078Y014470D01*
X010149Y014311D02*
X005451Y014311D01*
X005451Y014153D02*
X010235Y014153D01*
X010113Y013994D02*
X005451Y013994D01*
X005451Y013836D02*
X010048Y013836D01*
X010041Y013677D02*
X005451Y013677D01*
X005451Y013519D02*
X010058Y013519D01*
X010123Y013360D02*
X005451Y013360D01*
X005451Y013201D02*
X010259Y013201D01*
X010134Y013043D02*
X005451Y013043D01*
X005451Y012884D02*
X010068Y012884D01*
X010041Y012726D02*
X005451Y012726D01*
X005451Y012567D02*
X010041Y012567D01*
X010103Y012409D02*
X005451Y012409D01*
X005451Y012250D02*
X010210Y012250D01*
X010174Y012092D02*
X005451Y012092D01*
X005451Y011933D02*
X010088Y011933D01*
X010041Y011775D02*
X005451Y011775D01*
X005451Y011616D02*
X010041Y011616D01*
X010083Y011457D02*
X005451Y011457D01*
X005451Y011299D02*
X010161Y011299D01*
X010223Y011140D02*
X005451Y011140D01*
X005451Y010982D02*
X010108Y010982D01*
X010043Y010823D02*
X005451Y010823D01*
X005451Y010665D02*
X010041Y010665D01*
X010063Y010506D02*
X005451Y010506D01*
X005451Y010348D02*
X010128Y010348D01*
X010271Y010189D02*
X010139Y010057D01*
X010063Y009872D02*
X005451Y009872D01*
X005451Y009713D02*
X010041Y009713D01*
X010042Y009555D02*
X005451Y009555D01*
X005451Y006543D02*
X017268Y006543D01*
X017176Y006384D02*
X005451Y006384D01*
X005451Y006226D02*
X017141Y006226D01*
X017153Y006067D02*
X005451Y006067D01*
X005451Y005908D02*
X017216Y005908D01*
X017359Y005750D02*
X005451Y005750D01*
X005451Y017641D02*
X010319Y017641D01*
X010161Y017799D02*
X005451Y017799D01*
X005451Y017958D02*
X010083Y017958D01*
X010041Y018116D02*
X005451Y018116D01*
X005451Y018275D02*
X010041Y018275D01*
X010088Y018433D02*
X005451Y018433D01*
X005451Y018592D02*
X010174Y018592D01*
X010210Y018750D02*
X005451Y018750D01*
X005451Y018909D02*
X010103Y018909D01*
X010041Y019068D02*
X005451Y019068D01*
X005451Y019226D02*
X010041Y019226D01*
X010068Y019385D02*
X005451Y019385D01*
X005451Y019543D02*
X010134Y019543D01*
X010258Y019702D02*
X005451Y019702D01*
X005451Y019860D02*
X010123Y019860D01*
X010057Y020019D02*
X005451Y020019D01*
X005451Y020177D02*
X010041Y020177D01*
X010048Y020336D02*
X005451Y020336D01*
X005451Y020494D02*
X010114Y020494D01*
X010235Y020653D02*
X005451Y020653D01*
X005451Y020811D02*
X010149Y020811D01*
X010078Y020970D02*
X005451Y020970D01*
X005451Y021129D02*
X010041Y021129D01*
X010041Y021287D02*
X005451Y021287D01*
X005451Y021446D02*
X010093Y021446D01*
X010187Y021604D02*
X005451Y021604D01*
X005451Y021763D02*
X010197Y021763D01*
X010098Y021921D02*
X005451Y021921D01*
X005451Y022080D02*
X010041Y022080D01*
X010041Y022238D02*
X005451Y022238D01*
X005451Y022397D02*
X010073Y022397D01*
X009928Y022555D02*
X005451Y022555D01*
X005451Y022714D02*
X006854Y022714D01*
X006667Y022873D02*
X005451Y022873D01*
X005451Y023031D02*
X006570Y023031D01*
X006511Y023190D02*
X005451Y023190D01*
X005451Y023348D02*
X006511Y023348D01*
X006536Y023507D02*
X005451Y023507D01*
X005451Y023665D02*
X006601Y023665D01*
X006742Y023824D02*
X005451Y023824D01*
X005451Y023982D02*
X007035Y023982D01*
X007346Y023982D02*
X009501Y023982D01*
X009660Y023824D02*
X007639Y023824D01*
X007780Y023665D02*
X009818Y023665D01*
X009977Y023507D02*
X007845Y023507D01*
X007832Y024141D02*
X009342Y024141D01*
X009184Y024299D02*
X007871Y024299D01*
X007871Y025092D02*
X010041Y025092D01*
X010041Y025251D02*
X007825Y025251D01*
X006556Y025251D02*
X005451Y025251D01*
X005451Y025409D02*
X010078Y025409D01*
X010150Y025568D02*
X005451Y025568D01*
X005451Y025726D02*
X010309Y025726D01*
X011072Y025726D02*
X014257Y025726D01*
X014416Y025568D02*
X011231Y025568D01*
X011303Y025409D02*
X014574Y025409D01*
X014733Y025251D02*
X011341Y025251D01*
X011341Y025092D02*
X014891Y025092D01*
X015050Y024934D02*
X011288Y024934D01*
X011196Y024775D02*
X015208Y024775D01*
X015367Y024617D02*
X011182Y024617D01*
X011283Y024458D02*
X015525Y024458D01*
X015684Y024299D02*
X011341Y024299D01*
X011341Y024141D02*
X015842Y024141D01*
X016001Y023982D02*
X011309Y023982D01*
X011243Y023824D02*
X016160Y023824D01*
X016318Y023665D02*
X011133Y023665D01*
X011262Y023507D02*
X016477Y023507D01*
X016635Y023348D02*
X011328Y023348D01*
X011341Y023190D02*
X016794Y023190D01*
X016952Y023031D02*
X011329Y023031D01*
X010053Y023348D02*
X009927Y023348D01*
X009611Y022873D02*
X007714Y022873D01*
X007527Y022714D02*
X009769Y022714D01*
X009976Y024299D02*
X010041Y024299D01*
X010099Y024458D02*
X009817Y024458D01*
X009659Y024617D02*
X010199Y024617D01*
X010185Y024775D02*
X009500Y024775D01*
X009331Y024934D02*
X010093Y024934D01*
X012672Y027312D02*
X005451Y027312D01*
X005451Y027470D02*
X012513Y027470D01*
X012355Y027629D02*
X005451Y027629D01*
X005451Y027787D02*
X006752Y027787D01*
X006606Y027946D02*
X005451Y027946D01*
X005451Y028104D02*
X006540Y028104D01*
X006511Y028263D02*
X005451Y028263D01*
X005451Y028422D02*
X006511Y028422D01*
X006566Y028580D02*
X005451Y028580D01*
X005451Y028739D02*
X006657Y028739D01*
X006829Y028897D02*
X005451Y028897D01*
X005451Y029056D02*
X006628Y029056D01*
X006632Y029051D02*
X006735Y029009D01*
X007646Y029009D01*
X007749Y029051D01*
X007828Y029130D01*
X007871Y029233D01*
X007871Y029409D01*
X018075Y029409D01*
X018631Y028853D01*
X018631Y028297D01*
X018716Y028092D01*
X018873Y027934D01*
X019079Y027849D01*
X019302Y027849D01*
X019508Y027934D01*
X019529Y027955D01*
X020032Y027451D01*
X020135Y027409D01*
X020246Y027409D01*
X024246Y027409D01*
X024349Y027451D01*
X024428Y027530D01*
X024853Y027955D01*
X024873Y027934D01*
X025079Y027849D01*
X025302Y027849D01*
X025508Y027934D01*
X025665Y028092D01*
X025691Y028153D01*
X025716Y028092D01*
X025873Y027934D01*
X026079Y027849D01*
X026302Y027849D01*
X026508Y027934D01*
X026665Y028092D01*
X026751Y028297D01*
X026751Y029080D01*
X026665Y029286D01*
X026508Y029444D01*
X026302Y029529D01*
X026079Y029529D01*
X025873Y029444D01*
X025716Y029286D01*
X025691Y029225D01*
X025665Y029286D01*
X025508Y029444D01*
X025302Y029529D01*
X025079Y029529D01*
X024873Y029444D01*
X024716Y029286D01*
X024691Y029225D01*
X024665Y029286D01*
X024508Y029444D01*
X024302Y029529D01*
X024079Y029529D01*
X023873Y029444D01*
X023716Y029286D01*
X023691Y029225D01*
X023665Y029286D01*
X023508Y029444D01*
X023302Y029529D01*
X023079Y029529D01*
X022873Y029444D01*
X022716Y029286D01*
X022635Y029090D01*
X022617Y029145D01*
X022584Y029210D01*
X022541Y029268D01*
X022490Y029320D01*
X022432Y029362D01*
X022367Y029395D01*
X022298Y029417D01*
X022227Y029429D01*
X022191Y029429D01*
X022191Y028689D01*
X022190Y028689D01*
X022190Y029429D01*
X022154Y029429D01*
X022083Y029417D01*
X022014Y029395D01*
X021949Y029362D01*
X021891Y029320D01*
X021840Y029268D01*
X021797Y029210D01*
X021764Y029145D01*
X021746Y029090D01*
X021665Y029286D01*
X021508Y029444D01*
X021302Y029529D01*
X021079Y029529D01*
X020873Y029444D01*
X020716Y029286D01*
X020691Y029225D01*
X020665Y029286D01*
X020508Y029444D01*
X020302Y029529D01*
X020079Y029529D01*
X019873Y029444D01*
X019716Y029286D01*
X019691Y029225D01*
X019665Y029286D01*
X019508Y029444D01*
X019302Y029529D01*
X019079Y029529D01*
X018873Y029444D01*
X018853Y029423D01*
X018428Y029847D01*
X018349Y029926D01*
X018246Y029969D01*
X007871Y029969D01*
X007871Y030144D01*
X007828Y030247D01*
X007749Y030326D01*
X007646Y030369D01*
X006735Y030369D01*
X006632Y030326D01*
X006553Y030247D01*
X006511Y030144D01*
X006511Y029233D01*
X006553Y029130D01*
X006632Y029051D01*
X006518Y029214D02*
X005451Y029214D01*
X005451Y029373D02*
X006511Y029373D01*
X006511Y029531D02*
X005451Y029531D01*
X005451Y029690D02*
X006511Y029690D01*
X006511Y029848D02*
X005451Y029848D01*
X005451Y030007D02*
X006511Y030007D01*
X006519Y030166D02*
X005451Y030166D01*
X005451Y030324D02*
X006630Y030324D01*
X007751Y030324D02*
X028430Y030324D01*
X028588Y030483D02*
X005451Y030483D01*
X005451Y030641D02*
X027632Y030641D01*
X027647Y030639D02*
X027682Y030639D01*
X027682Y031180D01*
X027699Y031180D01*
X027699Y030639D01*
X027734Y030639D01*
X027819Y030652D01*
X027902Y030679D01*
X027979Y030718D01*
X028049Y030769D01*
X028110Y030831D01*
X028161Y030901D01*
X028200Y030978D01*
X028227Y031060D01*
X028241Y031146D01*
X028241Y031180D01*
X027699Y031180D01*
X027699Y031197D01*
X028241Y031197D01*
X028241Y031232D01*
X028227Y031318D01*
X028200Y031400D01*
X028161Y031477D01*
X028110Y031547D01*
X028049Y031608D01*
X027979Y031659D01*
X027902Y031699D01*
X027819Y031725D01*
X027734Y031739D01*
X027699Y031739D01*
X027699Y031198D01*
X027682Y031198D01*
X027682Y031739D01*
X027647Y031739D01*
X027562Y031725D01*
X027479Y031699D01*
X027402Y031659D01*
X027332Y031608D01*
X027271Y031547D01*
X027220Y031477D01*
X027181Y031400D01*
X027154Y031318D01*
X027141Y031232D01*
X027141Y031197D01*
X027682Y031197D01*
X027682Y031180D01*
X027141Y031180D01*
X027141Y031146D01*
X027154Y031060D01*
X027181Y030978D01*
X027220Y030901D01*
X027271Y030831D01*
X027332Y030769D01*
X027402Y030718D01*
X027479Y030679D01*
X027562Y030652D01*
X027647Y030639D01*
X027682Y030641D02*
X027699Y030641D01*
X027749Y030641D02*
X028747Y030641D01*
X028906Y030800D02*
X028079Y030800D01*
X028190Y030958D02*
X029064Y030958D01*
X029223Y031117D02*
X028236Y031117D01*
X028234Y031275D02*
X029381Y031275D01*
X029540Y031434D02*
X028183Y031434D01*
X028065Y031592D02*
X029698Y031592D01*
X029857Y031751D02*
X010751Y031751D01*
X010751Y031853D02*
X013806Y034909D01*
X019091Y034909D01*
X019091Y034440D01*
X019442Y034089D01*
X019939Y034089D01*
X020191Y034340D01*
X020442Y034089D01*
X020939Y034089D01*
X021191Y034340D01*
X021442Y034089D01*
X021939Y034089D01*
X022191Y034340D01*
X022442Y034089D01*
X022939Y034089D01*
X023191Y034340D01*
X023442Y034089D01*
X023939Y034089D01*
X024191Y034340D01*
X024442Y034089D01*
X024939Y034089D01*
X025191Y034340D01*
X025442Y034089D01*
X025939Y034089D01*
X026291Y034440D01*
X026291Y034937D01*
X025968Y035260D01*
X026191Y035482D01*
X026191Y035669D01*
X025711Y035669D01*
X025711Y035709D01*
X026191Y035709D01*
X026191Y035896D01*
X025898Y036189D01*
X025711Y036189D01*
X025711Y035709D01*
X025670Y035709D01*
X025670Y036189D01*
X025483Y036189D01*
X025261Y035967D01*
X024939Y036289D01*
X024442Y036289D01*
X024120Y035967D01*
X023898Y036189D01*
X023711Y036189D01*
X023711Y035709D01*
X023670Y035709D01*
X023670Y036189D01*
X023483Y036189D01*
X023261Y035967D01*
X022939Y036289D01*
X022442Y036289D01*
X022191Y036037D01*
X021939Y036289D01*
X021442Y036289D01*
X021191Y036037D01*
X020939Y036289D01*
X020442Y036289D01*
X020191Y036037D01*
X019939Y036289D01*
X019442Y036289D01*
X019091Y035937D01*
X019091Y035469D01*
X013635Y035469D01*
X013532Y035426D01*
X013453Y035347D01*
X010355Y032249D01*
X009959Y032249D01*
X009631Y031921D01*
X009631Y031457D01*
X009959Y031129D01*
X010422Y031129D01*
X010751Y031457D01*
X010751Y031853D01*
X010807Y031910D02*
X030015Y031910D01*
X030174Y032068D02*
X010966Y032068D01*
X011124Y032227D02*
X030332Y032227D01*
X030491Y032385D02*
X011283Y032385D01*
X011441Y032544D02*
X030649Y032544D01*
X030808Y032702D02*
X011600Y032702D01*
X011758Y032861D02*
X030967Y032861D01*
X031125Y033019D02*
X011917Y033019D01*
X012076Y033178D02*
X031284Y033178D01*
X031442Y033336D02*
X012234Y033336D01*
X012393Y033495D02*
X031601Y033495D01*
X031759Y033654D02*
X012551Y033654D01*
X012710Y033812D02*
X031918Y033812D01*
X032076Y033971D02*
X012868Y033971D01*
X013027Y034129D02*
X019402Y034129D01*
X019243Y034288D02*
X013185Y034288D01*
X013344Y034446D02*
X019091Y034446D01*
X019091Y034605D02*
X013502Y034605D01*
X013661Y034763D02*
X019091Y034763D01*
X019091Y035556D02*
X007021Y035556D01*
X007066Y035575D02*
X007066Y035575D01*
X007305Y035814D01*
X007434Y036126D01*
X007434Y036464D01*
X007305Y036777D01*
X007066Y037016D01*
X007066Y037016D01*
X006753Y037145D01*
X006634Y037145D01*
X006584Y037145D01*
X006583Y037145D01*
X006535Y037145D01*
X006415Y037145D01*
X006103Y037016D01*
X005864Y036777D01*
X005864Y036777D01*
X005734Y036464D01*
X005734Y036126D01*
X005864Y035814D01*
X006103Y035575D01*
X006415Y035445D01*
X006415Y035445D01*
X006535Y035445D01*
X006535Y035445D01*
X006560Y035445D01*
X006584Y035445D01*
X006634Y035445D01*
X006634Y035445D01*
X006753Y035445D01*
X007066Y035575D01*
X007206Y035715D02*
X019091Y035715D01*
X019091Y035873D02*
X007329Y035873D01*
X007305Y035814D02*
X007305Y035814D01*
X007395Y036032D02*
X019185Y036032D01*
X019343Y036190D02*
X007434Y036190D01*
X007434Y036126D02*
X007434Y036126D01*
X007434Y036349D02*
X033947Y036349D01*
X033947Y036464D02*
X033947Y036126D01*
X034076Y035814D01*
X034315Y035575D01*
X034628Y035445D01*
X034747Y035445D01*
X034747Y035445D01*
X034797Y035445D01*
X034815Y035445D01*
X034847Y035445D01*
X034966Y035445D01*
X035278Y035575D01*
X035517Y035814D01*
X035647Y036126D01*
X035647Y036464D01*
X035647Y036464D01*
X035517Y036777D01*
X035278Y037016D01*
X034966Y037145D01*
X034847Y037145D01*
X034797Y037145D01*
X034795Y037145D01*
X034747Y037145D01*
X034628Y037145D01*
X034628Y037145D01*
X034315Y037016D01*
X034076Y036777D01*
X034076Y036777D01*
X033947Y036464D01*
X033947Y036464D01*
X033965Y036507D02*
X007416Y036507D01*
X007434Y036464D02*
X007434Y036464D01*
X007351Y036666D02*
X034030Y036666D01*
X034124Y036824D02*
X007257Y036824D01*
X007305Y036777D02*
X007305Y036777D01*
X007098Y036983D02*
X034283Y036983D01*
X034315Y037016D02*
X034315Y037016D01*
X034619Y037141D02*
X006762Y037141D01*
X006753Y037145D02*
X006753Y037145D01*
X006634Y037145D02*
X006634Y037145D01*
X006535Y037145D02*
X006535Y037145D01*
X006415Y037145D02*
X006415Y037145D01*
X006407Y037141D02*
X005451Y037141D01*
X005451Y036983D02*
X006070Y036983D01*
X006103Y037016D02*
X006103Y037016D01*
X005911Y036824D02*
X005451Y036824D01*
X005451Y036666D02*
X005818Y036666D01*
X005752Y036507D02*
X005451Y036507D01*
X005451Y036349D02*
X005734Y036349D01*
X005734Y036464D02*
X005734Y036464D01*
X005734Y036190D02*
X005451Y036190D01*
X005451Y036032D02*
X005773Y036032D01*
X005734Y036126D02*
X005734Y036126D01*
X005839Y035873D02*
X005451Y035873D01*
X005451Y035715D02*
X005963Y035715D01*
X005864Y035814D02*
X005864Y035814D01*
X006103Y035575D02*
X006103Y035575D01*
X006148Y035556D02*
X005451Y035556D01*
X005451Y035397D02*
X013503Y035397D01*
X013345Y035239D02*
X005451Y035239D01*
X005451Y035080D02*
X013186Y035080D01*
X013028Y034922D02*
X005451Y034922D01*
X005451Y034763D02*
X012869Y034763D01*
X012711Y034605D02*
X005451Y034605D01*
X005451Y034446D02*
X012552Y034446D01*
X012393Y034288D02*
X005451Y034288D01*
X005451Y034129D02*
X009839Y034129D01*
X009959Y034249D02*
X009631Y033921D01*
X009631Y033457D01*
X009959Y033129D01*
X010422Y033129D01*
X010751Y033457D01*
X010751Y033921D01*
X010422Y034249D01*
X009959Y034249D01*
X009680Y033971D02*
X005451Y033971D01*
X005451Y033812D02*
X009631Y033812D01*
X009631Y033654D02*
X005451Y033654D01*
X005451Y033495D02*
X009631Y033495D01*
X009751Y033336D02*
X005451Y033336D01*
X005451Y033178D02*
X009910Y033178D01*
X009651Y032879D02*
X009381Y033149D01*
X009191Y033149D01*
X009191Y032689D01*
X009651Y032689D01*
X009651Y032879D01*
X009651Y032861D02*
X010967Y032861D01*
X011125Y033019D02*
X009511Y033019D01*
X009191Y033019D02*
X009190Y033019D01*
X009190Y033149D02*
X009190Y032689D01*
X009190Y032689D01*
X008731Y032689D01*
X008731Y032879D01*
X009000Y033149D01*
X009190Y033149D01*
X009190Y032861D02*
X009191Y032861D01*
X009190Y032702D02*
X009191Y032702D01*
X009191Y032689D02*
X009190Y032689D01*
X008731Y032689D01*
X008731Y032498D01*
X009000Y032229D01*
X009190Y032229D01*
X009190Y032688D01*
X009191Y032688D01*
X009191Y032229D01*
X009381Y032229D01*
X009651Y032498D01*
X009651Y032689D01*
X009191Y032689D01*
X009191Y032689D01*
X009190Y032544D02*
X009191Y032544D01*
X009190Y032385D02*
X009191Y032385D01*
X009537Y032385D02*
X010491Y032385D01*
X010649Y032544D02*
X009651Y032544D01*
X009651Y032702D02*
X010808Y032702D01*
X010472Y033178D02*
X011284Y033178D01*
X011442Y033336D02*
X010630Y033336D01*
X010751Y033495D02*
X011601Y033495D01*
X011759Y033654D02*
X010751Y033654D01*
X010751Y033812D02*
X011918Y033812D01*
X012076Y033971D02*
X010701Y033971D01*
X010542Y034129D02*
X012235Y034129D01*
X009936Y032227D02*
X005451Y032227D01*
X005451Y032385D02*
X008844Y032385D01*
X008731Y032544D02*
X005451Y032544D01*
X005451Y032702D02*
X008731Y032702D01*
X008731Y032861D02*
X005451Y032861D01*
X005451Y033019D02*
X008871Y033019D01*
X009631Y031910D02*
X005451Y031910D01*
X005451Y032068D02*
X009778Y032068D01*
X009631Y031751D02*
X005451Y031751D01*
X005451Y031592D02*
X009631Y031592D01*
X009654Y031434D02*
X005451Y031434D01*
X005451Y031275D02*
X009812Y031275D01*
X010569Y031275D02*
X027147Y031275D01*
X027145Y031117D02*
X005451Y031117D01*
X005451Y030958D02*
X027191Y030958D01*
X027302Y030800D02*
X005451Y030800D01*
X007552Y028897D02*
X018586Y028897D01*
X018631Y028739D02*
X007724Y028739D01*
X007815Y028580D02*
X018631Y028580D01*
X018631Y028422D02*
X012354Y028422D01*
X012512Y028263D02*
X018645Y028263D01*
X018710Y028104D02*
X012671Y028104D01*
X012829Y027946D02*
X018861Y027946D01*
X019520Y027946D02*
X019537Y027946D01*
X019696Y027787D02*
X012988Y027787D01*
X013146Y027629D02*
X019855Y027629D01*
X020013Y027470D02*
X013305Y027470D01*
X013464Y027312D02*
X027911Y027312D01*
X027911Y027470D02*
X024368Y027470D01*
X024526Y027629D02*
X027911Y027629D01*
X027911Y027787D02*
X024685Y027787D01*
X024844Y027946D02*
X024861Y027946D01*
X025520Y027946D02*
X025861Y027946D01*
X025710Y028104D02*
X025671Y028104D01*
X026520Y027946D02*
X027911Y027946D01*
X027911Y028104D02*
X026671Y028104D01*
X026736Y028263D02*
X027911Y028263D01*
X027911Y028422D02*
X026751Y028422D01*
X026751Y028580D02*
X027911Y028580D01*
X027911Y028739D02*
X026751Y028739D01*
X026751Y028897D02*
X027911Y028897D01*
X027911Y029056D02*
X026751Y029056D01*
X026695Y029214D02*
X027911Y029214D01*
X027911Y029373D02*
X026578Y029373D01*
X025803Y029373D02*
X025578Y029373D01*
X024803Y029373D02*
X024578Y029373D01*
X023803Y029373D02*
X023578Y029373D01*
X022803Y029373D02*
X022411Y029373D01*
X022191Y029373D02*
X022190Y029373D01*
X022190Y029214D02*
X022191Y029214D01*
X022190Y029056D02*
X022191Y029056D01*
X022190Y028897D02*
X022191Y028897D01*
X022190Y028739D02*
X022191Y028739D01*
X022581Y029214D02*
X022686Y029214D01*
X021970Y029373D02*
X021578Y029373D01*
X021695Y029214D02*
X021800Y029214D01*
X020803Y029373D02*
X020578Y029373D01*
X019803Y029373D02*
X019578Y029373D01*
X018744Y029531D02*
X027911Y029531D01*
X027911Y029690D02*
X018585Y029690D01*
X018427Y029848D02*
X027954Y029848D01*
X028113Y030007D02*
X007871Y030007D01*
X007862Y030166D02*
X028271Y030166D01*
X028746Y029848D02*
X031151Y029848D01*
X031151Y029839D02*
X031151Y030098D01*
X031249Y030337D01*
X031432Y030520D01*
X031671Y030619D01*
X031930Y030619D01*
X032169Y030520D01*
X032352Y030337D01*
X032451Y030098D01*
X032451Y029839D01*
X032352Y029601D01*
X032169Y029418D01*
X031930Y029319D01*
X031671Y029319D01*
X031432Y029418D01*
X031249Y029601D01*
X031151Y029839D01*
X031212Y029690D02*
X028588Y029690D01*
X028471Y029531D02*
X031319Y029531D01*
X031541Y029373D02*
X028471Y029373D01*
X028471Y029214D02*
X032402Y029214D01*
X032239Y029056D02*
X028471Y029056D01*
X028471Y028897D02*
X032076Y028897D01*
X031913Y028739D02*
X028471Y028739D01*
X028471Y028580D02*
X031750Y028580D01*
X031587Y028422D02*
X028471Y028422D01*
X028471Y028263D02*
X031423Y028263D01*
X031260Y028104D02*
X028471Y028104D01*
X028471Y027946D02*
X031097Y027946D01*
X030934Y027787D02*
X028471Y027787D01*
X028471Y027629D02*
X030771Y027629D01*
X030608Y027470D02*
X028471Y027470D01*
X028471Y027312D02*
X030444Y027312D01*
X030281Y027153D02*
X028471Y027153D01*
X028471Y026995D02*
X030118Y026995D01*
X029955Y026836D02*
X028471Y026836D01*
X028471Y026678D02*
X029792Y026678D01*
X029629Y026519D02*
X028471Y026519D01*
X028471Y026361D02*
X029466Y026361D01*
X029411Y026202D02*
X028471Y026202D01*
X028471Y026043D02*
X029411Y026043D01*
X029411Y025885D02*
X028471Y025885D01*
X028471Y025726D02*
X029309Y025726D01*
X029150Y025568D02*
X028471Y025568D01*
X028471Y025409D02*
X029078Y025409D01*
X029041Y025251D02*
X028471Y025251D01*
X028471Y025092D02*
X029041Y025092D01*
X029093Y024934D02*
X028471Y024934D01*
X028471Y024775D02*
X029185Y024775D01*
X029199Y024617D02*
X028471Y024617D01*
X028471Y024458D02*
X029099Y024458D01*
X029041Y024299D02*
X028471Y024299D01*
X028471Y024141D02*
X029041Y024141D01*
X029072Y023982D02*
X028471Y023982D01*
X028471Y023824D02*
X029138Y023824D01*
X029248Y023665D02*
X028471Y023665D01*
X028471Y023507D02*
X029119Y023507D01*
X029053Y023348D02*
X028471Y023348D01*
X028471Y023190D02*
X029041Y023190D01*
X029052Y023031D02*
X028471Y023031D01*
X028471Y022873D02*
X029118Y022873D01*
X029246Y022714D02*
X028471Y022714D01*
X028471Y022555D02*
X029139Y022555D01*
X029073Y022397D02*
X028471Y022397D01*
X028471Y022238D02*
X029041Y022238D01*
X029041Y022080D02*
X028471Y022080D01*
X028471Y021921D02*
X029098Y021921D01*
X029197Y021763D02*
X028471Y021763D01*
X028471Y021604D02*
X029187Y021604D01*
X029093Y021446D02*
X028471Y021446D01*
X028471Y021287D02*
X029041Y021287D01*
X029041Y021129D02*
X028471Y021129D01*
X028471Y020970D02*
X029078Y020970D01*
X029149Y020811D02*
X028471Y020811D01*
X028471Y020653D02*
X029235Y020653D01*
X029114Y020494D02*
X028471Y020494D01*
X028490Y020336D02*
X029048Y020336D01*
X029041Y020177D02*
X028754Y020177D01*
X029018Y020019D02*
X029057Y020019D01*
X029818Y019539D02*
X029820Y019539D01*
X030059Y019638D01*
X030242Y019821D01*
X030341Y020059D01*
X030341Y020318D01*
X030242Y020557D01*
X030110Y020689D01*
X030242Y020821D01*
X030341Y021059D01*
X030341Y021318D01*
X030242Y021557D01*
X030110Y021689D01*
X030242Y021821D01*
X030341Y022059D01*
X030341Y022318D01*
X030242Y022557D01*
X030110Y022689D01*
X030242Y022821D01*
X030341Y023059D01*
X030341Y023143D01*
X033411Y020073D01*
X033411Y012602D01*
X033212Y012520D01*
X033029Y012337D01*
X032931Y012098D01*
X032931Y011839D01*
X033029Y011601D01*
X033212Y011418D01*
X033451Y011319D01*
X033710Y011319D01*
X033949Y011418D01*
X034138Y011616D02*
X035931Y011616D01*
X035931Y011775D02*
X034204Y011775D01*
X034231Y011933D02*
X035931Y011933D01*
X035931Y012092D02*
X034231Y012092D01*
X034168Y012250D02*
X035931Y012250D01*
X035931Y012409D02*
X034060Y012409D01*
X033971Y012567D02*
X035931Y012567D01*
X035931Y012726D02*
X033971Y012726D01*
X033971Y012884D02*
X035931Y012884D01*
X035931Y013043D02*
X033971Y013043D01*
X033971Y013201D02*
X035931Y013201D01*
X035931Y013360D02*
X033971Y013360D01*
X033971Y013519D02*
X035931Y013519D01*
X035931Y013677D02*
X033971Y013677D01*
X033971Y013836D02*
X035931Y013836D01*
X035931Y013994D02*
X033971Y013994D01*
X033971Y014153D02*
X035931Y014153D01*
X035931Y014311D02*
X033971Y014311D01*
X033971Y014470D02*
X035931Y014470D01*
X035931Y014628D02*
X033971Y014628D01*
X033971Y014787D02*
X035931Y014787D01*
X035931Y014945D02*
X033971Y014945D01*
X033971Y015104D02*
X035931Y015104D01*
X035931Y015262D02*
X033971Y015262D01*
X033971Y015421D02*
X035931Y015421D01*
X035931Y015580D02*
X033971Y015580D01*
X033971Y015738D02*
X035931Y015738D01*
X035931Y015897D02*
X033971Y015897D01*
X033971Y016055D02*
X035931Y016055D01*
X035931Y016214D02*
X033971Y016214D01*
X033971Y016372D02*
X035931Y016372D01*
X035931Y016531D02*
X033971Y016531D01*
X033971Y016689D02*
X035931Y016689D01*
X035931Y016848D02*
X033971Y016848D01*
X033971Y017006D02*
X035931Y017006D01*
X035931Y017165D02*
X033971Y017165D01*
X033971Y017324D02*
X035931Y017324D01*
X035931Y017482D02*
X033971Y017482D01*
X033971Y017641D02*
X035931Y017641D01*
X035931Y017799D02*
X033971Y017799D01*
X033971Y017958D02*
X035931Y017958D01*
X035931Y018116D02*
X033971Y018116D01*
X033971Y018275D02*
X035931Y018275D01*
X035931Y018433D02*
X033971Y018433D01*
X033971Y018592D02*
X035931Y018592D01*
X035931Y018750D02*
X033971Y018750D01*
X033971Y018909D02*
X035931Y018909D01*
X035931Y019068D02*
X033971Y019068D01*
X033971Y019226D02*
X035931Y019226D01*
X035931Y019385D02*
X033971Y019385D01*
X033971Y019543D02*
X035931Y019543D01*
X035931Y019702D02*
X033971Y019702D01*
X033971Y019860D02*
X035931Y019860D01*
X035931Y020019D02*
X033971Y020019D01*
X033971Y020177D02*
X035931Y020177D01*
X035931Y020336D02*
X033933Y020336D01*
X033781Y020494D02*
X035931Y020494D01*
X035931Y020653D02*
X033622Y020653D01*
X033464Y020811D02*
X035931Y020811D01*
X035931Y020970D02*
X033305Y020970D01*
X033147Y021129D02*
X035931Y021129D01*
X035931Y021287D02*
X032988Y021287D01*
X032830Y021446D02*
X035931Y021446D01*
X035931Y021604D02*
X032671Y021604D01*
X032513Y021763D02*
X035931Y021763D01*
X035931Y021921D02*
X032354Y021921D01*
X032195Y022080D02*
X035931Y022080D01*
X035931Y022238D02*
X032037Y022238D01*
X031878Y022397D02*
X035931Y022397D01*
X035931Y022555D02*
X031720Y022555D01*
X031561Y022714D02*
X035931Y022714D01*
X035931Y022873D02*
X031403Y022873D01*
X031244Y023031D02*
X035931Y023031D01*
X035931Y023190D02*
X031086Y023190D01*
X030927Y023348D02*
X035931Y023348D01*
X035931Y023507D02*
X030769Y023507D01*
X030610Y023665D02*
X035931Y023665D01*
X035931Y023824D02*
X030451Y023824D01*
X030309Y023982D02*
X035931Y023982D01*
X035931Y024141D02*
X030341Y024141D01*
X030341Y024299D02*
X035931Y024299D01*
X035931Y024458D02*
X030283Y024458D01*
X030182Y024617D02*
X035931Y024617D01*
X035931Y024775D02*
X030196Y024775D01*
X030288Y024934D02*
X035931Y024934D01*
X035931Y025092D02*
X030341Y025092D01*
X030341Y025251D02*
X035931Y025251D01*
X035931Y025409D02*
X030303Y025409D01*
X030231Y025568D02*
X035931Y025568D01*
X035931Y025726D02*
X030072Y025726D01*
X029971Y025885D02*
X035931Y025885D01*
X035931Y026043D02*
X029971Y026043D01*
X030106Y026202D02*
X035931Y026202D01*
X035931Y026361D02*
X030269Y026361D01*
X030432Y026519D02*
X035931Y026519D01*
X035931Y026678D02*
X030595Y026678D01*
X030758Y026836D02*
X031484Y026836D01*
X031295Y026995D02*
X030922Y026995D01*
X031085Y027153D02*
X031203Y027153D01*
X032117Y026836D02*
X033264Y026836D01*
X033212Y026858D02*
X033451Y026759D01*
X033710Y026759D01*
X033949Y026858D01*
X034132Y027041D01*
X034231Y027279D01*
X034231Y027538D01*
X034132Y027777D01*
X033949Y027960D01*
X033710Y028059D01*
X033451Y028059D01*
X033212Y027960D01*
X033029Y027777D01*
X032931Y027538D01*
X032931Y027279D01*
X033029Y027041D01*
X033212Y026858D01*
X033075Y026995D02*
X032306Y026995D01*
X032398Y027153D02*
X032983Y027153D01*
X032931Y027312D02*
X032451Y027312D01*
X032451Y027470D02*
X032931Y027470D01*
X032968Y027629D02*
X032413Y027629D01*
X032341Y027787D02*
X033040Y027787D01*
X033198Y027946D02*
X032183Y027946D01*
X032064Y028104D02*
X035931Y028104D01*
X035931Y027946D02*
X033963Y027946D01*
X034121Y027787D02*
X035931Y027787D01*
X035931Y027629D02*
X034193Y027629D01*
X034231Y027470D02*
X035931Y027470D01*
X035931Y027312D02*
X034231Y027312D01*
X034178Y027153D02*
X035931Y027153D01*
X035931Y026995D02*
X034086Y026995D01*
X033897Y026836D02*
X035931Y026836D01*
X035931Y028263D02*
X032227Y028263D01*
X032390Y028422D02*
X035931Y028422D01*
X035931Y028580D02*
X032553Y028580D01*
X032716Y028739D02*
X035931Y028739D01*
X035931Y028897D02*
X032879Y028897D01*
X033043Y029056D02*
X035931Y029056D01*
X035931Y029214D02*
X033206Y029214D01*
X032892Y029690D02*
X032389Y029690D01*
X032451Y029848D02*
X032931Y029848D01*
X032931Y030007D02*
X032451Y030007D01*
X032423Y030166D02*
X032959Y030166D01*
X033024Y030324D02*
X032357Y030324D01*
X032206Y030483D02*
X033175Y030483D01*
X033986Y030483D02*
X035931Y030483D01*
X035931Y030641D02*
X031062Y030641D01*
X031221Y030800D02*
X035931Y030800D01*
X035931Y030958D02*
X031299Y030958D01*
X031341Y031117D02*
X035931Y031117D01*
X035931Y031275D02*
X031341Y031275D01*
X031293Y031434D02*
X035931Y031434D01*
X035931Y031592D02*
X031206Y031592D01*
X031032Y031751D02*
X035931Y031751D01*
X035931Y031910D02*
X030807Y031910D01*
X030966Y032068D02*
X035931Y032068D01*
X035931Y032227D02*
X031124Y032227D01*
X031283Y032385D02*
X035931Y032385D01*
X035931Y032544D02*
X031441Y032544D01*
X031600Y032702D02*
X032385Y032702D01*
X032227Y032861D02*
X031758Y032861D01*
X031917Y033019D02*
X032131Y033019D01*
X032131Y033178D02*
X032076Y033178D01*
X032131Y034129D02*
X025979Y034129D01*
X026138Y034288D02*
X032131Y034288D01*
X032156Y034446D02*
X026291Y034446D01*
X026291Y034605D02*
X032315Y034605D01*
X033066Y034605D02*
X035931Y034605D01*
X035931Y034763D02*
X026291Y034763D01*
X026291Y034922D02*
X035931Y034922D01*
X035931Y035080D02*
X026147Y035080D01*
X025989Y035239D02*
X035931Y035239D01*
X035931Y035397D02*
X026106Y035397D01*
X026191Y035556D02*
X034360Y035556D01*
X034315Y035575D02*
X034315Y035575D01*
X034175Y035715D02*
X026191Y035715D01*
X026191Y035873D02*
X034052Y035873D01*
X034076Y035814D02*
X034076Y035814D01*
X033986Y036032D02*
X026055Y036032D01*
X025711Y036032D02*
X025670Y036032D01*
X025670Y035873D02*
X025711Y035873D01*
X025711Y035715D02*
X025670Y035715D01*
X025326Y036032D02*
X025196Y036032D01*
X025038Y036190D02*
X033947Y036190D01*
X033947Y036126D02*
X033947Y036126D01*
X034628Y035445D02*
X034628Y035445D01*
X034847Y035445D02*
X034847Y035445D01*
X034966Y035445D02*
X034966Y035445D01*
X035234Y035556D02*
X035931Y035556D01*
X035931Y035715D02*
X035418Y035715D01*
X035517Y035814D02*
X035517Y035814D01*
X035542Y035873D02*
X035931Y035873D01*
X035931Y036032D02*
X035608Y036032D01*
X035647Y036126D02*
X035647Y036126D01*
X035647Y036190D02*
X035931Y036190D01*
X035931Y036349D02*
X035647Y036349D01*
X035629Y036507D02*
X035931Y036507D01*
X035931Y036666D02*
X035563Y036666D01*
X035517Y036777D02*
X035517Y036777D01*
X035470Y036824D02*
X035931Y036824D01*
X035931Y036983D02*
X035311Y036983D01*
X035278Y037016D02*
X035278Y037016D01*
X034975Y037141D02*
X035931Y037141D01*
X035931Y037300D02*
X005451Y037300D01*
X006753Y035445D02*
X006753Y035445D01*
X010751Y031592D02*
X027316Y031592D01*
X027198Y031434D02*
X010728Y031434D01*
X007871Y029373D02*
X018111Y029373D01*
X018269Y029214D02*
X007863Y029214D01*
X007753Y029056D02*
X018428Y029056D01*
X019079Y026529D02*
X018873Y026444D01*
X018716Y026286D01*
X018631Y026080D01*
X018631Y025297D01*
X018716Y025092D01*
X015683Y025092D01*
X015842Y024934D02*
X018874Y024934D01*
X018873Y024934D02*
X019079Y024849D01*
X019302Y024849D01*
X019508Y024934D01*
X019665Y025092D01*
X019666Y025092D02*
X019716Y025092D01*
X019873Y024934D01*
X020079Y024849D01*
X020302Y024849D01*
X020508Y024934D01*
X020665Y025092D01*
X020666Y025092D02*
X020716Y025092D01*
X020873Y024934D01*
X021079Y024849D01*
X021302Y024849D01*
X021508Y024934D01*
X021665Y025092D01*
X021666Y025092D02*
X021716Y025092D01*
X021873Y024934D01*
X022079Y024849D01*
X022302Y024849D01*
X022508Y024934D01*
X022665Y025092D01*
X022666Y025092D02*
X022716Y025092D01*
X022873Y024934D01*
X023079Y024849D01*
X023302Y024849D01*
X023508Y024934D01*
X023665Y025092D01*
X023666Y025092D02*
X023716Y025092D01*
X023873Y024934D01*
X024079Y024849D01*
X024302Y024849D01*
X024508Y024934D01*
X024665Y025092D01*
X024666Y025092D02*
X024716Y025092D01*
X024873Y024934D01*
X025079Y024849D01*
X025302Y024849D01*
X025508Y024934D01*
X025665Y025092D01*
X025666Y025092D02*
X025857Y025092D01*
X025840Y025109D02*
X025891Y025058D01*
X025949Y025015D01*
X026014Y024983D01*
X026083Y024960D01*
X026154Y024949D01*
X026190Y024949D01*
X026190Y025688D01*
X026191Y025688D01*
X026191Y024949D01*
X026227Y024949D01*
X026298Y024960D01*
X026367Y024983D01*
X026432Y025015D01*
X026490Y025058D01*
X026541Y025109D01*
X026584Y025168D01*
X026617Y025232D01*
X026639Y025301D01*
X026651Y025373D01*
X026651Y025689D01*
X026651Y026005D01*
X026639Y026077D01*
X026617Y026145D01*
X026584Y026210D01*
X026541Y026268D01*
X026490Y026320D01*
X026432Y026362D01*
X026367Y026395D01*
X026298Y026417D01*
X026227Y026429D01*
X026191Y026429D01*
X026191Y025689D01*
X026651Y025689D01*
X026191Y025689D01*
X026191Y025689D01*
X026190Y025689D01*
X026190Y026429D01*
X026154Y026429D01*
X026083Y026417D01*
X026014Y026395D01*
X025949Y026362D01*
X025891Y026320D01*
X025840Y026268D01*
X025797Y026210D01*
X025764Y026145D01*
X025746Y026090D01*
X025665Y026286D01*
X025508Y026444D01*
X025302Y026529D01*
X025079Y026529D01*
X024873Y026444D01*
X024716Y026286D01*
X024691Y026225D01*
X024665Y026286D01*
X024508Y026444D01*
X024302Y026529D01*
X024079Y026529D01*
X023873Y026444D01*
X023716Y026286D01*
X023691Y026225D01*
X023665Y026286D01*
X023508Y026444D01*
X023302Y026529D01*
X023079Y026529D01*
X022873Y026444D01*
X022716Y026286D01*
X022691Y026225D01*
X022665Y026286D01*
X022508Y026444D01*
X022302Y026529D01*
X022079Y026529D01*
X021873Y026444D01*
X021716Y026286D01*
X021691Y026225D01*
X021665Y026286D01*
X021508Y026444D01*
X021302Y026529D01*
X021079Y026529D01*
X020873Y026444D01*
X020716Y026286D01*
X020691Y026225D01*
X020665Y026286D01*
X020508Y026444D01*
X020302Y026529D01*
X020079Y026529D01*
X019873Y026444D01*
X019716Y026286D01*
X019691Y026225D01*
X019665Y026286D01*
X019508Y026444D01*
X019302Y026529D01*
X019079Y026529D01*
X019056Y026519D02*
X014256Y026519D01*
X014098Y026678D02*
X027911Y026678D01*
X027911Y026836D02*
X013939Y026836D01*
X013781Y026995D02*
X027911Y026995D01*
X027911Y027153D02*
X013622Y027153D01*
X013147Y026836D02*
X005451Y026836D01*
X005451Y026678D02*
X013306Y026678D01*
X013464Y026519D02*
X005451Y026519D01*
X005451Y026361D02*
X013623Y026361D01*
X013781Y026202D02*
X005451Y026202D01*
X005451Y026043D02*
X013940Y026043D01*
X014099Y025885D02*
X005451Y025885D01*
X005451Y025092D02*
X006511Y025092D01*
X006511Y024934D02*
X005451Y024934D01*
X005451Y024775D02*
X006511Y024775D01*
X006511Y024617D02*
X005451Y024617D01*
X005451Y024458D02*
X006511Y024458D01*
X006511Y024299D02*
X005451Y024299D01*
X005451Y024141D02*
X006549Y024141D01*
X005451Y026995D02*
X012989Y026995D01*
X012830Y027153D02*
X005451Y027153D01*
X007629Y027787D02*
X012196Y027787D01*
X014415Y026361D02*
X018790Y026361D01*
X018681Y026202D02*
X014573Y026202D01*
X014732Y026043D02*
X018631Y026043D01*
X018631Y025885D02*
X014890Y025885D01*
X015049Y025726D02*
X018631Y025726D01*
X018631Y025568D02*
X015207Y025568D01*
X015366Y025409D02*
X018631Y025409D01*
X018650Y025251D02*
X015525Y025251D01*
X016000Y024775D02*
X027911Y024775D01*
X027911Y024617D02*
X016159Y024617D01*
X016317Y024458D02*
X027911Y024458D01*
X027911Y024299D02*
X016476Y024299D01*
X016634Y024141D02*
X027911Y024141D01*
X027911Y023982D02*
X016793Y023982D01*
X016951Y023824D02*
X027911Y023824D01*
X027911Y023665D02*
X017110Y023665D01*
X017269Y023507D02*
X027911Y023507D01*
X027911Y024934D02*
X025507Y024934D01*
X025665Y025092D02*
X025746Y025287D01*
X025764Y025232D01*
X025797Y025168D01*
X025840Y025109D01*
X025758Y025251D02*
X025731Y025251D01*
X026190Y025251D02*
X026191Y025251D01*
X026190Y025409D02*
X026191Y025409D01*
X026190Y025568D02*
X026191Y025568D01*
X026190Y025726D02*
X026191Y025726D01*
X026190Y025885D02*
X026191Y025885D01*
X026190Y026043D02*
X026191Y026043D01*
X026190Y026202D02*
X026191Y026202D01*
X026190Y026361D02*
X026191Y026361D01*
X026434Y026361D02*
X027911Y026361D01*
X027911Y026519D02*
X025325Y026519D01*
X025056Y026519D02*
X024325Y026519D01*
X024056Y026519D02*
X023325Y026519D01*
X023056Y026519D02*
X022325Y026519D01*
X022056Y026519D02*
X021325Y026519D01*
X021056Y026519D02*
X020325Y026519D01*
X020056Y026519D02*
X019325Y026519D01*
X019591Y026361D02*
X019790Y026361D01*
X020591Y026361D02*
X020790Y026361D01*
X021591Y026361D02*
X021790Y026361D01*
X022591Y026361D02*
X022790Y026361D01*
X023591Y026361D02*
X023790Y026361D01*
X024591Y026361D02*
X024790Y026361D01*
X025591Y026361D02*
X025947Y026361D01*
X025793Y026202D02*
X025700Y026202D01*
X026588Y026202D02*
X027911Y026202D01*
X027911Y026043D02*
X026644Y026043D01*
X026651Y025885D02*
X027911Y025885D01*
X027911Y025726D02*
X026651Y025726D01*
X026651Y025568D02*
X027911Y025568D01*
X027911Y025409D02*
X026651Y025409D01*
X026623Y025251D02*
X027911Y025251D01*
X027911Y025092D02*
X026524Y025092D01*
X026191Y025092D02*
X026190Y025092D01*
X024874Y024934D02*
X024507Y024934D01*
X024665Y025092D02*
X024691Y025153D01*
X024716Y025092D01*
X023874Y024934D02*
X023507Y024934D01*
X023665Y025092D02*
X023691Y025153D01*
X023716Y025092D01*
X022874Y024934D02*
X022507Y024934D01*
X022665Y025092D02*
X022691Y025153D01*
X022716Y025092D01*
X021874Y024934D02*
X021507Y024934D01*
X021665Y025092D02*
X021691Y025153D01*
X021716Y025092D01*
X020874Y024934D02*
X020507Y024934D01*
X020665Y025092D02*
X020691Y025153D01*
X020716Y025092D01*
X019874Y024934D02*
X019507Y024934D01*
X019665Y025092D02*
X019691Y025153D01*
X019716Y025092D01*
X018873Y024934D02*
X018716Y025092D01*
X023291Y019385D02*
X011313Y019385D01*
X011341Y019226D02*
X023173Y019226D01*
X023113Y019068D02*
X011341Y019068D01*
X011278Y018909D02*
X023015Y018909D01*
X022856Y018750D02*
X011171Y018750D01*
X011207Y018592D02*
X022698Y018592D01*
X022539Y018433D02*
X011293Y018433D01*
X011341Y018275D02*
X022381Y018275D01*
X022222Y018116D02*
X011341Y018116D01*
X011298Y017958D02*
X022064Y017958D01*
X021905Y017799D02*
X011220Y017799D01*
X011062Y017641D02*
X021746Y017641D01*
X021746Y016848D02*
X023500Y016848D01*
X023304Y016689D02*
X021587Y016689D01*
X021428Y016531D02*
X023228Y016531D01*
X023213Y016372D02*
X023225Y016298D01*
X023248Y016226D01*
X024077Y016689D02*
X029271Y016689D01*
X029259Y016531D02*
X024153Y016531D01*
X028525Y018750D02*
X029348Y018750D01*
X029174Y018592D02*
X028683Y018592D01*
X028842Y018433D02*
X029088Y018433D01*
X029041Y018275D02*
X029000Y018275D01*
X029818Y019539D02*
X030817Y018940D01*
X030849Y018926D01*
X030864Y018911D01*
X030882Y018900D01*
X030903Y018872D01*
X030928Y018847D01*
X030936Y018828D01*
X030949Y018811D01*
X030957Y018777D01*
X030971Y018744D01*
X030971Y018723D01*
X030976Y018703D01*
X030971Y018668D01*
X030971Y012633D01*
X030928Y012530D01*
X030849Y012451D01*
X030366Y011969D01*
X031151Y011969D01*
X031151Y012098D01*
X031249Y012337D01*
X031432Y012520D01*
X031671Y012619D01*
X031930Y012619D01*
X032169Y012520D01*
X032352Y012337D01*
X032451Y012098D01*
X032451Y011839D01*
X032352Y011601D01*
X032169Y011418D01*
X031930Y011319D01*
X032208Y011457D02*
X033173Y011457D01*
X033023Y011616D02*
X032358Y011616D01*
X032424Y011775D02*
X032957Y011775D01*
X032931Y011933D02*
X032451Y011933D01*
X032451Y012092D02*
X032931Y012092D01*
X032994Y012250D02*
X032388Y012250D01*
X032280Y012409D02*
X033101Y012409D01*
X033327Y012567D02*
X032054Y012567D01*
X031547Y012567D02*
X030943Y012567D01*
X030971Y012726D02*
X033411Y012726D01*
X033411Y012884D02*
X030971Y012884D01*
X030971Y013043D02*
X033411Y013043D01*
X033411Y013201D02*
X030971Y013201D01*
X030971Y013360D02*
X033411Y013360D01*
X033411Y013519D02*
X030971Y013519D01*
X030971Y013677D02*
X033411Y013677D01*
X033411Y013836D02*
X030971Y013836D01*
X030971Y013994D02*
X033411Y013994D01*
X033411Y014153D02*
X030971Y014153D01*
X030971Y014311D02*
X033411Y014311D01*
X033411Y014470D02*
X030971Y014470D01*
X030971Y014628D02*
X033411Y014628D01*
X033411Y014787D02*
X030971Y014787D01*
X030971Y014945D02*
X033411Y014945D01*
X033411Y015104D02*
X030971Y015104D01*
X030971Y015262D02*
X033411Y015262D01*
X033411Y015421D02*
X030971Y015421D01*
X030971Y015580D02*
X033411Y015580D01*
X033411Y015738D02*
X030971Y015738D01*
X030971Y015897D02*
X033411Y015897D01*
X033411Y016055D02*
X030971Y016055D01*
X030971Y016214D02*
X033411Y016214D01*
X033411Y016372D02*
X030971Y016372D01*
X030971Y016531D02*
X033411Y016531D01*
X033411Y016689D02*
X030971Y016689D01*
X030971Y016848D02*
X033411Y016848D01*
X033411Y017006D02*
X030971Y017006D01*
X030971Y017165D02*
X033411Y017165D01*
X033411Y017324D02*
X030971Y017324D01*
X030971Y017482D02*
X033411Y017482D01*
X033411Y017641D02*
X030971Y017641D01*
X030971Y017799D02*
X033411Y017799D01*
X033411Y017958D02*
X030971Y017958D01*
X030971Y018116D02*
X033411Y018116D01*
X033411Y018275D02*
X030971Y018275D01*
X030971Y018433D02*
X033411Y018433D01*
X033411Y018592D02*
X030971Y018592D01*
X030968Y018750D02*
X033411Y018750D01*
X033411Y018909D02*
X030868Y018909D01*
X030604Y019068D02*
X033411Y019068D01*
X033411Y019226D02*
X030339Y019226D01*
X030075Y019385D02*
X033411Y019385D01*
X033411Y019543D02*
X029830Y019543D01*
X030123Y019702D02*
X033411Y019702D01*
X033411Y019860D02*
X030258Y019860D01*
X030324Y020019D02*
X033411Y020019D01*
X033306Y020177D02*
X030341Y020177D01*
X030333Y020336D02*
X033148Y020336D01*
X032989Y020494D02*
X030268Y020494D01*
X030146Y020653D02*
X032830Y020653D01*
X032672Y020811D02*
X030232Y020811D01*
X030303Y020970D02*
X032513Y020970D01*
X032355Y021129D02*
X030341Y021129D01*
X030341Y021287D02*
X032196Y021287D01*
X032038Y021446D02*
X030288Y021446D01*
X030194Y021604D02*
X031879Y021604D01*
X031721Y021763D02*
X030184Y021763D01*
X030283Y021921D02*
X031562Y021921D01*
X031404Y022080D02*
X030341Y022080D01*
X030341Y022238D02*
X031245Y022238D01*
X031086Y022397D02*
X030308Y022397D01*
X030242Y022555D02*
X030928Y022555D01*
X030769Y022714D02*
X030135Y022714D01*
X030263Y022873D02*
X030611Y022873D01*
X030452Y023031D02*
X030329Y023031D01*
X032060Y029373D02*
X032566Y029373D01*
X032729Y029531D02*
X032282Y029531D01*
X031395Y030483D02*
X029380Y030483D01*
X029539Y030641D02*
X030319Y030641D01*
X030160Y030800D02*
X029697Y030800D01*
X029856Y030958D02*
X030082Y030958D01*
X030041Y031117D02*
X030014Y031117D01*
X029222Y030324D02*
X031244Y030324D01*
X031179Y030166D02*
X029063Y030166D01*
X028905Y030007D02*
X031151Y030007D01*
X033840Y029373D02*
X035931Y029373D01*
X035931Y029531D02*
X034062Y029531D01*
X034169Y029690D02*
X035931Y029690D01*
X035931Y029848D02*
X034231Y029848D01*
X034231Y030007D02*
X035931Y030007D01*
X035931Y030166D02*
X034203Y030166D01*
X034137Y030324D02*
X035931Y030324D01*
X035931Y032702D02*
X032996Y032702D01*
X033154Y032861D02*
X035931Y032861D01*
X035931Y033019D02*
X033251Y033019D01*
X033251Y033178D02*
X035931Y033178D01*
X035931Y033336D02*
X033251Y033336D01*
X033176Y033495D02*
X035931Y033495D01*
X035931Y033654D02*
X033018Y033654D01*
X033106Y033812D02*
X035931Y033812D01*
X035931Y033971D02*
X033251Y033971D01*
X033251Y034129D02*
X035931Y034129D01*
X035931Y034288D02*
X033251Y034288D01*
X033225Y034446D02*
X035931Y034446D01*
X035278Y035575D02*
X035278Y035575D01*
X034847Y037145D02*
X034847Y037145D01*
X034747Y037145D02*
X034747Y037145D01*
X027699Y031592D02*
X027682Y031592D01*
X027682Y031434D02*
X027699Y031434D01*
X027682Y031275D02*
X027699Y031275D01*
X027682Y031117D02*
X027699Y031117D01*
X027682Y030958D02*
X027699Y030958D01*
X027682Y030800D02*
X027699Y030800D01*
X025402Y034129D02*
X024979Y034129D01*
X025138Y034288D02*
X025243Y034288D01*
X024402Y034129D02*
X023979Y034129D01*
X024138Y034288D02*
X024243Y034288D01*
X023402Y034129D02*
X022979Y034129D01*
X023138Y034288D02*
X023243Y034288D01*
X022402Y034129D02*
X021979Y034129D01*
X022138Y034288D02*
X022243Y034288D01*
X021402Y034129D02*
X020979Y034129D01*
X021138Y034288D02*
X021243Y034288D01*
X020402Y034129D02*
X019979Y034129D01*
X020138Y034288D02*
X020243Y034288D01*
X020343Y036190D02*
X020038Y036190D01*
X021038Y036190D02*
X021343Y036190D01*
X022038Y036190D02*
X022343Y036190D01*
X023038Y036190D02*
X024343Y036190D01*
X024185Y036032D02*
X024055Y036032D01*
X023711Y036032D02*
X023670Y036032D01*
X023670Y035873D02*
X023711Y035873D01*
X023711Y035715D02*
X023670Y035715D01*
X023326Y036032D02*
X023196Y036032D01*
X030806Y012409D02*
X031321Y012409D01*
X031214Y012250D02*
X030648Y012250D01*
X030489Y012092D02*
X031151Y012092D01*
X024417Y004323D02*
X023752Y004323D01*
X024028Y004164D02*
X024141Y004164D01*
X023417Y004323D02*
X022752Y004323D01*
X023028Y004164D02*
X023141Y004164D01*
X022417Y004323D02*
X021752Y004323D01*
X022028Y004164D02*
X022141Y004164D01*
X021417Y004323D02*
X020752Y004323D01*
X021028Y004164D02*
X021141Y004164D01*
D11*
X021584Y003689D03*
X020584Y003689D03*
X022584Y003689D03*
X023584Y003689D03*
X024584Y003689D03*
X020691Y006189D03*
X017691Y006189D03*
X010691Y009689D03*
X010691Y010689D03*
X010691Y011689D03*
X010691Y012689D03*
X010691Y013689D03*
X010691Y014689D03*
X010691Y015689D03*
X010691Y016689D03*
X010691Y018189D03*
X010691Y019189D03*
X010691Y020189D03*
X010691Y021189D03*
X010691Y022189D03*
X010691Y023189D03*
X010691Y024189D03*
X010691Y025189D03*
X026691Y009689D03*
X029691Y009689D03*
X031801Y009409D03*
X033581Y009409D03*
X033581Y011969D03*
X031801Y011969D03*
X029691Y013189D03*
X029691Y014189D03*
X029691Y015189D03*
X029691Y016189D03*
X029691Y017189D03*
X029691Y018189D03*
X029691Y020189D03*
X029691Y021189D03*
X029691Y022189D03*
X029691Y023189D03*
X029691Y024189D03*
X029691Y025189D03*
X031801Y027409D03*
X033581Y027409D03*
X033581Y029969D03*
X031801Y029969D03*
X030691Y031189D03*
X027691Y031189D03*
D12*
X007191Y029689D03*
X007191Y024689D03*
X007191Y008689D03*
D13*
X007191Y007311D03*
X007191Y023311D03*
X007191Y028311D03*
D14*
X010191Y031689D03*
X009191Y032689D03*
X010191Y033689D03*
X032691Y034189D03*
X032691Y033189D03*
X032691Y006189D03*
X032691Y005189D03*
D15*
X023691Y016409D03*
X023691Y018968D03*
D16*
X024191Y025409D02*
X024191Y025969D01*
X025191Y025969D02*
X025191Y025409D01*
X026191Y025409D02*
X026191Y025969D01*
X026191Y028409D02*
X026191Y028969D01*
X025191Y028969D02*
X025191Y028409D01*
X024191Y028409D02*
X024191Y028969D01*
X023191Y028969D02*
X023191Y028409D01*
X022191Y028409D02*
X022191Y028969D01*
X021191Y028969D02*
X021191Y028409D01*
X020191Y028409D02*
X020191Y028969D01*
X019191Y028969D02*
X019191Y028409D01*
X019191Y025969D02*
X019191Y025409D01*
X020191Y025409D02*
X020191Y025969D01*
X021191Y025969D02*
X021191Y025409D01*
X022191Y025409D02*
X022191Y025969D01*
X023191Y025969D02*
X023191Y025409D01*
D17*
X023691Y034689D03*
X022691Y034689D03*
X021691Y034689D03*
X021691Y035689D03*
X022691Y035689D03*
X023691Y035689D03*
X024691Y035689D03*
X025691Y035689D03*
X025691Y034689D03*
X024691Y034689D03*
X020691Y034689D03*
X019691Y034689D03*
X019691Y035689D03*
X020691Y035689D03*
D18*
X005984Y036295D02*
X005986Y036344D01*
X005992Y036392D01*
X006002Y036440D01*
X006016Y036487D01*
X006033Y036533D01*
X006054Y036577D01*
X006079Y036619D01*
X006107Y036659D01*
X006139Y036697D01*
X006173Y036732D01*
X006210Y036764D01*
X006249Y036793D01*
X006291Y036819D01*
X006335Y036841D01*
X006380Y036859D01*
X006427Y036874D01*
X006474Y036885D01*
X006523Y036892D01*
X006572Y036895D01*
X006621Y036894D01*
X006669Y036889D01*
X006718Y036880D01*
X006765Y036867D01*
X006811Y036850D01*
X006855Y036830D01*
X006898Y036806D01*
X006939Y036779D01*
X006977Y036748D01*
X007013Y036715D01*
X007045Y036679D01*
X007075Y036640D01*
X007102Y036599D01*
X007125Y036555D01*
X007144Y036510D01*
X007160Y036464D01*
X007172Y036417D01*
X007180Y036368D01*
X007184Y036319D01*
X007184Y036271D01*
X007180Y036222D01*
X007172Y036173D01*
X007160Y036126D01*
X007144Y036080D01*
X007125Y036035D01*
X007102Y035991D01*
X007075Y035950D01*
X007045Y035911D01*
X007013Y035875D01*
X006977Y035842D01*
X006939Y035811D01*
X006898Y035784D01*
X006855Y035760D01*
X006811Y035740D01*
X006765Y035723D01*
X006718Y035710D01*
X006669Y035701D01*
X006621Y035696D01*
X006572Y035695D01*
X006523Y035698D01*
X006474Y035705D01*
X006427Y035716D01*
X006380Y035731D01*
X006335Y035749D01*
X006291Y035771D01*
X006249Y035797D01*
X006210Y035826D01*
X006173Y035858D01*
X006139Y035893D01*
X006107Y035931D01*
X006079Y035971D01*
X006054Y036013D01*
X006033Y036057D01*
X006016Y036103D01*
X006002Y036150D01*
X005992Y036198D01*
X005986Y036246D01*
X005984Y036295D01*
X034197Y036295D02*
X034199Y036344D01*
X034205Y036392D01*
X034215Y036440D01*
X034229Y036487D01*
X034246Y036533D01*
X034267Y036577D01*
X034292Y036619D01*
X034320Y036659D01*
X034352Y036697D01*
X034386Y036732D01*
X034423Y036764D01*
X034462Y036793D01*
X034504Y036819D01*
X034548Y036841D01*
X034593Y036859D01*
X034640Y036874D01*
X034687Y036885D01*
X034736Y036892D01*
X034785Y036895D01*
X034834Y036894D01*
X034882Y036889D01*
X034931Y036880D01*
X034978Y036867D01*
X035024Y036850D01*
X035068Y036830D01*
X035111Y036806D01*
X035152Y036779D01*
X035190Y036748D01*
X035226Y036715D01*
X035258Y036679D01*
X035288Y036640D01*
X035315Y036599D01*
X035338Y036555D01*
X035357Y036510D01*
X035373Y036464D01*
X035385Y036417D01*
X035393Y036368D01*
X035397Y036319D01*
X035397Y036271D01*
X035393Y036222D01*
X035385Y036173D01*
X035373Y036126D01*
X035357Y036080D01*
X035338Y036035D01*
X035315Y035991D01*
X035288Y035950D01*
X035258Y035911D01*
X035226Y035875D01*
X035190Y035842D01*
X035152Y035811D01*
X035111Y035784D01*
X035068Y035760D01*
X035024Y035740D01*
X034978Y035723D01*
X034931Y035710D01*
X034882Y035701D01*
X034834Y035696D01*
X034785Y035695D01*
X034736Y035698D01*
X034687Y035705D01*
X034640Y035716D01*
X034593Y035731D01*
X034548Y035749D01*
X034504Y035771D01*
X034462Y035797D01*
X034423Y035826D01*
X034386Y035858D01*
X034352Y035893D01*
X034320Y035931D01*
X034292Y035971D01*
X034267Y036013D01*
X034246Y036057D01*
X034229Y036103D01*
X034215Y036150D01*
X034205Y036198D01*
X034199Y036246D01*
X034197Y036295D01*
X034197Y004083D02*
X034199Y004132D01*
X034205Y004180D01*
X034215Y004228D01*
X034229Y004275D01*
X034246Y004321D01*
X034267Y004365D01*
X034292Y004407D01*
X034320Y004447D01*
X034352Y004485D01*
X034386Y004520D01*
X034423Y004552D01*
X034462Y004581D01*
X034504Y004607D01*
X034548Y004629D01*
X034593Y004647D01*
X034640Y004662D01*
X034687Y004673D01*
X034736Y004680D01*
X034785Y004683D01*
X034834Y004682D01*
X034882Y004677D01*
X034931Y004668D01*
X034978Y004655D01*
X035024Y004638D01*
X035068Y004618D01*
X035111Y004594D01*
X035152Y004567D01*
X035190Y004536D01*
X035226Y004503D01*
X035258Y004467D01*
X035288Y004428D01*
X035315Y004387D01*
X035338Y004343D01*
X035357Y004298D01*
X035373Y004252D01*
X035385Y004205D01*
X035393Y004156D01*
X035397Y004107D01*
X035397Y004059D01*
X035393Y004010D01*
X035385Y003961D01*
X035373Y003914D01*
X035357Y003868D01*
X035338Y003823D01*
X035315Y003779D01*
X035288Y003738D01*
X035258Y003699D01*
X035226Y003663D01*
X035190Y003630D01*
X035152Y003599D01*
X035111Y003572D01*
X035068Y003548D01*
X035024Y003528D01*
X034978Y003511D01*
X034931Y003498D01*
X034882Y003489D01*
X034834Y003484D01*
X034785Y003483D01*
X034736Y003486D01*
X034687Y003493D01*
X034640Y003504D01*
X034593Y003519D01*
X034548Y003537D01*
X034504Y003559D01*
X034462Y003585D01*
X034423Y003614D01*
X034386Y003646D01*
X034352Y003681D01*
X034320Y003719D01*
X034292Y003759D01*
X034267Y003801D01*
X034246Y003845D01*
X034229Y003891D01*
X034215Y003938D01*
X034205Y003986D01*
X034199Y004034D01*
X034197Y004083D01*
X005984Y004083D02*
X005986Y004132D01*
X005992Y004180D01*
X006002Y004228D01*
X006016Y004275D01*
X006033Y004321D01*
X006054Y004365D01*
X006079Y004407D01*
X006107Y004447D01*
X006139Y004485D01*
X006173Y004520D01*
X006210Y004552D01*
X006249Y004581D01*
X006291Y004607D01*
X006335Y004629D01*
X006380Y004647D01*
X006427Y004662D01*
X006474Y004673D01*
X006523Y004680D01*
X006572Y004683D01*
X006621Y004682D01*
X006669Y004677D01*
X006718Y004668D01*
X006765Y004655D01*
X006811Y004638D01*
X006855Y004618D01*
X006898Y004594D01*
X006939Y004567D01*
X006977Y004536D01*
X007013Y004503D01*
X007045Y004467D01*
X007075Y004428D01*
X007102Y004387D01*
X007125Y004343D01*
X007144Y004298D01*
X007160Y004252D01*
X007172Y004205D01*
X007180Y004156D01*
X007184Y004107D01*
X007184Y004059D01*
X007180Y004010D01*
X007172Y003961D01*
X007160Y003914D01*
X007144Y003868D01*
X007125Y003823D01*
X007102Y003779D01*
X007075Y003738D01*
X007045Y003699D01*
X007013Y003663D01*
X006977Y003630D01*
X006939Y003599D01*
X006898Y003572D01*
X006855Y003548D01*
X006811Y003528D01*
X006765Y003511D01*
X006718Y003498D01*
X006669Y003489D01*
X006621Y003484D01*
X006572Y003483D01*
X006523Y003486D01*
X006474Y003493D01*
X006427Y003504D01*
X006380Y003519D01*
X006335Y003537D01*
X006291Y003559D01*
X006249Y003585D01*
X006210Y003614D01*
X006173Y003646D01*
X006139Y003681D01*
X006107Y003719D01*
X006079Y003759D01*
X006054Y003801D01*
X006033Y003845D01*
X006016Y003891D01*
X006002Y003938D01*
X005992Y003986D01*
X005986Y004034D01*
X005984Y004083D01*
D19*
X010691Y010689D02*
X011691Y011689D01*
X031691Y011689D01*
X031801Y011969D01*
X030691Y012689D02*
X030691Y018689D01*
X028191Y020189D01*
X028191Y029689D01*
X032691Y034189D01*
X033581Y029969D02*
X029691Y026189D01*
X029691Y025189D01*
X029691Y024189D02*
X033691Y020189D01*
X033691Y012189D01*
X033581Y011969D01*
X030691Y012689D02*
X030191Y012189D01*
X023691Y012189D01*
X016691Y015689D01*
X010691Y015689D01*
X010691Y016689D02*
X021191Y016689D01*
X023691Y019189D01*
X023691Y018968D01*
X023691Y023189D02*
X029691Y017189D01*
X023691Y023189D02*
X017191Y023189D01*
X012191Y028189D01*
X007691Y028189D01*
X007191Y028311D01*
X007191Y029689D02*
X018191Y029689D01*
X019191Y028689D01*
X020191Y027689D01*
X024191Y027689D01*
X025191Y028689D01*
X027691Y027189D02*
X027691Y031189D01*
X027691Y027189D02*
X026191Y025689D01*
X024191Y035189D02*
X024691Y035689D01*
X024191Y035189D02*
X013691Y035189D01*
X010191Y031689D01*
X009191Y032689D02*
X009191Y035689D01*
X010191Y036689D01*
X022691Y036689D01*
X023691Y035689D01*
X022691Y036689D02*
X024691Y036689D01*
X025691Y035689D01*
X010691Y023189D02*
X009191Y024689D01*
X007191Y024689D01*
X007191Y023311D02*
X007191Y023189D01*
X009691Y023189D01*
X010691Y022189D01*
D20*
X007191Y008689D02*
X024691Y008689D01*
X026691Y006689D01*
X031191Y006689D01*
X032691Y005189D01*
M02*
