%
M48
M72
T01C0.0320
T02C0.0354
T03C0.0400
T04C0.0472
T05C0.1200
%
T01
X19191Y25689
X20191Y25689
X21191Y25689
X22191Y25689
X23191Y25689
X24191Y25689
X25191Y25689
X26191Y25689
X26191Y28689
X25191Y28689
X24191Y28689
X23191Y28689
X22191Y28689
X21191Y28689
X20191Y28689
X19191Y28689
X10191Y31689
X9191Y32689
X10191Y33689
X32691Y34189
X32691Y33189
X32691Y6189
X32691Y5189
T02
X17691Y6189
X20691Y6189
X26691Y9689
X29691Y9689
X23691Y16409
X23691Y18968
X27691Y31189
X30691Y31189
T03
X10691Y9689
X10691Y10689
X10691Y11689
X10691Y12689
X10691Y13689
X10691Y14689
X10691Y15689
X10691Y16689
X10691Y18189
X10691Y19189
X10691Y20189
X10691Y21189
X10691Y22189
X10691Y23189
X10691Y24189
X10691Y25189
X19691Y34689
X20691Y34689
X21691Y34689
X22691Y34689
X23691Y34689
X24691Y34689
X25691Y34689
X25691Y35689
X24691Y35689
X23691Y35689
X22691Y35689
X21691Y35689
X20691Y35689
X19691Y35689
X29691Y25189
X29691Y24189
X29691Y23189
X29691Y22189
X29691Y21189
X29691Y20189
X29691Y18189
X29691Y17189
X29691Y16189
X29691Y15189
X29691Y14189
X29691Y13189
X31801Y11969
X33581Y11969
X33581Y9409
X31801Y9409
X24584Y3689
X23584Y3689
X22584Y3689
X21584Y3689
X20584Y3689
X31801Y27409
X33581Y27409
X33581Y29969
X31801Y29969
T04
X7191Y7311
X7191Y8689
X7191Y23311
X7191Y24689
X7191Y28311
X7191Y29689
T05
X6584Y4083
X34797Y4083
X34797Y36295
X6584Y36295
M30
